<svg id="calendar" xmlns="http://www.w3.org/2000/svg" width="18" height="18" viewBox="0 0 18 18">
  <g id="Group_23344" data-name="Group 23344">
    <g id="Group_23343" data-name="Group 23343">
      <path id="Path_6164" data-name="Path 6164" d="M279,280.059a1.408,1.408,0,0,0,1.406,1.406h1.652a1.408,1.408,0,0,0,1.406-1.406v-1.652A1.408,1.408,0,0,0,282.059,277h-1.652A1.408,1.408,0,0,0,279,278.406Zm1.406-1.652h1.652v1.652h-1.653Z" transform="translate(-269.191 -267.262)" fill="#1c1f2a"/>
      <circle id="Ellipse_201" data-name="Ellipse 201" cx="0.703" cy="0.703" r="0.703" transform="translate(12.867 6.68)" fill="#1c1f2a"/>
      <circle id="Ellipse_202" data-name="Ellipse 202" cx="0.703" cy="0.703" r="0.703" transform="translate(9.809 6.68)" fill="#1c1f2a"/>
      <path id="Path_6165" data-name="Path 6165" d="M17.3,15.914a.7.7,0,0,0,.7-.7V4.219a2.816,2.816,0,0,0-2.812-2.812h-.914V.7a.7.7,0,0,0-1.406,0v.7h-3.2V.7A.7.7,0,0,0,8.262.7v.7H5.1V.7A.7.7,0,0,0,3.691.7v.7H2.813A2.816,2.816,0,0,0,0,4.219V15.188A2.816,2.816,0,0,0,2.813,18H15.188A2.816,2.816,0,0,0,18,15.188a.7.7,0,0,0-1.406,0,1.408,1.408,0,0,1-1.406,1.406H2.813a1.408,1.408,0,0,1-1.406-1.406V4.219A1.408,1.408,0,0,1,2.813,2.813h.879v.7a.7.7,0,0,0,1.406,0v-.7H8.262v.7a.7.7,0,0,0,1.406,0v-.7h3.2v.7a.7.7,0,0,0,1.406,0v-.7h.914a1.408,1.408,0,0,1,1.406,1.406V15.211A.7.7,0,0,0,17.3,15.914Z" fill="#1c1f2a"/>
      <circle id="Ellipse_203" data-name="Ellipse 203" cx="0.703" cy="0.703" r="0.703" transform="translate(3.691 12.797)" fill="#1c1f2a"/>
      <circle id="Ellipse_204" data-name="Ellipse 204" cx="0.703" cy="0.703" r="0.703" transform="translate(3.691 6.68)" fill="#1c1f2a"/>
      <circle id="Ellipse_205" data-name="Ellipse 205" cx="0.703" cy="0.703" r="0.703" transform="translate(3.691 9.738)" fill="#1c1f2a"/>
      <circle id="Ellipse_206" data-name="Ellipse 206" cx="0.703" cy="0.703" r="0.703" transform="translate(6.75 9.738)" fill="#1c1f2a"/>
      <circle id="Ellipse_207" data-name="Ellipse 207" cx="0.703" cy="0.703" r="0.703" transform="translate(6.75 6.68)" fill="#1c1f2a"/>
      <circle id="Ellipse_208" data-name="Ellipse 208" cx="0.703" cy="0.703" r="0.703" transform="translate(6.75 12.797)" fill="#1c1f2a"/>
    </g>
  </g>
</svg>
