<svg xmlns="http://www.w3.org/2000/svg" width="24" height="22.184" viewBox="0 0 24 22.184">
  <g id="uploadIcon" transform="translate(74 212.6)">
    <g id="Group_23401" data-name="Group 23401" transform="translate(-74 -231)">
      <path id="Path_6202" data-name="Path 6202" d="M19.519,24.194a6.952,6.952,0,0,0-12.881-2.31,3.982,3.982,0,0,0-.73-.069A3.81,3.81,0,0,0,2.1,25.62a4.159,4.159,0,0,0,.079.79A5.3,5.3,0,0,0,0,30.679a5.661,5.661,0,0,0,1.436,3.746A5.126,5.126,0,0,0,4.99,36.211H9.273a.666.666,0,1,0,0-1.333H5.049a4.2,4.2,0,0,1-3.716-4.2,3.956,3.956,0,0,1,1.959-3.405.672.672,0,0,0,.291-.809,2.418,2.418,0,0,1-.148-.849,2.477,2.477,0,0,1,2.473-2.473,2.43,2.43,0,0,1,.844.148.669.669,0,0,0,.834-.341A5.619,5.619,0,0,1,18.26,24.8a.665.665,0,0,0,.553.592,4.8,4.8,0,0,1-.454,9.486H14.722a.666.666,0,1,0,0,1.333h3.711a5.9,5.9,0,0,0,3.958-1.954,6.142,6.142,0,0,0-2.872-10.058Z" transform="translate(0)" fill="#1c1f2a"/>
      <path id="Path_6203" data-name="Path 6203" d="M166.416,190.069a.664.664,0,0,0,0-.943l-3.529-3.529a.674.674,0,0,0-.469-.2.654.654,0,0,0-.469.2l-3.529,3.529a.669.669,0,0,0,.469,1.14.65.65,0,0,0,.469-.2l2.394-2.394v11a.666.666,0,0,0,1.333,0v-11l2.394,2.394A.658.658,0,0,0,166.416,190.069Z" transform="translate(-150.416 -158.758)" fill="#1c1f2a"/>
    </g>
  </g>
</svg>
