<svg xmlns="http://www.w3.org/2000/svg" width="88.369" height="100.787" viewBox="0 0 88.369 100.787">
  <g id="app-2" transform="translate(-907.128 -1127.207)">
    <path id="Path_50591" data-name="Path 50591" d="M296.707,57.055a7.34,7.34,0,0,0-6.627,7.664l.293,12a9.215,9.215,0,0,0-7.406,5.2l-4.386,9.209a10.549,10.549,0,0,1-2.91,3.676l-.912.731a18.515,18.515,0,0,0-6.948,15.32l-1.792-.853a1.629,1.629,0,0,0-2.172.77l-4.809,10.1a1.629,1.629,0,0,0,.77,2.172L281.97,133.6a1.627,1.627,0,0,0,2.171-.77l4.809-10.1a1.629,1.629,0,0,0-.77-2.171l-.946-.45L287,116.951a4.771,4.771,0,0,1,1.084-3.409l11.475-13.886q.035-.042.067-.086a19.04,19.04,0,0,0,3.56-11.337,1.716,1.716,0,0,0-.021-.231l-4.688-29.581a1.63,1.63,0,0,0-1.767-1.367Zm-14.807,72.9L262.682,120.8l3.408-7.156,19.217,9.152Zm15.11-32.334-11.439,13.843a8.015,8.015,0,0,0-1.822,5.727l.1,1.3-12.6-6A15.278,15.278,0,0,1,276.8,98.082l.912-.731a13.83,13.83,0,0,0,3.814-4.816l4.385-9.209a5.967,5.967,0,0,1,6.368-3.311l-6.411,13.461a1.629,1.629,0,0,0,2.942,1.4l7.208-15.137a1.629,1.629,0,0,0-.771-2.172,9.3,9.3,0,0,0-1.607-.588l-.3-12.361a.367.367,0,0,0,0-.042,4.087,4.087,0,0,1,2.207-3.844l4.385,27.66a15.763,15.763,0,0,1-2.917,9.229Zm0,0" transform="matrix(0.438, 0.899, -0.899, 0.438, 913.863, 896.857)" fill="#bd9a5f"/>
    <path id="Path_50594" data-name="Path 50594" d="M41.554,12.75c-.025-1.337-.05-2.6-.05-3.822a1.733,1.733,0,0,0-1.733-1.733c-7.412,0-13.056-2.13-17.76-6.7a1.733,1.733,0,0,0-2.417,0c-4.7,4.574-10.346,6.7-17.758,6.7A1.733,1.733,0,0,0,.1,8.928c0,1.222-.024,2.485-.05,3.823C-.184,25.192-.51,42.231,20.235,49.421a1.731,1.731,0,0,0,1.135,0C42.117,42.231,41.792,25.191,41.554,12.75ZM20.8,45.945C3.012,39.481,3.281,25.323,3.519,12.817c.014-.751.028-1.478.038-2.191,6.942-.293,12.494-2.4,17.246-6.537,4.753,4.14,10.305,6.244,17.248,6.537.01.713.024,1.44.038,2.19C38.327,25.323,38.6,39.481,20.8,45.945Z" transform="translate(945.276 1127.207)" fill="#bd9a5f"/>
    <path id="Path_50595" data-name="Path 50595" d="M14.894.508,6.528,8.873,2.959,5.3A1.733,1.733,0,1,0,.508,7.754l4.8,4.8a1.733,1.733,0,0,0,2.451,0l9.591-9.59A1.733,1.733,0,1,0,14.894.508Z" transform="translate(957.153 1145.438)" fill="#bd9a5f"/>
  </g>
</svg>
