<svg xmlns="http://www.w3.org/2000/svg" width="80.886" height="80.885" viewBox="0 0 80.886 80.885">
  <g id="app-3" transform="translate(-14.557 -68.156)">
    <g id="Group_24042" data-name="Group 24042" transform="translate(12.557 66.155)">
      <path id="Path_50596" data-name="Path 50596" d="M2.108,51.124a1.347,1.347,0,0,0,1.06,1.211l4.7,1.014A21.3,21.3,0,0,0,8.5,55.711L4.94,58.933a1.348,1.348,0,0,0-.311,1.579A26.957,26.957,0,0,0,6.78,64.266a1.348,1.348,0,0,0,1.522.516l4.566-1.471a21.6,21.6,0,0,0,1.739,1.739l-1.471,4.566a1.348,1.348,0,0,0,.516,1.522,26.958,26.958,0,0,0,3.754,2.152,1.349,1.349,0,0,0,1.579-.311l3.222-3.556a21.7,21.7,0,0,0,2.363.631l1.014,4.7a1.35,1.35,0,0,0,1.209,1.06c.717.057,1.436.108,2.168.108s1.451-.051,2.168-.108a1.347,1.347,0,0,0,1.211-1.06l1.014-4.7a21.322,21.322,0,0,0,2.363-.631l3.222,3.556a1.346,1.346,0,0,0,1.579.311,27.094,27.094,0,0,0,3.754-2.152,1.348,1.348,0,0,0,.516-1.522L43.318,65.05a21.806,21.806,0,0,0,1.739-1.738l4.566,1.471a1.346,1.346,0,0,0,1.522-.516A26.956,26.956,0,0,0,53.3,60.512a1.348,1.348,0,0,0-.311-1.579l-3.556-3.222a21.7,21.7,0,0,0,.631-2.363l4.7-1.014a1.35,1.35,0,0,0,1.06-1.209c.055-.719.106-1.437.106-2.169s-.051-1.451-.108-2.168a1.347,1.347,0,0,0-1.06-1.211l-4.7-1.014a21.321,21.321,0,0,0-.631-2.363l3.556-3.222A1.348,1.348,0,0,0,53.3,37.4a27.093,27.093,0,0,0-2.152-3.754,1.346,1.346,0,0,0-1.522-.516L45.055,34.6a21.6,21.6,0,0,0-1.739-1.739L44.787,28.3a1.348,1.348,0,0,0-.516-1.522,26.957,26.957,0,0,0-3.754-2.152,1.345,1.345,0,0,0-1.579.311L35.716,28.49a21.7,21.7,0,0,0-2.363-.631l-1.014-4.7A1.35,1.35,0,0,0,31.13,22.1a27.4,27.4,0,0,0-4.337,0,1.347,1.347,0,0,0-1.211,1.06l-1.014,4.7a21.3,21.3,0,0,0-2.362.631l-3.222-3.556a1.347,1.347,0,0,0-1.579-.311,26.957,26.957,0,0,0-3.754,2.152,1.348,1.348,0,0,0-.516,1.522l1.471,4.566A21.6,21.6,0,0,0,12.867,34.6L8.3,33.13a1.345,1.345,0,0,0-1.522.516A26.957,26.957,0,0,0,4.629,37.4a1.348,1.348,0,0,0,.311,1.579L8.5,42.2a21.7,21.7,0,0,0-.631,2.363l-4.7,1.014a1.35,1.35,0,0,0-1.06,1.209C2.051,47.506,2,48.225,2,48.957s.051,1.451.108,2.168ZM4.725,48l4.586-.991a1.349,1.349,0,0,0,1.046-1.1,18.794,18.794,0,0,1,.969-3.628A1.347,1.347,0,0,0,10.97,40.8L7.507,37.666c.3-.578.617-1.132.944-1.657l4.443,1.432a1.353,1.353,0,0,0,1.457-.429,18.955,18.955,0,0,1,2.667-2.667,1.347,1.347,0,0,0,.429-1.457l-1.432-4.443q.787-.491,1.657-.944l3.138,3.465a1.35,1.35,0,0,0,1.478.356,18.7,18.7,0,0,1,3.626-.969,1.349,1.349,0,0,0,1.1-1.046L28,24.721a17.755,17.755,0,0,1,1.913,0l.991,4.586a1.349,1.349,0,0,0,1.1,1.046,18.794,18.794,0,0,1,3.628.969,1.346,1.346,0,0,0,1.476-.356L40.252,27.5c.578.3,1.132.617,1.657.944L40.477,32.89a1.35,1.35,0,0,0,.429,1.457,18.955,18.955,0,0,1,2.667,2.667,1.343,1.343,0,0,0,1.457.429l4.443-1.432q.491.787.944,1.655L46.952,40.8a1.348,1.348,0,0,0-.356,1.478,18.7,18.7,0,0,1,.969,3.626,1.349,1.349,0,0,0,1.046,1.1L53.2,48c.018.317.03.636.03.957s-.011.64-.028.956l-4.586.991A1.349,1.349,0,0,0,47.567,52a18.793,18.793,0,0,1-.969,3.628,1.347,1.347,0,0,0,.356,1.476l3.463,3.138c-.3.578-.617,1.132-.944,1.657L45.03,60.472a1.342,1.342,0,0,0-1.457.429,19.027,19.027,0,0,1-2.667,2.667,1.347,1.347,0,0,0-.429,1.456l1.432,4.443q-.787.491-1.655.944l-3.138-3.465a1.353,1.353,0,0,0-1.478-.356,18.7,18.7,0,0,1-3.626.969,1.349,1.349,0,0,0-1.1,1.046l-.99,4.586a17.752,17.752,0,0,1-1.913,0l-.991-4.586a1.349,1.349,0,0,0-1.1-1.046,18.793,18.793,0,0,1-3.628-.969,1.345,1.345,0,0,0-1.476.356l-3.138,3.463c-.578-.3-1.132-.617-1.657-.944l1.432-4.443a1.35,1.35,0,0,0-.429-1.457A18.955,18.955,0,0,1,14.353,60.9a1.346,1.346,0,0,0-1.457-.429L8.452,61.9q-.491-.787-.944-1.657l3.465-3.138a1.348,1.348,0,0,0,.356-1.478A18.7,18.7,0,0,1,10.36,52a1.349,1.349,0,0,0-1.046-1.1l-4.589-.987c-.016-.317-.028-.636-.028-.957S4.707,48.316,4.725,48Z" transform="translate(0 6.967)" fill="#bd9a5f"/>
      <path id="Path_50597" data-name="Path 50597" d="M62.3,21.19a1.347,1.347,0,0,0,.934-1.131,15.854,15.854,0,0,0,.119-1.882,16.127,16.127,0,0,0-.117-1.882,1.347,1.347,0,0,0-.934-1.131L58.565,13.99q-.168-.459-.372-.9L60,9.618a1.351,1.351,0,0,0-.138-1.46A16.322,16.322,0,0,0,57.2,5.49a1.351,1.351,0,0,0-1.46-.139L52.265,7.163q-.441-.2-.9-.371L50.19,3.054a1.347,1.347,0,0,0-1.131-.934,14.913,14.913,0,0,0-3.765,0,1.347,1.347,0,0,0-1.131.934L42.989,6.792q-.459.168-.9.372L38.617,5.353a1.354,1.354,0,0,0-1.46.138,16.322,16.322,0,0,0-2.668,2.668,1.348,1.348,0,0,0-.139,1.46l1.81,3.471q-.2.441-.371.9l-3.738,1.174a1.347,1.347,0,0,0-.934,1.131,15.158,15.158,0,0,0,0,3.764,1.347,1.347,0,0,0,.934,1.131l3.738,1.174q.168.459.372.9L34.35,26.736a1.351,1.351,0,0,0,.138,1.46,16.322,16.322,0,0,0,2.668,2.668,1.351,1.351,0,0,0,1.46.139l3.471-1.81q.441.2.9.371L44.161,33.3a1.347,1.347,0,0,0,1.131.934,15.933,15.933,0,0,0,1.885.119,16.127,16.127,0,0,0,1.882-.117A1.347,1.347,0,0,0,50.19,33.3l1.174-3.738q.459-.168.9-.372L55.736,31a1.349,1.349,0,0,0,1.46-.138A16.322,16.322,0,0,0,59.864,28.2,1.348,1.348,0,0,0,60,26.739l-1.812-3.471q.2-.441.372-.9ZM57.1,20a1.352,1.352,0,0,0-.887.9,9.5,9.5,0,0,1-.72,1.744,1.345,1.345,0,0,0-.008,1.262l1.711,3.279a13.76,13.76,0,0,1-1.011,1.011L52.9,26.483a1.348,1.348,0,0,0-1.262.008,9.5,9.5,0,0,1-1.744.72,1.352,1.352,0,0,0-.9.887l-1.111,3.537a11.358,11.358,0,0,1-1.421,0L45.356,28.1a1.352,1.352,0,0,0-.9-.887,9.367,9.367,0,0,1-1.743-.72,1.347,1.347,0,0,0-1.263-.008l-3.279,1.711a13.758,13.758,0,0,1-1.011-1.011L38.872,23.9a1.348,1.348,0,0,0-.008-1.262,9.5,9.5,0,0,1-.72-1.744,1.352,1.352,0,0,0-.887-.9l-3.537-1.111c-.016-.247-.023-.483-.023-.71s.007-.464.023-.71l3.537-1.111a1.352,1.352,0,0,0,.887-.9,9.368,9.368,0,0,1,.72-1.743,1.347,1.347,0,0,0,.008-1.263L37.161,9.172a13.757,13.757,0,0,1,1.011-1.011L41.45,9.871a1.352,1.352,0,0,0,1.262-.008,9.5,9.5,0,0,1,1.744-.72,1.352,1.352,0,0,0,.9-.887l1.111-3.537a11.357,11.357,0,0,1,1.421,0L49,8.256a1.352,1.352,0,0,0,.9.887,9.368,9.368,0,0,1,1.743.72,1.347,1.347,0,0,0,1.263.008l3.279-1.711a13.759,13.759,0,0,1,1.011,1.011L55.483,12.45a1.348,1.348,0,0,0,.008,1.262,9.5,9.5,0,0,1,.72,1.744,1.352,1.352,0,0,0,.887.9l3.537,1.111c.016.247.023.483.023.71s-.007.464-.023.71Z" transform="translate(10.095)" fill="#bd9a5f"/>
      <path id="Path_50598" data-name="Path 50598" d="M67.967,37.736l-2.316-.822a10.924,10.924,0,0,0-.454-1.1l1.053-2.218a1.342,1.342,0,0,0-.156-1.407,13.567,13.567,0,0,0-2.317-2.319,1.348,1.348,0,0,0-1.409-.156l-2.219,1.053a10.767,10.767,0,0,0-1.1-.453L58.224,28a1.351,1.351,0,0,0-1.108-.887,12.423,12.423,0,0,0-3.272,0A1.347,1.347,0,0,0,52.736,28l-.822,2.316a10.926,10.926,0,0,0-1.1.454l-2.218-1.053a1.349,1.349,0,0,0-1.407.156,13.567,13.567,0,0,0-2.319,2.317,1.35,1.35,0,0,0-.156,1.409l1.053,2.219a10.767,10.767,0,0,0-.453,1.1L43,37.739a1.351,1.351,0,0,0-.887,1.108A13.207,13.207,0,0,0,42,40.481a13.512,13.512,0,0,0,.108,1.635,1.347,1.347,0,0,0,.887,1.108l2.316.822a10.926,10.926,0,0,0,.454,1.1l-1.053,2.218a1.342,1.342,0,0,0,.156,1.407,13.567,13.567,0,0,0,2.317,2.319,1.351,1.351,0,0,0,1.409.156L50.814,50.2a10.768,10.768,0,0,0,1.1.453l.824,2.316a1.351,1.351,0,0,0,1.108.887,13.021,13.021,0,0,0,1.635.111,13.514,13.514,0,0,0,1.635-.108,1.347,1.347,0,0,0,1.108-.887l.822-2.316a10.925,10.925,0,0,0,1.1-.454l2.218,1.053a1.339,1.339,0,0,0,1.407-.156,13.567,13.567,0,0,0,2.319-2.317,1.35,1.35,0,0,0,.156-1.409L65.2,45.148a10.767,10.767,0,0,0,.453-1.1l2.316-.824a1.351,1.351,0,0,0,.887-1.108,13.019,13.019,0,0,0,.111-1.635,13.512,13.512,0,0,0-.108-1.635,1.349,1.349,0,0,0-.887-1.109Zm-1.715,3.237-2.137.759a1.348,1.348,0,0,0-.848.91,8.022,8.022,0,0,1-.748,1.816,1.351,1.351,0,0,0-.044,1.242l.968,2.04q-.336.368-.7.7l-2.04-.968a1.352,1.352,0,0,0-1.242.044,8.026,8.026,0,0,1-1.815.748,1.353,1.353,0,0,0-.911.848l-.759,2.137a9.217,9.217,0,0,1-.984,0l-.759-2.137a1.348,1.348,0,0,0-.91-.848,8.022,8.022,0,0,1-1.816-.748,1.359,1.359,0,0,0-1.242-.044l-2.04.968q-.368-.336-.7-.7l.968-2.04a1.347,1.347,0,0,0-.044-1.242,8.027,8.027,0,0,1-.748-1.815,1.353,1.353,0,0,0-.848-.911l-2.137-.759c-.011-.163-.016-.326-.016-.492s.005-.33.013-.492l2.137-.76a1.343,1.343,0,0,0,.847-.91,8.062,8.062,0,0,1,.75-1.816,1.351,1.351,0,0,0,.044-1.242l-.968-2.04q.336-.368.7-.7l2.04.968a1.343,1.343,0,0,0,1.242-.044,8.026,8.026,0,0,1,1.815-.748,1.353,1.353,0,0,0,.911-.848l.759-2.137a9.215,9.215,0,0,1,.984,0l.759,2.137a1.348,1.348,0,0,0,.91.848,8.022,8.022,0,0,1,1.816.748,1.343,1.343,0,0,0,1.242.044l2.04-.968q.368.336.7.7l-.968,2.04a1.347,1.347,0,0,0,.044,1.242,8.027,8.027,0,0,1,.748,1.815,1.353,1.353,0,0,0,.848.911l2.137.759c.011.164.016.328.016.493s-.005.329-.013.492Z" transform="translate(13.924 8.702)" fill="#bd9a5f"/>
      <path id="Path_50599" data-name="Path 50599" d="M25.829,60.658A14.829,14.829,0,1,0,11,45.829,14.847,14.847,0,0,0,25.829,60.658Zm0-26.962A12.133,12.133,0,1,1,13.7,45.829,12.148,12.148,0,0,1,25.829,33.7Z" transform="translate(3.133 10.095)" fill="#bd9a5f"/>
      <path id="Path_50600" data-name="Path 50600" d="M2.022,29.559l2.071,1.727A32.289,32.289,0,0,1,28.954,19.638c.686,0,1.371.039,2.056.082l-1.661,1.661,1.906,1.906L35.3,19.243a1.347,1.347,0,0,0,0-1.906l-4.044-4.044L29.349,15.2l1.832,1.832c-.741-.047-1.484-.089-2.227-.089A34.979,34.979,0,0,0,2.022,29.559Z" transform="translate(0.008 3.931)" fill="#bd9a5f"/>
      <path id="Path_50601" data-name="Path 50601" d="M44.74,9a6.74,6.74,0,1,0,6.74,6.74A6.748,6.748,0,0,0,44.74,9Zm0,10.785a4.044,4.044,0,1,1,4.044-4.044A4.049,4.049,0,0,1,44.74,19.785Z" transform="translate(12.531 2.436)" fill="#bd9a5f"/>
      <path id="Path_50602" data-name="Path 50602" d="M53.392,33a5.392,5.392,0,1,0,5.392,5.392A5.4,5.4,0,0,0,53.392,33Zm0,8.089a2.7,2.7,0,1,1,2.7-2.7A2.7,2.7,0,0,1,53.392,41.089Z" transform="translate(16.012 10.791)" fill="#bd9a5f"/>
      <path id="Path_50603" data-name="Path 50603" d="M63.694,5.375l-6.74-1.348a1.345,1.345,0,0,0-1.587,1.057l-1.348,6.74,2.644.53.727-3.629a20.228,20.228,0,0,1,2,8.756,20.005,20.005,0,0,1-4.435,12.638l2.1,1.686a22.936,22.936,0,0,0,2.66-24.477l3.451.69Z" transform="translate(18.108 0.696)" fill="#bd9a5f"/>
    </g>
  </g>
</svg>
