<svg xmlns="http://www.w3.org/2000/svg" width="110" height="80.753" viewBox="0 0 110 80.753">
  <g id="app-1" transform="translate(0 -68.066)">
    <g id="Group_24027" data-name="Group 24027" transform="translate(84.38 102.523)">
      <g id="Group_24026" data-name="Group 24026">
        <path id="Path_50581" data-name="Path 50581" d="M405.42,230.342c-3.743-1.871-10.761-1.893-11.058-1.893a1.611,1.611,0,0,0,0,3.223c1.811,0,7.069.279,9.617,1.553a1.611,1.611,0,0,0,1.441-2.883Z" transform="translate(-392.751 -228.449)" fill="#bd9a5f"/>
      </g>
    </g>
    <g id="Group_24029" data-name="Group 24029" transform="translate(0 68.066)">
      <g id="Group_24028" data-name="Group 24028">
        <path id="Path_50582" data-name="Path 50582" d="M105.083,127.357l-6.655-1.9a.676.676,0,0,1-.488-.647v-2.221a12.11,12.11,0,0,0,1.541-1.263,11.854,11.854,0,0,0,3.628-8.575v-3.065l.643-1.287a10.279,10.279,0,0,0,1.079-4.573v-8.3a1.611,1.611,0,0,0-1.611-1.611H87.714a10.237,10.237,0,0,0-10.226,10.226v.1a8.546,8.546,0,0,0,.9,3.8l.825,1.65v2.632a12.573,12.573,0,0,0,5.169,10.165v2.328c0,.359,0,.508-1.331.888l-3.247.928-9.393-3.416a1.609,1.609,0,0,0-.439-1.234l-3-3.153v-5.294c.317-.261.63-.53.933-.814A18.912,18.912,0,0,0,73.86,98.966V94.738a18.626,18.626,0,0,0,1.723-7.833V69.677a1.611,1.611,0,0,0-1.611-1.611H49.852A15.412,15.412,0,0,0,34.457,83.46v3.446a18.626,18.626,0,0,0,1.723,7.833v3.638A19.689,19.689,0,0,0,43.072,113.4v5.418l-3,3.153a1.609,1.609,0,0,0-.439,1.234l-9.914,3.6a8.45,8.45,0,0,0-1.992,1.044l-1.557-.778c4.634-2.017,6.1-4.854,6.173-5a1.611,1.611,0,0,0,0-1.441c-1.162-2.323-1.3-6.582-1.415-10-.038-1.139-.073-2.215-.141-3.173-.549-7.729-6.425-13.557-13.667-13.557S4,99.737,3.45,107.466c-.068.958-.1,2.035-.141,3.174-.113,3.421-.254,7.679-1.415,10a1.611,1.611,0,0,0,0,1.441c.07.141,1.535,2.972,6.179,4.992l-4.324,2.162A6.745,6.745,0,0,0,0,135.3v11.9a1.611,1.611,0,0,0,3.223,0V135.3a3.538,3.538,0,0,1,1.966-3.182l5.385-2.692,1.873,1.78a6.776,6.776,0,0,0,9.341,0l1.873-1.78,1.756.878a8.485,8.485,0,0,0-1.3,4.5v12.4a1.611,1.611,0,1,0,3.223,0v-12.4a5.3,5.3,0,0,1,3.476-4.962l10.453-3.8,4.351,6.527a3.322,3.322,0,0,0,2.446,1.468q.167.016.332.016a3.321,3.321,0,0,0,2.354-.977l2.655-2.655v16.784a1.611,1.611,0,0,0,3.223,0V130.423l2.655,2.655a3.32,3.32,0,0,0,2.354.977q.165,0,.332-.016a3.322,3.322,0,0,0,2.446-1.468l4.351-6.527,10.452,3.8a5.3,5.3,0,0,1,3.476,4.962v12.4a1.611,1.611,0,0,0,3.223,0v-12.4a8.518,8.518,0,0,0-2.383-5.9l.4-.114a8.836,8.836,0,0,0,1.5-.541l4.114,4.114v14.838a1.611,1.611,0,0,0,3.223,0V132.369l4.085-4.085a3.833,3.833,0,0,0,.686.272l6.655,1.9a3.573,3.573,0,0,1,2.58,3.421v13.33a1.611,1.611,0,0,0,3.223,0v-13.33A6.81,6.81,0,0,0,105.083,127.357Zm-94.745-2.846a11.584,11.584,0,0,1-5.171-3.32,17.761,17.761,0,0,0,.918-3.858,12.015,12.015,0,0,0,4.253,5.247Zm9.231,4.361a3.556,3.556,0,0,1-4.9,0l-1.5-1.424a3.334,3.334,0,0,0,.392-1.574v-1.717a11.982,11.982,0,0,0,7.115,0v1.716a3.334,3.334,0,0,0,.392,1.574Zm-2.45-7.4a8.736,8.736,0,0,1-8.726-8.726,1.6,1.6,0,0,0-1.876-1.588c0-.139.009-.277.014-.415.036-1.108.07-2.154.134-3.052a11.963,11.963,0,0,1,3.258-7.513,10.012,10.012,0,0,1,14.391,0,11.963,11.963,0,0,1,3.258,7.513c.064.9.1,1.944.135,3.051l.01.287a14.478,14.478,0,0,0-7.959-5.816,20.223,20.223,0,0,0-6.129-.971,1.611,1.611,0,0,0-1.115.492L9.6,107.754a1.611,1.611,0,1,0,2.32,2.237l2.419-2.509c2.083.1,8.786.881,11.393,6.621A8.7,8.7,0,0,1,17.118,121.475Zm6.779,3.042V122.6a11.919,11.919,0,0,0,4.254-5.253,17.739,17.739,0,0,0,.917,3.85A11.639,11.639,0,0,1,23.9,124.517ZM39.4,98.376v-4a1.612,1.612,0,0,0-.16-.7,15.456,15.456,0,0,1-1.563-6.771V83.46A12.185,12.185,0,0,1,49.852,71.289H72.361V86.906A15.456,15.456,0,0,1,70.8,93.678a1.612,1.612,0,0,0-.16.7v4.588a15.469,15.469,0,0,1-4.939,11.4,16.034,16.034,0,0,1-1.237,1.047l-.028.02a15.493,15.493,0,0,1-10.456,3.119C45.8,114.021,39.4,106.916,39.4,98.376ZM48.476,130.8a.1.1,0,0,1-.09.032.1.1,0,0,1-.082-.049l-5.011-7.517,1.613-1.694,7.6,5.2Zm6.545-6.218-8.726-5.964v-3.008a18.142,18.142,0,0,0,7.475,2.158q.637.041,1.268.041a18.664,18.664,0,0,0,8.709-2.134v2.943Zm6.716,6.2a.1.1,0,0,1-.082.049.1.1,0,0,1-.09-.032l-4.032-4.032,7.6-5.2,1.613,1.694Zm29.423-1.36L87.5,125.765a4.421,4.421,0,0,0,.1-.957v-.68a11.3,11.3,0,0,0,3.191.564c.124,0,.247.006.371.006a11.969,11.969,0,0,0,3.553-.537v.649a3.852,3.852,0,0,0,.116.939Zm6.076-10.41a8.66,8.66,0,0,1-6.346,2.459,9.02,9.02,0,0,1-8.456-9.155V109.3a1.61,1.61,0,0,0-.17-.721l-1-1.991a5.308,5.308,0,0,1-.557-2.361v-.1a7.011,7.011,0,0,1,7-7h13.895v6.692a7.04,7.04,0,0,1-.739,3.132l-.813,1.627a1.61,1.61,0,0,0-.17.721v3.446A8.657,8.657,0,0,1,97.236,119.012Z" transform="translate(0 -68.066)" fill="#bd9a5f"/>
      </g>
    </g>
    <g id="Group_24031" data-name="Group 24031" transform="translate(99.886 135.258)">
      <g id="Group_24030" data-name="Group 24030">
        <path id="Path_50583" data-name="Path 50583" d="M466.534,380.814a1.611,1.611,0,0,0-1.611,1.611v10.337a1.611,1.611,0,0,0,3.223,0V382.425A1.612,1.612,0,0,0,466.534,380.814Z" transform="translate(-464.923 -380.814)" fill="#bd9a5f"/>
      </g>
    </g>
    <g id="Group_24033" data-name="Group 24033" transform="translate(6.892 137.388)">
      <g id="Group_24032" data-name="Group 24032">
        <path id="Path_50584" data-name="Path 50584" d="M33.688,390.728a1.611,1.611,0,0,0-1.611,1.611v8.207a1.611,1.611,0,0,0,3.223,0v-8.207A1.611,1.611,0,0,0,33.688,390.728Z" transform="translate(-32.077 -390.728)" fill="#bd9a5f"/>
      </g>
    </g>
    <g id="Group_24035" data-name="Group 24035" transform="translate(41.349 82.705)">
      <g id="Group_24034" data-name="Group 24034">
        <path id="Path_50585" data-name="Path 50585" d="M219.331,140.988c-6.094-6.094-18.845-4.929-24.045-4.145a3.308,3.308,0,0,0-2.826,3.3v3.712a1.611,1.611,0,1,0,3.223,0v-3.712a.107.107,0,0,1,.084-.109,50.9,50.9,0,0,1,10.468-.511c5.025.335,8.664,1.6,10.817,3.749a1.611,1.611,0,0,0,2.279-2.279Z" transform="translate(-192.46 -136.203)" fill="#bd9a5f"/>
      </g>
    </g>
    <g id="Group_24037" data-name="Group 24037" transform="translate(34.458 138.704)">
      <g id="Group_24036" data-name="Group 24036">
        <path id="Path_50586" data-name="Path 50586" d="M162,396.853a1.611,1.611,0,0,0-1.611,1.611v6.892a1.611,1.611,0,0,0,3.223,0v-6.892A1.612,1.612,0,0,0,162,396.853Z" transform="translate(-160.384 -396.853)" fill="#bd9a5f"/>
      </g>
    </g>
    <g id="Group_24039" data-name="Group 24039" transform="translate(72.361 138.704)">
      <g id="Group_24038" data-name="Group 24038">
        <path id="Path_50587" data-name="Path 50587" d="M338.417,396.853a1.611,1.611,0,0,0-1.611,1.611v6.892a1.611,1.611,0,0,0,3.223,0v-6.892A1.612,1.612,0,0,0,338.417,396.853Z" transform="translate(-336.806 -396.853)" fill="#bd9a5f"/>
      </g>
    </g>
  </g>
</svg>
