<svg xmlns="http://www.w3.org/2000/svg" width="50" height="58.716" viewBox="0 0 50 58.716">
  <g id="feature-3" transform="translate(0 0.001)">
    <path id="Path_6169" data-name="Path 6169" d="M49.942,15.93l0-.046c-.026-.564-.043-1.161-.053-1.825a6.223,6.223,0,0,0-5.859-6.1c-6.751-.377-11.973-2.578-16.435-6.927L27.554,1a3.758,3.758,0,0,0-5.107,0l-.038.036C17.947,5.386,12.725,7.587,5.974,7.964a6.223,6.223,0,0,0-5.859,6.1C.1,14.72.087,15.316.062,15.885l0,.106c-.131,6.884-.294,15.451,2.572,23.228A29.568,29.568,0,0,0,9.724,50.267a37.108,37.108,0,0,0,13.882,8.211,4.3,4.3,0,0,0,.569.155,4.2,4.2,0,0,0,1.652,0,4.312,4.312,0,0,0,.571-.156,37.132,37.132,0,0,0,13.867-8.215A29.609,29.609,0,0,0,47.358,39.21C50.235,31.411,50.073,22.827,49.942,15.93ZM44.126,38.018c-3.023,8.2-9.194,13.825-18.865,17.207a.866.866,0,0,1-.109.03.773.773,0,0,1-.3,0,.857.857,0,0,1-.108-.029c-9.681-3.376-15.856-9-18.877-17.2C3.222,30.859,3.372,22.995,3.5,16.057v-.039c.027-.6.045-1.221.055-1.907A2.766,2.766,0,0,1,6.166,11.4a30.229,30.229,0,0,0,10.26-2.257A26.844,26.844,0,0,0,24.788,3.53a.318.318,0,0,1,.426,0,26.854,26.854,0,0,0,8.361,5.618A30.23,30.23,0,0,0,43.836,11.4a2.765,2.765,0,0,1,2.606,2.708c.01.69.028,1.314.055,1.907C46.629,22.964,46.775,30.835,44.126,38.018Zm0,0" transform="translate(0 0)" fill="#fff"/>
    <path id="Path_6170" data-name="Path 6170" d="M105.031,128.41a14.633,14.633,0,1,0,14.633,14.633A14.65,14.65,0,0,0,105.031,128.41Zm0,25.821a11.188,11.188,0,1,1,11.187-11.188A11.2,11.2,0,0,1,105.031,154.231Zm0,0" transform="translate(-80.031 -113.685)" fill="#fff"/>
    <path id="Path_6171" data-name="Path 6171" d="M165.255,212.5l-6.8,6.8-1.845-1.845a1.723,1.723,0,0,0-2.436,2.436l3.063,3.063a1.723,1.723,0,0,0,2.436,0l8.015-8.015a1.723,1.723,0,0,0-2.437-2.436Zm0,0" transform="translate(-136.049 -187.681)" fill="#fff"/>
  </g>
</svg>
