<svg id="feature-4" xmlns="http://www.w3.org/2000/svg" width="50" height="56.616" viewBox="0 0 50 56.616">
  <path id="Path_6172" data-name="Path 6172" d="M43.12,181.652H33.346a6.38,6.38,0,0,1,3.331-4.075l3.247-1.624A5.782,5.782,0,0,0,37.339,165H35.581a5.788,5.788,0,0,0-5.782,5.782v.879h3.33v-.879a2.454,2.454,0,0,1,2.451-2.451h1.758a2.451,2.451,0,0,1,1.1,4.644L35.188,174.6a9.7,9.7,0,0,0-5.389,8.719v1.665H43.12Z" transform="translate(-29.799 -146.683)" fill="#fff"/>
  <path id="Path_6173" data-name="Path 6173" d="M188.125,173.326H185.83a2.7,2.7,0,0,1-2.7-2.7V165H179.8v5.625a6.038,6.038,0,0,0,6.031,6.031h2.295v8.326h3.33V165h-3.33Z" transform="translate(-163.147 -146.683)" fill="#fff"/>
  <path id="Path_6174" data-name="Path 6174" d="M371.384,184.924,377.61,165H364.8v3.33h8.281l-4.875,15.6Z" transform="translate(-327.61 -146.683)" fill="#fff"/>
  <path id="Path_6175" data-name="Path 6175" d="M314.8,240h5v3.33h-5Z" transform="translate(-283.161 -213.357)" fill="#fff"/>
  <path id="Path_6176" data-name="Path 6176" d="M239.8,0h3.33V6.661H239.8Z" transform="translate(-216.486)" fill="#fff"/>
  <path id="Path_6177" data-name="Path 6177" d="M0,0H3.33V4.441H0Z" transform="translate(15.757 3.65) rotate(-15.009)" fill="#fff"/>
  <path id="Path_6178" data-name="Path 6178" d="M0,0H3.33V4.441H0Z" transform="matrix(0.866, -0.5, 0.5, 0.866, 8.826, 6.994)" fill="#fff"/>
  <path id="Path_6179" data-name="Path 6179" d="M0,0H3.33V4.44H0Z" transform="translate(2.997 12.014) rotate(-45)" fill="#fff"/>
  <path id="Path_6180" data-name="Path 6180" d="M0,0H4.441V3.33H0Z" transform="translate(29.841 7.079) rotate(-74.991)" fill="#fff"/>
  <path id="Path_6181" data-name="Path 6181" d="M0,0H4.441V3.33H0Z" transform="matrix(0.5, -0.866, 0.866, 0.5, 36.024, 9.175)" fill="#fff"/>
  <path id="Path_6182" data-name="Path 6182" d="M0,0H4.44V3.33H0Z" transform="translate(41.456 12.803) rotate(-45)" fill="#fff"/>
  <path id="Path_6183" data-name="Path 6183" d="M239.8,450h3.33v6.661H239.8Z" transform="translate(-216.486 -400.045)" fill="#fff"/>
  <path id="Path_6184" data-name="Path 6184" d="M0,0H4.441V3.33H0Z" transform="translate(15.763 52.972) rotate(-74.991)" fill="#fff"/>
  <path id="Path_6185" data-name="Path 6185" d="M0,0H4.441V3.33H0Z" transform="matrix(0.5, -0.866, 0.866, 0.5, 8.825, 49.622)" fill="#fff"/>
  <path id="Path_6186" data-name="Path 6186" d="M0,0H4.44V3.33H0Z" transform="translate(2.993 44.598) rotate(-45)" fill="#fff"/>
  <path id="Path_6187" data-name="Path 6187" d="M0,0H3.33V4.441H0Z" transform="translate(29.846 49.532) rotate(-15.009)" fill="#fff"/>
  <path id="Path_6188" data-name="Path 6188" d="M0,0H3.33V4.441H0Z" transform="matrix(0.866, -0.5, 0.5, 0.866, 36.024, 47.44)" fill="#fff"/>
  <path id="Path_6189" data-name="Path 6189" d="M0,0H3.33V4.44H0Z" transform="translate(41.453 43.817) rotate(-45)" fill="#fff"/>
</svg>
