<svg xmlns="http://www.w3.org/2000/svg" width="50.2" height="50.201" viewBox="0 0 50.2 50.201">
  <g id="feature-1" transform="translate(0.1 0.1)">
    <path id="Path_6168" data-name="Path 6168" d="M45.406,10.585c-.381-.537-.777-1.062-1.2-1.566A24.953,24.953,0,0,0,25,0H24.94c-.028,0-.056,0-.086,0A24.963,24.963,0,0,0,5.794,9.019q-.631.759-1.2,1.566a24.913,24.913,0,0,0,0,28.83c.381.537.78,1.062,1.2,1.566A24.959,24.959,0,0,0,24.854,50c.03,0,.058,0,.086,0H25a24.954,24.954,0,0,0,19.206-9.018c.421-.5.82-1.03,1.2-1.567a24.913,24.913,0,0,0,0-28.83ZM17.692,3.251A23.387,23.387,0,0,0,12.169,12.6a23.845,23.845,0,0,1-4.718-2.348A23.011,23.011,0,0,1,17.692,3.251ZM6.247,11.817a26.331,26.331,0,0,0,5.339,2.693,39.846,39.846,0,0,0-1.368,10.279H2.056A22.816,22.816,0,0,1,6.247,11.817ZM2.132,26.841h8.125a39.408,39.408,0,0,0,1.326,8.651,26.182,26.182,0,0,0-5.337,2.695A22.794,22.794,0,0,1,2.132,26.841ZM7.457,39.748a23.987,23.987,0,0,1,4.71-2.344,23.366,23.366,0,0,0,5.525,9.344A23,23,0,0,1,7.457,39.748Zm16.518,8.128c-4.209-.576-7.843-4.894-9.9-11.111a37.915,37.915,0,0,1,9.9-1.517Zm0-14.678A39.066,39.066,0,0,0,13.5,34.84a38.035,38.035,0,0,1-1.186-8H23.975Zm0-8.409H12.268a38.722,38.722,0,0,1,1.238-9.625A39.072,39.072,0,0,0,23.974,16.8v7.986Zm0-10.035a37.862,37.862,0,0,1-9.9-1.515c2.059-6.215,5.689-10.536,9.9-11.114ZM47.942,24.789H39.663a39.826,39.826,0,0,0-1.356-10.238,26.315,26.315,0,0,0,5.446-2.733A22.819,22.819,0,0,1,47.942,24.789Zm-5.4-14.538a23.944,23.944,0,0,1-4.824,2.385,23.324,23.324,0,0,0-5.6-9.446A23.012,23.012,0,0,1,42.547,10.251ZM26.026,2.141c4.163.643,7.749,4.956,9.786,11.129a37.925,37.925,0,0,1-9.786,1.484Zm0,14.663A39.136,39.136,0,0,0,36.382,15.2a38.631,38.631,0,0,1,1.23,9.591H26.026Zm0,10.037H37.569a38.191,38.191,0,0,1-1.178,7.966A39.14,39.14,0,0,0,26.028,33.2l0-6.357Zm0,21.02V35.248a37.987,37.987,0,0,1,9.792,1.484C33.778,42.907,30.189,47.217,26.026,47.86Zm6.1-1.048a23.306,23.306,0,0,0,5.6-9.444,23.971,23.971,0,0,1,4.816,2.381A23.019,23.019,0,0,1,32.124,46.812Zm11.629-8.626a26.249,26.249,0,0,0-5.448-2.735,39.394,39.394,0,0,0,1.313-8.61h8.248A22.76,22.76,0,0,1,43.753,38.186Z" fill="#fff" stroke="#fff" stroke-width="0.2"/>
  </g>
</svg>
