<svg xmlns="http://www.w3.org/2000/svg" width="50" height="47.67" viewBox="0 0 50 47.67">
  <g id="feature-2" transform="translate(0 -0.435)">
    <path id="Path_50607" data-name="Path 50607" d="M152.765,444.374a.78.78,0,0,1-.781-.781V441.25a.781.781,0,1,1,1.563,0v2.343A.781.781,0,0,1,152.765,444.374Zm0,0" transform="translate(-137.138 -397.051)" fill="#fff"/>
    <path id="Path_50608" data-name="Path 50608" d="M153.317,467.194a1.564,1.564,0,0,1-1.563-1.563.745.745,0,0,1,.741-.737.794.794,0,0,1,.822.736.782.782,0,0,1,0,1.564Zm0,0" transform="translate(-136.931 -419.09)" fill="#fff"/>
    <path id="Path_50609" data-name="Path 50609" d="M152.781,405.939a.781.781,0,0,1-.781-.781,4.693,4.693,0,0,1,4.689-4.689.781.781,0,1,1,0,1.563,3.129,3.129,0,0,0-3.126,3.126A.78.78,0,0,1,152.781,405.939Zm0,0" transform="translate(-137.153 -360.959)" fill="#fff"/>
    <path id="Path_50610" data-name="Path 50610" d="M195,402.032h-2.344a.781.781,0,1,1,0-1.563H195a.781.781,0,1,1,0,1.563Zm0,0" transform="translate(-173.129 -360.959)" fill="#fff"/>
    <path id="Path_50611" data-name="Path 50611" d="M308.56,405.939a.781.781,0,0,1-.781-.781,3.129,3.129,0,0,0-3.126-3.126.781.781,0,1,1,0-1.563,4.693,4.693,0,0,1,4.689,4.689A.781.781,0,0,1,308.56,405.939Zm0,0" transform="translate(-274.189 -360.959)" fill="#fff"/>
    <path id="Path_50612" data-name="Path 50612" d="M283,402.032h-2.344a.781.781,0,1,1,0-1.563H283a.781.781,0,1,1,0,1.563Zm0,0" transform="translate(-252.533 -360.959)" fill="#fff"/>
    <path id="Path_50613" data-name="Path 50613" d="M344.652,444.374a.781.781,0,0,1-.781-.781V441.25a.781.781,0,0,1,1.563,0v2.343A.78.78,0,0,1,344.652,444.374Zm0,0" transform="translate(-310.281 -397.051)" fill="#fff"/>
    <path id="Path_50614" data-name="Path 50614" d="M336.652,466.8a1.236,1.236,0,1,1,1.563-1.563A1.565,1.565,0,0,1,336.652,466.8Zm0,0" transform="translate(-303.063 -418.693)" fill="#fff"/>
    <path id="Path_50615" data-name="Path 50615" d="M177.844,474.016H160.652a.781.781,0,1,1,0-1.563h17.192a.781.781,0,1,1,0,1.563Zm0,0" transform="translate(-144.255 -425.911)" fill="#fff"/>
    <path id="Path_50616" data-name="Path 50616" d="M183.685,321.079a7.822,7.822,0,0,1-7.814-7.813.781.781,0,1,1,1.563,0,6.252,6.252,0,0,0,12.5,0,.781.781,0,1,1,1.563,0,7.823,7.823,0,0,1-7.815,7.813Zm0,0" transform="translate(-158.692 -281.569)" fill="#fff"/>
    <path id="Path_50617" data-name="Path 50617" d="M176.652,256.3a.781.781,0,0,1-.781-.781v-6.294a.781.781,0,1,1,1.563,0v6.294A.781.781,0,0,1,176.652,256.3Zm0,0" transform="translate(-158.692 -223.785)" fill="#fff"/>
    <path id="Path_50618" data-name="Path 50618" d="M320.652,256.263a.781.781,0,0,1-.781-.781v-6.255a.781.781,0,0,1,1.563,0v6.255A.781.781,0,0,1,320.652,256.263Zm0,0" transform="translate(-288.626 -223.785)" fill="#fff"/>
    <path id="Path_50619" data-name="Path 50619" d="M216.652,380.838a.781.781,0,0,1-.781-.781v-2.294a.781.781,0,1,1,1.563,0v2.294A.78.78,0,0,1,216.652,380.838Zm0,0" transform="translate(-194.785 -339.765)" fill="#fff"/>
    <path id="Path_50620" data-name="Path 50620" d="M280.652,380.789a.781.781,0,0,1-.781-.781v-2.3a.781.781,0,1,1,1.563,0v2.3A.78.78,0,0,1,280.652,380.789Zm0,0" transform="translate(-252.533 -339.715)" fill="#fff"/>
    <path id="Path_50621" data-name="Path 50621" d="M179.008,276.377a.778.778,0,0,1-.551-.227l-2.357-2.343a.781.781,0,1,1,1.1-1.108l2.357,2.343a.782.782,0,0,1-.551,1.336Zm0,0" transform="translate(-158.691 -245.464)" fill="#fff"/>
    <path id="Path_50622" data-name="Path 50622" d="M210.159,298.016h-9.377a.781.781,0,1,1,0-1.563h9.377a.781.781,0,1,1,0,1.563Zm0,0" transform="translate(-180.464 -267.103)" fill="#fff"/>
    <path id="Path_50623" data-name="Path 50623" d="M296.779,276.377a.781.781,0,0,1-.554-1.332l2.332-2.343a.781.781,0,0,1,1.108,1.1l-2.332,2.343A.781.781,0,0,1,296.779,276.377Zm0,0" transform="translate(-267.084 -245.464)" fill="#fff"/>
    <path id="Path_50624" data-name="Path 50624" d="M190.719,274.032H176.652a.781.781,0,1,1,0-1.563h14.066a.781.781,0,1,1,0,1.563Zm0,0" transform="translate(-158.692 -245.462)" fill="#fff"/>
    <path id="Path_50625" data-name="Path 50625" d="M190.719,250.008H176.652a.781.781,0,0,1,0-1.563h14.066a.781.781,0,0,1,0,1.563Zm0,0" transform="translate(-158.692 -223.785)" fill="#fff"/>
    <path id="Path_50626" data-name="Path 50626" d="M320.651,213.921a.78.78,0,0,1-.725-1.074l1.574-3.907a.782.782,0,0,1,1.45.585l-1.574,3.907A.781.781,0,0,1,320.651,213.921Zm0,0" transform="translate(-288.624 -187.698)" fill="#fff"/>
    <path id="Path_50627" data-name="Path 50627" d="M257.253,181.152a.794.794,0,0,1-.266-.047l-8.608-3.124a.782.782,0,1,1,.532-1.47l8.607,3.124a.782.782,0,0,1-.266,1.517Zm0,0" transform="translate(-223.652 -158.836)" fill="#fff"/>
    <path id="Path_50628" data-name="Path 50628" d="M162.3,213.914a.78.78,0,0,1-.725-.489L160,209.518a.782.782,0,0,1,1.45-.585l1.575,3.907a.781.781,0,0,1-.725,1.074Zm0,0" transform="translate(-144.317 -187.691)" fill="#fff"/>
    <path id="Path_50629" data-name="Path 50629" d="M160.726,181.146a.781.781,0,0,1-.266-1.516l8.608-3.124a.782.782,0,1,1,.532,1.47l-8.608,3.124A.815.815,0,0,1,160.726,181.146Zm0,0" transform="translate(-144.321 -158.83)" fill="#fff"/>
    <path id="Path_50630" data-name="Path 50630" d="M218.227,403.593a.779.779,0,0,1-.55-.227l-1.575-1.561a.781.781,0,0,1,1.1-1.11l1.576,1.561a.781.781,0,0,1-.55,1.336Zm0,0" transform="translate(-194.783 -360.959)" fill="#fff"/>
    <path id="Path_50631" data-name="Path 50631" d="M232.778,410.787a.782.782,0,0,1-.353-1.479l1.551-.781a.781.781,0,0,1,.7,1.4l-1.55.781A.767.767,0,0,1,232.778,410.787Zm0,0" transform="translate(-209.334 -368.152)" fill="#fff"/>
    <path id="Path_50632" data-name="Path 50632" d="M250.228,410.8a.769.769,0,0,1-.346-.081l-1.576-.781a.781.781,0,1,1,.695-1.4l1.575.781a.781.781,0,0,1-.348,1.481Zm0,0" transform="translate(-223.66 -368.165)" fill="#fff"/>
    <path id="Path_50633" data-name="Path 50633" d="M264.778,403.6a.781.781,0,0,1-.555-1.332l1.55-1.561a.782.782,0,1,1,1.11,1.1l-1.55,1.561A.785.785,0,0,1,264.778,403.6Zm0,0" transform="translate(-238.209 -360.963)" fill="#fff"/>
    <path id="Path_50634" data-name="Path 50634" d="M233.559,419.569a.778.778,0,0,1-.7-.434l-.775-1.563a.781.781,0,1,1,1.4-.695l.775,1.563a.781.781,0,0,1-.353,1.047A.766.766,0,0,1,233.559,419.569Zm0,0" transform="translate(-209.339 -375.371)" fill="#fff"/>
    <path id="Path_50635" data-name="Path 50635" d="M256.781,419.587a.781.781,0,0,1-.7-1.131l.781-1.563a.782.782,0,1,1,1.4.7l-.781,1.563A.782.782,0,0,1,256.781,419.587Zm0,0" transform="translate(-230.994 -375.39)" fill="#fff"/>
    <path id="Path_50636" data-name="Path 50636" d="M242.288,434.016h-1.569a.781.781,0,1,1,0-1.563h1.569a.781.781,0,1,1,0,1.563Zm0,0" transform="translate(-216.5 -389.819)" fill="#fff"/>
    <path id="Path_50637" data-name="Path 50637" d="M232.786,437.91a.714.714,0,0,1-.152-.016.78.78,0,0,1-.614-.918l.775-3.907a.781.781,0,1,1,1.532.3l-.775,3.907A.781.781,0,0,1,232.786,437.91Zm0,0" transform="translate(-209.342 -389.806)" fill="#fff"/>
    <path id="Path_50638" data-name="Path 50638" d="M257.566,437.908a.78.78,0,0,1-.765-.628l-.781-3.907a.781.781,0,1,1,1.532-.307l.781,3.907a.782.782,0,0,1-.613.92A.75.75,0,0,1,257.566,437.908Zm0,0" transform="translate(-230.997 -389.803)" fill="#fff"/>
    <path id="Path_50639" data-name="Path 50639" d="M248.856,218.016a.781.781,0,0,1-.009-1.563h.009a.781.781,0,0,1,0,1.563Zm0,0" transform="translate(-223.838 -194.918)" fill="#fff"/>
    <path id="Path_50640" data-name="Path 50640" d="M352.652,324.329a.781.781,0,0,1-.781-.781A3.129,3.129,0,0,1,355,320.422a.781.781,0,0,1,0,1.563,1.564,1.564,0,0,0-1.563,1.563A.781.781,0,0,1,352.652,324.329Zm0,0" transform="translate(-317.5 -288.731)" fill="#fff"/>
    <path id="Path_50641" data-name="Path 50641" d="M379,322.032h-2.344a.781.781,0,0,1,0-1.563H379a.781.781,0,0,1,0,1.563Zm0,0" transform="translate(-339.156 -288.773)" fill="#fff"/>
    <path id="Path_50642" data-name="Path 50642" d="M352.652,349.9a.781.781,0,0,1-.781-.781V345.2a.781.781,0,1,1,1.563,0v3.912A.781.781,0,0,1,352.652,349.9Zm0,0" transform="translate(-317.5 -310.387)" fill="#fff"/>
    <path id="Path_50643" data-name="Path 50643" d="M475,324.329a.781.781,0,0,1-.781-.781,1.564,1.564,0,0,0-1.563-1.563.781.781,0,0,1,0-1.563,3.129,3.129,0,0,1,3.126,3.126A.781.781,0,0,1,475,324.329Zm0,0" transform="translate(-425.778 -288.731)" fill="#fff"/>
    <path id="Path_50644" data-name="Path 50644" d="M451,322.032h-2.344a.781.781,0,1,1,0-1.563H451a.781.781,0,0,1,0,1.563Zm0,0" transform="translate(-404.123 -288.773)" fill="#fff"/>
    <path id="Path_50645" data-name="Path 50645" d="M496.652,349.9a.781.781,0,0,1-.781-.781V345.2a.781.781,0,1,1,1.563,0v3.912A.781.781,0,0,1,496.652,349.9Zm0,0" transform="translate(-447.434 -310.387)" fill="#fff"/>
    <path id="Path_50646" data-name="Path 50646" d="M400.652,302.658a.781.781,0,0,1-.781-.781v-2.1a.781.781,0,0,1,1.563,0v2.1A.781.781,0,0,1,400.652,302.658Zm0,0" transform="translate(-360.811 -269.398)" fill="#fff"/>
    <path id="Path_50647" data-name="Path 50647" d="M448.653,302.653a.781.781,0,0,1-.781-.781v-2.094a.781.781,0,1,1,1.563,0v2.094A.78.78,0,0,1,448.653,302.653Zm0,0" transform="translate(-404.123 -269.398)" fill="#fff"/>
    <path id="Path_50648" data-name="Path 50648" d="M480.652,221.132a.781.781,0,0,1-.781-.781v-3.124a.781.781,0,0,1,1.563,0v3.124A.781.781,0,0,1,480.652,221.132Zm0,0" transform="translate(-432.997 -194.911)" fill="#fff"/>
    <path id="Path_50649" data-name="Path 50649" d="M368.652,221.132a.781.781,0,0,1-.781-.781v-3.124a.781.781,0,0,1,1.563,0v3.124A.781.781,0,0,1,368.652,221.132Zm0,0" transform="translate(-331.937 -194.911)" fill="#fff"/>
    <path id="Path_50650" data-name="Path 50650" d="M374.139,255.428a6.257,6.257,0,0,1-6.252-6.249.781.781,0,1,1,1.563,0,4.689,4.689,0,0,0,9.377,0,.781.781,0,1,1,1.563,0A6.257,6.257,0,0,1,374.139,255.428Zm0,0" transform="translate(-331.952 -223.742)" fill="#fff"/>
    <path id="Path_50651" data-name="Path 50651" d="M366.718,386.032H352.652a.781.781,0,0,1,0-1.563h14.066a.781.781,0,1,1,0,1.563Zm0,0" transform="translate(-317.5 -346.522)" fill="#fff"/>
    <path id="Path_50652" data-name="Path 50652" d="M371.008,220.354a.776.776,0,0,1-.551-.227l-2.357-2.345a.781.781,0,0,1,1.1-1.108l2.357,2.345a.781.781,0,0,1-.551,1.335Zm0,0" transform="translate(-331.936 -194.912)" fill="#fff"/>
    <path id="Path_50653" data-name="Path 50653" d="M399.033,242.016h-6.252a.781.781,0,0,1,0-1.563h6.252a.781.781,0,0,1,0,1.563Zm0,0" transform="translate(-353.709 -216.573)" fill="#fff"/>
    <path id="Path_50654" data-name="Path 50654" d="M456.779,220.354a.781.781,0,0,1-.554-1.332l2.332-2.345a.781.781,0,1,1,1.108,1.1l-2.332,2.345A.782.782,0,0,1,456.779,220.354Zm0,0" transform="translate(-411.455 -194.912)" fill="#fff"/>
    <path id="Path_50655" data-name="Path 50655" d="M379.593,218.008h-10.94a.781.781,0,0,1,0-1.563h10.94a.781.781,0,1,1,0,1.563Zm0,0" transform="translate(-331.937 -194.91)" fill="#fff"/>
    <path id="Path_50656" data-name="Path 50656" d="M361.547,189.133a.782.782,0,0,1-.758-.594l-.769-3.125a.781.781,0,0,1,1.517-.374l.769,3.125a.782.782,0,0,1-.571.946A.74.74,0,0,1,361.547,189.133Zm0,0" transform="translate(-324.832 -166.036)" fill="#fff"/>
    <path id="Path_50657" data-name="Path 50657" d="M360.777,164.366a.781.781,0,0,1-.275-1.513l6.252-2.344a.782.782,0,1,1,.55,1.464l-6.252,2.344A.8.8,0,0,1,360.777,164.366Zm0,0" transform="translate(-324.831 -144.393)" fill="#fff"/>
    <path id="Path_50658" data-name="Path 50658" d="M480.908,189.129a.78.78,0,0,1-.759-.968l.769-3.125a.781.781,0,0,1,1.517.374l-.769,3.125A.781.781,0,0,1,480.908,189.129Zm0,0" transform="translate(-433.227 -166.032)" fill="#fff"/>
    <path id="Path_50659" data-name="Path 50659" d="M431.029,164.359a.811.811,0,0,1-.275-.049l-6.252-2.344a.782.782,0,0,1,.549-1.464l6.252,2.344a.781.781,0,0,1-.274,1.513Zm0,0" transform="translate(-382.579 -144.388)" fill="#fff"/>
    <path id="Path_50660" data-name="Path 50660" d="M401.442,323.591a.782.782,0,0,1-.7-.427l-.793-1.561a.782.782,0,0,1,1.393-.709l.793,1.561a.782.782,0,0,1-.7,1.136Zm0,0" transform="translate(-360.806 -288.771)" fill="#fff"/>
    <path id="Path_50661" data-name="Path 50661" d="M408.77,330.807a.782.782,0,0,1-.35-1.481l1.564-.781a.781.781,0,1,1,.7,1.4l-1.564.781A.767.767,0,0,1,408.77,330.807Zm0,0" transform="translate(-368.134 -295.987)" fill="#fff"/>
    <path id="Path_50662" data-name="Path 50662" d="M426.347,330.812a.773.773,0,0,1-.348-.082l-1.564-.781a.781.781,0,1,1,.7-1.4l1.564.781a.781.781,0,0,1-.35,1.48Zm0,0" transform="translate(-382.586 -295.992)" fill="#fff"/>
    <path id="Path_50663" data-name="Path 50663" d="M440.791,323.6a.769.769,0,0,1-.344-.081.782.782,0,0,1-.356-1.046l.768-1.561a.782.782,0,1,1,1.4.69l-.768,1.561A.783.783,0,0,1,440.791,323.6Zm0,0" transform="translate(-397.03 -288.776)" fill="#fff"/>
    <path id="Path_50664" data-name="Path 50664" d="M.781,324.329A.781.781,0,0,1,0,323.548a3.129,3.129,0,0,1,3.126-3.126.781.781,0,1,1,0,1.563,1.564,1.564,0,0,0-1.563,1.563A.781.781,0,0,1,.781,324.329Zm0,0" transform="translate(0 -288.731)" fill="#fff"/>
    <path id="Path_50665" data-name="Path 50665" d="M27.126,322.032H24.781a.781.781,0,0,1,0-1.563h2.344a.781.781,0,0,1,0,1.563Zm0,0" transform="translate(-21.656 -288.773)" fill="#fff"/>
    <path id="Path_50666" data-name="Path 50666" d="M.781,349.9A.781.781,0,0,1,0,349.115V345.2a.781.781,0,1,1,1.563,0v3.912A.781.781,0,0,1,.781,349.9Zm0,0" transform="translate(0 -310.387)" fill="#fff"/>
    <path id="Path_50667" data-name="Path 50667" d="M123.126,324.329a.781.781,0,0,1-.781-.781,1.564,1.564,0,0,0-1.563-1.563.781.781,0,0,1,0-1.563,3.129,3.129,0,0,1,3.126,3.126A.781.781,0,0,1,123.126,324.329Zm0,0" transform="translate(-108.278 -288.731)" fill="#fff"/>
    <path id="Path_50668" data-name="Path 50668" d="M99.126,322.032H96.781a.781.781,0,0,1,0-1.563h2.344a.781.781,0,0,1,0,1.563Zm0,0" transform="translate(-86.623 -288.773)" fill="#fff"/>
    <path id="Path_50669" data-name="Path 50669" d="M144.781,349.9a.781.781,0,0,1-.781-.781V345.2a.781.781,0,1,1,1.563,0v3.912A.781.781,0,0,1,144.781,349.9Zm0,0" transform="translate(-129.934 -310.387)" fill="#fff"/>
    <path id="Path_50670" data-name="Path 50670" d="M48.781,302.658a.781.781,0,0,1-.781-.781v-2.1a.781.781,0,0,1,1.563,0v2.1A.781.781,0,0,1,48.781,302.658Zm0,0" transform="translate(-43.311 -269.398)" fill="#fff"/>
    <path id="Path_50671" data-name="Path 50671" d="M96.781,302.653a.78.78,0,0,1-.781-.781v-2.094a.781.781,0,1,1,1.563,0v2.094A.78.78,0,0,1,96.781,302.653Zm0,0" transform="translate(-86.623 -269.398)" fill="#fff"/>
    <path id="Path_50672" data-name="Path 50672" d="M128.781,221.132a.781.781,0,0,1-.781-.781v-3.124a.781.781,0,0,1,1.563,0v3.124A.781.781,0,0,1,128.781,221.132Zm0,0" transform="translate(-115.497 -194.911)" fill="#fff"/>
    <path id="Path_50673" data-name="Path 50673" d="M16.781,221.132A.781.781,0,0,1,16,220.35v-3.124a.781.781,0,0,1,1.563,0v3.124A.781.781,0,0,1,16.781,221.132Zm0,0" transform="translate(-14.437 -194.911)" fill="#fff"/>
    <path id="Path_50674" data-name="Path 50674" d="M22.267,255.428a6.257,6.257,0,0,1-6.252-6.249.781.781,0,1,1,1.563,0,4.689,4.689,0,0,0,9.377,0,.781.781,0,1,1,1.563,0,6.257,6.257,0,0,1-6.252,6.249Zm0,0" transform="translate(-14.451 -223.742)" fill="#fff"/>
    <path id="Path_50675" data-name="Path 50675" d="M14.847,386.032H.781a.781.781,0,1,1,0-1.563H14.847a.781.781,0,1,1,0,1.563Zm0,0" transform="translate(0 -346.522)" fill="#fff"/>
    <path id="Path_50676" data-name="Path 50676" d="M19.128,220.354a.776.776,0,0,1-.551-.227l-2.357-2.345a.781.781,0,0,1,1.1-1.108l2.357,2.345a.781.781,0,0,1-.551,1.335Zm0,0" transform="translate(-14.427 -194.912)" fill="#fff"/>
    <path id="Path_50677" data-name="Path 50677" d="M47.154,242.016H40.9a.781.781,0,0,1,0-1.563h6.252a.781.781,0,1,1,0,1.563Zm0,0" transform="translate(-36.202 -216.573)" fill="#fff"/>
    <path id="Path_50678" data-name="Path 50678" d="M104.9,220.354a.781.781,0,0,1-.554-1.332l2.332-2.345a.781.781,0,1,1,1.108,1.1l-2.332,2.345A.781.781,0,0,1,104.9,220.354Zm0,0" transform="translate(-93.948 -194.912)" fill="#fff"/>
    <path id="Path_50679" data-name="Path 50679" d="M27.722,218.008H16.781a.781.781,0,0,1,0-1.563h10.94a.781.781,0,1,1,0,1.563Zm0,0" transform="translate(-14.437 -194.91)" fill="#fff"/>
    <path id="Path_50680" data-name="Path 50680" d="M9.676,189.133a.782.782,0,0,1-.758-.594l-.769-3.125a.781.781,0,0,1,1.517-.374l.769,3.125a.782.782,0,0,1-.572.946A.734.734,0,0,1,9.676,189.133Zm0,0" transform="translate(-7.332 -166.036)" fill="#fff"/>
    <path id="Path_50681" data-name="Path 50681" d="M8.9,164.366a.781.781,0,0,1-.275-1.513l6.252-2.344a.782.782,0,0,1,.549,1.464l-6.252,2.344a.8.8,0,0,1-.274.049Zm0,0" transform="translate(-7.322 -144.393)" fill="#fff"/>
    <path id="Path_50682" data-name="Path 50682" d="M129.036,189.129a.78.78,0,0,1-.759-.968l.769-3.125a.781.781,0,0,1,1.517.374l-.769,3.125A.782.782,0,0,1,129.036,189.129Zm0,0" transform="translate(-115.727 -166.032)" fill="#fff"/>
    <path id="Path_50683" data-name="Path 50683" d="M79.149,164.359a.81.81,0,0,1-.275-.049l-6.252-2.344a.782.782,0,0,1,.549-1.464l6.252,2.344a.781.781,0,0,1-.274,1.513Zm0,0" transform="translate(-65.071 -144.388)" fill="#fff"/>
    <path id="Path_50684" data-name="Path 50684" d="M49.563,323.591a.782.782,0,0,1-.7-.427l-.793-1.561a.782.782,0,0,1,1.393-.709l.793,1.561a.782.782,0,0,1-.342,1.051A.772.772,0,0,1,49.563,323.591Zm0,0" transform="translate(-43.299 -288.771)" fill="#fff"/>
    <path id="Path_50685" data-name="Path 50685" d="M56.891,330.807a.782.782,0,0,1-.35-1.481l1.564-.781a.781.781,0,1,1,.7,1.4l-1.564.781A.765.765,0,0,1,56.891,330.807Zm0,0" transform="translate(-50.627 -295.987)" fill="#fff"/>
    <path id="Path_50686" data-name="Path 50686" d="M74.468,330.812a.776.776,0,0,1-.348-.082l-1.564-.781a.781.781,0,0,1,.7-1.4l1.564.781a.781.781,0,0,1-.35,1.48Zm0,0" transform="translate(-65.078 -295.992)" fill="#fff"/>
    <path id="Path_50687" data-name="Path 50687" d="M88.912,323.6a.768.768,0,0,1-.344-.081.782.782,0,0,1-.356-1.046l.768-1.561a.782.782,0,1,1,1.4.69l-.768,1.561A.781.781,0,0,1,88.912,323.6Zm0,0" transform="translate(-79.523 -288.776)" fill="#fff"/>
    <path id="Path_50688" data-name="Path 50688" d="M218.335,3.563a2.347,2.347,0,0,1-2.344-2.344.781.781,0,1,1,1.563,0,.781.781,0,0,0,1.563,0,.781.781,0,0,1,1.563,0A2.348,2.348,0,0,1,218.335,3.563Zm0,0" transform="translate(-194.894 -0.003)" fill="#fff"/>
    <path id="Path_50689" data-name="Path 50689" d="M250.336,3.563a2.347,2.347,0,0,1-2.344-2.344.781.781,0,1,1,1.563,0,.781.781,0,0,0,1.563,0,.781.781,0,0,1,1.563,0A2.347,2.347,0,0,1,250.336,3.563Zm0,0" transform="translate(-223.768 -0.003)" fill="#fff"/>
    <path id="Path_50690" data-name="Path 50690" d="M283.115,4.342a.78.78,0,0,1-.552-.229l-2.344-2.344A.781.781,0,1,1,281.323.664l2.344,2.344a.781.781,0,0,1-.553,1.334Zm0,0" transform="translate(-252.64 0)" fill="#fff"/>
    <path id="Path_50691" data-name="Path 50691" d="M192.771,4.342a.781.781,0,0,1-.553-1.334L194.563.664a.781.781,0,0,1,1.105,1.105l-2.344,2.344A.78.78,0,0,1,192.771,4.342Zm0,0" transform="translate(-173.235 0)" fill="#fff"/>
    <path id="Path_50692" data-name="Path 50692" d="M290.677,27.364a.781.781,0,0,1-.551-1.335L291.5,24.66a.781.781,0,1,1,1.1,1.108l-1.377,1.369A.777.777,0,0,1,290.677,27.364Zm0,0" transform="translate(-261.578 -21.653)" fill="#fff"/>
    <path id="Path_50693" data-name="Path 50693" d="M248.773,131.564a.78.78,0,0,1-.781-.781,2.347,2.347,0,0,1,2.344-2.344.781.781,0,1,1,0,1.563.782.782,0,0,0-.781.781A.781.781,0,0,1,248.773,131.564Zm0,0" transform="translate(-223.768 -115.5)" fill="#fff"/>
    <path id="Path_50694" data-name="Path 50694" d="M234.336,131.564a.781.781,0,0,1-.781-.781.782.782,0,0,0-.781-.781.781.781,0,0,1,0-1.563,2.347,2.347,0,0,1,2.344,2.344A.781.781,0,0,1,234.336,131.564Zm0,0" transform="translate(-209.331 -115.5)" fill="#fff"/>
    <path id="Path_50695" data-name="Path 50695" d="M264.828,56.028a.781.781,0,1,1,0-1.563,3.9,3.9,0,0,0,2.756-6.653.781.781,0,1,1,1.1-1.107,5.459,5.459,0,0,1-3.859,9.323Zm0,0" transform="translate(-238.255 -41.545)" fill="#fff"/>
    <path id="Path_50696" data-name="Path 50696" d="M194.163,27.371a.777.777,0,0,1-.551-.227l-1.377-1.369a.781.781,0,0,1,1.1-1.108l1.377,1.369a.781.781,0,0,1-.551,1.335Zm0,0" transform="translate(-173.249 -21.66)" fill="#fff"/>
    <path id="Path_50697" data-name="Path 50697" d="M189.516,56.028a5.459,5.459,0,0,1-3.859-9.323.781.781,0,1,1,1.1,1.107,3.9,3.9,0,0,0,2.755,6.653.781.781,0,0,1,0,1.563Zm0,0" transform="translate(-166.076 -41.545)" fill="#fff"/>
    <path id="Path_50698" data-name="Path 50698" d="M291.458,40.8a.779.779,0,0,1-.552-.229l-.782-.783a.781.781,0,0,1,1.105-1.105l.782.783a.781.781,0,0,1-.553,1.334Zm0,0" transform="translate(-261.577 -34.305)" fill="#fff"/>
    <path id="Path_50699" data-name="Path 50699" d="M198.884,40.8a.781.781,0,0,1-.553-1.334l.782-.783a.781.781,0,1,1,1.105,1.105l-.782.783A.781.781,0,0,1,198.884,40.8Zm0,0" transform="translate(-178.751 -34.305)" fill="#fff"/>
    <path id="Path_50700" data-name="Path 50700" d="M234.313,61.127a2.344,2.344,0,1,1,2.344-2.344A2.347,2.347,0,0,1,234.313,61.127Zm0-3.126a.781.781,0,1,0,.781.781A.782.782,0,0,0,234.313,58Zm0,0" transform="translate(-209.31 -50.533)" fill="#fff"/>
  </g>
</svg>
