<svg xmlns="http://www.w3.org/2000/svg" width="89.637" height="89.637" viewBox="0 0 89.637 89.637">
  <g id="img-2" transform="translate(-0.737 -32.05)">
    <g id="Group_24022" data-name="Group 24022" transform="translate(0.737 32.05)">
      <path id="Path_50562" data-name="Path 50562" d="M89.637,52.293V37.343L77.15,35.277A33.535,33.535,0,0,0,74.425,28.7L81.8,18.412,71.224,7.841,60.932,15.212a33.54,33.54,0,0,0-6.573-2.725L52.293,0H37.344L35.278,12.487A33.524,33.524,0,0,0,28.7,15.212L18.413,7.841,7.841,18.412,15.212,28.7a33.54,33.54,0,0,0-2.725,6.573L0,37.343v14.95l12.487,2.066a33.535,33.535,0,0,0,2.725,6.573L7.841,71.225,18.413,81.8,28.7,74.425a33.535,33.535,0,0,0,6.573,2.725l2.066,12.487h14.95L54.359,77.15a33.54,33.54,0,0,0,6.573-2.725L71.224,81.8,81.8,71.225,74.425,60.932a33.534,33.534,0,0,0,2.725-6.573Zm-14.794.568a30.9,30.9,0,0,1-3.109,7.5l-.425.734,7.053,9.849-7.421,7.421L61.093,71.31l-.734.424a30.884,30.884,0,0,1-7.5,3.109l-.819.219L50.066,87.011H39.571L37.595,75.061l-.819-.218a30.911,30.911,0,0,1-7.5-3.109l-.733-.424-9.85,7.053-7.421-7.421,7.054-9.849-.424-.734a30.885,30.885,0,0,1-3.109-7.5l-.219-.819L2.626,50.066V39.571l11.949-1.976.218-.819a30.912,30.912,0,0,1,3.109-7.5l.424-.734-7.053-9.849,7.421-7.421,9.849,7.054.734-.425a30.917,30.917,0,0,1,7.5-3.109l.818-.218L39.571,2.626H50.066l1.977,11.949.818.218a30.9,30.9,0,0,1,7.5,3.109l.734.425,9.849-7.054,7.421,7.421-7.053,9.85.424.733a30.912,30.912,0,0,1,3.109,7.5l.219.819,11.949,1.976V50.066L75.061,52.042Zm0,0" transform="translate(0 0)" fill="#bd9a5f"/>
      <path id="Path_50563" data-name="Path 50563" d="M128.307,101.207a27.1,27.1,0,1,0,27.1,27.1A27.131,27.131,0,0,0,128.307,101.207Zm0,51.574a24.474,24.474,0,1,1,24.474-24.474A24.5,24.5,0,0,1,128.307,152.781Zm0,0" transform="translate(-83.488 -83.488)" fill="#bd9a5f"/>
      <path id="Path_50564" data-name="Path 50564" d="M199.742,184H207.3v2.626h-7.553Zm0,0" transform="translate(-164.773 -151.79)" fill="#bd9a5f"/>
      <path id="Path_50565" data-name="Path 50565" d="M192.618,152.41H177.156v36.271h27.607V164.288l-12.146-5.858Zm-2.626,33.645H179.783V155.036h10.209Zm12.146-20.119v20.119h-9.52V161.345Zm0,0" transform="translate(-146.141 -125.727)" fill="#bd9a5f"/>
      <path id="Path_50566" data-name="Path 50566" d="M273.879,237.164h2.626v16.855h-2.626Zm0,0" transform="translate(-225.93 -195.643)" fill="#bd9a5f"/>
      <path id="Path_50567" data-name="Path 50567" d="M199.742,207.449H207.3v2.626h-7.553Zm0,0" transform="translate(-164.773 -171.13)" fill="#bd9a5f"/>
      <path id="Path_50568" data-name="Path 50568" d="M199.742,230.895H207.3v2.626h-7.553Zm0,0" transform="translate(-164.773 -190.472)" fill="#bd9a5f"/>
      <path id="Path_50569" data-name="Path 50569" d="M199.742,254.34H207.3v2.626h-7.553Zm0,0" transform="translate(-164.773 -209.812)" fill="#bd9a5f"/>
      <path id="Path_50570" data-name="Path 50570" d="M199.742,277.785H207.3v2.626h-7.553Zm0,0" transform="translate(-164.773 -229.153)" fill="#bd9a5f"/>
      <path id="Path_50571" data-name="Path 50571" d="M153.3,223.816a18.156,18.156,0,0,0,0,11.269l2.5-.815a15.536,15.536,0,0,1,0-9.639Zm0,0" transform="translate(-125.725 -184.632)" fill="#bd9a5f"/>
      <path id="Path_50572" data-name="Path 50572" d="M286.218,165.165l2.285-1.3a18.189,18.189,0,0,0-11.642-8.728l-.6,2.557a15.557,15.557,0,0,1,9.956,7.467Zm0,0" transform="translate(-227.896 -127.98)" fill="#bd9a5f"/>
      <path id="Path_50573" data-name="Path 50573" d="M340.215,224.6a15.555,15.555,0,0,1,0,9.639l2.5.815a18.179,18.179,0,0,0,0-11.271Zm0,0" transform="translate(-280.653 -184.606)" fill="#bd9a5f"/>
      <path id="Path_50574" data-name="Path 50574" d="M348.271,236.235l-2.056-1.633a20.03,20.03,0,0,0,4.276-10.769l2.616.226A22.649,22.649,0,0,1,348.271,236.235Zm4.92-14.031-2.626-.012v-.1a20.289,20.289,0,0,0-.138-2.359l2.608-.306a22.992,22.992,0,0,1,.156,2.665Zm-3.021-4.1a20.324,20.324,0,0,0-.632-2.382l2.492-.828a22.85,22.85,0,0,1,.715,2.692Zm0,0" transform="translate(-285.602 -177.275)" fill="#bd9a5f"/>
      <path id="Path_50575" data-name="Path 50575" d="M299.06,254.019h-2.626v-8.1h2.626Zm0-9.853h-2.626V241.54h2.626Zm0-4.377h-2.626v-2.626h2.626Zm0,0" transform="translate(-244.537 -195.643)" fill="#bd9a5f"/>
    </g>
  </g>
</svg>
