<svg xmlns="http://www.w3.org/2000/svg" width="79.567" height="91.068" viewBox="0 0 79.567 91.068">
  <g id="img-3" transform="translate(-7.538 -31.334)">
    <g id="Group_24025" data-name="Group 24025" transform="translate(-24.792 31.333)">
      <g id="Group_24024" data-name="Group 24024" transform="translate(32.33 0.001)">
        <g id="Group_24023" data-name="Group 24023" transform="translate(0 0)">
          <path id="Path_50576" data-name="Path 50576" d="M110.563,24.847a1.334,1.334,0,0,0,1.334-1.334V12.474a1.334,1.334,0,0,0-1.295-1.333A102.209,102.209,0,0,1,96.58,9.491C83.707,7.085,76.616,3.155,72.934.283a1.334,1.334,0,0,0-1.641,0c-6.662,5.2-16.513,7.872-23.6,9.2a102.47,102.47,0,0,1-14.064,1.658,1.334,1.334,0,0,0-1.294,1.333V47.568A40.858,40.858,0,0,0,57.954,85.481l13.662,5.491a1.335,1.335,0,0,0,.995,0l13.662-5.491A40.858,40.858,0,0,0,111.9,47.567V29.738a1.334,1.334,0,0,0-2.668,0V47.567A38.19,38.19,0,0,1,85.278,83.006L72.113,88.3,58.949,83.006A38.19,38.19,0,0,1,35,47.567V13.746a108.192,108.192,0,0,0,13.139-1.632C58.39,10.2,66.449,7.135,72.113,3.005c5.665,4.13,13.723,7.192,23.976,9.109a108.191,108.191,0,0,0,13.139,1.632v9.767a1.334,1.334,0,0,0,1.334,1.334Z" transform="translate(-32.33 -0.001)" fill="#bd9a5f"/>
          <path id="Path_50577" data-name="Path 50577" d="M154.755,169.964a1.334,1.334,0,0,0,1.31.039l6.567-3.448L169.2,170a1.334,1.334,0,0,0,1.954-1.181V155.691a20.2,20.2,0,1,0-17.042,0v13.131A1.335,1.335,0,0,0,154.755,169.964Zm13.73-3.349-5.233-2.747a1.334,1.334,0,0,0-1.24,0l-5.233,2.747v-9.9a20.215,20.215,0,0,0,11.706,0v9.9ZM145.1,137.38a17.532,17.532,0,1,1,17.532,17.532A17.552,17.552,0,0,1,145.1,137.38Z" transform="translate(-122.849 -96.338)" fill="#bd9a5f"/>
          <path id="Path_50578" data-name="Path 50578" d="M196.736,176.29a1.334,1.334,0,1,0-1.39-2.277,11.781,11.781,0,1,1,3.927-3.929,1.334,1.334,0,0,0,2.277,1.391,14.438,14.438,0,1,0-4.814,4.815Z" transform="translate(-149.427 -122.908)" fill="#bd9a5f"/>
          <path id="Path_50579" data-name="Path 50579" d="M215.783,184.5a5.992,5.992,0,0,1,4.264,1.769,1.334,1.334,0,0,0,1.886-1.886,8.7,8.7,0,1,0,0,12.3,1.334,1.334,0,1,0-1.886-1.886,6.031,6.031,0,1,1-4.264-10.3Z" transform="translate(-175.999 -149.488)" fill="#bd9a5f"/>
          <path id="Path_50580" data-name="Path 50580" d="M65.984,76.935a1.334,1.334,0,0,0-1.334,1.334v1.542a35.114,35.114,0,0,0,22.021,32.58l11.517,4.628a1.334,1.334,0,0,0,.995,0l11.517-4.628a35.114,35.114,0,0,0,22.02-32.58V50.061a1.334,1.334,0,0,0-1.2-1.327c-3.187-.32-6.357-.773-9.423-1.346-9.27-1.734-16.912-4.415-22.714-7.971a1.334,1.334,0,0,0-1.394,0c-5.8,3.555-13.443,6.237-22.714,7.971-3.066.573-6.237,1.026-9.423,1.346a1.334,1.334,0,0,0-1.2,1.327V72.044a1.334,1.334,0,1,0,2.668,0V51.262c2.856-.316,5.692-.737,8.447-1.252,9.228-1.726,16.934-4.382,22.92-7.9,5.986,3.517,13.691,6.174,22.92,7.9,2.755.515,5.59.935,8.447,1.252V79.811a32.447,32.447,0,0,1-20.347,30.1l-11.019,4.428-11.019-4.428a32.447,32.447,0,0,1-20.347-30.1V78.269a1.334,1.334,0,0,0-1.334-1.334Z" transform="translate(-58.901 -32.245)" fill="#bd9a5f"/>
        </g>
      </g>
    </g>
  </g>
</svg>
