<svg xmlns="http://www.w3.org/2000/svg" width="91.105" height="91.063" viewBox="0 0 91.105 91.063">
  <g id="img-1" transform="translate(0 -31.334)">
    <path id="Path_6024" data-name="Path 6024" d="M89.654,69.654A44.092,44.092,0,0,0,1.486,68.5a42.948,42.948,0,0,0,13.528,32.893,42.582,42.582,0,0,0,30.618,12.359A44.158,44.158,0,0,0,89.654,69.654M0,68.482A44.159,44.159,0,0,1,12.839,38.036,44.242,44.242,0,0,1,45.446,24.12a45.532,45.532,0,0,1,1.259,91.05C20.507,115.753,0,94.582,0,68.482" transform="translate(0 7.215)" fill="#bd9a5f" fill-rule="evenodd"/>
    <path id="Path_6025" data-name="Path 6025" d="M12.476,70.175a32.538,32.538,0,0,0,31.965,32.47,32.47,32.47,0,1,0,2.162-64.9c-.6-.021-1.2-.024-1.794-.01a32.528,32.528,0,0,0-32.33,32.444Zm-1.476,0a33.844,33.844,0,1,1,0,.148ZM38.659,31.932a3.142,3.142,0,0,0,1.527.351c-.128-.35-.194-.7-.586-.813a.938.938,0,0,0-.936.463h0Zm11.841,1c-.366.379-.794.182-1.2.144-.329-.035-.658-.1-.992-.137a.844.844,0,0,1-.791-.627h-.084c-.175.5-.56.607-1.076.571a14.062,14.062,0,0,0-1.53.046c-.479.024-.85-.109-.988-.6-.037.021-.056.025-.056.032-.18.62-.677.6-1.2.585s-1.018.056-1.528.08a.381.381,0,0,0-.4.36v.015c-.023.315-.19.3-.425.224-.662-.221-1.329-.432-2-.648-.062-.021-.132-.032-.245-.06-.062.763-.674.736-1.237.833-.5.084-1,.249-1.537.386l-.575-1.475c-.3-.767-.552-1.552-.9-2.294-.263-.558,0-.94.267-1.374.45,1.1.885,2.176,1.325,3.251.029.074.051.148.08.218.2.459.235.466.758.35a9.9,9.9,0,0,1,1.152-.192.745.745,0,0,0,.732-.606,2.387,2.387,0,0,1,1.431-1.5c.366-.183.366-.1.564.238a7.509,7.509,0,0,0,.838,1.118c.048.06.19.073.289.073h2.489A3.689,3.689,0,0,1,43.805,31a3.4,3.4,0,0,1,.561-.7l.1.021c-.027.35-.056.7-.07,1.03a.5.5,0,0,0,.451.543.532.532,0,0,0,.16-.006c.4-.021.805-.046,1.208-.049a7.374,7.374,0,0,1,.834.041c.293.032.476-.1.436-.35-.088-.591.263-.953.731-1.4-.043.414-.062.746-.113,1.072s.059.55.366.62c.183.041.315.2.557.154a2.469,2.469,0,0,1,.732.112,4.158,4.158,0,0,0,.731.1.4.4,0,0,0,.3-.216c.124-.53.638-.648.977-.95l.084.049-.581,1.107a1.958,1.958,0,0,0,1.544.371,1.839,1.839,0,0,1,1.1-1.107l-.528,1.212.952.186c0-.266-.051-.533.059-.7a4.835,4.835,0,0,1,.732-.683l.1.041a6.889,6.889,0,0,1-.186,1.051,6.362,6.362,0,0,1-.521,1.163.5.5,0,0,1-.391.165,4.505,4.505,0,0,1-.887-.15,3.059,3.059,0,0,1-.515-.253,2.257,2.257,0,0,1-2.232-.539ZM80.026,53.354a.957.957,0,0,0,.036.185c.323.694.643,1.389.973,2.08a1.194,1.194,0,0,0,.233.334c.129.123.273.123.359-.066a1.215,1.215,0,0,0-.223-1.564c-.424-.345-.891-.627-1.378-.97m-2.395-9.23c-.509.727-.959,1.4-1.436,2.05a.543.543,0,0,0-.032.76,13.709,13.709,0,0,1,.936,1.454c.141.241.3.284.486.116.456-.414.955-.171,1.436-.171l.036.1c-.3.167-.614.316-.9.505a.726.726,0,0,0-.312.4c-.065.309.1.455.452.455.206.44.417.884.654,1.389.525-.636,1.119-.407,1.752-.182-.381.208-.718.407-1.077.593-.284.149-.36.364-.177.618a2.647,2.647,0,0,0,.621.614c.718.473,1.483.888,2.208,1.36a1.205,1.205,0,0,1,.625,1.654,1.767,1.767,0,0,1-.273.621.778.778,0,0,1-.481.3,12.57,12.57,0,0,1-1.335,0,.718.718,0,0,1-.679-.469q-.956-2.13-1.967-4.235c-.19-.389.111-.473.276-.654-.025-.026-.043-.051-.053-.051a.828.828,0,0,1-.875-.727c-.043-.149-.115-.221-.327-.265s-.359-.422-.424-.683a1.925,1.925,0,0,1,.079-.687c.021.019,0,0,0,0-.51.113-.764-.171-1-.585s-.6-.862-.89-1.3a.436.436,0,0,1,0-.331,5.64,5.64,0,0,1,.319-.578,3.911,3.911,0,0,1-.653.123.668.668,0,0,1-.434-.131c-.456-.487-.88-1-1.325-1.494-.2-.226-.19-.4.065-.557.359-.222.718-.447,1.077-.658a.648.648,0,0,1,.405-.062l-.438.4a.272.272,0,0,0-.031.443q.667.764,1.331,1.531c.175.2.291.055.381-.069a8.137,8.137,0,0,0,.61-.916.9.9,0,0,1,.679-.5c.186-.029.387-.1.692-.178m-23.715,66.43c-.206-.871-.4-1.7-.6-2.531-.117-.475-.376-.683-.674-.6a.779.779,0,0,0-.451.952c.166.73.334,1.467.514,2.2.053.216.035.307-.206.355-.436.088-.869.232-1.354.364-.35-1.495-.7-2.974-1.056-4.506.463-.123.918-.251,1.372-.355.052,0,.154.088.191.16a2.373,2.373,0,0,1,.113.423A1.88,1.88,0,0,1,53,105.894a1.389,1.389,0,0,1,1.5.4,1.962,1.962,0,0,1,1.185-1.09,1.413,1.413,0,0,1,1.913,1.143c.248,1.007.47,2,.714,3.041l-1.62.44q-.256-1.092-.518-2.182-.061-.275-.143-.545a.491.491,0,0,0-.576-.4.526.526,0,0,0-.494.553,11.41,11.41,0,0,0,.236,1.405c.1.48.221.952.342,1.45l-1.628.444Z" transform="translate(0.315 7.355)" fill="#bd9a5f" fill-rule="evenodd"/>
    <path id="Path_6026" data-name="Path 6026" d="M16.832,45.7a1.183,1.183,0,0,0-1.272.539,1.522,1.522,0,0,1,1.243-2.5.627.627,0,0,1,.638.486c.041.148.106.287.19.5.281-.28.522-.528.773-.765s.547-.522.839-.759c.182-.148.182-.273,0-.407-.493-.372-.981-.751-1.487-1.1-.288-.2-.537-.517-.97-.416a.215.215,0,0,1-.139-.113c-.1-.354-.189-.709-.3-1.1.656.319,1.221,0,1.823-.064a2.1,2.1,0,0,1,.08.553,1.162,1.162,0,0,0,.638,1.141A4.619,4.619,0,0,1,20.3,43.158a.393.393,0,0,1-.072.585c-.322.28-.635.563-.938.857a7.649,7.649,0,0,0-.85.883.532.532,0,0,1-.685.245,1.728,1.728,0,0,0-.259-.046c-.021.036-.043.061-.04.068.314.464.11.794-.218,1.177-.627.737-1.189,1.531-1.8,2.332l-1.383-.783-2.228-1.294a1.16,1.16,0,0,1-.685-1.219l3.135,1.758c.062.031.12.071.179.1.522.273.562.216.864-.294a9.86,9.86,0,0,1,.981-1.181c.165-.209.339-.418.529-.652M10.039,83.605a2.846,2.846,0,0,0,.488.8,1.124,1.124,0,0,0,.761.17.445.445,0,0,0,.406-.5.38.38,0,0,0-.015-.056c-.066-.28-.175-.552-.273-.854l-1.368.446Zm-1.173.4-2.159.719L6,83.129l5.858-1.982c.437,1.036.874,2.073,1.269,3.109a1.475,1.475,0,0,1,.039.774c-.168.933-1.539,1.365-2.308,1.241a1.937,1.937,0,0,1-1.5-1.14c-.172-.37-.32-.74-.492-1.123Zm4.25,9.484a.563.563,0,0,0,.518.6.533.533,0,0,0,.177-.02,1.47,1.47,0,0,0,.9-.689.6.6,0,0,0-.151-.823.563.563,0,0,0-.24-.1,1.28,1.28,0,0,0-1.208,1.027Zm2.237-4.115.933,1.216-1.364,1.1a5.994,5.994,0,0,1,.869.583,1.489,1.489,0,0,1,.3,1.767A2.678,2.678,0,0,1,14,95.544a1.528,1.528,0,0,1-1.618-1.44,1.6,1.6,0,0,1,.052-.533L12,93.876c-.141-.172-.288-.344-.429-.533s-.281-.375-.431-.586Zm68.007-5.522a1.68,1.68,0,0,0-.374-.476,3.061,3.061,0,0,0-.8-.353.692.692,0,0,0-.8.384.594.594,0,0,0,.2.822,3.4,3.4,0,0,0,1.033.419C82.995,84.718,83.361,84.339,83.361,83.854ZM80.9,82.476l-1.869-.749c.2-.541.373-1.06.6-1.609l5.574,2.22L84.662,83.8l-.528-.169c.041.118.067.211.1.3a1.7,1.7,0,0,1-.854,2.205,1.6,1.6,0,0,1-.641.137,3.012,3.012,0,0,1-2.09-.642,1.847,1.847,0,0,1-.442-2.528,1.79,1.79,0,0,1,.535-.516l.161-.119Zm-8.286,9.986.847.862L71.8,95.24l.679.681,1.441-1.63.81.786L73.3,96.733l1.618,1.6-1.152,1.326-3.991-3.941Zm-43.5,11.315,1.342.512-.211.549a2.166,2.166,0,0,1,1.373-.187,1.247,1.247,0,0,1,1.012,1.767c-.326.874-.678,1.648-1.053,2.5l-1.427-.566c.3-.73.579-1.437.874-2.137a.444.444,0,0,0-.194-.617l-.021-.009a.57.57,0,0,0-.741.131,2.188,2.188,0,0,0-.274.469c-.221.5-.429,1-.643,1.494-.035.073-.077.147-.123.237l-1.43-.551ZM65.179,106.1l-1.447.761c-.752-1.152-1.447-2.278-2.184-3.432l1.342-.714.337.495c.064-.173.109-.31.166-.442a1.716,1.716,0,0,1,1.913-1.025,1.489,1.489,0,0,1,.751.481c.583.813,1.106,1.658,1.662,2.514l-1.466.775c-.422-.658-.823-1.3-1.241-1.944a.577.577,0,0,0-.751-.311.57.57,0,0,0-.376.682,2.778,2.778,0,0,0,.248.495c.3.492.613.975.921,1.461l.123.2Z" transform="translate(0.172 7.67)" fill="#bd9a5f" fill-rule="evenodd"/>
    <path id="Path_6027" data-name="Path 6027" d="M12.271,86.634l.742,1.48-1.81,1.1a1.828,1.828,0,0,0-.22.151c-.219.18-.419.376-.25.711a.607.607,0,0,0,.8.329c.615-.329,1.209-.69,1.814-1.04l.223-.136c.247.478.481.941.746,1.454l-3.487,2.12-.687-1.356.519-.35a1.788,1.788,0,0,1-1.3-1.025,1.383,1.383,0,0,1,.426-1.882c.794-.547,1.628-1.029,2.484-1.559m64.793,3.25c.272-.439.517-.831.766-1.233l.6.283a1.634,1.634,0,0,1,.049-1.529,1.387,1.387,0,0,1,1.847-.638c.983.408,1.915.9,2.907,1.363L82.4,89.455q-.357-.16-.7-.342c-.509-.248-1.011-.507-1.533-.746a.607.607,0,0,0-.851.15.479.479,0,0,0,.125.719.612.612,0,0,0,.074.041c.475.292.989.535,1.492.8.241.123.486.239.765.374l-.823,1.329Zm3.086,3.089-.885,1.121-.53-.29a1.761,1.761,0,0,1-.314,1.522,1.392,1.392,0,0,1-1.831.368c-.8-.437-1.564-.942-2.344-1.42l-.268-.17.956-1.226,1.761,1.1a3.6,3.6,0,0,0,.373.208.554.554,0,0,0,.7-.057.455.455,0,0,0,.078-.669,3.029,3.029,0,0,0-.645-.528c-.5-.333-1.018-.644-1.538-.968l.952-1.219ZM59.2,106.6l1.442-.618a.853.853,0,0,0-1.111-.562q-.037.015-.072.033A.893.893,0,0,0,59.2,106.6H59.2Zm.262.832c.469.808,1.176.808,1.578.044.045-.085.1-.2.169-.222.466-.166.936-.311,1.458-.48a2.173,2.173,0,0,1-.962,1.749,4.03,4.03,0,0,1-2.066.744,2.285,2.285,0,0,1-1.992-1.746,2.436,2.436,0,0,1,1.366-3.04c.045-.017.091-.033.137-.046a2.862,2.862,0,0,1,1.592-.3c.988.21,1.447.974,1.789,1.947l-3.07,1.346Zm-19.087,1.6c.051-.555-.18-.851-.658-.871a.751.751,0,0,0-.885.5.574.574,0,0,0-.015.169Zm1.679.916-3.379-.407a.609.609,0,0,0,.281.72.96.96,0,0,0,.962.063,1.012,1.012,0,0,1,.72-.067c.385.094.751.157,1.181.245a2.064,2.064,0,0,1-1.735.828,9.288,9.288,0,0,1-1.539-.175,1.89,1.89,0,0,1-1.589-2.048,2.02,2.02,0,0,1,1.72-1.829,3.986,3.986,0,0,1,2.567.4,1.639,1.639,0,0,1,.851,1.375c.007.293-.027.586-.038.9ZM7.193,66.152a4.336,4.336,0,0,0-.486.05.767.767,0,0,0-.7.852.8.8,0,0,0,.834.728,5.276,5.276,0,0,0,.828-.178.647.647,0,0,0,.531-.682.671.671,0,0,0-.5-.678,3.29,3.29,0,0,0-.5-.093m-2.69-1c.034.31.082.623.1.938a.309.309,0,0,1-.17.213.578.578,0,0,0-.459.616,1,1,0,0,0,.376.678,4.993,4.993,0,0,0,1.109.34,6.246,6.246,0,0,1-.309-1.2,1.636,1.636,0,0,1,1.5-1.671,3.738,3.738,0,0,1,1.159.031,1.838,1.838,0,0,1,1.354,1.844A1.882,1.882,0,0,1,7.716,68.91a5.7,5.7,0,0,1-3.311-.019,2.13,2.13,0,0,1-1.3-2.676,2.047,2.047,0,0,1,.19-.425A1.492,1.492,0,0,1,4.5,65.148m8.488-14.33v-.123c-.264,0-.582-.094-.782.023-.272.163-.169.514-.134.844Zm-3,5.7.114.026.693-1.236L9.54,55.036l-.082.095A1.737,1.737,0,0,1,9.99,56.523Zm1-1.037c.118.156.232.319.358.464a.513.513,0,0,1,.039.717l-.007.008c-.272.362-.518.751-.8,1.156-.443-.326-.955-.616-1.154-1.149a11.586,11.586,0,0,1-.357-1.642c-.553,0-.582-.559-.929-.78l.046-.1c.325.066.65.123.972.2.561.131,1.114.276,1.675.41.457.112.507.058.686-.363a12.932,12.932,0,0,1,.668-1.362.463.463,0,0,0-.039-.551,4.845,4.845,0,0,1-.65-1.261,4.686,4.686,0,0,1,0-1.4c0-.167.121-.272.357-.221.425.1.861.168,1.293.247a1.012,1.012,0,0,1,.808.6c.093.207.225.4.357.632-.375.362-.743.7-1.125,1.029-.464.406-.478.406-.143.936a.561.561,0,0,1,.029.658c-.228.406-.418.833-.611,1.262-.243.533-.432.634-1,.51-.139-.032-.278-.058-.418-.082l-.058.075Zm31.1,54.587c.461-.021.885-.051,1.306-.055a.365.365,0,0,1,.24.147.752.752,0,0,0,.948.288.456.456,0,0,0,.244-.3c0-.106-.14-.247-.244-.282-.473-.147-.962-.24-1.433-.388a1.111,1.111,0,0,1-.824-1.32,1.2,1.2,0,0,1,1.109-.94,7.588,7.588,0,0,1,1.67.068,1.263,1.263,0,0,1,1,1.031c-.425.028-.831.056-1.24.069a.261.261,0,0,1-.207-.1.568.568,0,0,0-.627-.278c-.147.031-.275.178-.408.274.111.1.2.257.334.292.424.117.868.161,1.292.286a1.186,1.186,0,0,1,.7,1.886,1.386,1.386,0,0,1-1.069.566,8.767,8.767,0,0,1-1.824-.127,1.283,1.283,0,0,1-.968-1.116m-18.716-7.611c-.417-.259-.815-.5-1.206-.771a.3.3,0,0,1-.091-.236.872.872,0,0,0-.459-.9.814.814,0,0,0-.971.088,2.533,2.533,0,0,0-.337.331.971.971,0,0,0-.193,1.289.944.944,0,0,0,1.278.252l1.138,1.126a1.785,1.785,0,0,1-1.782.386,3.219,3.219,0,0,1-2.274-2.315,1.751,1.751,0,0,1,.049-.969c.557-1.447,1.971-2.339,3.483-1.348a3.149,3.149,0,0,1,1.516,1.833,1.779,1.779,0,0,1-.151,1.231M60.39,35.126l-.114-.747-.941.36,1.055.387Zm.646-1.692c.426-.505.93-1.014.725-1.8l1.214-.833c-.158.663.519.909.716,1.422-.437.13-.642.721-1.182.545-.441.425-.9.844-1.316,1.288a.63.63,0,0,0-.11.458,2.585,2.585,0,0,1-.586,1.721l-2.4-.83c-.635-.223-.686-.317-.434-.9.107-.249.252-.483.394-.771.292.645.422.7,1.111.54A7.621,7.621,0,0,0,60,34.043c.082-.033.193-.181.17-.239-.181-.476-.394-.945-.615-1.468l-.354.278a12.741,12.741,0,0,1-.989-1.083.6.6,0,0,1-.028-.573,4.774,4.774,0,0,1,.737-.885.456.456,0,0,1,.394.095,3.921,3.921,0,0,1,.634.844c.379.794.717,1.588,1.091,2.421Zm8.923,6.736a6.237,6.237,0,0,0-.1-.764c-.072-.247-.314-.173-.5-.14a.236.236,0,0,0-.226.251.206.206,0,0,0,.031.082.99.99,0,0,0,.8.572m-2.671-1.84c-.332.226-.6.412-.864.589-.835.542-.911,1.218-.148,1.82a4.927,4.927,0,0,0,2.444.972c.57.072.809-.12.922-.649a.313.313,0,0,0,0-.13,5.637,5.637,0,0,1-1.057-.293c-.7-.353-.729-1-.057-1.391a8.159,8.159,0,0,1,1.541-.622.62.62,0,0,1,.757.329.515.515,0,0,1,.025.093,2.158,2.158,0,0,1-.019.932,3.981,3.981,0,0,1-.578,1.312,2.159,2.159,0,0,1-2.244,1.068,7.051,7.051,0,0,1-2.312-.7c-1.008-.589-1.4-1.477-.378-2.329a14.463,14.463,0,0,1,1.553-1,.444.444,0,0,1,.166-.047,1.126,1.126,0,0,1,.249.043M47.841,108.2l-.517.045-.091-1.194.5-.114a1.048,1.048,0,0,0,0-.311.616.616,0,0,1,.324-.759c.324-.209.648-.456,1-.717.045.576.083,1.1.125,1.654l.783-.072c.03.4.062.785.095,1.2l-.777.125c.026.379.048.789.077,1.191,0,.072.023.14.03.212.058.652.087.675.647.519a.667.667,0,0,1,.123,0c.055.309.115.618.154.93a.254.254,0,0,1-.11.208,2.78,2.78,0,0,1-1.539.156c-.386-.106-.648-.576-.686-1.241-.039-.593-.091-1.187-.143-1.836m19.743-8,.748-.494.7.919-.732.538c.344.445.669.882,1.013,1.306a.321.321,0,0,0,.5.021c.1-.084.206-.177.332-.286l.748.771a3.805,3.805,0,0,1-1.6,1.111.936.936,0,0,1-.986-.318c-.47-.535-.9-1.094-1.371-1.66l-.49.3c-.231-.3-.457-.6-.7-.907l.494-.379c-.621-.414-.374-.864-.086-1.324.157-.247.284-.514.456-.825l.972,1.222Zm-32.857,8.2,1.564-2.267,1.684.473-3.091,3.684c-.45-.121-.888-.235-1.322-.378a.278.278,0,0,1-.165-.189c-.132-1.005-.253-2.014-.39-3.024-.059-.494-.113-.993-.176-1.552l1.774.492V108.4h.121Zm-4.982-6.5-2.594,5.3-1.52-.869c.867-1.765,1.72-3.523,2.6-5.3ZM18.4,93.835l1.064,1.183-4.072,3.96L14.315,97.8ZM84.1,71.8l.077.067a1.845,1.845,0,0,0,.457-.132,2.7,2.7,0,0,0,.427-.373l-.482-.371h-.119l-.36.81ZM80.15,72.885a1.554,1.554,0,0,1,.35-.221c.638-.214,1.275-.444,1.931-.6.332-.077.454-.179.451-.494a1.409,1.409,0,0,1,.5-1.209.841.841,0,0,1,.532-.185,3.5,3.5,0,0,1,2.133.94c.433.4.35.752-.154,1.072a3.123,3.123,0,0,1-1.452.352,8.47,8.47,0,0,0-1.4.129,10.956,10.956,0,0,0-1.4.5c-.091.032-.185.1-.262.089-.394-.077-.786-.179-1.177-.273ZM86.3,67.822a1.018,1.018,0,0,1-.284.057.517.517,0,0,0-.6.429c-.079.254.134.384.372.493.112.049.179.175.268.267a1.206,1.206,0,0,1-.4.079,5.7,5.7,0,0,1-1.064-.218.716.716,0,0,1-.613-.846.666.666,0,0,1,.091-.206.65.65,0,0,0-.134-.905,1.193,1.193,0,0,1-.2-.35.5.5,0,0,0-.156,0,10.407,10.407,0,0,1-3.058.178c-.127,0-.25-.112-.373-.172a1.108,1.108,0,0,1,.332-.208,17,17,0,0,0,1.867-.33,22.843,22.843,0,0,0,2.445-.965.644.644,0,0,1,.669,0c.206.122.4.247.676.417-.268.214-.514.393-.728.595-.44.416-.419.641.068,1.018.134.1.28.19.422.287l.422.274-.019.106ZM8.064,71.9V69.517c0-.274.072-.391.362-.367s.476,0,.746,0v4.091a1.7,1.7,0,0,1-1.286-.318,8.081,8.081,0,0,0-4.22-1.7c-.214-.024-.425-.059-.667-.091V70.023A8.756,8.756,0,0,1,8.064,71.9M3,77.37v-.912H7.341l-.856-1.139h.994a.252.252,0,0,1,.18.1,2.7,2.7,0,0,0,1.4,1.194c.062.021.1.115.111.179v.587ZM3,64v-1.34H7.358l-.877-1.746h.973a.416.416,0,0,1,.247.24,3.477,3.477,0,0,0,1.337,1.694.339.339,0,0,1,.125.244c.019.276,0,.55,0,.874ZM28.077,34.172a2.383,2.383,0,0,1,1.618,2.008c.186.8-.155,1.108-.8,1.413-.981.457-1.915,1.005-2.88,1.49a2.109,2.109,0,0,1-.854.228,1.123,1.123,0,0,1-1.193-.823c-.154-.48-.286-.967-.4-1.456a1.052,1.052,0,0,1,.04-.362h.115c.092.225.186.45.27.682a1.076,1.076,0,0,0,1.677.617c1.07-.533,2.111-1.116,3.179-1.664.267-.137.231-.3.068-.45s-.4-.271-.6-.423a.539.539,0,0,1-.215-.313,4.77,4.77,0,0,1-.031-.948m44.208,7.812c-.179.051-.3.048-.334.1s-.106.274-.061.333a5.87,5.87,0,0,0,.673.684c.023.024.224-.076.237-.139a1.1,1.1,0,0,0,0-.624c-.093-.147-.378-.266-.514-.354Zm-4.389.87c.1.087.228.159.282.271a2.422,2.422,0,0,0,2.28,1.276,2.457,2.457,0,0,0,1.877-.337,5.159,5.159,0,0,0,.381-.4l-.058-.075c-.129.056-.254.119-.381.171a1.02,1.02,0,0,1-1.222-.354.764.764,0,0,1,0-.969c.095-.132.2-.251.3-.378a3.129,3.129,0,0,1,2.216-.648.6.6,0,0,1,.381.74,3.22,3.22,0,0,1-1.07,2.061,4.984,4.984,0,0,1-2.352,1.224,1.483,1.483,0,0,1-1.558-.536c-.4-.545-.733-1.145-1.086-1.725a1.156,1.156,0,0,1-.083-.271ZM17.5,101.035l-1.127-1.187,2.965-2.928,1.15,1.159ZM33.236,32.115a2.248,2.248,0,0,1,1.575,1.815,5,5,0,0,1-.173,2.445,1.035,1.035,0,0,1-1.083.877c-.469,0-.936-.041-1.4-.075a1.39,1.39,0,0,1-.351-.132v-.119a3.351,3.351,0,0,1,.546-.041,1.218,1.218,0,0,0,1.286-.751,13.531,13.531,0,0,0,.679-1.42.716.716,0,0,0-.3-1.032q-.157-.106-.321-.2c-.581-.326-.607-.375-.5-1.144ZM86.322,61.347c-1.086,1.331-5.386,2.164-6.172,1.228a2.459,2.459,0,0,1,.514-.2,8.777,8.777,0,0,0,4.028-1.385.4.4,0,0,1,.286-.072c.432.121.858.27,1.343.426m0,14.409c-.97,1.3-5.277,2.163-6.172,1.224a4.718,4.718,0,0,1,.8-.235,8.193,8.193,0,0,0,3.77-1.358.5.5,0,0,1,.36-.058c.415.119.819.273,1.245.426m-66.8-38.5c.3.293.618.572.9.886q.831.908,1.61,1.861a2.439,2.439,0,0,1,.514,1.369,1.111,1.111,0,0,1-.181-.113c-.808-.8-1.6-1.6-2.417-2.4a1.124,1.124,0,0,1-.363-.747c-.021-.279-.081-.558-.124-.836l.064-.022Zm46.226-5.1c-.167.416-.317.839-.5,1.247-.343.771-.689,1.539-1.064,2.294a3.424,3.424,0,0,1-1.522,1.555c.167-.442.309-.819.455-1.187.359-.926.71-1.856,1.1-2.769a1.81,1.81,0,0,1,.546-.645,8.084,8.084,0,0,1,.9-.542ZM30.722,36.229c-.168-.3-.3-.521-.417-.739-.492-.916-.972-1.846-1.477-2.739-.235-.418-.023-.82-.033-1.226a2.183,2.183,0,0,1,.077-.439c.1.177.2.314.265.458.468.967.942,1.931,1.389,2.906a3.087,3.087,0,0,1,.2,1.78M49.29,28.442a.964.964,0,0,1-.1.132c-.689.594-.425.555-1.261.175-.145-.064-.284-.172-.414,0-.272.337-.576.237-.891.062l-.418-.237L46.957,28l.28.154c.576.291.607.284.958-.043.059-.053.213-.041.323-.037s.107.047.162.074ZM20.57,96.921l-1.111-1.246.768-.812c.426.405.839.812,1.289,1.254ZM69.863,36.43l.2-.08c.515-.2.526-.207.749.442.088.264.193.44.414.3s.375,0,.463.314c.06.22.146.44.235.679a4.289,4.289,0,0,1-.617.2.306.306,0,0,1-.229-.172,1.66,1.66,0,0,1-.156-.406c-.082-.274-.172-.48-.439-.339-.152.093-.329,0-.4-.212q-.008-.024-.013-.048c-.057-.239-.134-.441-.207-.679M6.32,55.774l-.234-.617a1.488,1.488,0,0,1,.188-.173.433.433,0,0,0,.181-.617A.309.309,0,0,1,6.5,54.13a4.259,4.259,0,0,1,.376-.414c.347.552.347.565-.2,1.135.139.549.116.608-.357.923m20.34-21.6c0,.062,0,.093-.028.125-.144.438-.144.433-.741.455a.508.508,0,0,0-.313.114c-.231.335-.467.407-.976.266a.714.714,0,0,1,.045-.163c.1-.362.1-.367.58-.364.227,0,.435,0,.466-.218s.179-.223.4-.213.351,0,.569,0M44.8,30.04a3.188,3.188,0,0,1-.415-.28.27.27,0,0,0-.419-.065.35.35,0,0,0-.095.145c-.045.07-.1.13-.171.217l-.579-.417c.045-.07.063-.1.086-.14.3-.423.3-.43.7-.168a.294.294,0,0,0,.458-.052,2.336,2.336,0,0,1,.22-.252l.1.063.493.35-.38.6ZM79.2,46.516c.3.057.564.1.824.163a.224.224,0,0,1,.126.175.954.954,0,0,1-.058.345c-.047.137.074.391-.291.339-.53-.076-.713-.211-.675-.508.01-.151.04-.3.074-.513M44.147,28.5l-.48.526-.548-.483.5-.545ZM34.315,71.338l1.6-.2,2.636-.326a7.057,7.057,0,0,1,2.232.148,3.022,3.022,0,0,0,1.673-.077.371.371,0,0,0,.28-.412c.041-1.908.095-3.815.149-5.722.044-1.447.095-2.895.138-4.342q.074-2.3.135-4.591l.132-4.082v-.193l-.117-.033c-.2.575-.41,1.146-.578,1.728-.076.272-.079.535-.389.679a.532.532,0,0,0-.261.661.569.569,0,0,1-.291.669c-.426.308-.808.679-1.232,1.046-.1-1.311-.244-2.657-.291-4.012a6.2,6.2,0,0,1,.306-1.462c-.727.37-1.008,1.083-1.455,1.773l-.2-1.755a3.743,3.743,0,0,0-.33.46c-.226.453-.422.917-.651,1.362-.182.37-.288.37-.654.159l-.866,1.677a1.156,1.156,0,0,1-.076-.262v-.992c0-.329,0-.635-.363-.838a.593.593,0,0,1-.215-.743c.069-.248.175-.486.258-.742a4.976,4.976,0,0,0,.277-.81,2.621,2.621,0,0,1,1.549-1.981l1.018-.508a1.337,1.337,0,0,0-1.52.1,4.684,4.684,0,0,1-1.819.835,1.6,1.6,0,0,1,.826-1.228c.418-.286.872-.508,1.349-.78a1.132,1.132,0,0,0-.957.1c-.627.219-1.25.475-1.887.672a3.67,3.67,0,0,1-.836.051c-.284-1.321,2.28-3.636,4.186-2.9a.71.71,0,0,0-.618-.5c-.625-.1-1.258-.149-1.888-.216l-.138-.019c.574-.98,1.846-1.314,3.461-.917a4.239,4.239,0,0,0-2.545-1.878,17.086,17.086,0,0,1,2.014-.475,11.119,11.119,0,0,1,2.273-.037,2.114,2.114,0,0,1,1.817,1.57c.128.346.306.672.483,1.058a1.152,1.152,0,0,0,.255-1.073,3.662,3.662,0,0,1-.12-1.2,2.984,2.984,0,0,1,.655-1.214A15.69,15.69,0,0,1,45.1,38.287a1.987,1.987,0,0,1,.338,2.278c-.3.494-.218.706.24,1.113a6.219,6.219,0,0,1,2.211-1.247,6.064,6.064,0,0,1,4.523.549,12.042,12.042,0,0,1,1.738,1.09c-1.818.1-3.575-.43-5.363-.393l4.433,1.114c0,.434.364.635.633.895a2.277,2.277,0,0,1,.825,1.261V45.2a13.722,13.722,0,0,0-4.134-1.032,2.2,2.2,0,0,0,1.294.72c.568.148,1.15.249,1.7.434a1.871,1.871,0,0,1,1.287,2.286,3.4,3.4,0,0,0,.165.984,1.446,1.446,0,0,1,0,.515,2.393,2.393,0,0,0-1.353-.772c-.193-.041-.339-.267-.521-.371a9.359,9.359,0,0,0-1.029-.617,1.348,1.348,0,0,0-.521,0l-.029.091.822.642c.109.088.211.181.323.267a2.168,2.168,0,0,1,.8,2.411c-.1.442-.2.88-.3,1.322l-.109.051a4.049,4.049,0,0,1-.48-.586c-.257-.457-.469-.942-.727-1.406A2.455,2.455,0,0,0,50.2,48.718a1.256,1.256,0,0,0-.167,0c.026.051.037.1.062.115a3.746,3.746,0,0,1,1.455,2.394c.117.524.281,1.039.419,1.558.026.1.029.2.051.337-.364,0-.411.267-.43.545a1.543,1.543,0,0,1-.727,1.326,6.547,6.547,0,0,0-1.41-2.535c-.04,1.028.28,1.963-.066,2.969a6.225,6.225,0,0,0-.512-.59c-.247-.215-.4-.171-.524.138-.08.192-.128.4-.2.631a2.984,2.984,0,0,1-1.24-1.358c-.284-.6-.473-1.244-.727-1.856-.084-.208-.291-.561-.364-.542-.313.082-.192.4-.182.631.077,1.79.168,3.578.255,5.362.055,1.165.1,2.331.156,3.5l.254,5.47c.051,1.113.116,2.26.149,3.387a.415.415,0,0,0,.334.445,4.174,4.174,0,0,0,2.451-.022,8.027,8.027,0,0,1,2.713-.1,8.267,8.267,0,0,0,1.407-.1,12.169,12.169,0,0,1,1.341-.049.785.785,0,0,1,.767.595l-.789.222a2.1,2.1,0,0,0-1.378,1.036c-.214.393-.567.37-.912.282a4,4,0,0,0-2.051-.031,5.192,5.192,0,0,0-.5.216l1.937.917-.043.141-1.09-.077a6.213,6.213,0,0,0-2.942.448,1.683,1.683,0,0,1-1,0,1.707,1.707,0,0,0-1.269.051,1.9,1.9,0,0,1-1.414-.056,13.88,13.88,0,0,0-1.432-.349,1.188,1.188,0,0,0-.68.182.5.5,0,0,1-.6-.026c-.273-.193-.567-.349-.864-.531,1.122-.568,2.356-.37,3.635-.494-.123-.1-.232-.256-.364-.275A7.834,7.834,0,0,0,42.1,72.5a9.34,9.34,0,0,0-3.047.71.359.359,0,0,1-.313-.075,3.423,3.423,0,0,0-2.582-1.3c-.473-.045-.945-.074-1.41-.144a1.449,1.449,0,0,1-.455-.239l.026-.111Z" transform="translate(0.086 7.326)" fill="#bd9a5f" fill-rule="evenodd"/>
    <path id="Path_6028" data-name="Path 6028" d="M49.427,92.238c-.613.321-1.17.653-1.756.907a1.4,1.4,0,0,1-1.759-.526,1.364,1.364,0,0,1,.043-1.531,1.483,1.483,0,0,1,1.638-.5,5.257,5.257,0,0,0,.6.128l.084-.149-3.862-4.617a50.964,50.964,0,0,0-3.925,4.668l.037.1c.192-.038.369-.06.576-.113a1.464,1.464,0,0,1,1.534.325,1.373,1.373,0,0,1-1.257,2.318,12.751,12.751,0,0,1-1.52-.7,5.98,5.98,0,0,1-.531-.332c-.432.653-.841,1.284-1.262,1.907a20.633,20.633,0,0,1-1.475,2.1,4.253,4.253,0,0,1-3.541,1.559,3.029,3.029,0,0,1-2.351-1.09,1.759,1.759,0,0,1,.271-2.453,1.722,1.722,0,0,1,.564-.3,14.285,14.285,0,0,1,1.522-.373,3.1,3.1,0,0,0,1.757-1.041c.619-.746,1.194-1.545,1.789-2.318a.682.682,0,0,0-.8-.28,1.364,1.364,0,0,1-1.682-1.093,1.333,1.333,0,0,1,1.144-1.492,1.488,1.488,0,0,1,1.183.309c.215.165.429.332.635.508s.369.343.586.529l4.472-4.932c-.442-.418-.867-.859-1.332-1.247-2.14-1.788-4.231-3.638-6.448-5.318A37.706,37.706,0,0,0,18.976,70.06c-1.519-.306-3.069-.44-4.606-.656A1.945,1.945,0,0,1,14,69.328a26.893,26.893,0,0,1,7.008-.175A31.019,31.019,0,0,1,31.876,72.4,46.067,46.067,0,0,1,41.1,78.632c1.073.918,2.106,1.865,3.154,2.829a.644.644,0,0,0,.117.063c.506-.466,1.011-.936,1.523-1.4a48.645,48.645,0,0,1,11.631-8.062,31.224,31.224,0,0,1,9.045-2.775,29.109,29.109,0,0,1,6.06-.221,18.075,18.075,0,0,1,2.062.27,2.876,2.876,0,0,1-.369.06,35.345,35.345,0,0,0-11.984,3.049A45.626,45.626,0,0,0,51.3,79.606q-2.277,1.953-4.519,3.945c-.067.06-.121.134-.185.2l4.464,4.885c.457-.373.9-.747,1.368-1.1a1.436,1.436,0,0,1,1.615,0,1.31,1.31,0,0,1,.495,1.564,1.348,1.348,0,0,1-1.545.814.689.689,0,0,0-.813.231c.144.216.292.452.458.672.4.541.793,1.085,1.21,1.609a4.238,4.238,0,0,0,2.679,1.324,5.631,5.631,0,0,1,1.107.373,1.275,1.275,0,0,1,.738,1.086c.244,1.638-1.018,2.31-2.132,2.511a4.408,4.408,0,0,1-4.426-1.885C51.135,94.981,50.6,94.018,50,93.1c-.188-.317-.384-.594-.568-.865" transform="translate(0.401 8.502)" fill="#bd9a5f" fill-rule="evenodd"/>
    <path id="Path_6029" data-name="Path 6029" d="M41,73.281a6.441,6.441,0,0,1,2.3.165,4.133,4.133,0,0,0,2.744-.076,8.557,8.557,0,0,1,1.58-.356,1.1,1.1,0,0,1,.577.064c-.374.218-.776.434-1.16.662-.593.357-1.169.73-1.783,1.069a1.8,1.8,0,0,1-2.022-.132c-.7-.51-1.464-.923-2.235-1.4" transform="translate(1.175 8.616)" fill="#bd9a5f" fill-rule="evenodd"/>
  </g>
</svg>
