<svg id="img-4" xmlns="http://www.w3.org/2000/svg" width="94" height="64.886" viewBox="0 0 94 64.886">
  <g id="Group_3" data-name="Group 3">
    <path id="Path_99" data-name="Path 99" d="M211.676,182.309q-.6.275-1.219.51.3.634.641,1.248.641-.311,1.266-.661-.361-.536-.688-1.1Z" transform="translate(-180.232 -140.973)" fill="#bd9a5f" fill-rule="evenodd"/>
    <path id="Path_100" data-name="Path 100" d="M186.149,169.123l-3.666-2.961s3.426-5.488,9.679-4.9c0,0,5.286.277,6.909,4.537,0,0,1.834,5.682-2.379,9.44,0,0-6.678,5.87-9.356,7.339l3.178-1.361H199.8V185.8h-17.64v-4.332l9.785-7.911c2.066-1.671,3.6-5.03,1.07-7.1a2.992,2.992,0,0,0-2.484-.614c-1.77.316-3.412,2.172-4.38,3.278Z" transform="translate(-181.821 -142.158)" fill="#bd9a5f" fill-rule="evenodd"/>
    <path id="Path_101" data-name="Path 101" d="M229.7,165.939l0-4.4h16.1v3.933l-6.047,5.938s5.059.509,6.291,5.255c1.387,5.349-3.339,9.85-8.988,9.448a11.567,11.567,0,0,1-8.673-4.231l3.354-3.3s2.486,3.246,6.072,2.783c0,0,3.134,0,3.291-2.761.207-3.639-4.1-3.774-6.877-3.441l-.81-3.246,7.748-7.767-3.064,1.8Z" transform="translate(-179.225 -142.14)" fill="#bd9a5f" fill-rule="evenodd"/>
    <path id="Path_102" data-name="Path 102" d="M259.689,161a12.595,12.595,0,1,1-12.641,12.595A12.58,12.58,0,0,1,259.689,161Zm0,4.805a7.807,7.807,0,1,1-7.273,7.789A7.559,7.559,0,0,1,259.689,165.8Z" transform="translate(-178.176 -142.17)" fill="#bd9a5f" fill-rule="evenodd"/>
    <path id="Path_103" data-name="Path 103" d="M214.55,163.094q.449-.439.934-.848-.448-.518-.934-1-.485.486-.933,1Q214.1,162.655,214.55,163.094Z" transform="translate(-180.054 -142.157)" fill="#bd9a5f" fill-rule="evenodd"/>
    <path id="Path_104" data-name="Path 104" d="M214.6,159.769q.615-.628,1.285-1.205-.613-.754-1.285-1.45-.67.7-1.285,1.45.668.577,1.285,1.205Z" transform="translate(-180.071 -142.389)" fill="#bd9a5f" fill-rule="evenodd"/>
    <path id="Path_105" data-name="Path 105" d="M216.234,161.671q.6-.448,1.239-.853-.421-.678-.887-1.322-.66.493-1.273,1.036.481.553.921,1.138Z" transform="translate(-179.959 -142.255)" fill="#bd9a5f" fill-rule="evenodd"/>
    <path id="Path_106" data-name="Path 106" d="M218.582,165.47q-.218-.5-.461-.979.566-.207,1.146-.378.224.542.42,1.1-.561.11-1.105.259Z" transform="translate(-179.801 -141.995)" fill="#bd9a5f" fill-rule="evenodd"/>
    <path id="Path_107" data-name="Path 107" d="M217.051,165.968q-.25-.4-.526-.795c.3-.149.614-.291.927-.422q.258.442.492.9-.453.146-.893.319Z" transform="translate(-179.891 -141.959)" fill="#bd9a5f" fill-rule="evenodd"/>
    <path id="Path_108" data-name="Path 108" d="M217.642,163.61q-.331-.574-.7-1.125.615-.342,1.242-.643.343.626.65,1.275-.605.227-1.195.494Z" transform="translate(-179.867 -142.123)" fill="#bd9a5f" fill-rule="evenodd"/>
    <path id="Path_109" data-name="Path 109" d="M215.974,164.451q-.368-.457-.774-.89.5-.339,1.009-.65c.257.331.5.672.735,1.018Q216.452,164.177,215.974,164.451Z" transform="translate(-179.965 -142.063)" fill="#bd9a5f" fill-rule="evenodd"/>
    <path id="Path_110" data-name="Path 110" d="M212.92,161.7q.438-.584.917-1.137-.61-.543-1.268-1.037-.462.643-.882,1.32.638.406,1.234.854Z" transform="translate(-180.163 -142.253)" fill="#bd9a5f" fill-rule="evenodd"/>
    <path id="Path_111" data-name="Path 111" d="M214.55,182.819q.449.438.934.848-.448.518-.934,1-.485-.486-.933-1Q214.1,183.258,214.55,182.819Z" transform="translate(-180.054 -140.944)" fill="#bd9a5f" fill-rule="evenodd"/>
    <path id="Path_112" data-name="Path 112" d="M214.6,186.189q.615.628,1.285,1.205-.613.754-1.285,1.451-.67-.7-1.285-1.451.668-.576,1.285-1.205Z" transform="translate(-180.071 -140.755)" fill="#bd9a5f" fill-rule="evenodd"/>
    <path id="Path_113" data-name="Path 113" d="M216.234,184.259q.6.448,1.239.852-.421.677-.887,1.322-.66-.494-1.273-1.036Q215.794,184.845,216.234,184.259Z" transform="translate(-179.959 -140.864)" fill="#bd9a5f" fill-rule="evenodd"/>
    <path id="Path_114" data-name="Path 114" d="M212.92,184.232q.438.585.917,1.137-.61.544-1.268,1.038-.462-.643-.882-1.32.638-.4,1.234-.855Z" transform="translate(-180.163 -140.865)" fill="#bd9a5f" fill-rule="evenodd"/>
    <path id="Path_115" data-name="Path 115" d="M220.269,164.862q.619-.1,1.251-.149-.065-.683-.179-1.361-.677.113-1.341.276.157.615.269,1.234Z" transform="translate(-179.695 -142.038)" fill="#bd9a5f" fill-rule="evenodd"/>
    <path id="Path_116" data-name="Path 116" d="M222.246,162.17q.866-.154,1.744-.234-.063-.971-.208-1.928-.948.177-1.886.434.211.857.349,1.727Z" transform="translate(-179.589 -142.226)" fill="#bd9a5f" fill-rule="evenodd"/>
    <path id="Path_117" data-name="Path 117" d="M222.464,164.671q.746-.017,1.5.026.049-.8.042-1.593-.823.018-1.636.1.071.729.092,1.463Z" transform="translate(-179.562 -142.052)" fill="#bd9a5f" fill-rule="evenodd"/>
    <path id="Path_118" data-name="Path 118" d="M222.482,167.081c.04-.44.069-.881.08-1.322q.7.08,1.386.2-.083.709-.21,1.416-.624-.166-1.259-.293Z" transform="translate(-179.556 -141.903)" fill="#bd9a5f" fill-rule="evenodd"/>
    <path id="Path_119" data-name="Path 119" d="M220.632,166.8q-.037-.587-.115-1.175.6.014,1.2.057.026.629.009,1.257-.543-.084-1.092-.139Z" transform="translate(-179.666 -141.911)" fill="#bd9a5f" fill-rule="evenodd"/>
    <path id="Path_120" data-name="Path 120" d="M219.008,166.792q-.128-.457-.285-.909c.334-.059.67-.109,1.008-.148q.127.5.224,1c-.317.009-.632.03-.947.059Z" transform="translate(-179.767 -141.904)" fill="#bd9a5f" fill-rule="evenodd"/>
    <path id="Path_121" data-name="Path 121" d="M219.757,162.778q.7-.221,1.405-.393-.183-.8-.432-1.582-.749.254-1.483.562.286.7.51,1.414Z" transform="translate(-179.738 -142.181)" fill="#bd9a5f" fill-rule="evenodd"/>
    <path id="Path_122" data-name="Path 122" d="M208.849,180.928q.112.618.269,1.234-.664.16-1.342.275-.115-.678-.179-1.361.632-.052,1.252-.149Z" transform="translate(-180.392 -141.051)" fill="#bd9a5f" fill-rule="evenodd"/>
    <path id="Path_123" data-name="Path 123" d="M208.616,179.088q.036.588.115,1.176-.6-.013-1.2-.057-.026-.629-.008-1.257.543.085,1.092.139Z" transform="translate(-180.397 -141.162)" fill="#bd9a5f" fill-rule="evenodd"/>
    <path id="Path_124" data-name="Path 124" d="M206.949,183.688q.137.87.349,1.727-.936.258-1.886.434c-.1-.637-.166-1.281-.208-1.928q.878-.08,1.744-.234Z" transform="translate(-180.527 -140.896)" fill="#bd9a5f" fill-rule="evenodd"/>
    <path id="Path_125" data-name="Path 125" d="M209.394,183.08q.227.712.515,1.415-.736.306-1.488.56-.251-.786-.437-1.584Q208.7,183.3,209.394,183.08Z" transform="translate(-180.37 -140.93)" fill="#bd9a5f" fill-rule="evenodd"/>
    <path id="Path_126" data-name="Path 126" d="M213.525,181.33c-.309.186-.624.361-.942.529q.341.5.715.974.5-.312.978-.65-.391-.416-.751-.854Z" transform="translate(-180.112 -141.028)" fill="#bd9a5f" fill-rule="evenodd"/>
    <path id="Path_127" data-name="Path 127" d="M212.565,180.025q-.437.184-.888.341.243.448.511.884.466-.208.919-.445-.285-.383-.543-.78Z" transform="translate(-180.163 -141.101)" fill="#bd9a5f" fill-rule="evenodd"/>
    <path id="Path_128" data-name="Path 128" d="M210.8,180.642q-.565.157-1.145.275.209.565.445,1.116.6-.18,1.188-.4-.257-.488-.488-.989Z" transform="translate(-180.276 -141.067)" fill="#bd9a5f" fill-rule="evenodd"/>
    <path id="Path_129" data-name="Path 129" d="M210.261,179.094q-.473.028-.95.027.081.5.19,1c.339-.028.678-.067,1.014-.114-.095-.3-.178-.609-.254-.916Z" transform="translate(-180.296 -141.154)" fill="#bd9a5f" fill-rule="evenodd"/>
    <path id="Path_130" data-name="Path 130" d="M206.7,181.121q.018.73.089,1.46-.81.087-1.632.108-.005-.792.044-1.589Q205.959,181.14,206.7,181.121Z" transform="translate(-180.529 -141.041)" fill="#bd9a5f" fill-rule="evenodd"/>
    <path id="Path_131" data-name="Path 131" d="M223.943,169.745q.557.287,1.1.619.348-.589.655-1.205-.614-.309-1.245-.57Q224.215,169.18,223.943,169.745Z" transform="translate(-179.474 -141.744)" fill="#bd9a5f" fill-rule="evenodd"/>
    <path id="Path_132" data-name="Path 132" d="M220.449,168.429q.461.11.918.248.067-.506.107-1.015c-.333-.071-.668-.132-1-.184q0,.477-.02.95Z" transform="translate(-179.67 -141.806)" fill="#bd9a5f" fill-rule="evenodd"/>
    <path id="Path_133" data-name="Path 133" d="M222.247,168.987q.549.207,1.087.454.164-.58.3-1.165-.592-.21-1.2-.376Q222.354,168.445,222.247,168.987Z" transform="translate(-179.569 -141.783)" fill="#bd9a5f" fill-rule="evenodd"/>
    <path id="Path_134" data-name="Path 134" d="M227.139,168.731q.789.386,1.546.841.52-.822.966-1.681c-.581-.278-1.173-.534-1.779-.763q-.334.818-.733,1.6Z" transform="translate(-179.294 -141.826)" fill="#bd9a5f" fill-rule="evenodd"/>
    <path id="Path_135" data-name="Path 135" d="M225.839,170.895q.613.427,1.2.908.508-.616.97-1.262-.676-.471-1.383-.884-.371.632-.785,1.237Z" transform="translate(-179.367 -141.684)" fill="#bd9a5f" fill-rule="evenodd"/>
    <path id="Path_136" data-name="Path 136" d="M224.758,167.747q.692.232,1.366.512.32-.753.58-1.534-.754-.236-1.528-.422-.181.735-.418,1.444Z" transform="translate(-179.428 -141.872)" fill="#bd9a5f" fill-rule="evenodd"/>
    <path id="Path_137" data-name="Path 137" d="M205.277,175.991q-.273.565-.508,1.156-.632-.261-1.246-.57.307-.616.655-1.205.541.331,1.1.619Z" transform="translate(-180.621 -141.363)" fill="#bd9a5f" fill-rule="evenodd"/>
    <path id="Path_138" data-name="Path 138" d="M207.263,172.852q-.3.366-.585.752-.356-.364-.693-.748.335-.386.693-.752.281.384.585.748Z" transform="translate(-180.483 -141.546)" fill="#bd9a5f" fill-rule="evenodd"/>
    <path id="Path_139" data-name="Path 139" d="M206.169,174.375q-.315.495-.6,1.017-.478-.366-.935-.753.349-.524.731-1.021.389.389.8.757Z" transform="translate(-180.559 -141.461)" fill="#bd9a5f" fill-rule="evenodd"/>
    <path id="Path_140" data-name="Path 140" d="M202.139,177.1q-.4.784-.734,1.6-.908-.345-1.779-.763.447-.857.966-1.681.757.453,1.547.841Z" transform="translate(-180.84 -141.313)" fill="#bd9a5f" fill-rule="evenodd"/>
    <path id="Path_141" data-name="Path 141" d="M204.457,178.043q-.234.709-.415,1.446-.775-.187-1.532-.426.259-.784.577-1.538.676.281,1.369.517Z" transform="translate(-180.678 -141.242)" fill="#bd9a5f" fill-rule="evenodd"/>
    <path id="Path_142" data-name="Path 142" d="M208.788,177.45q-.461-.11-.918-.249-.067.505-.106,1.015.5.107,1,.184c0-.318,0-.635.02-.95Z" transform="translate(-180.383 -141.26)" fill="#bd9a5f" fill-rule="evenodd"/>
    <path id="Path_143" data-name="Path 143" d="M206.738,178.762q-.647-.133-1.285-.308-.129.692-.216,1.387.7.128,1.412.214c.016-.431.046-.862.089-1.292Z" transform="translate(-180.525 -141.19)" fill="#bd9a5f" fill-rule="evenodd"/>
    <path id="Path_144" data-name="Path 144" d="M207.01,176.911q-.549-.206-1.088-.454-.163.58-.3,1.165.592.21,1.2.376.08-.545.187-1.087Z" transform="translate(-180.503 -141.302)" fill="#bd9a5f" fill-rule="evenodd"/>
    <path id="Path_145" data-name="Path 145" d="M207.481,175.348q-.4-.257-.784-.539c-.154.3-.3.611-.436.924q.435.266.887.506.153-.451.333-.89Z" transform="translate(-180.467 -141.394)" fill="#bd9a5f" fill-rule="evenodd"/>
    <path id="Path_146" data-name="Path 146" d="M203.441,174.887q-.415.6-.785,1.232-.707-.408-1.383-.878.462-.642.969-1.257.585.479,1.2.9Z" transform="translate(-180.748 -141.441)" fill="#bd9a5f" fill-rule="evenodd"/>
    <path id="Path_147" data-name="Path 147" d="M224.039,175.867q.281.562.521,1.149.628-.27,1.238-.586-.314-.612-.671-1.2-.537.337-1.09.633Z" transform="translate(-179.469 -141.371)" fill="#bd9a5f" fill-rule="evenodd"/>
    <path id="Path_148" data-name="Path 148" d="M222.935,171.455q.4.358.79.737.37-.477.708-.979-.447-.378-.916-.735-.275.5-.582.977Z" transform="translate(-179.531 -141.638)" fill="#bd9a5f" fill-rule="evenodd"/>
    <path id="Path_149" data-name="Path 149" d="M221.987,172.754q.308.361.595.743c.234-.246.463-.5.682-.757q-.341-.381-.7-.742-.276.388-.575.756Z" transform="translate(-179.584 -141.552)" fill="#bd9a5f" fill-rule="evenodd"/>
    <path id="Path_150" data-name="Path 150" d="M224.433,172.937q.444.49.857,1.008.511-.482.991-.992-.491-.517-1.015-1.007-.4.509-.833.991Z" transform="translate(-179.446 -141.555)" fill="#bd9a5f" fill-rule="evenodd"/>
    <path id="Path_151" data-name="Path 151" d="M223.113,174.262q.321.491.611,1.01.473-.372.924-.765-.355-.519-.744-1.011-.384.394-.791.767Z" transform="translate(-179.521 -141.468)" fill="#bd9a5f" fill-rule="evenodd"/>
    <path id="Path_152" data-name="Path 152" d="M227.231,176.931q.411.779.754,1.593.9-.356,1.769-.786-.458-.851-.988-1.668-.751.463-1.536.862Z" transform="translate(-179.289 -141.324)" fill="#bd9a5f" fill-rule="evenodd"/>
    <path id="Path_153" data-name="Path 153" d="M221.7,170.6c.274.158.544.325.809.5q.209-.466.391-.943-.448-.245-.91-.463C221.9,170,221.807,170.305,221.7,170.6Z" transform="translate(-179.6 -141.682)" fill="#bd9a5f" fill-rule="evenodd"/>
    <path id="Path_154" data-name="Path 154" d="M224.9,177.908q.244.707.434,1.442.772-.2,1.526-.446-.268-.781-.6-1.531Q225.588,177.665,224.9,177.908Z" transform="translate(-179.42 -141.25)" fill="#bd9a5f" fill-rule="evenodd"/>
    <path id="Path_155" data-name="Path 155" d="M225.883,174.738q.423.6.8,1.222.7-.418,1.371-.9-.469-.637-.985-1.245-.579.486-1.187.919Z" transform="translate(-179.365 -141.45)" fill="#bd9a5f" fill-rule="evenodd"/>
    <path id="Path_156" data-name="Path 156" d="M205.292,169.87q-.553.3-1.09.633-.356-.584-.67-1.2.609-.316,1.238-.586.241.587.521,1.149Z" transform="translate(-180.621 -141.737)" fill="#bd9a5f" fill-rule="evenodd"/>
    <path id="Path_157" data-name="Path 157" d="M202.124,168.9q-.785.4-1.535.861-.531-.815-.988-1.668.865-.428,1.769-.787.344.813.755,1.593Z" transform="translate(-180.842 -141.816)" fill="#bd9a5f" fill-rule="evenodd"/>
    <path id="Path_158" data-name="Path 158" d="M203.434,171.044q-.607.435-1.187.924-.516-.61-.987-1.249.67-.483,1.372-.9.379.627.8,1.226Z" transform="translate(-180.748 -141.675)" fill="#bd9a5f" fill-rule="evenodd"/>
    <path id="Path_159" data-name="Path 159" d="M204.848,172.984q-.444-.49-.856-1.008-.511.482-.991.992.49.517,1.015,1.007.4-.509.832-.991Z" transform="translate(-180.65 -141.554)" fill="#bd9a5f" fill-rule="evenodd"/>
    <path id="Path_160" data-name="Path 160" d="M206.151,171.647q-.32-.491-.611-1.01-.474.372-.924.766.355.519.745,1.011.383-.394.791-.768Z" transform="translate(-180.56 -141.629)" fill="#bd9a5f" fill-rule="evenodd"/>
    <path id="Path_161" data-name="Path 161" d="M204.462,167.882q-.689.241-1.36.53-.331-.748-.6-1.526.751-.246,1.523-.442.191.733.437,1.438Z" transform="translate(-180.679 -141.864)" fill="#bd9a5f" fill-rule="evenodd"/>
    <path id="Path_162" data-name="Path 162" d="M220.521,180.841q-.1.619-.253,1.238.666.152,1.345.257.105-.68.16-1.363-.632-.044-1.253-.133Z" transform="translate(-179.68 -141.056)" fill="#bd9a5f" fill-rule="evenodd"/>
    <path id="Path_163" data-name="Path 163" d="M222.22,176.632q.117.53.2,1.063.578-.167,1.148-.374-.14-.569-.308-1.135-.517.241-1.045.445Z" transform="translate(-179.571 -141.317)" fill="#bd9a5f" fill-rule="evenodd"/>
    <path id="Path_164" data-name="Path 164" d="M220.684,177.122q.036.474.043.952c.334-.06.667-.129,1-.208q-.051-.509-.132-1.014-.451.149-.909.27Z" transform="translate(-179.657 -141.28)" fill="#bd9a5f" fill-rule="evenodd"/>
    <path id="Path_165" data-name="Path 165" d="M222.56,178.708q.071.658.1,1.32.7-.089,1.384-.217-.093-.708-.228-1.413c-.415.117-.833.218-1.255.309Z" transform="translate(-179.552 -141.193)" fill="#bd9a5f" fill-rule="evenodd"/>
    <path id="Path_166" data-name="Path 166" d="M220.713,179q-.029.587-.1,1.176.6-.021,1.2-.072.019-.629-.007-1.257-.542.091-1.09.153Z" transform="translate(-179.661 -141.167)" fill="#bd9a5f" fill-rule="evenodd"/>
    <path id="Path_167" data-name="Path 167" d="M222.486,183.576q-.127.871-.327,1.732.94.246,1.892.41c.087-.638.149-1.283.182-1.931q-.879-.069-1.746-.211Z" transform="translate(-179.574 -140.902)" fill="#bd9a5f" fill-rule="evenodd"/>
    <path id="Path_168" data-name="Path 168" d="M221.722,175.226q.193.434.361.884.441-.252.87-.531-.218-.463-.464-.912-.375.293-.766.562Z" transform="translate(-179.599 -141.402)" fill="#bd9a5f" fill-rule="evenodd"/>
    <path id="Path_169" data-name="Path 169" d="M220.024,183q-.219.715-.5,1.422.74.3,1.495.541.241-.788.417-1.589Q220.724,183.213,220.024,183Z" transform="translate(-179.722 -140.934)" fill="#bd9a5f" fill-rule="evenodd"/>
    <path id="Path_170" data-name="Path 170" d="M215.859,181.3q.468.272.948.517-.335.5-.7.984-.5-.305-.986-.637.387-.422.74-.864Z" transform="translate(-179.97 -141.03)" fill="#bd9a5f" fill-rule="evenodd"/>
    <path id="Path_171" data-name="Path 171" d="M216.787,179.987q.441.178.892.33-.236.452-.5.889-.469-.2-.925-.433.281-.385.533-.786Z" transform="translate(-179.906 -141.104)" fill="#bd9a5f" fill-rule="evenodd"/>
    <path id="Path_172" data-name="Path 172" d="M217.732,182.259q.6.266,1.226.494-.3.639-.625,1.256-.645-.3-1.275-.645Q217.413,182.823,217.732,182.259Z" transform="translate(-179.861 -140.976)" fill="#bd9a5f" fill-rule="evenodd"/>
    <path id="Path_173" data-name="Path 173" d="M218.568,180.58q.567.15,1.15.26-.2.568-.432,1.122-.6-.173-1.193-.387.251-.49.475-1Z" transform="translate(-179.803 -141.07)" fill="#bd9a5f" fill-rule="evenodd"/>
    <path id="Path_174" data-name="Path 174" d="M214.668,180.4q.355.315.73.61-.374.346-.768.67-.374-.349-.727-.719c.262-.18.516-.368.765-.562Z" transform="translate(-180.038 -141.08)" fill="#bd9a5f" fill-rule="evenodd"/>
    <path id="Path_175" data-name="Path 175" d="M219.069,179.026q.474.021.951.015c-.05.337-.108.672-.177,1-.339-.023-.678-.058-1.015-.1.091-.3.17-.611.24-.919Z" transform="translate(-179.761 -141.158)" fill="#bd9a5f" fill-rule="evenodd"/>
    <path id="Path_176" data-name="Path 176" d="M222.673,181.008q-.009.731-.07,1.461.811.077,1.634.086-.007-.791-.065-1.588-.754.051-1.5.04Z" transform="translate(-179.549 -141.048)" fill="#bd9a5f" fill-rule="evenodd"/>
    <path id="Path_177" data-name="Path 177" d="M208.9,164.923q-.62-.089-1.253-.132.057-.683.16-1.363.678.105,1.344.258-.149.618-.253,1.237Z" transform="translate(-180.39 -142.034)" fill="#bd9a5f" fill-rule="evenodd"/>
    <path id="Path_178" data-name="Path 178" d="M213.422,164.568q-.467-.272-.948-.517.334-.5.7-.984.5.305.987.637-.386.421-.74.864Z" transform="translate(-180.118 -142.054)" fill="#bd9a5f" fill-rule="evenodd"/>
    <path id="Path_179" data-name="Path 179" d="M212.479,165.87q-.441-.178-.892-.33.237-.452.5-.89.469.2.925.433-.281.385-.533.786Z" transform="translate(-180.168 -141.965)" fill="#bd9a5f" fill-rule="evenodd"/>
    <path id="Path_180" data-name="Path 180" d="M211.559,163.626q-.6-.267-1.226-.494.294-.639.624-1.257.646.3,1.275.645Q211.878,163.063,211.559,163.626Z" transform="translate(-180.239 -142.121)" fill="#bd9a5f" fill-rule="evenodd"/>
    <path id="Path_181" data-name="Path 181" d="M210.707,165.285q-.567-.15-1.149-.259.2-.569.431-1.122.6.172,1.193.387-.251.49-.475.995Z" transform="translate(-180.282 -142.007)" fill="#bd9a5f" fill-rule="evenodd"/>
    <path id="Path_182" data-name="Path 182" d="M206.914,162.257q-.867-.143-1.746-.211.05-.972.183-1.931.951.164,1.891.41-.2.861-.327,1.733Z" transform="translate(-180.529 -142.22)" fill="#bd9a5f" fill-rule="evenodd"/>
    <path id="Path_183" data-name="Path 183" d="M214.6,165.459q-.355-.315-.73-.61.374-.346.768-.67.374.349.727.719-.392.27-.765.562Z" transform="translate(-180.04 -141.992)" fill="#bd9a5f" fill-rule="evenodd"/>
    <path id="Path_184" data-name="Path 184" d="M206.7,164.76q-.746-.008-1.5.045-.058-.8-.063-1.592.824.007,1.638.08-.062.731-.073,1.465Z" transform="translate(-180.53 -142.046)" fill="#bd9a5f" fill-rule="evenodd"/>
    <path id="Path_185" data-name="Path 185" d="M207.043,169.24q-.117-.529-.2-1.063-.579.167-1.148.374.14.569.308,1.135.517-.241,1.045-.445Z" transform="translate(-180.499 -141.767)" fill="#bd9a5f" fill-rule="evenodd"/>
    <path id="Path_186" data-name="Path 186" d="M208.564,168.734q-.036-.474-.044-.952-.5.09-1,.208c.034.339.08.678.132,1.015.3-.1.6-.19.909-.271Z" transform="translate(-180.396 -141.789)" fill="#bd9a5f" fill-rule="evenodd"/>
    <path id="Path_187" data-name="Path 187" d="M206.71,167.173q-.071-.659-.1-1.321-.7.089-1.383.217.093.708.228,1.414c.415-.117.833-.219,1.255-.309Z" transform="translate(-180.525 -141.898)" fill="#bd9a5f" fill-rule="evenodd"/>
    <path id="Path_188" data-name="Path 188" d="M208.542,166.865q.028-.587.1-1.177-.6.02-1.2.072-.018.629.007,1.257Q207.993,166.925,208.542,166.865Z" transform="translate(-180.401 -141.907)" fill="#bd9a5f" fill-rule="evenodd"/>
    <path id="Path_189" data-name="Path 189" d="M207.534,170.643q-.192-.434-.36-.884-.441.254-.87.531.218.463.463.912.374-.293.766-.562Z" transform="translate(-180.465 -141.678)" fill="#bd9a5f" fill-rule="evenodd"/>
    <path id="Path_190" data-name="Path 190" d="M210.166,166.836q.123-.459.273-.913-.5-.083-1.01-.135c-.08.331-.15.666-.21,1,.317.006.632.022.947.047Z" transform="translate(-180.301 -141.901)" fill="#bd9a5f" fill-rule="evenodd"/>
    <path id="Path_191" data-name="Path 191" d="M209.4,162.833q-.7-.212-1.411-.374.172-.8.412-1.588.752.244,1.49.542-.276.706-.492,1.42Z" transform="translate(-180.37 -142.177)" fill="#bd9a5f" fill-rule="evenodd"/>
    <path id="Path_192" data-name="Path 192" d="M182.308,203.356v-4.885h.646v2.422l2.42-2.422h.874l-2.044,1.979,2.134,2.906h-.851l-1.735-2.472-.8.78v1.693Zm88.018,0,1.872-4.885h.695l2,4.885h-.735l-.569-1.48h-2.038l-.534,1.48Zm1.407-2.006h1.653L272.877,200q-.231-.616-.345-1.014a6.24,6.24,0,0,1-.263.934Zm-2.652,2.006v-4.885h.645v4.885Zm-4.679,0v-4.885h1.829a2.269,2.269,0,0,1,.9.147,1.15,1.15,0,0,1,.529.458,1.206,1.206,0,0,1,.192.645,1.1,1.1,0,0,1-.17.589,1.215,1.215,0,0,1-.512.447,1.268,1.268,0,0,1,.681.442,1.188,1.188,0,0,1,.241.74,1.434,1.434,0,0,1-.145.638,1.24,1.24,0,0,1-.358.455,1.49,1.49,0,0,1-.533.241,3.218,3.218,0,0,1-.786.08Zm.646-2.832H266.1a2.36,2.36,0,0,0,.615-.057.682.682,0,0,0,.37-.243.7.7,0,0,0,.125-.427.79.79,0,0,0-.116-.428.594.594,0,0,0-.332-.253,2.784,2.784,0,0,0-.743-.068h-.973v1.477Zm0,2.256h1.213a2.843,2.843,0,0,0,.441-.023,1.056,1.056,0,0,0,.373-.134.707.707,0,0,0,.246-.271.858.858,0,0,0,.1-.412.819.819,0,0,0-.139-.475.738.738,0,0,0-.388-.284,2.438,2.438,0,0,0-.713-.08h-1.127v1.679Zm-5.7.577,1.873-4.885h.694l2,4.885h-.735l-.568-1.48h-2.038l-.535,1.48Zm1.406-2.006h1.653L261.9,200q-.232-.616-.345-1.013a6.235,6.235,0,0,1-.263.934Zm-5.777,2.006v-4.885h2.161a2.868,2.868,0,0,1,.991.132,1.089,1.089,0,0,1,.543.464,1.4,1.4,0,0,1,.2.737,1.225,1.225,0,0,1-.336.876,1.7,1.7,0,0,1-1.037.453,1.629,1.629,0,0,1,.39.243,3.426,3.426,0,0,1,.535.65l.848,1.33h-.811l-.645-1.016c-.188-.292-.344-.518-.466-.672a1.439,1.439,0,0,0-.327-.326.968.968,0,0,0-.294-.131,2.049,2.049,0,0,0-.361-.023h-.747v2.169Zm.645-2.729h1.387a2.055,2.055,0,0,0,.691-.092.734.734,0,0,0,.379-.293.8.8,0,0,0,.129-.438.726.726,0,0,0-.251-.569,1.168,1.168,0,0,0-.793-.223h-1.544v1.616Zm-5.73,2.729,1.872-4.885h.694l1.995,4.885h-.736l-.568-1.48h-2.038l-.535,1.48Zm1.406-2.006h1.653L252.446,200q-.232-.616-.345-1.013a6.244,6.244,0,0,1-.263.934Zm-4.167,2.006v-4.885h.645v4.885Zm-5.027,0v-4.885h1.678a4.063,4.063,0,0,1,.868.07,1.647,1.647,0,0,1,.715.349,2,2,0,0,1,.576.835,3.278,3.278,0,0,1,.192,1.162,3.39,3.39,0,0,1-.13.986,2.36,2.36,0,0,1-.332.712,1.748,1.748,0,0,1-.444.442,1.783,1.783,0,0,1-.581.245,3.313,3.313,0,0,1-.783.083Zm.645-.577h1.042a2.507,2.507,0,0,0,.757-.09,1.088,1.088,0,0,0,.437-.253,1.533,1.533,0,0,0,.357-.618,3.035,3.035,0,0,0,.129-.942,2.273,2.273,0,0,0-.251-1.177,1.26,1.26,0,0,0-.61-.552,2.494,2.494,0,0,0-.834-.1h-1.025v3.733Zm-2.364-4.309h.646v2.823a3.339,3.339,0,0,1-.167,1.17,1.423,1.423,0,0,1-.6.7,2.111,2.111,0,0,1-1.138.272,2.327,2.327,0,0,1-1.122-.236,1.343,1.343,0,0,1-.622-.683,3.254,3.254,0,0,1-.186-1.224v-2.823h.645v2.82a2.747,2.747,0,0,0,.118.937.9.9,0,0,0,.405.465,1.4,1.4,0,0,0,.7.164,1.341,1.341,0,0,0,1.015-.325,1.868,1.868,0,0,0,.3-1.242v-2.82Zm-8.275,4.885,1.873-4.885h.694l1.995,4.885h-.735l-.568-1.48h-2.038l-.535,1.48Zm1.406-2.006h1.653L234.663,200c-.154-.411-.27-.748-.345-1.014a6.244,6.244,0,0,1-.263.934Zm-5.63.436.608-.053a1.343,1.343,0,0,0,.2.6,1.1,1.1,0,0,0,.49.38,1.859,1.859,0,0,0,.748.144,1.8,1.8,0,0,0,.652-.109.911.911,0,0,0,.421-.3.7.7,0,0,0,.138-.419.628.628,0,0,0-.134-.4.975.975,0,0,0-.438-.288,8.548,8.548,0,0,0-.868-.239,4.427,4.427,0,0,1-.94-.305,1.324,1.324,0,0,1-.521-.455,1.121,1.121,0,0,1-.17-.609,1.246,1.246,0,0,1,.209-.691,1.3,1.3,0,0,1,.612-.489,2.334,2.334,0,0,1,.894-.166,2.437,2.437,0,0,1,.957.175,1.375,1.375,0,0,1,.637.515,1.485,1.485,0,0,1,.24.77l-.618.047a1.007,1.007,0,0,0-.338-.7,1.309,1.309,0,0,0-.849-.237,1.361,1.361,0,0,0-.853.215.646.646,0,0,0-.268.518.556.556,0,0,0,.19.433,2.546,2.546,0,0,0,.973.349,6.47,6.47,0,0,1,1.079.311,1.488,1.488,0,0,1,.629.5,1.217,1.217,0,0,1,.2.695,1.331,1.331,0,0,1-.222.735,1.473,1.473,0,0,1-.641.537,2.226,2.226,0,0,1-.938.191,2.782,2.782,0,0,1-1.109-.193,1.556,1.556,0,0,1-.7-.582,1.645,1.645,0,0,1-.266-.879Zm-5.8,1.57V198.47h3.289v.576h-2.645v1.513h2.286v.576h-2.286v2.219Zm-5.525-2.38a2.655,2.655,0,0,1,.651-1.9,2.217,2.217,0,0,1,1.683-.688,2.342,2.342,0,0,1,1.217.321,2.114,2.114,0,0,1,.826.9,2.927,2.927,0,0,1,.284,1.31,2.881,2.881,0,0,1-.3,1.33,2.046,2.046,0,0,1-.848.888,2.415,2.415,0,0,1-1.184.3,2.294,2.294,0,0,1-1.23-.333,2.14,2.14,0,0,1-.821-.91,2.76,2.76,0,0,1-.281-1.219Zm.665.01a1.96,1.96,0,0,0,.473,1.391,1.651,1.651,0,0,0,2.338.045l.049-.049a2.083,2.083,0,0,0,.471-1.457,2.511,2.511,0,0,0-.2-1.041,1.551,1.551,0,0,0-.588-.691,1.6,1.6,0,0,0-.869-.245,1.644,1.644,0,0,0-1.179.472,2.11,2.11,0,0,0-.494,1.574Zm-8.054,2.37v-4.885h.972l1.153,3.459c.107.321.185.562.233.723q.084-.266.26-.784l1.166-3.4h.868v4.885H213.2v-4.089l-1.416,4.089h-.582L209.8,199.2v4.159Zm-5.472-2.38a2.659,2.659,0,0,1,.651-1.9,2.217,2.217,0,0,1,1.683-.688,2.341,2.341,0,0,1,1.217.321,2.12,2.12,0,0,1,.826.9,2.927,2.927,0,0,1,.284,1.31,2.88,2.88,0,0,1-.3,1.33,2.05,2.05,0,0,1-.848.888,2.422,2.422,0,0,1-1.184.3,2.293,2.293,0,0,1-1.23-.333,2.141,2.141,0,0,1-.822-.91,2.761,2.761,0,0,1-.28-1.22Zm.665.01a1.958,1.958,0,0,0,.473,1.391,1.651,1.651,0,0,0,2.338.046l.05-.05a2.085,2.085,0,0,0,.471-1.457,2.517,2.517,0,0,0-.2-1.041,1.553,1.553,0,0,0-.588-.691,1.6,1.6,0,0,0-.869-.245,1.644,1.644,0,0,0-1.179.472,2.108,2.108,0,0,0-.494,1.574Zm-5.386,2.37v-4.885h1.678a4.066,4.066,0,0,1,.868.07,1.647,1.647,0,0,1,.715.349,1.993,1.993,0,0,1,.577.835,3.277,3.277,0,0,1,.192,1.162,3.389,3.389,0,0,1-.131.986,2.361,2.361,0,0,1-.333.712,1.734,1.734,0,0,1-.444.442,1.782,1.782,0,0,1-.581.245,3.314,3.314,0,0,1-.783.083Zm.645-.577h1.042a2.509,2.509,0,0,0,.757-.09,1.087,1.087,0,0,0,.437-.253,1.533,1.533,0,0,0,.357-.618,3.02,3.02,0,0,0,.128-.942,2.281,2.281,0,0,0-.251-1.177,1.261,1.261,0,0,0-.611-.552,2.494,2.494,0,0,0-.834-.1h-1.025v3.733Zm-3.66-1.34v-.572l2.064,0v1.812a3.64,3.64,0,0,1-.98.572,2.916,2.916,0,0,1-1.037.191,2.761,2.761,0,0,1-1.305-.308,2.039,2.039,0,0,1-.886-.891,2.81,2.81,0,0,1-.3-1.3,3.022,3.022,0,0,1,.3-1.331,1.974,1.974,0,0,1,.856-.919,2.683,2.683,0,0,1,1.287-.3,2.525,2.525,0,0,1,.956.172,1.57,1.57,0,0,1,.67.478,2.137,2.137,0,0,1,.37.8l-.582.161a1.845,1.845,0,0,0-.272-.587,1.123,1.123,0,0,0-.466-.341,1.7,1.7,0,0,0-.671-.129,1.973,1.973,0,0,0-.765.135,1.424,1.424,0,0,0-.521.355,1.7,1.7,0,0,0-.307.482,2.556,2.556,0,0,0-.186.983,2.377,2.377,0,0,0,.225,1.093,1.438,1.438,0,0,0,.654.653,2.01,2.01,0,0,0,.91.214,2.145,2.145,0,0,0,.818-.163,2.054,2.054,0,0,0,.605-.345v-.91Zm-7.2,1.917v-4.885h.662l2.56,3.836v-3.836h.618v4.885h-.662l-2.56-3.839v3.839Zm-1.775,0v-4.885h.645v4.885Z" transform="translate(-181.813 -140.07)" fill="#bd9a5f" fill-rule="evenodd"/>
    <path id="Path_193" data-name="Path 193" d="M214.926,166.558a2.123,2.123,0,0,1,.315,1.065s.659-1.081,2.025-.181c0,0-1.162-.156-1.438.444,0,0,1.785-.468,2.169,1.189,0,0-.827-.924-1.582-.757a1.94,1.94,0,0,1,1.234,2.366s-.144-1.586-1.294-1.778a2.637,2.637,0,0,1,.659,2.642,2.6,2.6,0,0,0-.815-1.934,2.794,2.794,0,0,1-.347,2.583s.467-1.573-.288-2.15c0,0-.312-.192-.3.384,0,0-.089,3.3.074,4.911,0,0,3.3-2.8,6.118-.938,0,0-2.793-1.366-6.011,1.644l2.147,1.89a.539.539,0,0,1,1,.285c0,.727-1.018.674-1.39.239l-2.256-2.078-.016-.049-.016.049-2.256,2.078c-.372.435-1.39.488-1.39-.239a.538.538,0,0,1,1-.285l2.147-1.89c-3.217-3.013-6.011-1.644-6.011-1.644,2.821-1.86,6.118.938,6.118.938.163-1.61.073-4.911.073-4.911.012-.576-.3-.384-.3-.384-.755.577-.288,2.15-.288,2.15a2.8,2.8,0,0,1-.347-2.583,2.6,2.6,0,0,0-.815,1.934,2.634,2.634,0,0,1,.659-2.642c-1.15.192-1.294,1.778-1.294,1.778a1.938,1.938,0,0,1,1.234-2.366c-.755-.168-1.582.757-1.582.757.384-1.657,2.169-1.189,2.169-1.189-.276-.6-1.438-.444-1.438-.444,1.366-.9,2.025.181,2.025.181a2.126,2.126,0,0,1,.313-1.065Z" transform="translate(-180.347 -141.858)" fill="#bd9a5f" fill-rule="evenodd"/>
    <path id="Path_194" data-name="Path 194" d="M186.777,196.928h.628V196.3h-.628Zm-1.469-6.82h-.628v.629h.628Zm2.524,6.82h.628V196.3h-.628Zm-3.583-6.82h-.628v.629h.628Zm8.025,1.87a1.535,1.535,0,0,0-.545-.4,1.629,1.629,0,0,0-.727-.133h-.462v.6h.545a.889.889,0,0,1,.413.1,1.022,1.022,0,0,1,.33.248,1.167,1.167,0,0,1,.182.348,1.9,1.9,0,0,1,.049.463v1.771H189.2v.612h3.468v-2.4a2.254,2.254,0,0,0-.1-.679,1.385,1.385,0,0,0-.3-.53Zm23.58,3.608h.611v-5.479h-.611Zm-2.378-.612h-1.007a2.02,2.02,0,0,1-.841-.149,1.174,1.174,0,0,1-.481-.464,2,2,0,0,0,.066-.579V191.83H210.6v2.052a1.205,1.205,0,0,1-.281.844,1.1,1.1,0,0,1-.858.315,1.2,1.2,0,0,1-.5-.083,1.432,1.432,0,0,1-.38-.215,1.337,1.337,0,0,1-.248-.347.9.9,0,0,1-.1-.414v-2.152h-.611v2.1a1.308,1.308,0,0,1-.083.48.742.742,0,0,1-.231.315.794.794,0,0,1-.33.182.959.959,0,0,1-.38.067h-1.189v-3.145h-.611v3.145H201.62l1.057-2.55a6.329,6.329,0,0,0-.512-.414,4.754,4.754,0,0,0-.561-.315,2.954,2.954,0,0,0-.595-.231,2.114,2.114,0,0,0-1.173,0,4.342,4.342,0,0,0-.595.215,3.874,3.874,0,0,0-.561.331,4.364,4.364,0,0,0-.512.414l1.073,2.55h-2.113v-3.525h-.974a3.327,3.327,0,0,0-1.024.149,2.614,2.614,0,0,0-.793.447,1.869,1.869,0,0,0-.528.662,1.949,1.949,0,0,0-.182.827,1.789,1.789,0,0,0,.214.927,1.675,1.675,0,0,0,.545.629,2.444,2.444,0,0,0,.809.381,4.493,4.493,0,0,0,.958.116h.363v.166a.823.823,0,0,1-.264.7,1.317,1.317,0,0,1-.776.2,2.432,2.432,0,0,1-.512-.05,3.206,3.206,0,0,1-.512-.182l-.182.579a4.292,4.292,0,0,0,.611.2,2.04,2.04,0,0,0,.545.066,1.767,1.767,0,0,0,1.3-.431,1.587,1.587,0,0,0,.4-1.125v-.116h9.478a1.564,1.564,0,0,0,.793-.2,1.678,1.678,0,0,0,.561-.513,1.435,1.435,0,0,0,.594.579,1.94,1.94,0,0,0,.909.2,2.194,2.194,0,0,0,.924-.182,1.3,1.3,0,0,0,.595-.6,1,1,0,0,0,.2.265.966.966,0,0,0,.281.216,1.363,1.363,0,0,0,.413.165,1.855,1.855,0,0,0,.446.05v.016h1.767v-5.479h-.611v4.867Zm14.737,1.968h.628v-.629h-.628Zm5.961-1.953-.941-2.35a2.152,2.152,0,0,1,.71-.431,2.071,2.071,0,0,1,.776-.132,1.96,1.96,0,0,1,.809.165,2,2,0,0,1,.693.4l-.958,2.35Zm4.328,0h-2.593l1.073-2.565c-.165-.133-.347-.265-.528-.4a6.191,6.191,0,0,0-.561-.331,4.042,4.042,0,0,0-.578-.215,2.174,2.174,0,0,0-1.189,0,4.3,4.3,0,0,0-.594.215,3.8,3.8,0,0,0-.561.331c-.182.133-.347.264-.512.4l1.09,2.564H231.27v-3.541h-.611v4.27a1.778,1.778,0,0,1-.033.447.632.632,0,0,1-.083.281.356.356,0,0,1-.182.166.662.662,0,0,1-.28.049.463.463,0,0,1-.149-.017,1,1,0,0,1-.165-.033l-.165.6a2.943,2.943,0,0,0,.5.067,1.13,1.13,0,0,0,.561-.117.905.905,0,0,0,.363-.3,1.737,1.737,0,0,0,.2-.5,3.671,3.671,0,0,0,.05-.645v-.133h7.843v-5.463H238.5v4.869Zm-12.516,1.953h.628v-.629h-.628Zm-3.7-1.953h-.611a2.187,2.187,0,0,1-.644-.1,1.442,1.442,0,0,1-.512-.3,1.207,1.207,0,0,1-.363-.447,1.507,1.507,0,0,1-.132-.612,1.246,1.246,0,0,1,.149-.613,1.976,1.976,0,0,1,.363-.464,2.845,2.845,0,0,1,.545-.3,1.85,1.85,0,0,1,.594-.1h.611v2.929Zm6.555-3.542h-.611v3.542h-2.3v-3.542h-.611v3.542H222.9v-3.542h-.957a3.427,3.427,0,0,0-1.042.166,2.281,2.281,0,0,0-.793.43,2,2,0,0,0-.512.662,1.967,1.967,0,0,0-.181.827,2.075,2.075,0,0,0,.214.927,2.043,2.043,0,0,0,.545.646,2.438,2.438,0,0,0,.809.364,3.549,3.549,0,0,0,.958.116h6.9v-4.137Zm-3.913,5.5h.627v-.629h-.627Zm-2.031-6.82h-.628v.629h.628Zm-1.073,0H221.2v.629h.627Zm19.055,5.463h.611v-5.463h-.61v5.463Zm27.258-.533a1.567,1.567,0,0,1-.347.513,1.745,1.745,0,0,1-.5.331,1.651,1.651,0,0,1-.644.116,1.336,1.336,0,0,1-.628-.132,1.984,1.984,0,0,1-.5-.331,1.483,1.483,0,0,1-.313-.513,1.564,1.564,0,0,1-.132-.613,1.648,1.648,0,0,1,.132-.629,1.49,1.49,0,0,1,.313-.513,1.892,1.892,0,0,1,.5-.347,1.521,1.521,0,0,1,.628-.116,1.65,1.65,0,0,1,.644.116,1.841,1.841,0,0,1,.512.331,1.306,1.306,0,0,1,.33.513,1.663,1.663,0,0,1,.132.646,1.58,1.58,0,0,1-.132.629Zm-5.911,0a1.557,1.557,0,0,1-.347.513,1.623,1.623,0,0,1-.512.331,1.514,1.514,0,0,1-.628.116,1.335,1.335,0,0,1-.627-.132,1.986,1.986,0,0,1-.5-.331,1.828,1.828,0,0,1-.33-.513,1.913,1.913,0,0,1-.115-.613,2.018,2.018,0,0,1,.115-.629,1.839,1.839,0,0,1,.33-.513,1.886,1.886,0,0,1,.5-.347,1.527,1.527,0,0,1,.627-.116,1.658,1.658,0,0,1,.644.116,1.837,1.837,0,0,1,.512.331,1.521,1.521,0,0,1,.33.513,1.665,1.665,0,0,1,.132.646,1.582,1.582,0,0,1-.132.629Zm-14.826.281H246.8a2.014,2.014,0,0,1-.644-.1,1.511,1.511,0,0,1-.528-.3,1.168,1.168,0,0,1-.347-.447,1.281,1.281,0,0,1-.132-.613,1.447,1.447,0,0,1,.132-.612,1.664,1.664,0,0,1,.38-.463,2.311,2.311,0,0,1,.528-.3,1.913,1.913,0,0,1,.611-.1h.595Zm23.381,0h-2.1a2.1,2.1,0,0,0,.2-.911,2.257,2.257,0,0,0-.181-.877,2.3,2.3,0,0,0-.462-.711,2.117,2.117,0,0,0-.71-.464,2.18,2.18,0,0,0-.876-.165,2.151,2.151,0,0,0-.859.165,2.016,2.016,0,0,0-.677.482,1.892,1.892,0,0,0-.462.711,2.157,2.157,0,0,0-.182.861,2.051,2.051,0,0,0,.2.911h-1.9a2.1,2.1,0,0,0,.2-.911,2.251,2.251,0,0,0-.182-.877,2.3,2.3,0,0,0-.462-.711,2.107,2.107,0,0,0-.71-.464,2.166,2.166,0,0,0-.875-.165,2.088,2.088,0,0,0-.859.165,2.264,2.264,0,0,0-.693.482,2.4,2.4,0,0,0-.462.711,2.492,2.492,0,0,0-.165.861,2.28,2.28,0,0,0,.05.48,4.272,4.272,0,0,0,.132.431h-1.932v-4.873H256.2v4.867h-1.932v-.944a2.21,2.21,0,0,0-.1-.662,1.432,1.432,0,0,0-.28-.546,2.088,2.088,0,0,0-.545-.4,1.935,1.935,0,0,0-.743-.117h-2.708l1.156-2.2h-.66l-1.173,2.185a1.817,1.817,0,0,0,.083.347,1.538,1.538,0,0,0,.182.265H252.6a1.213,1.213,0,0,1,.5.1.8.8,0,0,1,.33.232.706.706,0,0,1,.182.347,1.843,1.843,0,0,1,.05.447v.944h-5.647v-3.542h-.957a3.415,3.415,0,0,0-1.042.165,2.452,2.452,0,0,0-.793.43,1.947,1.947,0,0,0-.5.662,1.745,1.745,0,0,0-.182.828,2.075,2.075,0,0,0,.2.927,2.58,2.58,0,0,0,.545.646,2.4,2.4,0,0,0,.809.364,3.6,3.6,0,0,0,.958.116h12.087a2.169,2.169,0,0,0,.71.513,2.041,2.041,0,0,0,.892.182,2.066,2.066,0,0,0,.908-.182,1.88,1.88,0,0,0,.727-.513h2.691a2.11,2.11,0,0,0,.694.513,2.042,2.042,0,0,0,.892.182,2.069,2.069,0,0,0,.908-.182,1.886,1.886,0,0,0,.726-.513h3.1v-5.463h-.611v4.869Zm2.395.6h.611v-5.463h-.611Zm-26.238-5.463h-.628v.629h.628Zm1.073,0h-.628v.629h.628Zm-59.663.983h-.611v3.526h-2.427V191.45h-.957a3.445,3.445,0,0,0-1.042.149,2.62,2.62,0,0,0-.793.431,1.977,1.977,0,0,0-.677,1.489,2.026,2.026,0,0,0,.2.927,1.941,1.941,0,0,0,.561.646,2.337,2.337,0,0,0,.793.364,3.742,3.742,0,0,0,.957.132h4v-4.137Zm-3.649,3.526H184.1a2.027,2.027,0,0,1-.644-.1,1.805,1.805,0,0,1-.529-.281,1.381,1.381,0,0,1-.347-.464,1.245,1.245,0,0,1-.132-.612,1.436,1.436,0,0,1,.132-.6,1.639,1.639,0,0,1,.908-.763,1.892,1.892,0,0,1,.611-.116h.595v2.932Zm11.821,0h-.611a2.027,2.027,0,0,1-.644-.1,1.487,1.487,0,0,1-.529-.281,1.214,1.214,0,0,1-.363-.447,1.454,1.454,0,0,1-.132-.612,1.232,1.232,0,0,1,.149-.6,1.466,1.466,0,0,1,.363-.464,2.128,2.128,0,0,1,.529-.314,2.044,2.044,0,0,1,.628-.1h.611v2.913Zm3.368,0-.958-2.351a2.541,2.541,0,0,1,.727-.43,2.387,2.387,0,0,1,.776-.133,2.023,2.023,0,0,1,.809.165,2.441,2.441,0,0,1,.677.4l-.941,2.351Z" transform="translate(-181.839 -140.535)" fill="#bd9a5f" fill-rule="evenodd"/>
    <path id="Path_195" data-name="Path 195" d="M254.451,157.431h1.054v1.057h-1.054Zm2.11,0h1.055v1.057h-1.055ZM235.749,145.4h-1.055v-1.058h1.055ZM261,152.76a4.44,4.44,0,0,0,1.385.638,6.818,6.818,0,0,0,1.67.2h.264l.373-.75v1.036a1.4,1.4,0,0,1-.483,1.19,2.093,2.093,0,0,1-1.319.352,3.6,3.6,0,0,1-.879-.088,5.465,5.465,0,0,1-.9-.309l-.33,1.013a8.005,8.005,0,0,0,1.077.331,4.589,4.589,0,0,0,.945.11,2.982,2.982,0,0,0,2.242-.727,2.731,2.731,0,0,0,.681-1.961v-7.337h-1.671a5.609,5.609,0,0,0-1.78.264,4.284,4.284,0,0,0-1.362.749,3.515,3.515,0,0,0-.858,4.186,3.057,3.057,0,0,0,.945,1.1Zm0-3.723a2.321,2.321,0,0,1,.637-.815,3.022,3.022,0,0,1,1.956-.705h1.692l-.594.309v4.715h-1.077a3.491,3.491,0,0,1-1.1-.154,3.075,3.075,0,0,1-.921-.485,2.576,2.576,0,0,1-.615-.771,2.337,2.337,0,0,1-.22-1.058,2.056,2.056,0,0,1,.24-1.036ZM237.836,145.4H236.8v-1.058h1.033Zm30.572,11.082a3.83,3.83,0,0,1-.857-.11l.264-1.013a1.88,1.88,0,0,1,.286.066h.264a1.055,1.055,0,0,0,.484-.088.524.524,0,0,0,.308-.265,1.384,1.384,0,0,0,.154-.507,3.826,3.826,0,0,0,.044-.749v-7.359h1.054v7.36a5.574,5.574,0,0,1-.088,1.1,2.15,2.15,0,0,1-.351.86,1.606,1.606,0,0,1-.616.529,2.408,2.408,0,0,1-.945.176Zm-33.429-.132h2.176v-.794a.494.494,0,0,1,.066.11,1.677,1.677,0,0,0,.638.529,2.335,2.335,0,0,0,.945.176H257.99v-9.914h-1.055v8.857H238.847a1.642,1.642,0,0,1-.506-.066.714.714,0,0,1-.285-.286,1.36,1.36,0,0,1-.176-.507,6.5,6.5,0,0,1-.044-.749v-7.249H235a4.827,4.827,0,0,0-4.88,4.775c0,.054,0,.107,0,.161v.022a4.8,4.8,0,0,0,4.654,4.934c.067,0,.135,0,.2,0Zm-3.736-4.981a3.739,3.739,0,0,1,3.736-3.922h2.462l-.637.309v5.949a5.456,5.456,0,0,0,.088,1.1,3.007,3.007,0,0,0,.154.529H235a3.789,3.789,0,0,1-3.758-3.943v-.022Zm33.31-8.2h.86v.775h-.789a.31.31,0,0,0-.309.31v.309h1.35v.838h-2.227v-1.116a1.118,1.118,0,0,1,1.113-1.115Z" transform="translate(-179.127 -143.172)" fill="#bd9a5f" fill-rule="evenodd"/>
    <path id="Path_196" data-name="Path 196" d="M227.326,146.225H228.4v9.859h-.878l-7-8.869.615,1.431v7.438H220.06v-9.859h1.031l6.674,8.494-.441-1.211v-7.284Zm-40.985,9.947-4.237-9.947h1.229l.615,1.474,2.9,7.02.285.683-.109-1.079,3.359-8.1h1.185l-4.237,9.947Zm18.793-9.947h1.12v9.859H205.13v-9.859Zm11.942,4.951a3.875,3.875,0,0,1-3.864,4.049,3.926,3.926,0,0,1-3.887-4.071v-.022a3.88,3.88,0,1,1,7.751.022Zm-3.864-5.128a5,5,0,0,0-5.027,4.979c0,.042,0,.084,0,.127v.022a4.942,4.942,0,0,0,4.8,5.082c.07,0,.139,0,.209,0a5,5,0,0,0,5.05-4.941c0-.055,0-.11,0-.165v-.022a4.96,4.96,0,0,0-4.833-5.082c-.065,0-.129,0-.194,0Zm-9.9,7.372v.022c0,1.694-1.427,2.795-3.381,2.795a5.762,5.762,0,0,1-4.017-1.585l.681-.814a4.728,4.728,0,0,0,3.381,1.386c1.339,0,2.2-.7,2.2-1.672v-.023c0-.924-.483-1.452-2.568-1.87-2.262-.507-3.293-1.232-3.293-2.861v-.022c0-1.563,1.362-2.706,3.227-2.706A5.067,5.067,0,0,1,203,147.3l-.637.858a4.372,4.372,0,0,0-2.854-1.079c-1.273,0-2.108.7-2.108,1.584v.044c0,.924.5,1.453,2.678,1.915,2.2.484,3.227,1.277,3.227,2.795Zm-9.11,2.663h-1.119v-9.859H194.2Z" transform="translate(-181.825 -143.01)" fill="#bd9a5f" fill-rule="evenodd"/>
  </g>
</svg>
