<svg xmlns="http://www.w3.org/2000/svg" width="14.552" height="19.402" viewBox="0 0 14.552 19.402">
  <g id="location" transform="translate(0 -1)">
    <g id="Icon-Set" transform="translate(0 1)">
      <path id="location-2" data-name="location" d="M111.276,420.095a1.819,1.819,0,1,1,1.819-1.819,1.819,1.819,0,0,1-1.819,1.819Zm0-4.851a3.032,3.032,0,1,0,3.032,3.032,3.032,3.032,0,0,0-3.032-3.032Zm0,13.339c-1.008.005-6.063-7.772-6.063-10.308a6.063,6.063,0,0,1,12.126,0c0,2.5-5.071,10.313-6.063,10.308Zm0-17.583A7.276,7.276,0,0,0,104,418.276c0,3.043,6.066,12.133,7.276,12.126,1.191.007,7.276-9.125,7.276-12.126A7.276,7.276,0,0,0,111.276,411Z" transform="translate(-104 -411)" fill="#fff" fill-rule="evenodd"/>
    </g>
  </g>
</svg>
