<svg xmlns="http://www.w3.org/2000/svg" width="16" height="12.363" viewBox="0 0 16 12.363">
  <path id="Mail" d="M534.909,2133H521.091a1.091,1.091,0,0,0-1.091,1.091v10.182a1.091,1.091,0,0,0,1.091,1.091h13.818a1.091,1.091,0,0,0,1.091-1.091v-10.182A1.091,1.091,0,0,0,534.909,2133Zm0,10.5-2.887-2.887a.546.546,0,0,0-.771.771l2.887,2.887H521.862l2.887-2.887a.546.546,0,1,0-.771-.771l-2.887,2.887v-7l6.554,4.934a.546.546,0,0,0,.655,0l6.61-4.938v7Zm0-9.411v1.047l-6.935,5.182-6.883-5.182v-1.047Z" transform="translate(-520 -2133)" fill="#fff" fill-rule="evenodd"/>
</svg>
