<svg xmlns="http://www.w3.org/2000/svg" width="115.105" height="146.345" viewBox="0 0 115.105 146.345">
  <g id="powered" transform="translate(0 -0.041)">
    <path id="Path_6023" data-name="Path 6023" d="M12.41,12.984c.23,0,.346-.121.346-.364V8.235H13.83a7.441,7.441,0,0,0,1.9-.227,4.152,4.152,0,0,0,1.492-.71,3.3,3.3,0,0,0,.983-1.237,4.179,4.179,0,0,0,.355-1.792A3.906,3.906,0,0,0,18.2,2.5a3.167,3.167,0,0,0-1-1.183,4.286,4.286,0,0,0-1.51-.664A8.111,8.111,0,0,0,13.793.448H11.446q-.382,0-.382.418V12.62a.321.321,0,0,0,.364.364h.983Zm1.474-6.041H12.756V1.74h1a6.005,6.005,0,0,1,1.237.118,2.467,2.467,0,0,1,.973.418,2.079,2.079,0,0,1,.646.791,2.857,2.857,0,0,1,.237,1.237,3.177,3.177,0,0,1-.218,1.265,2.06,2.06,0,0,1-.61.81,2.348,2.348,0,0,1-.937.437A5.311,5.311,0,0,1,13.884,6.944Zm10.044,6.223a4.317,4.317,0,0,0,1.8-.355,3.8,3.8,0,0,0,1.319-.973,4.156,4.156,0,0,0,.81-1.456,5.779,5.779,0,0,0,.273-1.8,6.534,6.534,0,0,0-.246-1.829A4.037,4.037,0,0,0,27.139,5.3a3.427,3.427,0,0,0-1.274-.955A4.461,4.461,0,0,0,24.037,4a4.317,4.317,0,0,0-1.8.355,3.777,3.777,0,0,0-1.31.964,4.165,4.165,0,0,0-.8,1.447,5.779,5.779,0,0,0-.273,1.8,6.641,6.641,0,0,0,.237,1.82,4,4,0,0,0,.737,1.456,3.474,3.474,0,0,0,1.274.973A4.355,4.355,0,0,0,23.928,13.166Zm.018-1.2a2.251,2.251,0,0,1-1.21-.3,2.222,2.222,0,0,1-.764-.791,3.553,3.553,0,0,1-.4-1.1,6.528,6.528,0,0,1-.118-1.246,5.67,5.67,0,0,1,.127-1.192A3.476,3.476,0,0,1,22,6.261a2.229,2.229,0,0,1,.782-.773A2.389,2.389,0,0,1,24.019,5.2a2.153,2.153,0,0,1,1.965,1.064A3.427,3.427,0,0,1,26.4,7.353,6.108,6.108,0,0,1,26.53,8.6a5.563,5.563,0,0,1-.136,1.237,3.39,3.39,0,0,1-.437,1.074,2.3,2.3,0,0,1-.8.764,2.36,2.36,0,0,1-1.21.291Zm9.025,1.019a.421.421,0,0,0,.455-.309L35.1,6.489h.018l1.729,6.168a.4.4,0,0,0,.437.328h.983a.428.428,0,0,0,.437-.328l2.4-8.1q.109-.365-.218-.364h-.855a.409.409,0,0,0-.437.309l-1.71,6.7h-.036L35.955,4.414a.249.249,0,0,0-.118-.182.519.519,0,0,0-.209-.036h-.819a.339.339,0,0,0-.364.273l-1.856,6.714h-.036L30.824,4.451c-.036-.169-.182-.255-.437-.255h-.946c-.146,0-.234.036-.264.109a.4.4,0,0,0-.009.255l2.4,8.1a.412.412,0,0,0,.437.328h.964Zm13.41.182a9.629,9.629,0,0,0,1.465-.118,7.529,7.529,0,0,0,.755-.164,3.508,3.508,0,0,0,.655-.246.3.3,0,0,0,.182-.4l-.218-.6q-.055-.146-.164-.164a.421.421,0,0,0-.237.036,4.471,4.471,0,0,1-1.064.291,7.645,7.645,0,0,1-1.174.091,2.832,2.832,0,0,1-1.192-.237A2.389,2.389,0,0,1,44.525,11a3.074,3.074,0,0,1-.537-.983,4.086,4.086,0,0,1-.209-1.2h5.586a.67.67,0,0,0,.455-.1.638.638,0,0,0,.091-.409V7.853a4.847,4.847,0,0,0-.227-1.492,3.5,3.5,0,0,0-.673-1.228,3.249,3.249,0,0,0-1.11-.828A3.644,3.644,0,0,0,46.344,4a4.268,4.268,0,0,0-1.756.346,3.864,3.864,0,0,0-1.319.955,4.117,4.117,0,0,0-.828,1.447,5.713,5.713,0,0,0-.282,1.838,6.048,6.048,0,0,0,.273,1.865,4.031,4.031,0,0,0,.8,1.447,3.6,3.6,0,0,0,1.319.937,4.632,4.632,0,0,0,1.829.337Zm2-5.4H43.815a4.124,4.124,0,0,1,.227-.983,2.49,2.49,0,0,1,.482-.819,2.358,2.358,0,0,1,.746-.555,2.292,2.292,0,0,1,1-.209,1.908,1.908,0,0,1,1.592.655,2.472,2.472,0,0,1,.519,1.583v.328Zm4.531,5.222c.243,0,.364-.127.364-.382V6.4a2.818,2.818,0,0,1,.855-.8,1.879,1.879,0,0,1,.964-.291,1.6,1.6,0,0,1,.328.027,1.019,1.019,0,0,0,.2.027.234.234,0,0,0,.255-.218l.127-.819a.209.209,0,0,0-.146-.264A1.531,1.531,0,0,0,55.369,4a2.255,2.255,0,0,0-1.292.346,3.3,3.3,0,0,0-.837.8l-.018-.619c0-.218-.116-.328-.346-.328h-.8c-.23,0-.346.121-.346.364V12.6c0,.255.121.382.364.382h.819Zm8.333.182a9.629,9.629,0,0,0,1.465-.118,7.529,7.529,0,0,0,.755-.164,3.508,3.508,0,0,0,.655-.246.3.3,0,0,0,.182-.4l-.218-.6q-.055-.146-.164-.164a.421.421,0,0,0-.237.036,4.471,4.471,0,0,1-1.064.291,7.645,7.645,0,0,1-1.174.091,2.832,2.832,0,0,1-1.192-.237A2.389,2.389,0,0,1,59.39,11a3.074,3.074,0,0,1-.537-.983,4.086,4.086,0,0,1-.209-1.2H64.23a.67.67,0,0,0,.455-.1.637.637,0,0,0,.091-.409V7.853a4.847,4.847,0,0,0-.227-1.492,3.5,3.5,0,0,0-.673-1.228,3.249,3.249,0,0,0-1.11-.828A3.644,3.644,0,0,0,61.21,4a4.268,4.268,0,0,0-1.756.346,3.864,3.864,0,0,0-1.319.955,4.117,4.117,0,0,0-.828,1.447,5.713,5.713,0,0,0-.282,1.838,6.048,6.048,0,0,0,.273,1.865,4.031,4.031,0,0,0,.8,1.447,3.6,3.6,0,0,0,1.319.937,4.632,4.632,0,0,0,1.829.337Zm2-5.4H58.681a4.124,4.124,0,0,1,.227-.983,2.49,2.49,0,0,1,.482-.819,2.358,2.358,0,0,1,.746-.555,2.292,2.292,0,0,1,1-.209,1.908,1.908,0,0,1,1.592.655,2.472,2.472,0,0,1,.519,1.583Zm6.6,5.4a3.642,3.642,0,0,0,1.51-.328,3.164,3.164,0,0,0,1.164-.855l.018.637c0,.243.127.364.382.364h.691c.243,0,.364-.127.364-.382V.357q0-.365-.364-.309l-.91.127a.342.342,0,0,0-.218.118.489.489,0,0,0-.055.264V5a2.638,2.638,0,0,0-1.064-.737A3.509,3.509,0,0,0,70.071,4a3.769,3.769,0,0,0-1.638.346,3.653,3.653,0,0,0-1.246.964,4.421,4.421,0,0,0-.8,1.474A5.892,5.892,0,0,0,66.1,8.636a6.613,6.613,0,0,0,.218,1.71A4.357,4.357,0,0,0,67,11.793a3.318,3.318,0,0,0,1.164,1,3.6,3.6,0,0,0,1.692.373Zm.291-1.237a2.118,2.118,0,0,1-1.055-.255,2.259,2.259,0,0,1-.764-.7,3.218,3.218,0,0,1-.464-1.064,10.371,10.371,0,0,1-.155-1.346,7.519,7.519,0,0,1,.673-2.42,2.234,2.234,0,0,1,1.91-.91,2.368,2.368,0,0,1,1.265.364,2.432,2.432,0,0,1,.882.892v4.239a2.1,2.1,0,0,1-.428.473,3.366,3.366,0,0,1-1.21.637,2.421,2.421,0,0,1-.655.091ZM84.7,13.166a3.473,3.473,0,0,0,1.638-.373,3.581,3.581,0,0,0,1.192-1,4.434,4.434,0,0,0,.728-1.465A6.241,6.241,0,0,0,88.5,8.563a6.516,6.516,0,0,0-.337-2.129,3.771,3.771,0,0,0-1.046-1.619,3.332,3.332,0,0,0-1-.6,3.955,3.955,0,0,0-2.829.091,3.7,3.7,0,0,0-1.1.728V.357q0-.365-.364-.309l-.91.127A.342.342,0,0,0,80.7.293a.489.489,0,0,0-.055.264V12.639a.306.306,0,0,0,.346.346h.691c.23,0,.351-.1.364-.291l.036-.655a2.978,2.978,0,0,0,1.092.81,3.619,3.619,0,0,0,1.528.318Zm-.218-1.255a2.612,2.612,0,0,1-1.319-.328,3.111,3.111,0,0,1-.973-.873V6.361a3.639,3.639,0,0,1,1.046-.773A2.775,2.775,0,0,1,84.5,5.27a2.194,2.194,0,0,1,1.092.255,2.018,2.018,0,0,1,.737.71A3.405,3.405,0,0,1,86.746,7.3a6.13,6.13,0,0,1,.136,1.337,5.2,5.2,0,0,1-.146,1.246,3.324,3.324,0,0,1-.446,1.046,2.278,2.278,0,0,1-.746.719A2.053,2.053,0,0,1,84.481,11.911ZM90.5,16.987a4.818,4.818,0,0,0,1.283-.155,2.717,2.717,0,0,0,.992-.509,3.309,3.309,0,0,0,.764-.919,9.844,9.844,0,0,0,.637-1.365l3.512-9.48a.378.378,0,0,0,.018-.255c-.025-.073-.109-.109-.255-.109h-.873a.42.42,0,0,0-.455.291l-2.293,6.75L91.468,4.451c-.048-.169-.195-.255-.437-.255H89.994a.283.283,0,0,0-.237.091.23.23,0,0,0-.018.237L93,13.13l-.455,1.146a2.362,2.362,0,0,1-.755,1.046,2.043,2.043,0,0,1-1.228.337,2.833,2.833,0,0,1-.346-.018q-.174-.023-.346-.055a.255.255,0,0,0-.291.237l-.127.728c-.025.109-.013.185.036.227a.524.524,0,0,0,.182.1,3.165,3.165,0,0,0,.837.109Z" transform="translate(3.315 0)" fill="#cfcece"/>
    <path id="Path_6024" data-name="Path 6024" d="M113.272,81.649A55.707,55.707,0,0,0,1.878,80.187C1.536,96.465,7.3,110.4,18.97,121.745A53.8,53.8,0,0,0,57.654,137.36a55.791,55.791,0,0,0,55.618-55.711M0,80.169A55.791,55.791,0,0,1,16.221,41.7a55.9,55.9,0,0,1,41.2-17.582,57.527,57.527,0,0,1,1.591,115.036C25.91,139.892,0,113.144,0,80.169" transform="translate(0 7.215)" fill="#fff" fill-rule="evenodd"/>
    <path id="Path_6025" data-name="Path 6025" d="M12.865,81.022A41.11,41.11,0,0,0,53.25,122.046a41.023,41.023,0,1,0,2.732-82c-.754-.026-1.511-.03-2.267-.013A41.1,41.1,0,0,0,12.869,81.022Zm-1.865,0a42.76,42.76,0,1,1,0,.187ZM45.945,32.7a3.969,3.969,0,0,0,1.929.443c-.161-.442-.246-.884-.741-1.027a1.185,1.185,0,0,0-1.183.585h-.005Zm14.96,1.267c-.463.478-1,.23-1.517.182-.416-.044-.832-.13-1.253-.173a1.066,1.066,0,0,1-1-.793H57.03c-.221.637-.707.767-1.359.721a17.766,17.766,0,0,0-1.933.058c-.606.03-1.074-.138-1.248-.754-.047.026-.07.031-.07.04-.227.784-.855.754-1.521.74s-1.287.07-1.93.1a.481.481,0,0,0-.5.455v.019c-.029.4-.24.381-.537.283-.837-.279-1.679-.546-2.521-.819-.078-.026-.166-.04-.309-.075-.078.964-.851.929-1.563,1.053-.637.107-1.261.315-1.942.487l-.727-1.864c-.374-.97-.7-1.961-1.137-2.9-.333-.7,0-1.188.338-1.736.568,1.391,1.118,2.749,1.674,4.107.036.094.065.187.1.276.255.58.3.589.958.442a12.5,12.5,0,0,1,1.456-.243.941.941,0,0,0,.925-.765,3.016,3.016,0,0,1,1.808-1.89c.463-.231.463-.125.712.3a9.487,9.487,0,0,0,1.059,1.413c.061.075.24.092.365.092h3.145a4.661,4.661,0,0,1,.175-1.2,4.289,4.289,0,0,1,.708-.885l.13.026c-.034.442-.07.885-.088,1.3a.626.626,0,0,0,.569.686.672.672,0,0,0,.2-.008c.508-.026,1.018-.058,1.526-.062a9.317,9.317,0,0,1,1.054.052c.37.04.6-.123.551-.442-.112-.747.333-1.2.924-1.77-.055.522-.078.942-.143,1.354s.074.7.463.784c.231.052.4.247.7.195a3.119,3.119,0,0,1,.925.142,5.253,5.253,0,0,0,.924.127.5.5,0,0,0,.383-.273c.157-.669.806-.819,1.235-1.2l.107.062-.734,1.4a2.474,2.474,0,0,0,1.951.469,2.324,2.324,0,0,1,1.388-1.4l-.667,1.531,1.2.235c0-.337-.065-.673.074-.885a6.108,6.108,0,0,1,.925-.863l.125.052a8.7,8.7,0,0,1-.235,1.328,8.038,8.038,0,0,1-.658,1.47.637.637,0,0,1-.494.208,5.692,5.692,0,0,1-1.12-.19,3.865,3.865,0,0,1-.651-.32c-.676.338-2.46-.008-2.82-.681Zm37.3,25.8a1.209,1.209,0,0,0,.045.234c.408.877.812,1.755,1.229,2.628a1.509,1.509,0,0,0,.3.422c.162.156.344.156.454-.083a1.535,1.535,0,0,0-.282-1.975c-.535-.435-1.125-.793-1.742-1.226M95.184,48.107c-.643.919-1.211,1.764-1.814,2.59a.686.686,0,0,0-.04.96,17.32,17.32,0,0,1,1.183,1.836c.178.3.382.359.613.147.576-.522,1.206-.216,1.814-.216l.045.125c-.381.211-.776.4-1.135.638a.918.918,0,0,0-.394.5c-.082.39.13.574.571.574.26.556.526,1.116.827,1.755.663-.8,1.414-.515,2.213-.23-.481.263-.907.515-1.361.749-.359.188-.455.46-.224.781a3.345,3.345,0,0,0,.785.776c.907.6,1.874,1.122,2.789,1.718a1.523,1.523,0,0,1,.79,2.09,2.233,2.233,0,0,1-.344.785.982.982,0,0,1-.608.382,15.88,15.88,0,0,1-1.687,0,.907.907,0,0,1-.858-.593q-1.208-2.691-2.485-5.351c-.24-.491.14-.6.348-.827-.031-.032-.055-.065-.068-.065a1.046,1.046,0,0,1-1.106-.919c-.055-.188-.146-.279-.413-.335s-.454-.533-.535-.863a2.432,2.432,0,0,1,.1-.868c.026.023,0,0,0,0-.645.143-.966-.216-1.266-.739s-.762-1.089-1.124-1.644a.551.551,0,0,1,0-.418,7.126,7.126,0,0,1,.4-.73,4.942,4.942,0,0,1-.825.156.843.843,0,0,1-.548-.165c-.576-.615-1.111-1.263-1.674-1.887-.255-.286-.24-.507.082-.7.454-.281.907-.565,1.361-.832a.819.819,0,0,1,.512-.078l-.554.506a.343.343,0,0,0-.039.56q.842.965,1.682,1.934c.221.257.368.069.481-.087a10.279,10.279,0,0,0,.771-1.157,1.131,1.131,0,0,1,.858-.63c.235-.036.489-.123.875-.225m-29.962,83.93c-.26-1.1-.5-2.151-.759-3.2-.148-.6-.476-.863-.851-.756a.985.985,0,0,0-.569,1.2c.209.923.422,1.853.65,2.777.068.273.044.387-.26.448-.551.112-1.1.294-1.71.46-.442-1.888-.884-3.757-1.335-5.692.585-.156,1.159-.317,1.734-.448.066,0,.195.112.242.2a3,3,0,0,1,.143.534,2.375,2.375,0,0,1,1.562-1.418,1.755,1.755,0,0,1,1.9.5,2.478,2.478,0,0,1,1.5-1.378,1.785,1.785,0,0,1,2.417,1.444c.313,1.272.594,2.525.9,3.842l-2.047.556q-.323-1.379-.655-2.757-.077-.348-.181-.689a.62.62,0,0,0-.728-.5.665.665,0,0,0-.624.7,14.415,14.415,0,0,0,.3,1.775c.123.607.279,1.2.431,1.833l-2.057.561Z" transform="translate(3.296 8.678)" fill="#fff" fill-rule="evenodd"/>
    <path id="Path_6026" data-name="Path 6026" d="M19.685,47.2a1.5,1.5,0,0,0-1.608.681,1.923,1.923,0,0,1,1.57-3.157.793.793,0,0,1,.806.613c.052.187.134.363.24.636.355-.354.659-.667.976-.967s.691-.659,1.061-.959c.23-.187.23-.344,0-.515-.623-.47-1.24-.949-1.879-1.392-.364-.251-.678-.654-1.226-.525a.272.272,0,0,1-.175-.143c-.13-.447-.239-.9-.373-1.388.829.4,1.543,0,2.3-.081a2.651,2.651,0,0,1,.1.7,1.469,1.469,0,0,0,.806,1.441A5.835,5.835,0,0,1,24.07,43.99a.5.5,0,0,1-.091.739c-.407.354-.8.711-1.185,1.083a9.665,9.665,0,0,0-1.074,1.115.672.672,0,0,1-.866.309,2.184,2.184,0,0,0-.328-.058c-.026.045-.055.077-.051.086.4.586.139,1-.276,1.487-.793.931-1.5,1.934-2.276,2.946l-1.747-.989-2.815-1.635a1.466,1.466,0,0,1-.866-1.54l3.961,2.221c.078.039.152.09.226.13.659.344.71.273,1.092-.372a12.458,12.458,0,0,1,1.24-1.492c.208-.264.429-.528.668-.824M11.1,95.092a3.6,3.6,0,0,0,.616,1,1.42,1.42,0,0,0,.962.214.562.562,0,0,0,.513-.633.48.48,0,0,0-.019-.07c-.083-.354-.221-.7-.344-1.079l-1.729.564ZM9.621,95.6l-2.728.908L6,94.49l7.4-2.5c.552,1.309,1.1,2.619,1.6,3.928a1.864,1.864,0,0,1,.049.977c-.212,1.179-1.944,1.725-2.916,1.567a2.447,2.447,0,0,1-1.895-1.44c-.217-.468-.4-.934-.621-1.419Zm5.37,11.983a.711.711,0,0,0,.655.76.673.673,0,0,0,.224-.025,1.858,1.858,0,0,0,1.141-.871.762.762,0,0,0-.191-1.04.711.711,0,0,0-.3-.121,1.618,1.618,0,0,0-1.526,1.3Zm2.827-5.2L19,103.919l-1.723,1.391a7.573,7.573,0,0,1,1.1.737,1.881,1.881,0,0,1,.385,2.233,3.383,3.383,0,0,1-2.645,1.9,1.93,1.93,0,0,1-2.044-1.82,2.027,2.027,0,0,1,.066-.673l-.548.386c-.178-.217-.364-.434-.542-.673s-.355-.474-.545-.741Zm85.922-6.977a2.122,2.122,0,0,0-.473-.6,3.867,3.867,0,0,0-1.011-.446.875.875,0,0,0-1.01.485.75.75,0,0,0,.25,1.038,4.3,4.3,0,0,0,1.3.529C103.277,96.5,103.74,96.019,103.74,95.407Zm-3.1-1.742-2.361-.946c.255-.684.472-1.339.755-2.033l7.043,2.8-.689,1.853-.667-.213c.052.149.084.266.127.383a2.141,2.141,0,0,1-1.079,2.786,2.027,2.027,0,0,1-.81.173,3.805,3.805,0,0,1-2.641-.811,2.334,2.334,0,0,1-.559-3.195,2.261,2.261,0,0,1,.676-.652l.2-.151ZM90.168,106.282l1.07,1.089-2.1,2.421.858.86,1.821-2.06,1.023.993-1.808,2.092,2.044,2.026-1.456,1.675L86.578,110.4Zm-54.962,14.3,1.7.647-.266.694a2.737,2.737,0,0,1,1.735-.237,1.575,1.575,0,0,1,1.279,2.233c-.412,1.1-.856,2.082-1.331,3.161l-1.8-.715c.373-.923.732-1.816,1.1-2.7a.561.561,0,0,0-.246-.78l-.026-.012a.72.72,0,0,0-.936.165,2.764,2.764,0,0,0-.346.593c-.279.626-.542,1.27-.812,1.887-.044.092-.1.186-.156.3l-1.807-.7Zm45.563,2.937-1.829.962c-.95-1.456-1.829-2.879-2.759-4.336l1.7-.9.426.625c.081-.218.138-.391.209-.559a2.169,2.169,0,0,1,2.417-1.294,1.881,1.881,0,0,1,.949.608c.737,1.027,1.4,2.1,2.1,3.176l-1.852.979c-.533-.832-1.04-1.647-1.567-2.456a.729.729,0,0,0-.949-.393.72.72,0,0,0-.476.862,3.51,3.51,0,0,0,.313.625c.38.621.775,1.232,1.163,1.846l.156.257Z" transform="translate(1.798 11.974)" fill="#fff" fill-rule="evenodd"/>
    <path id="Path_6027" data-name="Path 6027" d="M14.714,102.08l.937,1.87-2.287,1.393a2.308,2.308,0,0,0-.278.191c-.277.227-.529.476-.316.9a.767.767,0,0,0,1.011.416c.777-.416,1.527-.872,2.291-1.314l.282-.172c.312.6.608,1.189.942,1.836l-4.406,2.679-.868-1.713.656-.442a2.259,2.259,0,0,1-1.641-1.294,1.747,1.747,0,0,1,.538-2.378c1-.691,2.057-1.3,3.139-1.97m81.861,4.106c.343-.555.654-1.05.968-1.558l.76.357a2.064,2.064,0,0,1,.062-1.931,1.753,1.753,0,0,1,2.334-.806c1.242.516,2.42,1.14,3.673,1.722l-1.061,1.674q-.452-.2-.89-.431c-.643-.313-1.278-.641-1.936-.942a.767.767,0,0,0-1.075.19.606.606,0,0,0,.159.908.772.772,0,0,0,.094.052c.6.369,1.249.676,1.884,1.006.3.156.613.3.967.473l-1.04,1.679Zm3.9,3.9-1.118,1.417-.669-.366a2.224,2.224,0,0,1-.4,1.923,1.759,1.759,0,0,1-2.313.465c-1.014-.552-1.975-1.19-2.962-1.794l-.339-.214,1.207-1.549,2.225,1.392a4.552,4.552,0,0,0,.472.263.7.7,0,0,0,.89-.071.574.574,0,0,0,.1-.845,3.827,3.827,0,0,0-.815-.667c-.632-.421-1.287-.814-1.943-1.223l1.2-1.54ZM74,127.3l1.822-.781a1.078,1.078,0,0,0-1.4-.71q-.046.019-.091.042a1.129,1.129,0,0,0-.318,1.449H74Zm.331,1.051c.593,1.02,1.486,1.02,1.994.056.057-.108.123-.25.213-.281.589-.209,1.183-.393,1.842-.607a2.745,2.745,0,0,1-1.215,2.209,5.092,5.092,0,0,1-2.61.94,2.887,2.887,0,0,1-2.516-2.206,3.077,3.077,0,0,1,1.726-3.84c.057-.022.114-.042.173-.058a3.615,3.615,0,0,1,2.012-.373c1.248.265,1.829,1.231,2.26,2.46l-3.878,1.7ZM50.216,130.37c.065-.7-.227-1.075-.832-1.1a.949.949,0,0,0-1.118.637.725.725,0,0,0-.019.213Zm2.121,1.157-4.269-.515a.769.769,0,0,0,.355.91,1.213,1.213,0,0,0,1.215.079,1.279,1.279,0,0,1,.91-.084c.486.118.949.2,1.492.309a2.607,2.607,0,0,1-2.193,1.046,11.735,11.735,0,0,1-1.944-.221,2.388,2.388,0,0,1-2.008-2.588,2.552,2.552,0,0,1,2.173-2.311,5.036,5.036,0,0,1,3.243.5,2.071,2.071,0,0,1,1.075,1.738c.009.37-.034.741-.048,1.135ZM8.3,76.2a5.479,5.479,0,0,0-.613.064A.97.97,0,0,0,6.8,77.342a1.006,1.006,0,0,0,1.054.92A6.666,6.666,0,0,0,8.9,78.038a.817.817,0,0,0,.671-.862.847.847,0,0,0-.637-.856A4.157,4.157,0,0,0,8.3,76.2M4.9,74.934c.043.391.1.788.125,1.185a.39.39,0,0,1-.214.269.73.73,0,0,0-.58.778,1.27,1.27,0,0,0,.476.856,6.307,6.307,0,0,0,1.4.43,7.891,7.891,0,0,1-.39-1.517,2.068,2.068,0,0,1,1.9-2.111,4.723,4.723,0,0,1,1.465.039,2.322,2.322,0,0,1,1.71,2.33,2.377,2.377,0,0,1-1.834,2.491,7.2,7.2,0,0,1-4.184-.023,2.692,2.692,0,0,1-1.641-3.38,2.586,2.586,0,0,1,.24-.537A1.884,1.884,0,0,1,4.9,74.934M15.622,56.829v-.156c-.334,0-.736-.118-.988.029-.343.205-.213.65-.169,1.066Zm-3.791,7.208.144.032.876-1.562-1.588-.348-.1.12A2.195,2.195,0,0,1,11.831,64.037Zm1.263-1.31c.149.2.294.4.452.586a.649.649,0,0,1,.049.906l-.009.01c-.343.457-.655.949-1.006,1.461-.56-.412-1.206-.778-1.458-1.452a14.638,14.638,0,0,1-.451-2.074c-.7,0-.736-.706-1.174-.985l.058-.123c.411.083.821.156,1.228.247.708.165,1.408.348,2.116.519.577.142.641.073.867-.459a16.339,16.339,0,0,1,.843-1.721.585.585,0,0,0-.049-.7,6.121,6.121,0,0,1-.821-1.593,5.92,5.92,0,0,1,0-1.764c0-.211.153-.343.451-.279.537.13,1.088.212,1.634.312a1.279,1.279,0,0,1,1.02.764c.117.261.285.5.451.8-.474.457-.938.879-1.422,1.3-.586.513-.6.513-.181,1.183a.708.708,0,0,1,.036.832c-.289.513-.528,1.053-.772,1.595-.307.673-.546.8-1.263.645-.175-.04-.351-.073-.528-.1l-.073.095Zm39.292,68.967c.582-.026,1.118-.065,1.651-.069a.461.461,0,0,1,.3.186.95.95,0,0,0,1.2.364.576.576,0,0,0,.308-.377c0-.134-.177-.312-.308-.356-.6-.186-1.215-.3-1.81-.49a1.4,1.4,0,0,1-1.041-1.667,1.517,1.517,0,0,1,1.4-1.188,9.587,9.587,0,0,1,2.109.086,1.6,1.6,0,0,1,1.266,1.3c-.537.035-1.05.07-1.566.087a.33.33,0,0,1-.261-.13.717.717,0,0,0-.793-.351c-.186.039-.347.225-.516.346.14.126.257.325.422.369.535.148,1.1.2,1.632.361a1.5,1.5,0,0,1,.882,2.382,1.751,1.751,0,0,1-1.35.715,11.076,11.076,0,0,1-2.3-.16,1.621,1.621,0,0,1-1.223-1.41m-23.646-9.616c-.526-.328-1.029-.634-1.523-.975a.379.379,0,0,1-.114-.3,1.1,1.1,0,0,0-.58-1.136,1.028,1.028,0,0,0-1.227.112,3.2,3.2,0,0,0-.426.418,1.227,1.227,0,0,0-.244,1.628,1.193,1.193,0,0,0,1.614.318l1.437,1.423a2.255,2.255,0,0,1-2.251.487,4.067,4.067,0,0,1-2.874-2.924,2.212,2.212,0,0,1,.062-1.224c.7-1.829,2.49-2.955,4.4-1.7a3.978,3.978,0,0,1,1.916,2.316,2.248,2.248,0,0,1-.191,1.556M75.509,37l-.144-.944-1.189.455L75.509,37Zm.816-2.138c.538-.638,1.175-1.281.916-2.28l1.534-1.053c-.2.838.656,1.149.9,1.8-.552.164-.811.911-1.493.689-.558.537-1.135,1.066-1.662,1.627a.8.8,0,0,0-.139.578,3.266,3.266,0,0,1-.741,2.174l-3.036-1.049c-.8-.282-.867-.4-.548-1.135.135-.315.318-.611.5-.975.369.815.533.888,1.4.682a9.629,9.629,0,0,0,1.05-.286c.1-.042.244-.229.214-.3-.229-.6-.5-1.194-.777-1.855L74,33.83a16.1,16.1,0,0,1-1.249-1.369.751.751,0,0,1-.035-.724,6.032,6.032,0,0,1,.931-1.118.576.576,0,0,1,.5.12,4.954,4.954,0,0,1,.8,1.066c.478,1,.906,2.007,1.379,3.059ZM87.6,43.375a7.88,7.88,0,0,0-.13-.966c-.091-.312-.4-.218-.634-.177a.3.3,0,0,0-.286.317.26.26,0,0,0,.039.1,1.25,1.25,0,0,0,1.011.723m-3.375-2.325c-.42.286-.754.521-1.092.745-1.055.685-1.151,1.539-.187,2.3a6.225,6.225,0,0,0,3.088,1.228c.72.091,1.022-.152,1.164-.82a.4.4,0,0,0,0-.164,7.122,7.122,0,0,1-1.336-.37c-.879-.446-.921-1.261-.071-1.757a10.309,10.309,0,0,1,1.947-.786.784.784,0,0,1,.957.416.65.65,0,0,1,.031.117,2.727,2.727,0,0,1-.023,1.177,5.03,5.03,0,0,1-.73,1.657,2.728,2.728,0,0,1-2.835,1.349,8.909,8.909,0,0,1-2.922-.882c-1.274-.745-1.77-1.866-.477-2.942A18.274,18.274,0,0,1,83.7,41.056a.562.562,0,0,1,.209-.06,1.423,1.423,0,0,1,.314.055m-24.57,88.276-.654.057-.114-1.509.637-.144a1.324,1.324,0,0,0,0-.392.779.779,0,0,1,.409-.959c.409-.264.819-.576,1.263-.906.057.728.105,1.385.159,2.09l.989-.091c.038.5.078.992.12,1.519l-.981.159c.032.478.061,1,.1,1.5,0,.091.029.177.038.268.073.824.11.853.817.656a.842.842,0,0,1,.156,0c.069.39.146.781.195,1.175a.321.321,0,0,1-.139.263,3.513,3.513,0,0,1-1.944.2c-.487-.134-.819-.728-.867-1.567-.049-.749-.114-1.5-.181-2.32M84.6,119.22l.945-.624.888,1.161-.925.68c.434.563.845,1.114,1.28,1.651a.405.405,0,0,0,.628.026c.131-.107.26-.224.42-.361l.945.975a4.807,4.807,0,0,1-2.022,1.4,1.183,1.183,0,0,1-1.246-.4c-.594-.676-1.142-1.383-1.732-2.1l-.619.385c-.292-.377-.577-.753-.879-1.146l.624-.478c-.785-.522-.473-1.092-.109-1.673.2-.312.359-.65.576-1.042L84.6,119.22ZM43.085,129.585l1.975-2.864,2.128.6-3.905,4.654c-.568-.153-1.122-.3-1.67-.477a.351.351,0,0,1-.208-.239c-.166-1.27-.32-2.545-.493-3.821-.074-.624-.143-1.254-.222-1.961l2.242.621v3.49h.153Zm-6.294-8.211-3.278,6.7-1.921-1.1c1.1-2.23,2.173-4.451,3.282-6.7Zm-14.34-10.2,1.344,1.495-5.145,5L17.3,116.185Zm83.01-27.842.1.084a2.332,2.332,0,0,0,.577-.166,3.407,3.407,0,0,0,.539-.472l-.61-.469h-.151l-.455,1.023Zm-4.987,1.374a1.963,1.963,0,0,1,.442-.279c.806-.27,1.61-.561,2.439-.759.42-.1.573-.226.569-.624a1.781,1.781,0,0,1,.626-1.527,1.063,1.063,0,0,1,.672-.234,4.428,4.428,0,0,1,2.7,1.188c.547.506.442.95-.195,1.354a3.945,3.945,0,0,1-1.835.444,10.7,10.7,0,0,0-1.765.162,13.841,13.841,0,0,0-1.765.634c-.114.04-.234.133-.331.113-.5-.1-.993-.226-1.487-.344Zm7.775-6.4a1.286,1.286,0,0,1-.359.071.653.653,0,0,0-.754.542c-.1.321.169.485.47.623.142.062.226.221.339.338a1.523,1.523,0,0,1-.509.1,7.2,7.2,0,0,1-1.344-.276.9.9,0,0,1-.775-1.068.841.841,0,0,1,.114-.26.821.821,0,0,0-.169-1.144,1.508,1.508,0,0,1-.256-.442.63.63,0,0,0-.2,0,13.149,13.149,0,0,1-3.864.225c-.16,0-.316-.142-.472-.217a1.4,1.4,0,0,1,.42-.263,21.473,21.473,0,0,0,2.359-.417,28.862,28.862,0,0,0,3.089-1.219.814.814,0,0,1,.845,0c.26.155.509.312.854.526-.339.27-.65.5-.92.751-.556.525-.529.81.086,1.287.169.129.354.24.533.363l.533.346-.023.134ZM9.4,83.469V80.454c0-.346.091-.494.457-.464s.6,0,.942,0v5.169a2.152,2.152,0,0,1-1.625-.4,10.21,10.21,0,0,0-5.331-2.148c-.27-.03-.537-.074-.842-.114v-1.4A11.063,11.063,0,0,1,9.4,83.47M3,90.375V89.223H8.485L7.4,87.784H8.659a.318.318,0,0,1,.227.122,3.411,3.411,0,0,0,1.771,1.509c.078.026.13.146.14.226v.742ZM3,73.488V71.794H8.507L7.4,69.589H8.628a.526.526,0,0,1,.312.3,4.392,4.392,0,0,0,1.69,2.141.429.429,0,0,1,.159.308c.023.348,0,.7,0,1.1ZM34.683,35.8a3.01,3.01,0,0,1,2.044,2.537c.235,1.006-.2,1.4-1,1.786-1.24.577-2.42,1.27-3.639,1.882A2.664,2.664,0,0,1,31,42.291a1.419,1.419,0,0,1-1.508-1.04c-.195-.607-.361-1.222-.5-1.839a1.33,1.33,0,0,1,.051-.457h.146c.116.285.235.568.341.862a1.359,1.359,0,0,0,2.118.78c1.352-.673,2.667-1.41,4.016-2.1.338-.173.292-.381.086-.568s-.5-.342-.758-.534a.681.681,0,0,1-.272-.4,6.026,6.026,0,0,1-.039-1.2m55.854,9.87c-.226.065-.383.061-.422.126s-.134.346-.077.421a7.416,7.416,0,0,0,.85.864c.029.03.283-.1.3-.175a1.386,1.386,0,0,0,0-.789c-.117-.186-.477-.337-.65-.447Zm-5.546,1.1c.121.11.289.2.356.342a3.06,3.06,0,0,0,2.88,1.612,3.1,3.1,0,0,0,2.372-.426,6.519,6.519,0,0,0,.481-.5l-.073-.095c-.162.07-.321.151-.481.216a1.289,1.289,0,0,1-1.544-.447.966.966,0,0,1,0-1.224c.12-.166.253-.317.383-.477a3.954,3.954,0,0,1,2.8-.819.762.762,0,0,1,.481.934,4.069,4.069,0,0,1-1.352,2.6,6.3,6.3,0,0,1-2.971,1.547,1.874,1.874,0,0,1-1.969-.677c-.508-.689-.927-1.447-1.372-2.18a1.46,1.46,0,0,1-.105-.342l.114-.065ZM21.32,120.275l-1.424-1.5,3.746-3.7,1.453,1.465ZM41.2,33.2a2.841,2.841,0,0,1,1.99,2.293,6.316,6.316,0,0,1-.218,3.089A1.308,1.308,0,0,1,41.6,39.689c-.593,0-1.183-.052-1.77-.095a1.757,1.757,0,0,1-.443-.166v-.151a4.234,4.234,0,0,1,.69-.052,1.539,1.539,0,0,0,1.625-.949,17.1,17.1,0,0,0,.858-1.794.9.9,0,0,0-.383-1.3q-.2-.134-.405-.256c-.734-.412-.767-.474-.633-1.445Zm67.071,36.933c-1.372,1.682-6.8,2.734-7.8,1.552a3.107,3.107,0,0,1,.65-.25,11.089,11.089,0,0,0,5.089-1.749.507.507,0,0,1,.361-.091c.546.153,1.084.34,1.7.538m0,18.2c-1.226,1.647-6.667,2.733-7.8,1.547a5.962,5.962,0,0,1,1.007-.3,10.352,10.352,0,0,0,4.763-1.716.629.629,0,0,1,.455-.073c.524.151,1.035.344,1.573.538M23.875,39.7c.382.37.781.723,1.135,1.119q1.05,1.147,2.034,2.351a3.082,3.082,0,0,1,.65,1.73,1.4,1.4,0,0,1-.229-.143c-1.02-1.007-2.027-2.027-3.054-3.028a1.42,1.42,0,0,1-.459-.944c-.026-.352-.1-.7-.157-1.057l.081-.027Zm58.4-6.438c-.211.525-.4,1.061-.632,1.575-.433.975-.871,1.944-1.344,2.9A4.327,4.327,0,0,1,78.38,39.7c.211-.559.39-1.035.574-1.5.454-1.17.9-2.345,1.391-3.5a2.287,2.287,0,0,1,.69-.815,10.214,10.214,0,0,1,1.133-.685ZM38.024,38.4c-.212-.377-.374-.658-.526-.933-.621-1.157-1.228-2.333-1.866-3.461-.3-.528-.029-1.036-.042-1.549a2.758,2.758,0,0,1,.1-.555c.131.224.247.4.335.578.591,1.222,1.19,2.439,1.755,3.672a3.9,3.9,0,0,1,.247,2.248m23.46-9.838a1.218,1.218,0,0,1-.13.166c-.871.75-.537.7-1.593.221-.183-.081-.359-.217-.522,0-.343.426-.728.3-1.125.078l-.528-.3L58.537,28l.354.195c.728.368.767.359,1.21-.055.074-.068.269-.052.408-.047s.135.06.2.094ZM25.2,115.077l-1.4-1.574.971-1.025c.538.512,1.061,1.025,1.628,1.584ZM87.477,38.651l.25-.1c.651-.256.664-.261.946.559.112.334.244.556.522.383s.474,0,.585.4c.075.278.185.556.3.858A5.42,5.42,0,0,1,89.3,41a.387.387,0,0,1-.29-.217,2.1,2.1,0,0,1-.2-.513c-.1-.346-.217-.607-.555-.429-.192.117-.416,0-.5-.268q-.01-.03-.017-.061c-.071-.3-.169-.558-.261-.858M7.194,63.091l-.3-.78a1.88,1.88,0,0,1,.238-.218.547.547,0,0,0,.229-.78.39.39,0,0,1,.055-.3,5.381,5.381,0,0,1,.476-.522c.438.7.438.714-.251,1.434.175.694.147.768-.451,1.166M32.892,35.8c0,.078,0,.117-.035.159-.182.554-.182.547-.936.574a.642.642,0,0,0-.4.144c-.292.424-.59.515-1.233.337a.9.9,0,0,1,.057-.205c.13-.457.13-.464.733-.46.287,0,.55,0,.589-.276s.226-.282.5-.269.443,0,.719,0m22.914-5.221a4.029,4.029,0,0,1-.524-.354.341.341,0,0,0-.529-.082.442.442,0,0,0-.12.183c-.057.088-.13.164-.216.274l-.732-.526c.057-.088.079-.133.109-.177.377-.534.377-.543.88-.212a.371.371,0,0,0,.578-.066,2.951,2.951,0,0,1,.278-.318l.131.079.623.442-.48.756ZM99.274,51.394c.376.071.712.126,1.041.205a.283.283,0,0,1,.159.221,1.206,1.206,0,0,1-.073.435c-.06.173.094.494-.368.429-.669-.1-.9-.266-.853-.642.013-.191.051-.382.094-.649M54.986,28.636l-.607.664-.693-.611L54.319,28ZM42.564,82.754l2.021-.253,3.331-.412a8.916,8.916,0,0,1,2.82.187,3.818,3.818,0,0,0,2.113-.1.469.469,0,0,0,.354-.521c.052-2.411.12-4.82.188-7.23.056-1.829.12-3.657.174-5.486q.094-2.9.17-5.8l.166-5.157V57.74l-.148-.042c-.247.727-.519,1.448-.73,2.183-.1.343-.1.676-.491.858a.672.672,0,0,0-.33.836.719.719,0,0,1-.368.845c-.538.389-1.02.858-1.557,1.322-.13-1.656-.308-3.357-.368-5.069a7.838,7.838,0,0,1,.386-1.847c-.919.468-1.274,1.369-1.838,2.241L48.2,56.85a4.729,4.729,0,0,0-.417.581c-.286.572-.533,1.158-.823,1.721-.23.468-.364.468-.827.2l-1.094,2.118a1.461,1.461,0,0,1-.1-.331V59.887c0-.416,0-.8-.459-1.059a.749.749,0,0,1-.272-.938c.087-.313.221-.613.326-.937a6.287,6.287,0,0,0,.35-1.023,3.312,3.312,0,0,1,1.957-2.5l1.287-.642a1.69,1.69,0,0,0-1.921.121,5.917,5.917,0,0,1-2.3,1.055,2.021,2.021,0,0,1,1.044-1.552c.528-.361,1.1-.642,1.7-.985a1.43,1.43,0,0,0-1.209.127c-.793.277-1.579.6-2.384.849a4.637,4.637,0,0,1-1.057.065C41.658,50.8,44.9,47.87,47.305,48.8a.9.9,0,0,0-.781-.637c-.79-.127-1.589-.188-2.385-.273l-.174-.023c.725-1.239,2.333-1.66,4.373-1.158-.372-.694-1.125-1.6-3.215-2.373a21.587,21.587,0,0,1,2.545-.6,14.048,14.048,0,0,1,2.872-.047,2.671,2.671,0,0,1,2.3,1.983c.161.437.386.849.611,1.337a1.456,1.456,0,0,0,.322-1.356,4.627,4.627,0,0,1-.152-1.519,3.77,3.77,0,0,1,.828-1.534A19.823,19.823,0,0,1,56.189,41a2.511,2.511,0,0,1,.428,2.879c-.373.624-.276.892.3,1.406a7.858,7.858,0,0,1,2.793-1.575,7.662,7.662,0,0,1,5.715.694,15.214,15.214,0,0,1,2.2,1.378c-2.3.127-4.516-.543-6.776-.5l5.6,1.408c0,.548.46.8.8,1.131a2.877,2.877,0,0,1,1.042,1.593v.318a17.337,17.337,0,0,0-5.223-1.3,2.783,2.783,0,0,0,1.635.91c.717.187,1.453.315,2.151.548a2.364,2.364,0,0,1,1.626,2.888,4.293,4.293,0,0,0,.208,1.244,1.827,1.827,0,0,1,0,.651,3.023,3.023,0,0,0-1.709-.975c-.244-.052-.429-.338-.658-.469a11.825,11.825,0,0,0-1.3-.78,1.7,1.7,0,0,0-.658,0l-.036.114,1.038.811c.138.112.266.229.408.338a2.74,2.74,0,0,1,1.011,3.046c-.123.559-.252,1.111-.381,1.67l-.138.065a5.116,5.116,0,0,1-.607-.741c-.325-.577-.593-1.19-.919-1.777a3.1,3.1,0,0,0-2.105-1.8,1.587,1.587,0,0,0-.211,0c.032.065.047.122.078.146a4.733,4.733,0,0,1,1.838,3.024c.148.662.355,1.313.529,1.969.032.127.036.259.065.426-.46,0-.52.338-.543.689a1.949,1.949,0,0,1-.919,1.675,8.272,8.272,0,0,0-1.782-3.2c-.051,1.3.354,2.48-.083,3.751a7.866,7.866,0,0,0-.647-.746c-.312-.272-.5-.216-.662.174-.1.243-.161.5-.257.8a3.77,3.77,0,0,1-1.566-1.716c-.359-.755-.6-1.571-.919-2.345-.107-.263-.368-.708-.46-.685-.4.1-.243.511-.23.8.1,2.261.212,4.52.322,6.775.069,1.473.129,2.945.2,4.418l.321,6.912c.065,1.406.147,2.855.188,4.28a.524.524,0,0,0,.422.563,5.274,5.274,0,0,0,3.1-.027,10.141,10.141,0,0,1,3.427-.131,10.445,10.445,0,0,0,1.778-.126,15.375,15.375,0,0,1,1.695-.062.992.992,0,0,1,.97.751l-1,.281a2.658,2.658,0,0,0-1.742,1.309c-.27.5-.716.468-1.153.356a5.056,5.056,0,0,0-2.592-.039,6.56,6.56,0,0,0-.637.273l2.447,1.158-.055.178-1.378-.1a7.85,7.85,0,0,0-3.717.567,2.126,2.126,0,0,1-1.259,0,2.156,2.156,0,0,0-1.6.065,2.4,2.4,0,0,1-1.787-.07A17.535,17.535,0,0,0,53,85.82a1.5,1.5,0,0,0-.859.23.633.633,0,0,1-.759-.032c-.344-.244-.716-.441-1.092-.671,1.418-.717,2.976-.468,4.593-.624-.156-.122-.294-.324-.46-.347a9.9,9.9,0,0,0-2.03-.155,11.8,11.8,0,0,0-3.85.9.454.454,0,0,1-.4-.095,4.325,4.325,0,0,0-3.262-1.645c-.6-.057-1.194-.094-1.782-.182a1.831,1.831,0,0,1-.574-.3l.032-.14Z" transform="translate(0.899 8.378)" fill="#fff" fill-rule="evenodd"/>
    <path id="Path_6028" data-name="Path 6028" d="M58.76,98.359c-.775.405-1.478.825-2.219,1.146a1.774,1.774,0,0,1-2.222-.664,1.723,1.723,0,0,1,.055-1.934,1.874,1.874,0,0,1,2.069-.637,6.645,6.645,0,0,0,.76.161l.107-.188L52.431,90.41a64.39,64.39,0,0,0-4.959,5.9l.047.123c.243-.048.467-.075.728-.143a1.849,1.849,0,0,1,1.938.411A1.735,1.735,0,0,1,48.6,99.628a16.11,16.11,0,0,1-1.921-.881,7.556,7.556,0,0,1-.671-.42c-.546.825-1.063,1.622-1.595,2.41a26.067,26.067,0,0,1-1.864,2.659,5.373,5.373,0,0,1-4.473,1.97,3.828,3.828,0,0,1-2.97-1.378,2.222,2.222,0,0,1,.342-3.1,2.175,2.175,0,0,1,.712-.383,18.048,18.048,0,0,1,1.923-.472,3.914,3.914,0,0,0,2.22-1.315c.782-.942,1.509-1.952,2.26-2.928a.862.862,0,0,0-1.016-.354,1.723,1.723,0,0,1-2.125-1.382,1.684,1.684,0,0,1,1.445-1.884,1.88,1.88,0,0,1,1.495.39c.272.208.542.42.8.642s.467.433.741.668l5.65-6.232c-.559-.528-1.1-1.085-1.683-1.575-2.7-2.259-5.345-4.6-8.146-6.719a47.639,47.639,0,0,0-19.435-9.005c-1.92-.386-3.877-.556-5.82-.829A2.457,2.457,0,0,1,14,69.415a33.978,33.978,0,0,1,8.855-.221,39.191,39.191,0,0,1,13.731,4.1A58.2,58.2,0,0,1,48.237,81.17c1.356,1.159,2.66,2.356,3.985,3.574a.814.814,0,0,0,.148.079c.639-.589,1.278-1.183,1.925-1.768a61.459,61.459,0,0,1,14.7-10.185,39.45,39.45,0,0,1,11.428-3.506,36.777,36.777,0,0,1,7.656-.279,22.834,22.834,0,0,1,2.606.341,3.636,3.636,0,0,1-.467.075,44.656,44.656,0,0,0-15.141,3.852A57.645,57.645,0,0,0,61.123,82.4q-2.876,2.467-5.709,4.984c-.085.075-.153.169-.234.255l5.64,6.172c.577-.472,1.137-.944,1.729-1.387a1.814,1.814,0,0,1,2.04,0,1.656,1.656,0,0,1,.625,1.975,1.7,1.7,0,0,1-1.952,1.028.871.871,0,0,0-1.027.292c.182.273.369.571.578.849.5.684,1,1.371,1.528,2.033a5.354,5.354,0,0,0,3.384,1.673,7.115,7.115,0,0,1,1.4.472,1.611,1.611,0,0,1,.932,1.372c.308,2.069-1.287,2.919-2.694,3.172a5.57,5.57,0,0,1-5.592-2.381c-.853-1.084-1.534-2.3-2.293-3.456-.238-.4-.485-.75-.717-1.093" transform="translate(4.195 20.664)" fill="#fff" fill-rule="evenodd"/>
    <path id="Path_6029" data-name="Path 6029" d="M41,73.355a8.137,8.137,0,0,1,2.9.208,5.222,5.222,0,0,0,3.467-.1,10.811,10.811,0,0,1,2-.45,1.393,1.393,0,0,1,.729.081c-.473.276-.98.548-1.466.837-.749.451-1.476.923-2.252,1.35a2.277,2.277,0,0,1-2.555-.166c-.884-.645-1.849-1.166-2.824-1.764" transform="translate(12.286 21.862)" fill="#fff" fill-rule="evenodd"/>
  </g>
</svg>
