<svg xmlns="http://www.w3.org/2000/svg" width="16" height="16.005" viewBox="0 0 16 16.005">
  <path id="tell" d="M1.551,3.019l.036-.036L3.509,1.31A1.289,1.289,0,0,1,4.523.972a1.541,1.541,0,0,1,.925.427l.053.053L7.389,3.838a1.338,1.338,0,0,1-.036,1.869.472.472,0,0,1-.107.089l-.961.641c.071.338.569,1.3,2.331,3.061,1.744,1.744,2.723,2.242,3.043,2.313l.641-.961a.472.472,0,0,1,.089-.107,1.355,1.355,0,0,1,1.869-.036l2.367,1.886.053.053a1.431,1.431,0,0,1,.089,1.94l-1.673,1.9-.036.036a1.9,1.9,0,0,1-1.37.445A8.078,8.078,0,0,1,11,16.348a16.7,16.7,0,0,1-5.57-3.737,17.05,17.05,0,0,1-3.737-5.57C1.374,6.151.626,3.944,1.551,3.019Zm4.912,8.613c3.292,3.292,6.994,4.2,7.617,3.9L15.7,13.661h0l-2.313-1.833-.623.943c-.018.018-.018.036-.036.053a1.151,1.151,0,0,1-.872.427c-.338.018-1.388.071-4.218-2.758-.694-.694-2.83-2.83-2.758-4.218A1.213,1.213,0,0,1,5.306,5.4c.018-.018.036-.036.053-.036l.908-.641L4.434,2.4h0L2.584,4.015C2.263,4.638,3.171,8.34,6.463,11.632Z" transform="translate(-1.104 -0.966)" fill="#fff"/>
</svg>
