<svg xmlns="http://www.w3.org/2000/svg" width="46.442" height="72.852" viewBox="0 0 46.442 72.852">
  <g id="selectorIcon5" transform="translate(-503.559 -3663.731)">
    <g id="Group_23159" data-name="Group 23159" transform="translate(410.754 3663.731)">
      <path id="Path_6021" data-name="Path 6021" d="M138.18,70.718h-7.711a112.946,112.946,0,0,0,.979-26.827q-.222-2.538-.566-5.027a22.131,22.131,0,0,1,.926-6.973c1.647-4.734,2.952-15.091.626-25.467a1.055,1.055,0,0,0-.041-.186,44.489,44.489,0,0,0-1.482-5.1A1.725,1.725,0,0,0,129.29,0h-6.4a1.067,1.067,0,1,0,0,2.134H129q.526,1.5.928,3a54.063,54.063,0,0,0-12.72-.185c-.754-1.113-1.423-2.071-1.95-2.815h3.368a1.067,1.067,0,0,0,0-2.134h-5.466a1.066,1.066,0,0,0-.955.593c-.187.269-4.222,7.687-4.66,12.792a30.669,30.669,0,0,0,.409,8.555s0,.006,0,.009c.009.075.849,7.55-.976,12.8-.213.612-.5,1.371-.828,2.249-2.579,6.861-7.847,20.884-4.741,33.721H93.872a1.067,1.067,0,0,0,0,2.134H138.18a1.067,1.067,0,1,0,0-2.134Zm-35.569-9.705c.435.042,2.382.216,5.124.243h.011a1.067,1.067,0,0,0,.01-2.134c-2.949-.029-4.993-.239-5.013-.241h-.013c.109-1.36.276-2.707.488-4.028a1.084,1.084,0,0,0,.154.032,43.931,43.931,0,0,0,5.019.265c3.685,0,8.757-.413,12.972-2.26.537,1.413,1.061,2.817,1.565,4.187A38.365,38.365,0,0,1,112.486,59a1.067,1.067,0,0,0,.066,2.132l.068,0a40.447,40.447,0,0,0,11.039-2.05c.458,1.262.9,2.481,1.3,3.633a52.6,52.6,0,0,1-14.866,2.1c-3.439.066-6.242-.1-7.438-.181-.074-1.21-.088-2.421-.05-3.626Zm1.827-11.957a36.495,36.495,0,0,0,3.761.19,26.857,26.857,0,0,0,10.939-2.055c.49,1.219.978,2.459,1.459,3.7-6.907,3.074-16.862,1.884-16.963,1.872l-.043,0C103.843,51.493,104.13,50.254,104.438,49.056Zm1.606-5.441c.33.019.817.04,1.421.04a22.1,22.1,0,0,0,9.4-1.913c.486,1.111.978,2.274,1.471,3.469-4.764,2.245-11.012,1.958-13.324,1.752C105.345,45.794,105.695,44.674,106.044,43.615Zm13.3-31.42a37.894,37.894,0,0,1-9.809,3.848c.008-.816.051-1.63.134-2.438.043-.417.1-.832.161-1.246A38.1,38.1,0,0,0,117.76,9.67C118.279,10.48,118.81,11.326,119.341,12.195Zm5.2,43.062A40.325,40.325,0,0,0,129.7,53.6q-.012,2.324-.123,4.675c-1.08.423-2.259.814-3.514,1.166C125.584,58.094,125.072,56.691,124.54,55.256Zm7.021-36.382a49.444,49.444,0,0,0-6.144-.161q-.6-1.221-1.309-2.54a42.539,42.539,0,0,1,7.441.33Q131.582,17.718,131.561,18.875Zm-20.513,6.338c-.147-.418-.281-.84-.407-1.264,3.238-.838,8.508-2.52,12.345-5.315.6,1.171,1.152,2.33,1.631,3.449-3.829,2.722-9.582,4.074-12.987,4.672C111.428,26.252,111.232,25.739,111.048,25.213Zm10.927-8.486c-3.56,2.7-8.706,4.337-11.857,5.152a27.145,27.145,0,0,1-.517-3.653,40.773,40.773,0,0,0,10.839-4.2c.523.89,1.039,1.795,1.535,2.7Zm3.446,7.393c.183.513.345,1.013.484,1.5q.272.951.522,1.9l-.01.006c-3.752,2.492-9.154,3.77-12.219,4.331a29.737,29.737,0,0,1-1.691-3.088c3.508-.65,8.962-2.015,12.915-4.645Zm-7.5,14.761A40.4,40.4,0,0,0,128.2,35.571q.321,1.818.573,3.652a39.532,39.532,0,0,1-9.4,2.951C118.888,41.03,118.4,39.927,117.922,38.882Zm2.3,5.3a42.356,42.356,0,0,0,8.834-2.733q.149,1.307.266,2.627.06.687.111,1.377a39.184,39.184,0,0,1-7.713,2.428C121.223,46.628,120.723,45.389,120.222,44.182Zm9.348,3.537q.09,1.774.122,3.567a36.9,36.9,0,0,1-5.9,1.958c-.418-1.111-.846-2.232-1.28-3.35A41.6,41.6,0,0,0,129.571,47.719ZM116.982,36.887c-.553-1.137-1.089-2.175-1.6-3.085a36.808,36.808,0,0,0,11.6-4.108q.444,1.84.814,3.682A37.788,37.788,0,0,1,116.982,36.887ZM127.42,23.373q-.43-1.2-1.019-2.546a44.23,44.23,0,0,1,5.083.186c-.047.843-.112,1.653-.19,2.424-1.191-.067-2.49-.088-3.874-.064Zm4.025-9.04a49.336,49.336,0,0,0-8.5-.25q-.7-1.228-1.49-2.528a42.957,42.957,0,0,1,9.774.439Q131.366,13.18,131.445,14.333Zm-18.8,19.056c.291.445.593.95.906,1.506a36.783,36.783,0,0,1-4.728,1.039,55.119,55.119,0,0,0,1.385-7.062A32.235,32.235,0,0,0,112.641,33.389Zm-4.672,4.828a40.343,40.343,0,0,0,6.6-1.4c.461.914.938,1.913,1.425,2.978a20.71,20.71,0,0,1-9.224,1.715C107.194,40.294,107.6,39.19,107.969,38.218ZM129.445,60.6q-.225,3.287-.641,6.615c-.551-1.6-1.236-3.574-2.015-5.764.927-.263,1.814-.548,2.656-.851Zm.179-28.893q-.665-3.105-1.537-6.211c1.042-.008,2.028.013,2.946.061a53.628,53.628,0,0,1-1.409,6.15Zm.858-24.28q.253,1.177.439,2.338a72.369,72.369,0,0,0-10.733-.261c-.077-.122-1.173-1.837-1.625-2.525C121.349,6.778,126.818,6.542,130.482,7.43ZM113.219,2.952c.777,1.09,1.988,2.822,3.368,4.914a35.058,35.058,0,0,1-6.3,2.185,25.7,25.7,0,0,1,2.931-7.1ZM102.86,66.794c1.143.078,3.15.183,5.631.183,4.89,0,11.618-.411,17.184-2.248.908,2.587,1.627,4.7,2.064,5.989H103.607a30.469,30.469,0,0,1-.747-3.924Z" transform="translate(0)" fill="#d1b58c"/>
    </g>
  </g>
</svg>
