<svg xmlns="http://www.w3.org/2000/svg" width="84.647" height="84.508" viewBox="0 0 84.647 84.508">
  <g id="selectorIcon1" transform="translate(0 -0.419)">
    <path id="Path_5965" data-name="Path 5965" d="M64.237,62.976a1.24,1.24,0,0,0,.877-2.117,11.115,11.115,0,0,0-15.718,0,1.24,1.24,0,0,0,1.754,1.753,8.634,8.634,0,0,1,12.211,0A1.235,1.235,0,0,0,64.237,62.976Z" transform="translate(-40.926 -47.731)" fill="#d1b58c"/>
    <path id="Path_5966" data-name="Path 5966" d="M72.3,102.745A4.375,4.375,0,1,0,76.68,98.37a4.38,4.38,0,0,0-4.375,4.375Zm6.27,0a1.895,1.895,0,1,1-1.895-1.895,1.9,1.9,0,0,1,1.895,1.895Z" transform="translate(-60.351 -81.757)" fill="#d1b58c"/>
    <path id="Path_5967" data-name="Path 5967" d="M25.47,28.057a14.638,14.638,0,0,1,20.7,0A1.24,1.24,0,0,0,47.926,26.3a17.119,17.119,0,0,0-24.209,0,1.24,1.24,0,0,0,1.754,1.754Z" transform="translate(-19.492 -17.42)" fill="#d1b58c"/>
    <path id="Path_5968" data-name="Path 5968" d="M83.407,82.447H74.925V50.619a2.764,2.764,0,0,0-2.117-2.693l-12.25-2.978v-3.27a1.24,1.24,0,1,0-2.48,0v2.667l-2.613-.635a2.78,2.78,0,0,0-.946-.064V22.3h3.559V36.719a1.24,1.24,0,0,0,2.48,0V21.758a1.939,1.939,0,0,0-1.937-1.937h-.494V16.261a2.011,2.011,0,0,0-2.008-2.008h-1.6V12.309a3.2,3.2,0,0,0-3.192-3.191h-.973V1.659a1.24,1.24,0,0,0-2.48,0V9.118H46.9a3.2,3.2,0,0,0-3.192,3.191v1.943h-1.6A2.01,2.01,0,0,0,40.1,16.26v3.561h-.494a1.939,1.939,0,0,0-1.937,1.937V28L23.387,31.472a2.341,2.341,0,0,0-1.793,2.281v8.069H9.784A3.184,3.184,0,0,0,6.6,45V52.39a1.24,1.24,0,0,0,2.48,0V45a.7.7,0,0,1,.7-.7H26.31a.7.7,0,0,1,.7.7V82.447H9.084V57.35a1.24,1.24,0,0,0-2.48,0v25.1H1.24a1.24,1.24,0,1,0,0,2.48H83.407a1.24,1.24,0,1,0,0-2.48ZM54.63,46.174a.281.281,0,0,1,.249-.054l17.343,4.215a.291.291,0,0,1,.223.283V82.447H54.519V46.4a.283.283,0,0,1,.111-.229Zm-2.581.05c0,.06-.01.119-.01.18V82.447H49.5V22.3h2.539V46.073A1.232,1.232,0,0,0,52.049,46.224ZM46.191,12.309A.712.712,0,0,1,46.9,11.6h4.425a.712.712,0,0,1,.712.712v1.943H46.191V12.309Zm-3.608,4.423H55.647v3.089H42.582ZM40.151,22.3H47.02V82.447H44.481V29.331a2.347,2.347,0,0,0-2.9-2.281l-1.428.347ZM42,42.176v3.87L29.49,49.176V45.306ZM29.49,58.158,42,55.028V58.9L29.49,62.027Zm0,6.426L42,61.454v3.87L29.49,68.453Zm0,6.426L42,67.879v3.564L29.49,74.635ZM42,52.471,29.49,55.6V51.732L42,48.6ZM29.49,77.194,42,74v3.556L29.49,80.689ZM42,80.115v2.332H32.679ZM42,29.5v3.694L24.074,37.679V33.857ZM26.31,41.821H24.074V40.235L42,35.75v3.87L28.727,42.94A3.173,3.173,0,0,0,26.31,41.821Z" transform="translate(0 0)" fill="#d1b58c"/>
    <path id="Path_5969" data-name="Path 5969" d="M72.04,285.193a1.24,1.24,0,0,0,1.24-1.24v-2.172a1.24,1.24,0,0,0-2.48,0v2.172A1.24,1.24,0,0,0,72.04,285.193Z" transform="translate(-59.095 -233.811)" fill="#d1b58c"/>
    <path id="Path_5970" data-name="Path 5970" d="M102.9,285.193a1.24,1.24,0,0,0,1.24-1.24v-2.172a1.24,1.24,0,0,0-2.48,0v2.172A1.24,1.24,0,0,0,102.9,285.193Z" transform="translate(-84.853 -233.811)" fill="#d1b58c"/>
    <path id="Path_5971" data-name="Path 5971" d="M133.76,285.193a1.24,1.24,0,0,0,1.24-1.24v-2.172a1.24,1.24,0,0,0-2.48,0v2.172A1.24,1.24,0,0,0,133.76,285.193Z" transform="translate(-110.611 -233.811)" fill="#d1b58c"/>
    <path id="Path_5972" data-name="Path 5972" d="M346.457,316.281a1.24,1.24,0,0,0,1.24-1.24v-1.2a1.24,1.24,0,1,0-2.48,0v1.2A1.24,1.24,0,0,0,346.457,316.281Z" transform="translate(-288.144 -260.574)" fill="#d1b58c"/>
    <path id="Path_5973" data-name="Path 5973" d="M377.317,316.281a1.24,1.24,0,0,0,1.24-1.24v-1.2a1.24,1.24,0,1,0-2.48,0v1.2A1.24,1.24,0,0,0,377.317,316.281Z" transform="translate(-313.902 -260.574)" fill="#d1b58c"/>
    <path id="Path_5974" data-name="Path 5974" d="M407.125,316.281a1.24,1.24,0,0,0,1.24-1.24v-1.2a1.24,1.24,0,1,0-2.48,0v1.2A1.24,1.24,0,0,0,407.125,316.281Z" transform="translate(-338.782 -260.574)" fill="#d1b58c"/>
    <path id="Path_5975" data-name="Path 5975" d="M346.457,352.292a1.24,1.24,0,0,0,1.24-1.24v-1.2a1.24,1.24,0,0,0-2.48,0v1.2A1.24,1.24,0,0,0,346.457,352.292Z" transform="translate(-288.144 -290.631)" fill="#d1b58c"/>
    <path id="Path_5976" data-name="Path 5976" d="M377.317,352.292a1.24,1.24,0,0,0,1.24-1.24v-1.2a1.24,1.24,0,0,0-2.48,0v1.2A1.24,1.24,0,0,0,377.317,352.292Z" transform="translate(-313.902 -290.631)" fill="#d1b58c"/>
    <path id="Path_5977" data-name="Path 5977" d="M407.125,352.292a1.24,1.24,0,0,0,1.24-1.24v-1.2a1.24,1.24,0,0,0-2.48,0v1.2A1.24,1.24,0,0,0,407.125,352.292Z" transform="translate(-338.782 -290.631)" fill="#d1b58c"/>
    <path id="Path_5978" data-name="Path 5978" d="M346.457,388.3a1.24,1.24,0,0,0,1.24-1.24v-1.2a1.24,1.24,0,1,0-2.48,0v1.2A1.24,1.24,0,0,0,346.457,388.3Z" transform="translate(-288.144 -320.688)" fill="#d1b58c"/>
    <path id="Path_5979" data-name="Path 5979" d="M377.317,388.3a1.24,1.24,0,0,0,1.24-1.24v-1.2a1.24,1.24,0,1,0-2.48,0v1.2A1.24,1.24,0,0,0,377.317,388.3Z" transform="translate(-313.902 -320.688)" fill="#d1b58c"/>
    <path id="Path_5980" data-name="Path 5980" d="M407.125,388.3a1.24,1.24,0,0,0,1.24-1.24v-1.2a1.24,1.24,0,1,0-2.48,0v1.2A1.24,1.24,0,0,0,407.125,388.3Z" transform="translate(-338.782 -320.688)" fill="#d1b58c"/>
    <path id="Path_5981" data-name="Path 5981" d="M346.457,424.315a1.24,1.24,0,0,0,1.24-1.24v-1.2a1.24,1.24,0,1,0-2.48,0v1.2A1.24,1.24,0,0,0,346.457,424.315Z" transform="translate(-288.144 -350.747)" fill="#d1b58c"/>
    <path id="Path_5982" data-name="Path 5982" d="M377.317,424.315a1.24,1.24,0,0,0,1.24-1.24v-1.2a1.24,1.24,0,1,0-2.48,0v1.2A1.24,1.24,0,0,0,377.317,424.315Z" transform="translate(-313.902 -350.747)" fill="#d1b58c"/>
    <path id="Path_5983" data-name="Path 5983" d="M407.125,424.315a1.24,1.24,0,0,0,1.24-1.24v-1.2a1.24,1.24,0,1,0-2.48,0v1.2A1.24,1.24,0,0,0,407.125,424.315Z" transform="translate(-338.782 -350.747)" fill="#d1b58c"/>
    <path id="Path_5984" data-name="Path 5984" d="M346.457,460.326a1.24,1.24,0,0,0,1.24-1.24v-1.2a1.24,1.24,0,0,0-2.48,0v1.2A1.24,1.24,0,0,0,346.457,460.326Z" transform="translate(-288.144 -380.804)" fill="#d1b58c"/>
    <path id="Path_5985" data-name="Path 5985" d="M377.317,460.326a1.24,1.24,0,0,0,1.24-1.24v-1.2a1.24,1.24,0,0,0-2.48,0v1.2A1.24,1.24,0,0,0,377.317,460.326Z" transform="translate(-313.902 -380.804)" fill="#d1b58c"/>
    <path id="Path_5986" data-name="Path 5986" d="M407.125,460.326a1.24,1.24,0,0,0,1.24-1.24v-1.2a1.24,1.24,0,0,0-2.48,0v1.2A1.24,1.24,0,0,0,407.125,460.326Z" transform="translate(-338.782 -380.804)" fill="#d1b58c"/>
    <path id="Path_5987" data-name="Path 5987" d="M70.8,327.548a1.24,1.24,0,1,0,2.48,0v-2.172a1.24,1.24,0,1,0-2.48,0Z" transform="translate(-59.095 -270.198)" fill="#d1b58c"/>
    <path id="Path_5988" data-name="Path 5988" d="M101.66,327.548a1.24,1.24,0,1,0,2.48,0v-2.172a1.24,1.24,0,1,0-2.48,0Z" transform="translate(-84.853 -270.198)" fill="#d1b58c"/>
    <path id="Path_5989" data-name="Path 5989" d="M132.52,327.548a1.24,1.24,0,1,0,2.48,0v-2.172a1.24,1.24,0,1,0-2.48,0Z" transform="translate(-110.611 -270.198)" fill="#d1b58c"/>
    <path id="Path_5990" data-name="Path 5990" d="M70.8,371.144a1.24,1.24,0,1,0,2.48,0v-2.172a1.24,1.24,0,0,0-2.48,0Z" transform="translate(-59.095 -306.587)" fill="#d1b58c"/>
    <path id="Path_5991" data-name="Path 5991" d="M101.66,371.144a1.24,1.24,0,1,0,2.48,0v-2.172a1.24,1.24,0,0,0-2.48,0Z" transform="translate(-84.853 -306.587)" fill="#d1b58c"/>
    <path id="Path_5992" data-name="Path 5992" d="M132.52,371.144a1.24,1.24,0,1,0,2.48,0v-2.172a1.24,1.24,0,0,0-2.48,0Z" transform="translate(-110.611 -306.587)" fill="#d1b58c"/>
    <path id="Path_5993" data-name="Path 5993" d="M70.8,414.739a1.24,1.24,0,1,0,2.48,0v-2.172a1.24,1.24,0,0,0-2.48,0Z" transform="translate(-59.095 -342.974)" fill="#d1b58c"/>
    <path id="Path_5994" data-name="Path 5994" d="M101.66,414.739a1.24,1.24,0,1,0,2.48,0v-2.172a1.24,1.24,0,0,0-2.48,0Z" transform="translate(-84.853 -342.974)" fill="#d1b58c"/>
    <path id="Path_5995" data-name="Path 5995" d="M132.52,414.739a1.24,1.24,0,1,0,2.48,0v-2.172a1.24,1.24,0,0,0-2.48,0Z" transform="translate(-110.611 -342.974)" fill="#d1b58c"/>
    <path id="Path_5996" data-name="Path 5996" d="M70.8,458.335a1.24,1.24,0,0,0,2.48,0v-2.172a1.24,1.24,0,0,0-2.48,0Z" transform="translate(-59.095 -379.363)" fill="#d1b58c"/>
    <path id="Path_5997" data-name="Path 5997" d="M101.66,458.335a1.24,1.24,0,0,0,2.48,0v-2.172a1.24,1.24,0,0,0-2.48,0Z" transform="translate(-84.853 -379.363)" fill="#d1b58c"/>
    <path id="Path_5998" data-name="Path 5998" d="M132.52,458.335a1.24,1.24,0,0,0,2.48,0v-2.172a1.24,1.24,0,0,0-2.48,0Z" transform="translate(-110.611 -379.363)" fill="#d1b58c"/>
  </g>
</svg>
