<svg xmlns="http://www.w3.org/2000/svg" width="67.4" height="67.4" viewBox="0 0 67.4 67.4">
  <g id="selectorIcon4" transform="translate(0 0)">
    <path id="Path_6005" data-name="Path 6005" d="M55.32,51.217a12.081,12.081,0,0,0,5.6-22.784,12.085,12.085,0,0,0-18.8-14.252V7.872a1.318,1.318,0,0,0,1.053-1.29V1.316A1.316,1.316,0,0,0,41.861,0H1.316A1.316,1.316,0,0,0,0,1.316V6.582a1.318,1.318,0,0,0,1.053,1.29V66.083A1.316,1.316,0,0,0,2.369,67.4h51.6a1.316,1.316,0,0,0,1.009-.471A5.384,5.384,0,0,0,51.255,58.1v-7.59a12.112,12.112,0,0,0,4.065.7ZM49.938,13.954a9.449,9.449,0,0,1,8.04,14.41,1.316,1.316,0,0,0,.657,1.925,9.448,9.448,0,1,1-7.381,17.377V43.2l5.975-5.976a1.316,1.316,0,0,0-1.861-1.862l-4.114,4.114V26.9a1.316,1.316,0,1,0-2.633,0v6.256l-1.089-1.089a1.317,1.317,0,0,0-1.862,1.862l2.951,2.951V47.665a9.47,9.47,0,0,1-6.5.6V18.089a9.4,9.4,0,0,1,7.814-4.136ZM48.622,56.941a7.208,7.208,0,0,0-6.5-2.284V50.969a12.082,12.082,0,0,0,6.5-.456ZM3.686,7.9H15.621a1.316,1.316,0,0,0,0-2.633H2.632V2.632H40.545V5.265H27.468a1.316,1.316,0,1,0,0,2.633H39.492V55.636a7.209,7.209,0,0,0-2.433,2.481c-.067.007-.134.016-.2.026V51.6a1.316,1.316,0,0,0-1.316-1.316H29.75A1.316,1.316,0,0,0,28.434,51.6v7.372a1.316,1.316,0,0,0,1.316,1.316h3.541a5.362,5.362,0,0,0-.884,4.476H3.686Zm30.541,49.76H31.067V52.919h3.159ZM53.6,63.472a2.753,2.753,0,0,1-.324,1.295H35.205a2.752,2.752,0,0,1,2.428-4.047c.055,0,.11,0,.164.005a1.316,1.316,0,0,0,1.282-.786,4.574,4.574,0,0,1,8.533.4,1.317,1.317,0,0,0,1.893.735,2.753,2.753,0,0,1,4.094,2.4Zm0,0" fill="#d1b58c"/>
    <path id="Path_6006" data-name="Path 6006" d="M55.109,382H49.316A1.316,1.316,0,0,0,48,383.316v7.372A1.316,1.316,0,0,0,49.316,392h5.792a1.316,1.316,0,0,0,1.316-1.316v-7.372A1.316,1.316,0,0,0,55.109,382Zm-1.316,7.372H50.633v-4.739h3.159Zm0,0" transform="translate(-41.682 -331.714)" fill="#d1b58c"/>
    <path id="Path_6007" data-name="Path 6007" d="M139.109,382h-5.792A1.316,1.316,0,0,0,132,383.316v7.372A1.316,1.316,0,0,0,133.316,392h5.792a1.316,1.316,0,0,0,1.316-1.316v-7.372A1.316,1.316,0,0,0,139.109,382Zm-1.316,7.372h-3.159v-4.739h3.159Zm0,0" transform="translate(-114.624 -331.714)" fill="#d1b58c"/>
    <path id="Path_6008" data-name="Path 6008" d="M55.109,286H49.316A1.316,1.316,0,0,0,48,287.316v7.372A1.316,1.316,0,0,0,49.316,296h5.792a1.316,1.316,0,0,0,1.316-1.316v-7.372A1.316,1.316,0,0,0,55.109,286Zm-1.316,7.372H50.633v-4.739h3.159Zm0,0" transform="translate(-41.682 -248.351)" fill="#d1b58c"/>
    <path id="Path_6009" data-name="Path 6009" d="M139.109,286h-5.792A1.316,1.316,0,0,0,132,287.316v7.372A1.316,1.316,0,0,0,133.316,296h5.792a1.316,1.316,0,0,0,1.316-1.316v-7.372A1.316,1.316,0,0,0,139.109,286Zm-1.316,7.372h-3.159v-4.739h3.159Zm0,0" transform="translate(-114.624 -248.351)" fill="#d1b58c"/>
    <path id="Path_6010" data-name="Path 6010" d="M217.316,296h5.792a1.316,1.316,0,0,0,1.316-1.316v-7.372A1.316,1.316,0,0,0,223.109,286h-5.792A1.316,1.316,0,0,0,216,287.316v7.372A1.316,1.316,0,0,0,217.316,296Zm1.316-7.372h3.159v4.739h-3.159Zm0,0" transform="translate(-187.566 -248.351)" fill="#d1b58c"/>
    <path id="Path_6011" data-name="Path 6011" d="M55.109,190H49.316A1.316,1.316,0,0,0,48,191.316v7.372A1.316,1.316,0,0,0,49.316,200h5.792a1.316,1.316,0,0,0,1.316-1.316v-7.372A1.316,1.316,0,0,0,55.109,190Zm-1.316,7.372H50.633v-4.739h3.159Zm0,0" transform="translate(-41.682 -164.989)" fill="#d1b58c"/>
    <path id="Path_6012" data-name="Path 6012" d="M139.109,190h-5.792A1.316,1.316,0,0,0,132,191.316v7.372A1.316,1.316,0,0,0,133.316,200h5.792a1.316,1.316,0,0,0,1.316-1.316v-7.372A1.316,1.316,0,0,0,139.109,190Zm-1.316,7.372h-3.159v-4.739h3.159Zm0,0" transform="translate(-114.624 -164.989)" fill="#d1b58c"/>
    <path id="Path_6013" data-name="Path 6013" d="M217.316,200h5.792a1.316,1.316,0,0,0,1.316-1.316v-7.372A1.316,1.316,0,0,0,223.109,190h-5.792A1.316,1.316,0,0,0,216,191.316v7.372A1.316,1.316,0,0,0,217.316,200Zm1.316-7.372h3.159v4.739h-3.159Zm0,0" transform="translate(-187.566 -164.989)" fill="#d1b58c"/>
    <path id="Path_6014" data-name="Path 6014" d="M55.109,94H49.316A1.316,1.316,0,0,0,48,95.316v7.372A1.316,1.316,0,0,0,49.316,104h5.792a1.316,1.316,0,0,0,1.316-1.316V95.316A1.316,1.316,0,0,0,55.109,94Zm-1.316,7.372H50.633V96.633h3.159Zm0,0" transform="translate(-41.682 -81.626)" fill="#d1b58c"/>
    <path id="Path_6015" data-name="Path 6015" d="M139.109,94h-5.792A1.316,1.316,0,0,0,132,95.316v7.372A1.316,1.316,0,0,0,133.316,104h5.792a1.316,1.316,0,0,0,1.316-1.316V95.316A1.316,1.316,0,0,0,139.109,94Zm-1.316,7.372h-3.159V96.633h3.159Zm0,0" transform="translate(-114.624 -81.626)" fill="#d1b58c"/>
    <path id="Path_6016" data-name="Path 6016" d="M217.316,104h5.792a1.316,1.316,0,0,0,1.316-1.316V95.316A1.316,1.316,0,0,0,223.109,94h-5.792A1.316,1.316,0,0,0,216,95.316v7.372A1.316,1.316,0,0,0,217.316,104Zm1.316-7.372h3.159v4.739h-3.159Zm0,0" transform="translate(-187.566 -81.626)" fill="#d1b58c"/>
    <path id="Path_6017" data-name="Path 6017" d="M154.988,42.633a1.317,1.317,0,1,0-.931-.386A1.326,1.326,0,0,0,154.988,42.633Zm0,0" transform="translate(-133.443 -34.735)" fill="#d1b58c"/>
  </g>
</svg>
