<svg xmlns="http://www.w3.org/2000/svg" width="85" height="85" viewBox="0 0 85 85">
  <g id="selectorIcon2" transform="translate(-102.703 78.371)">
    <g id="Out_line" data-name="Out line" transform="translate(86.703 -94.371)">
      <path id="Path_6034" data-name="Path 6034" d="M183.357,297.881,165.764,312.7l-17.593-14.815-1.825,2.167,18.505,15.583a1.417,1.417,0,0,0,1.825,0l18.505-15.583Z" transform="translate(-107.265 -231.964)" fill="#d1b58c"/>
      <path id="Path_6035" data-name="Path 6035" d="M98.833,24.658a41.788,41.788,0,0,0,20.9-3.594l4.6-2.091,4.6,2.091a41.786,41.786,0,0,0,20.9,3.594v5.509h2.833V23.084a1.417,1.417,0,0,0-1.592-1.406,38.965,38.965,0,0,1-20.969-3.194l-5.186-2.357a1.418,1.418,0,0,0-1.172,0l-5.186,2.357a38.963,38.963,0,0,1-20.969,3.194A1.417,1.417,0,0,0,96,23.084v7.083h2.833Z" transform="translate(-65.833)" fill="#d1b58c"/>
      <path id="Path_6036" data-name="Path 6036" d="M164.672,269.94l-1.825,2.167L178.43,285.23a1.417,1.417,0,0,0,1.825,0l15.583-13.123-1.825-2.167-14.671,12.354Z" transform="translate(-120.842 -208.971)" fill="#d1b58c"/>
      <path id="Path_6037" data-name="Path 6037" d="M173.333,69.01V57.984a1.417,1.417,0,0,0-1.4-1.416,44.351,44.351,0,0,1-17.843-4l-2.841-1.291a1.418,1.418,0,0,0-1.172,0l-2.841,1.291a44.351,44.351,0,0,1-17.843,4,1.417,1.417,0,0,0-1.4,1.416V69.01h2.833V59.361a47.146,47.146,0,0,0,17.579-4.212l2.254-1.025,2.254,1.025A47.146,47.146,0,0,0,170.5,59.361V69.01Z" transform="translate(-92.167 -28.926)" fill="#d1b58c"/>
      <path id="Path_6038" data-name="Path 6038" d="M364.291,178.24l-1.4-5.591-4.157-30.488,5.287-6.609a1.417,1.417,0,0,0,.256-1.274l-2.833-9.917a1.417,1.417,0,0,0-1.019-.985l-3.177-.794v-1.495l1-1a1.417,1.417,0,0,0,.265-1.635l-1.267-2.534v-1.082h1.417V112H348.75a1.417,1.417,0,0,0-1.362,1.027l-2.609,9.13-4.873,1.218a1.417,1.417,0,0,0-1.019.985l-2.833,9.917a1.417,1.417,0,0,0,.361,1.391L343,142.255l-4.145,30.394-1.4,5.591a1.417,1.417,0,0,0,1.374,1.76h7.083a1.417,1.417,0,0,0,1.417-1.417V173.13l4.055-13.177,3.029,13.125v5.506A1.417,1.417,0,0,0,355.833,180h7.083a1.417,1.417,0,0,0,1.374-1.76Zm-14.473-63.406h4.6v1.417a1.417,1.417,0,0,0,.15.634l.96,1.92-.695.695a1.417,1.417,0,0,0-.415,1v1.417h-.83l-1-1a1.417,1.417,0,0,0-2,2L352,124.335a1.417,1.417,0,0,0,.733.389l-1.368,2.052-3.855-3.855Zm-8.431,11.093,4.095-1.024,4.685,4.685V137.5H353v-8.071l2.6-3.893a1.415,1.415,0,0,0,.183-.4l3.167.792,2.408,8.427-2.687,3.358V133.25a1.417,1.417,0,0,0-2.833,0v7.083h-9.917V133.25a1.417,1.417,0,0,0-2.833,0v5.08l-4.076-4.075Zm4.349,17.241h10.277l3.864,28.333H356.96L353,154.339v-5.506h-2.833v5.454l-5.3,17.213h-3Zm-5.089,34,.708-2.833H344.5v2.833Zm16.6,0v-2.833h3.144l.708,2.833Z" transform="translate(-263.333 -79)" fill="#d1b58c"/>
      <path id="Path_6039" data-name="Path 6039" d="M41.477,172.648l-4.145-30.394,6.586-6.586a1.417,1.417,0,0,0,.36-1.391l-2.833-9.917a1.417,1.417,0,0,0-1.019-.985l-4.873-1.218-2.609-9.13A1.417,1.417,0,0,0,31.583,112H21.667v2.833h1.417v1.082l-1.267,2.534a1.417,1.417,0,0,0,.265,1.635l1,1v1.495l-3.177.794a1.417,1.417,0,0,0-1.019.985l-2.833,9.917a1.417,1.417,0,0,0,.256,1.274L21.6,142.16,17.44,172.648l-1.4,5.591A1.417,1.417,0,0,0,17.417,180H24.5a1.417,1.417,0,0,0,1.417-1.417v-5.506l3.029-13.125L33,173.13v5.453A1.417,1.417,0,0,0,34.417,180H41.5a1.417,1.417,0,0,0,1.374-1.76Zm-15.71-55.765a1.417,1.417,0,0,0,.15-.634v-1.417h4.6l2.311,8.088-3.855,3.855L27.6,124.724a1.417,1.417,0,0,0,.733-.389l1.417-1.417a1.417,1.417,0,0,0-2-2l-1,1h-.83V120.5a1.417,1.417,0,0,0-.415-1l-.695-.695Zm-4.38,9.042,3.167-.792a1.414,1.414,0,0,0,.183.4l2.6,3.893V137.5h2.833v-7.913l4.685-4.685,4.095,1.024,2.38,8.328L37.25,138.33v-5.08a1.417,1.417,0,0,0-2.833,0v7.083H24.5V133.25a1.417,1.417,0,0,0-2.833,0v4.461l-2.687-3.358Zm2.933,17.241H34.6L38.46,171.5h-3l-5.3-17.213v-5.453H27.333v5.505L23.373,171.5H20.456Zm-5.089,34,.708-2.833h3.144v2.833Zm16.6,0v-2.833h3.144l.708,2.833Z" transform="translate(0 -79)" fill="#d1b58c"/>
    </g>
  </g>
</svg>
