<svg id="selectorIcon3" xmlns="http://www.w3.org/2000/svg" width="67.4" height="67.4" viewBox="0 0 67.4 67.4">
  <path id="Path_6002" data-name="Path 6002" d="M66.084,38.439H56.869V33.7a1.317,1.317,0,0,0-1.008-1.28l-5.237-1.262a17.113,17.113,0,0,0-15.608-14.52V13.164H49.5a1.316,1.316,0,0,0,.931-2.247L46.093,6.582l4.335-4.335A1.316,1.316,0,0,0,49.5,0H33.7a1.316,1.316,0,0,0-1.316,1.316V16.638a17.113,17.113,0,0,0-15.608,14.52L11.539,32.42a1.317,1.317,0,0,0-1.008,1.28v4.739H1.316A1.316,1.316,0,0,0,0,39.755V66.084A1.316,1.316,0,0,0,1.316,67.4h26.46a1.316,1.316,0,1,0,0-2.633H13.164V62.134H54.236v2.633H39.624a1.316,1.316,0,0,0,0,2.633h26.46A1.316,1.316,0,0,0,67.4,66.084V39.755A1.316,1.316,0,0,0,66.084,38.439ZM35.016,2.633h11.3L43.3,5.651a1.317,1.317,0,0,0,0,1.862l3.018,3.018h-11.3ZM33.7,19.219A14.4,14.4,0,0,1,47.824,30.484L34.008,27.155a1.317,1.317,0,0,0-.617,0L19.576,30.484A14.4,14.4,0,0,1,33.7,19.219ZM13.164,34.737,33.7,29.788l20.536,4.948v3.7H13.164Zm7.9,6.335V59.5H18.43V41.072Zm2.633,0h6.055V59.5H23.7Zm8.688,0h2.633V59.5H32.384Zm5.266,0H43.7V59.5H37.649Zm8.688,0H48.97V59.5H46.337Zm-43.7,23.7v-23.7H15.8V59.5H13.164V55.552a1.316,1.316,0,0,0-1.316-1.316H6.582a1.316,1.316,0,0,0-1.316,1.316v5.266a1.316,1.316,0,0,0,1.316,1.316h3.949v2.633Zm7.9-5.266H7.9V56.869h2.633Zm54.236,5.266h-7.9V62.134h3.949a1.316,1.316,0,0,0,1.316-1.316V55.552a1.316,1.316,0,0,0-1.316-1.316H55.552a1.316,1.316,0,0,0-1.316,1.316V59.5H51.6V41.072H64.767Zm-7.9-5.266V56.869H59.5V59.5Z" transform="translate(0)" fill="#d1b58c"/>
  <path id="Path_6003" data-name="Path 6003" d="M412,333.316v5.266a1.316,1.316,0,0,0,1.316,1.316h5.266a1.316,1.316,0,0,0,1.316-1.316v-5.266A1.316,1.316,0,0,0,418.582,332h-5.266A1.316,1.316,0,0,0,412,333.316Zm2.633,1.316h2.633v2.633h-2.633Z" transform="translate(-357.764 -288.295)" fill="#d1b58c"/>
  <path id="Path_6004" data-name="Path 6004" d="M41.316,339.9h5.266a1.316,1.316,0,0,0,1.316-1.316v-5.266A1.316,1.316,0,0,0,46.582,332H41.316A1.316,1.316,0,0,0,40,333.316v5.266A1.316,1.316,0,0,0,41.316,339.9Zm1.316-5.266h2.633v2.633H42.633Z" transform="translate(-34.734 -288.295)" fill="#d1b58c"/>
  <circle id="Ellipse_171" data-name="Ellipse 171" cx="1.051" cy="1.051" r="1.051" transform="translate(33.155 64.685)" fill="#d1b58c"/>
</svg>
