<svg id="selectorIcon2" xmlns="http://www.w3.org/2000/svg" width="66.121" height="65.741" viewBox="0 0 66.121 65.741">
  <g id="Group_24097" data-name="Group 24097" transform="translate(0 0)">
    <path id="Path_50722" data-name="Path 50722" d="M58.769,0a1.356,1.356,0,0,1,1.354,1.358v5.3h5.338a1.356,1.356,0,0,1,1.354,1.358v6.647a1.367,1.367,0,0,1,0,1.025v.395a1.361,1.361,0,0,1-.23.757l-5.3,7.925V49.216c.9.481,1.693.931,2.364,1.327.821.484,1.463.889,1.9,1.175.22.143.389.256.5.335l.082.056.052.036.036.025.01.007,0,0s0,0-.779,1.111l.78-1.111A1.357,1.357,0,0,1,64.681,54.4l-.006,0-.026-.018-.028-.019-.085-.058c-.1-.069-.256-.173-.46-.306-.408-.266-1.016-.65-1.8-1.112-.5-.3-1.073-.622-1.711-.971L56.807,64.765a1.355,1.355,0,0,1-1.3.976H12.98a1.355,1.355,0,0,1-1.313-1.025L8.28,51.305c-.7.376-1.328.728-1.865,1.043-.755.442-1.338.808-1.729,1.062-.2.127-.343.226-.44.292l-.107.073-.024.017,0,0a1.357,1.357,0,0,1-1.562-2.219l.781,1.11c-.781-1.11-.78-1.11-.78-1.11l0,0,.01-.007.035-.024.129-.088c.112-.076.275-.185.487-.323.424-.275,1.042-.664,1.836-1.128.861-.5,1.928-1.1,3.177-1.729a1.347,1.347,0,0,1,.6-.332c.037-.009.074-.017.111-.023.868-.426,1.812-.867,2.826-1.306A56.131,56.131,0,0,1,34.1,41.747a49.805,49.805,0,0,1,9.5,1V24.769L38.2,16.847a1.361,1.361,0,0,1-.236-.766V8.014a1.356,1.356,0,0,1,1.354-1.358H57.414v-5.3A1.356,1.356,0,0,1,58.769,0ZM46.3,43.362a65,65,0,0,1,10.438,3.632q.962.427,1.842.85V25.91H46.3v17.3A1.37,1.37,0,0,1,46.3,43.362Zm11.819,7.278c-.77-.38-1.6-.771-2.478-1.161a54.954,54.954,0,0,0-21.553-5.014A53.438,53.438,0,0,0,12.839,49.1c-.733.318-1.428.635-2.081.948l3.276,12.971H25.4V55.609a1.356,1.356,0,0,1,1.354-1.358H42.339a1.356,1.356,0,0,1,1.354,1.358v7.414h10.8ZM32.987,56.968H28.109v6.056h4.879ZM35.7,63.024V56.968h5.288v6.056ZM40.675,9.372H64.106v4.443H40.675Zm.593,7.16h22.26l-4.454,6.661H45.8Z" transform="translate(-0.794)" fill="#d1b58c" fill-rule="evenodd"/>
    <path id="Path_50723" data-name="Path 50723" d="M34.528,36.194a2.323,2.323,0,0,1-.94,3.148L8.526,52.875,2.234,50.586A2.323,2.323,0,1,1,3.822,46.22L8.154,47.8,31.38,35.254A2.323,2.323,0,0,1,34.528,36.194Z" transform="translate(-0.704 -9.402)" fill="#d1b58c" fill-rule="evenodd"/>
    <path id="Path_50724" data-name="Path 50724" d="M9.67,39.256a2.323,2.323,0,0,1,2.962-1.421l8.933,3.141a2.323,2.323,0,1,1-1.541,4.383l-8.933-3.141A2.323,2.323,0,0,1,9.67,39.256Z" transform="translate(-1.329 -9.071)" fill="#d1b58c" fill-rule="evenodd"/>
  </g>
</svg>
