<svg xmlns="http://www.w3.org/2000/svg" xmlns:xlink="http://www.w3.org/1999/xlink" width="125.123" height="125.123" viewBox="0 0 125.123 125.123">
  <defs>
    <linearGradient id="linear-gradient" x1="0.299" y1="0.059" x2="0.5" y2="1" gradientUnits="objectBoundingBox">
      <stop offset="0" stop-color="#495068"/>
      <stop offset="1" stop-color="#1c1f2a"/>
    </linearGradient>
  </defs>
  <g id="icon" transform="translate(-1017.177 -1575.271)">
    <g id="circles" transform="translate(1017.177 1575.271)">
      <g id="Ellipse_175" data-name="Ellipse 175" transform="translate(25.116 25.116)" fill="none" stroke="#d2d5de" stroke-width="3">
        <circle cx="37.446" cy="37.446" r="37.446" stroke="none"/>
        <circle cx="37.446" cy="37.446" r="35.946" fill="none"/>
      </g>
      <g id="Ellipse_176" data-name="Ellipse 176" transform="translate(16.44 16.44)" fill="none" stroke="#d2d5de" stroke-width="3" opacity="0.6">
        <circle cx="46.122" cy="46.122" r="46.122" stroke="none"/>
        <circle cx="46.122" cy="46.122" r="44.622" fill="none"/>
      </g>
      <g id="Ellipse_177" data-name="Ellipse 177" transform="translate(8.676 8.676)" fill="none" stroke="#d2d5de" stroke-width="3" opacity="0.3">
        <circle cx="53.885" cy="53.885" r="53.885" stroke="none"/>
        <circle cx="53.885" cy="53.885" r="52.385" fill="none"/>
      </g>
      <g id="Ellipse_178" data-name="Ellipse 178" transform="translate(0 0)" fill="none" stroke="#d2d5de" stroke-width="3" opacity="0.15">
        <circle cx="62.562" cy="62.562" r="62.562" stroke="none"/>
        <circle cx="62.562" cy="62.562" r="61.062" fill="none"/>
      </g>
    </g>
    <g id="Mission-icon" transform="translate(1028.948 1567.362)">
      <g id="Group_23191" data-name="Group 23191" transform="translate(-4.44 32.554)">
        <circle id="Ellipse_186" data-name="Ellipse 186" cx="37.566" cy="37.566" r="37.566" transform="translate(17.863 0.7)" fill="url(#linear-gradient)"/>
        <circle id="Ellipse_180" data-name="Ellipse 180" cx="31.033" cy="31.033" r="31.033" transform="translate(24.396 7.233)" fill="#fff"/>
        <circle id="Ellipse_181" data-name="Ellipse 181" cx="24.5" cy="24.5" r="24.5" transform="translate(30.93 13.767)" fill="url(#linear-gradient)"/>
        <circle id="Ellipse_182" data-name="Ellipse 182" cx="16.333" cy="16.333" r="16.333" transform="translate(39.423 22.26)" fill="#fff"/>
        <circle id="Ellipse_183" data-name="Ellipse 183" cx="9.8" cy="9.8" r="9.8" transform="translate(45.956 28.793)" fill="url(#linear-gradient)"/>
        <circle id="Ellipse_184" data-name="Ellipse 184" cx="3.267" cy="3.267" r="3.267" transform="translate(52.489 35.326)" fill="#fff"/>
        <g id="arrow" transform="translate(0 30.213)">
          <line id="Line_62" data-name="Line 62" x1="34.274" transform="translate(20.118 8.197)" fill="none" stroke="#bd9a5f" stroke-linecap="round" stroke-width="3"/>
          <path id="Path_6069" data-name="Path 6069" d="M-1026.834-12469.525h13.532l8.38,8.38-8.38,8.38h-13.532l8.38-8.38Z" transform="translate(1026.834 12469.525)" fill="#bd9a5f"/>
        </g>
      </g>
    </g>
  </g>
</svg>
