<svg xmlns="http://www.w3.org/2000/svg" xmlns:xlink="http://www.w3.org/1999/xlink" viewBox="0 0 126 126"><defs><style>.cls-1,.cls-2{fill:none;}.cls-2{stroke:#d2d5de;stroke-width:3px;}.cls-3{opacity:0.6;}.cls-4{opacity:0.3;}.cls-5{opacity:0.15;}.cls-6{fill:url(#linear-gradient);}.cls-7{fill:#fff;}</style><linearGradient id="linear-gradient" x1="-610.52" y1="447.78" x2="-611.15" y2="446.47" gradientTransform="matrix(78.02, 0, 0, -78.02, 47719.61, 34941.89)" gradientUnits="userSpaceOnUse"><stop offset="0" stop-color="#1c1f2a"/><stop offset="0.47" stop-color="#3d435a"/><stop offset="1" stop-color="#1c1f2a"/></linearGradient></defs><g id="Layer_2" data-name="Layer 2"><g id="Layer_1-2" data-name="Layer 1"><g id="Vision-icon"><g id="Group_24083" data-name="Group 24083"><g id="circles"><g id="Ellipse_175" data-name="Ellipse 175"><circle class="cls-1" cx="63" cy="63" r="37.71"/><circle class="cls-2" cx="63" cy="63" r="36.21"/></g><g id="Ellipse_176" data-name="Ellipse 176" class="cls-3"><circle class="cls-1" cx="63" cy="63" r="46.44"/><circle class="cls-2" cx="63" cy="63" r="44.94"/></g><g id="Ellipse_177" data-name="Ellipse 177" class="cls-4"><circle class="cls-1" cx="63" cy="63" r="54.26"/><circle class="cls-2" cx="63" cy="63" r="52.76"/></g><g id="Ellipse_178" data-name="Ellipse 178" class="cls-5"><circle class="cls-1" cx="63" cy="63" r="63"/><circle class="cls-2" cx="63" cy="63" r="61.5"/></g></g><g id="Group_23190" data-name="Group 23190"><g id="Group_23214" data-name="Group 23214"><circle id="Ellipse_174-2" data-name="Ellipse 174-2" class="cls-6" cx="62.7" cy="62.7" r="39.01"/><g id="Group_23195" data-name="Group 23195"><path id="Path_6073" data-name="Path 6073" class="cls-7" d="M32.11,57.17c2-3.58,2.76-4.23,3.86-5.06s14.54-2.85,26.4,1.2,20.15,7.36,35.24,23.1c-17-13.62-29.72-17.67-35.24-18.59S39.56,54.23,32.11,57.17Z"/><path id="Path_6074" data-name="Path 6074" class="cls-7" d="M74.12,65.87c-1.63.63-9.48,4.81-15.71,2.33s-9-10.83-9.13-12.1-5.87-.92-5.87-.92,1.27,8.7,7.43,13.31A17,17,0,0,0,63.93,72C65.42,71.81,74.05,67.07,74.12,65.87Z"/><path id="Path_6075" data-name="Path 6075" class="cls-7" d="M58.13,59.57l-4.39-.43a10.18,10.18,0,0,0,2.55,5.45c2.19,2.19,7.57,1.84,7.57,1.84s-4-1.43-5-2.67S58.13,59.57,58.13,59.57Z"/><path id="Path_6076" data-name="Path 6076" class="cls-7" d="M77.94,66.45c-.56,1-9.41,10.88-18.68,9.67s-13.59-5-17.9-10.26C42.49,69,49.07,79.45,59.69,79.17,70,78.53,77.45,70.72,77.94,66.45Z"/></g></g></g></g></g></g></g></svg>