<svg xmlns="http://www.w3.org/2000/svg" width="55.992" height="56" viewBox="0 0 55.992 56">
  <g id="_24-hours" data-name="24-hours" transform="translate(-0.037 0)">
    <g id="Group_23377" data-name="Group 23377" transform="translate(0.037 0)">
      <g id="Group_23376" data-name="Group 23376" transform="translate(0 0)">
        <path id="Path_6190" data-name="Path 6190" d="M54.936,26.924h0a1.094,1.094,0,0,0-1.094,1.093A25.809,25.809,0,0,1,9.783,46.253,25.813,25.813,0,0,1,39.442,4.846a1.094,1.094,0,0,0,.967-1.962,28,28,0,1,0,15.62,25.135A1.094,1.094,0,0,0,54.936,26.924Z" transform="translate(-0.037 0)"/>
      </g>
    </g>
    <g id="Group_23379" data-name="Group 23379" transform="translate(42.418 4.902)">
      <g id="Group_23378" data-name="Group 23378">
        <path id="Path_6191" data-name="Path 6191" d="M389.269,45.034l-.029-.02a1.093,1.093,0,1,0-1.254,1.792l.025.018a1.094,1.094,0,1,0,1.257-1.79Z" transform="translate(-387.519 -44.816)"/>
      </g>
    </g>
    <g id="Group_23381" data-name="Group 23381" transform="translate(48.354 26.902)">
      <g id="Group_23380" data-name="Group 23380">
        <path id="Path_6192" data-name="Path 6192" d="M442.889,245.966a1.094,1.094,0,0,0-1.094,1.094v.067a1.093,1.093,0,0,0,1.089,1.1h.005a1.094,1.094,0,0,0,1.094-1.089v-.077A1.094,1.094,0,0,0,442.889,245.966Z" transform="translate(-441.795 -245.966)"/>
      </g>
    </g>
    <g id="Group_23383" data-name="Group 23383" transform="translate(5.486 5.913)">
      <g id="Group_23382" data-name="Group 23382">
        <path id="Path_6193" data-name="Path 6193" d="M93.583,79.513a1.093,1.093,0,0,0-1.3.845,20.343,20.343,0,1,1-30.3-21.7,1.094,1.094,0,0,0,2.061.652l1.211-2.452a1.094,1.094,0,0,0-.5-1.465l-2.452-1.212a1.094,1.094,0,0,0-.969,1.961l.347.171a22.531,22.531,0,1,0,32.733,24.5A1.094,1.094,0,0,0,93.583,79.513Z" transform="translate(-49.855 -54.064)"/>
      </g>
    </g>
    <g id="Group_23385" data-name="Group 23385" transform="translate(14.582 24.504)">
      <g id="Group_23384" data-name="Group 23384">
        <path id="Path_6194" data-name="Path 6194" d="M146.467,224.042a3.505,3.505,0,0,0-3.324,2.406H134.11a1.094,1.094,0,0,0,0,2.187h9.034a3.515,3.515,0,0,0,2.23,2.23V242.8a1.094,1.094,0,1,0,2.187,0v-11.94a3.5,3.5,0,0,0-1.094-6.823Zm0,4.812a1.312,1.312,0,1,1,1.312-1.312A1.314,1.314,0,0,1,146.467,228.854Z" transform="translate(-133.016 -224.042)"/>
      </g>
    </g>
    <g id="Group_23387" data-name="Group 23387" transform="translate(26.92 10.867)">
      <g id="Group_23386" data-name="Group 23386">
        <path id="Path_6195" data-name="Path 6195" d="M251.97,108.93h-2.131c1.52-1.526,3.225-3.732,3.225-5.952a3.426,3.426,0,0,0-3.619-3.619,3.623,3.623,0,0,0-3.619,3.619,1.094,1.094,0,1,0,2.187,0,1.433,1.433,0,0,1,1.432-1.432,1.265,1.265,0,0,1,1.432,1.432c0,2.271-3.325,5.22-4.6,6.164a1.094,1.094,0,0,0,.648,1.975h5.051a1.094,1.094,0,1,0,0-2.187Z" transform="translate(-245.826 -99.359)"/>
      </g>
    </g>
    <g id="Group_23389" data-name="Group 23389" transform="translate(36.929 10.867)">
      <g id="Group_23388" data-name="Group 23388">
        <path id="Path_6196" data-name="Path 6196" d="M344.824,104.147h-.17v-3.7a1.094,1.094,0,1,0-2.187,0v3.7h-2.948v-3.7a1.094,1.094,0,1,0-2.187,0v4.79a1.094,1.094,0,0,0,1.094,1.094h4.042v3.706a1.094,1.094,0,1,0,2.187,0v-3.706h.17a1.094,1.094,0,0,0,0-2.187Z" transform="translate(-337.332 -99.357)"/>
      </g>
    </g>
    <g id="Group_23391" data-name="Group 23391" transform="translate(48.666 10.867)">
      <g id="Group_23390" data-name="Group 23390">
        <path id="Path_6197" data-name="Path 6197" d="M448.119,104.174a3.449,3.449,0,0,0-1.283.247v-3.971a1.094,1.094,0,1,0-2.187,0v9.571a1.094,1.094,0,1,0,2.187,0v-2.377a1.283,1.283,0,0,1,2.566,0v2.377a1.094,1.094,0,1,0,2.187,0v-2.377A3.474,3.474,0,0,0,448.119,104.174Z" transform="translate(-444.649 -99.357)"/>
      </g>
    </g>
  </g>
</svg>
