<svg xmlns="http://www.w3.org/2000/svg" xmlns:xlink="http://www.w3.org/1999/xlink" width="414" height="414" viewBox="0 0 414 414">
  <defs>
    <linearGradient id="linear-gradient" x1="1.555" y1="-3.042" x2="1" y2="2.621" gradientUnits="objectBoundingBox">
      <stop offset="0" stop-color="#fff" stop-opacity="0.561"/>
      <stop offset="0.452" stop-color="#1c1f2a"/>
      <stop offset="1" stop-color="#fff" stop-opacity="0.31"/>
    </linearGradient>
    <clipPath id="clip-path">
      <circle id="Ellipse_232" data-name="Ellipse 232" cx="207" cy="207" r="207" stroke="#707070" stroke-width="1" fill="url(#linear-gradient)"/>
    </clipPath>
  </defs>
  <g id="BGImg" clip-path="url(#clip-path)" style="mix-blend-mode: overlay;isolation: isolate">
    <g id="Group_23511" data-name="Group 23511" transform="translate(-102 415) rotate(-90)" style="mix-blend-mode: overlay;isolation: isolate">
      <path id="Path_6617" data-name="Path 6617" d="M0,0A4.4,4.4,0,0,1,.785.156,9.5,9.5,0,0,1,2.652.914a9.107,9.107,0,0,1,2.315,1.74A16.988,16.988,0,0,1,6.15,3.943c.411.484.724.9,1.181,1.533A26.5,26.5,0,0,1,9.107,8.792,19.645,19.645,0,0,1,10.3,12.263a24.011,24.011,0,0,1,.533,2.818,11.411,11.411,0,0,1,.1,1.163,4.989,4.989,0,0,1-.763-.345,11.553,11.553,0,0,1-1.74-1.154,22.606,22.606,0,0,1-2.109-2.031A22.249,22.249,0,0,1,4.19,9.894c-.245-.359-.636-.929-.914-1.418-.308-.506-.589-1.034-.851-1.572C1.919,5.827,1.418,4.744,1.036,3.74A23.477,23.477,0,0,1,.227,1.124C.061.445,0,0,0,0Z" transform="translate(0 601.088)" stroke="rgba(0,0,0,0)" stroke-width="1" fill="url(#linear-gradient)"/>
      <path id="Path_6618" data-name="Path 6618" d="M0,0S.6.23,1.6.741c.5.262,1.115.562,1.792.973A14.289,14.289,0,0,1,5.644,3.226c.814.616,1.7,1.291,2.618,2.068s1.8,1.735,2.735,2.7a29.97,29.97,0,0,1,2.774,3.2c.909,1.161,1.8,2.386,2.7,3.61.9,1.452,1.63,2.623,2.413,3.972a40.9,40.9,0,0,1,2.148,4.111c.658,1.408,1.315,2.76,1.84,4.1s.968,2.657,1.381,3.864a31.6,31.6,0,0,1,1.024,3.358c.279,1.017.484,1.936.66,2.681.347,1.5.5,2.381.5,2.381s-.477-.6-1.23-1.711c-.374-.555-.833-1.217-1.317-2.014s-1.066-1.647-1.677-2.591S20.93,31,20.265,29.9s-1.427-2.136-2.148-3.3c-.359-.577-.726-1.168-1.1-1.762s-.811-1.188-1.208-1.8c-.806-1.178-1.691-2.574-2.4-3.683-.828-1.176-1.662-2.344-2.454-3.542-.78-1.22-1.6-2.327-2.39-3.424-.782-1.119-1.535-2.2-2.249-3.229C5.58,8.181,4.9,7.2,4.275,6.289S3.07,4.512,2.518,3.786,1.525,2.373,1.149,1.818C.4.7,0,0,0,0Z" transform="translate(0 578.059)" stroke="rgba(0,0,0,0)" stroke-width="1" fill="url(#linear-gradient)"/>
      <path id="Path_6619" data-name="Path 6619" d="M0,0S.9.327,2.454,1.017a28.648,28.648,0,0,1,2.769,1.4A33.24,33.24,0,0,1,8.748,4.559,43.508,43.508,0,0,1,12.8,7.536c1.4,1.168,2.877,2.422,4.329,3.894a58.9,58.9,0,0,1,4.348,4.825c1.474,1.674,2.789,3.683,4.179,5.568,1.323,2.156,2.535,3.877,3.728,6.167,1.227,2.134,2.278,4.346,3.27,6.5s1.836,4.353,2.623,6.431c.76,2.1,1.464,4.1,2,6.013.586,1.88,1.063,3.642,1.437,5.233.4,1.569.716,2.958.941,4.119.464,2.312.682,3.654.682,3.654s-.562-1.115-1.459-3.1c-.452-.983-1-2.175-1.635-3.547-.613-1.376-1.351-2.882-2.127-4.532-.76-1.672-1.677-3.376-2.561-5.248-.934-1.821-1.943-3.708-2.989-5.636q-.8-1.43-1.625-2.9c-.55-.973-1.139-1.877-1.7-2.848-1.066-1.875-2.5-3.925-3.647-5.761-1.3-1.8-2.52-3.708-3.85-5.39-.662-.846-1.283-1.748-1.941-2.564S15.489,16.794,14.849,16c-1.3-1.557-2.567-3.06-3.8-4.444-1.261-1.313-2.4-2.684-3.53-3.811C6.411,6.6,5.4,5.5,4.478,4.6c-.924-.939-1.726-1.757-2.391-2.43C.746.831,0,0,0,0Z" transform="translate(0 557.395)" stroke="rgba(0,0,0,0)" stroke-width="1" fill="url(#linear-gradient)"/>
      <path id="Path_6620" data-name="Path 6620" d="M0,0S1.208.406,3.288,1.239c1.041.4,2.3.956,3.73,1.665Q8.1,3.428,9.305,4.021c.789.452,1.623.926,2.488,1.423a57.447,57.447,0,0,1,5.521,3.588c.983.643,1.924,1.5,2.926,2.271a34.1,34.1,0,0,1,2.992,2.588c.985.956,1.99,1.929,3,2.909,1.01,1,1.963,2.161,2.94,3.295l1.467,1.713c.479.594.929,1.242,1.4,1.86q1.419,1.929,2.845,3.864L37.37,31.54c.411.677.831,1.31,1.225,2.026l1.166,2.219c.765,1.479,1.567,2.923,2.241,4.427s1.317,3,1.958,4.468c.665,1.445,1.2,2.965,1.743,4.439.52,1.491,1.1,2.894,1.53,4.351.917,2.882,1.782,5.6,2.413,8.2q.5,1.936.96,3.7c.262,1.193.513,2.327.746,3.393.477,2.122.853,3.989,1.124,5.546.56,3.1.831,4.891.831,4.891s-.626-1.594-1.633-4.414l-1.843-5.052c-.689-1.958-1.53-4.116-2.425-6.467-.865-2.381-1.953-4.815-3-7.465-.513-1.335-1.161-2.591-1.755-3.933-.628-1.308-1.161-2.75-1.865-4.05-.667-1.33-1.347-2.686-2.031-4.057-.7-1.344-1.469-2.588-2.19-3.928l-1.1-1.985c-.391-.655-.829-1.308-1.239-1.97l-2.51-3.974-2.525-3.551c-.433-.6-.846-1.225-1.293-1.8L26.537,24.9c-.919-1.075-1.772-2.249-2.684-3.292q-1.386-1.529-2.733-3.016c-.875-1.041-1.843-1.84-2.723-2.777-.9-.882-1.748-1.843-2.65-2.606-1.782-1.547-3.419-3.17-5.023-4.448C9.142,7.428,7.692,6.181,6.375,5.16s-2.439-2.012-3.4-2.735C1.068.924,0,0,0,0Z" transform="translate(0 538.13)" stroke="rgba(0,0,0,0)" stroke-width="1" fill="url(#linear-gradient)"/>
      <path id="Path_6621" data-name="Path 6621" d="M0,0S1.5.523,4.1,1.537c1.3.5,2.875,1.144,4.669,1.955.9.4,1.855.824,2.862,1.273l3.141,1.6A75.675,75.675,0,0,1,21.761,10.4c1.247.709,2.449,1.718,3.725,2.6A38.111,38.111,0,0,1,29.3,15.993c1.256,1.127,2.54,2.268,3.835,3.429,1.283,1.19,2.491,2.615,3.737,3.974l1.867,2.075c.606.728,1.171,1.535,1.76,2.3q1.749,2.335,3.512,4.686,1.565,2.588,3.129,5.174c.5.853,1.024,1.655,1.513,2.549L50.075,43c.931,1.872,1.916,3.7,2.716,5.619.78,1.924,1.55,3.828,2.31,5.7.789,1.843,1.388,3.793,2.017,5.666.591,1.894,1.271,3.683,1.747,5.536,1.031,3.659,2.007,7.113,2.716,10.39q.561,2.438,1.076,4.664.454,2.247.855,4.255c.548,2.664.98,5,1.317,6.937.68,3.867,1.032,6.093,1.032,6.093s-.694-2.043-1.841-5.654c-.569-1.8-1.261-3.991-2.056-6.5-.768-2.525-1.691-5.326-2.681-8.376-.948-3.082-2.156-6.269-3.324-9.706-.56-1.74-1.31-3.373-1.98-5.123-.721-1.7-1.313-3.571-2.141-5.25q-1.17-2.588-2.376-5.255c-.826-1.735-1.76-3.329-2.615-5.052l-1.317-2.552c-.477-.841-1.022-1.662-1.53-2.493Q42.477,39.454,40.953,37q-1.632-2.247-3.258-4.488c-.55-.738-1.073-1.515-1.635-2.219L34.317,28.3c-1.176-1.293-2.271-2.72-3.444-3.945-1.2-1.193-2.376-2.373-3.539-3.529C26.2,19.6,24.946,18.711,23.8,17.643c-1.178-.995-2.276-2.109-3.446-2.943-2.317-1.733-4.458-3.532-6.536-4.937C11.767,8.291,9.88,6.92,8.183,5.783,6.492,4.6,5.018,3.576,3.806,2.73,1.374,1.029,0,0,0,0Z" transform="translate(0 519.478)" stroke="rgba(0,0,0,0)" stroke-width="1" fill="url(#linear-gradient)"/>
      <path id="Path_6622" data-name="Path 6622" d="M0,0,4.869,2.07C7.951,3.417,12.383,5.218,17.65,7.748c2.63,1.278,5.492,2.662,8.455,4.444a76.209,76.209,0,0,1,9.2,6.15,74.406,74.406,0,0,1,9.281,8.416,97.128,97.128,0,0,1,8.609,10.8c1.335,2.178,2.545,3.889,3.781,6.189.606,1.093,1.234,2.17,1.816,3.268q.843,1.676,1.677,3.334a124.109,124.109,0,0,1,5.663,13.785c.841,2.3,1.552,4.629,2.263,6.9.64,2.312,1.322,4.541,1.88,6.766,1.2,4.4,2.131,8.65,2.989,12.563,1.7,7.826,2.911,14.409,3.818,19,.887,4.6,1.391,7.233,1.391,7.233s-.2-.613-.582-1.767-.963-2.833-1.616-5.018c-1.362-4.346-3.175-10.645-5.338-18.143-1.1-3.73-2.29-7.775-3.63-11.957S64.462,71.2,62.785,66.855c-1.635-4.383-3.627-8.609-5.688-12.827q-.8-1.555-1.611-3.114c-.552-1.012-1.129-1.973-1.694-2.965-1.051-1.951-2.518-4-3.659-5.847a94.2,94.2,0,0,0-8.022-10.349A91.128,91.128,0,0,0,33.476,23.3c-2.921-2.491-5.825-4.744-8.65-6.719s-5.536-3.749-8.049-5.392c-5.045-3.214-9.283-5.9-12.211-7.924-1.474-.97-2.6-1.848-3.378-2.4Z" transform="translate(0 500.738)" stroke="rgba(0,0,0,0)" stroke-width="1" fill="url(#linear-gradient)"/>
      <path id="Path_6623" data-name="Path 6623" d="M0,0,1.452.8C2.4,1.315,3.786,2.1,5.563,3c1.762.948,3.935,1.968,6.411,3.2l8.386,3.925c3.073,1.457,6.419,2.994,9.916,4.913a92.6,92.6,0,0,1,10.884,6.641A77.968,77.968,0,0,1,52.2,31.005q1.327,1.412,2.664,2.828c.872.98,1.711,2.041,2.571,3.06l1.283,1.552,1.22,1.665,2.483,3.427,2.19,3.51,1.093,1.762,1.058,1.933c.7,1.3,1.428,2.569,2.092,3.872q.954,1.987,1.9,3.96a138.487,138.487,0,0,1,6.284,16.4c1.792,5.49,3.217,10.97,4.471,16.176,1.288,5.192,2.327,10.163,3.3,14.734s1.853,8.748,2.64,12.456c.826,3.679,1.515,6.915,2.151,9.537.606,2.642,1.132,4.693,1.479,6.1s.538,2.161.538,2.161-.262-.7-.75-2.012-1.249-3.219-2.058-5.751c-.858-2.505-1.838-5.588-2.906-9.161s-2.224-7.628-3.429-12.072c-1.232-4.424-2.535-9.232-3.974-14.235S75.449,82.715,73.63,77.5a155.531,155.531,0,0,0-6.3-15.374q-.913-1.852-1.826-3.713c-.631-1.2-1.3-2.337-1.948-3.517l-.978-1.755L61.48,51.4l-2.214-3.476a93.118,93.118,0,0,0-9.452-11.835A90.784,90.784,0,0,0,39.465,26.73c-3.508-2.7-7-5.118-10.369-7.247s-6.6-4.077-9.579-5.905c-2.992-1.789-5.72-3.527-8.127-5.094C8.985,6.9,6.91,5.441,5.221,4.167,3.512,2.962,2.246,1.818,1.354,1.115Z" transform="translate(0 481.194)" stroke="rgba(0,0,0,0)" stroke-width="1" fill="url(#linear-gradient)"/>
      <path id="Path_6624" data-name="Path 6624" d="M0,0,1.589,1.2c1.044.758,2.545,2,4.527,3.27.987.648,2.056,1.415,3.258,2.151s2.505,1.506,3.9,2.342c2.811,1.574,6.006,3.248,9.511,5.008,3.517,1.735,7.345,3.527,11.388,5.6A124.383,124.383,0,0,1,46.8,26.7,82.792,82.792,0,0,1,59.715,36.859l3.116,3.153c1.024,1.1,2,2.307,3,3.461l1.5,1.755,1.413,1.906,2.874,3.935,2.513,4.06,1.249,2.043,1.2,2.254c.787,1.508,1.621,2.984,2.364,4.515l2.119,4.629A155.7,155.7,0,0,1,87.9,87.755c1.911,6.409,3.429,12.764,4.8,18.772,1.4,6.005,2.605,11.693,3.769,16.924,1.186,5.206,2.312,9.95,3.371,14.128.562,2.068,1.088,4,1.577,5.79s1.012,3.383,1.447,4.854c.858,2.955,1.687,5.157,2.2,6.712.525,1.542.807,2.366.807,2.366s-.35-.76-1.007-2.185c-.631-1.449-1.7-3.466-2.754-6.294-.545-1.4-1.188-2.928-1.819-4.642-.6-1.733-1.261-3.61-1.963-5.614-.648-2.041-1.34-4.214-2.065-6.5q-1.008-3.487-2.114-7.318c-1.43-5.116-2.914-10.7-4.473-16.55S86.379,96.244,84.434,90.1a170.535,170.535,0,0,0-6.858-18.109q-1.016-2.17-2.038-4.353c-.7-1.418-1.467-2.73-2.2-4.111L72.235,61.48l-1.259-2.014-2.537-4.031-2.571-3.566L64.55,50.048l-1.4-1.674c-.936-1.1-1.845-2.261-2.8-3.312q-1.47-1.518-2.928-3.026a93.408,93.408,0,0,0-12.192-10.2c-4.133-2.887-8.232-5.463-12.175-7.785s-7.694-4.524-11.138-6.643c-1.718-1.085-3.371-2.112-4.925-3.141Q14.674,12.649,12.61,11.2,10.586,9.636,8.831,8.286C7.675,7.35,6.643,6.389,5.7,5.58,3.791,4,2.449,2.434,1.472,1.5.511.521,0,0,0,0Z" transform="translate(0 460.032)" stroke="rgba(0,0,0,0)" stroke-width="1" fill="url(#linear-gradient)"/>
      <path id="Path_6625" data-name="Path 6625" d="M0,0S.577.611,1.657,1.762q.814.865,1.994,2.122c.394.416.814.865,1.264,1.344.467.428.968.88,1.493,1.361L9.88,9.745l4.248,3.324c1.518,1.173,3.212,2.2,4.95,3.4,1.753,1.156,3.649,2.222,5.593,3.415,3.955,2.2,8.278,4.412,12.9,6.731s9.518,4.732,14.5,7.736A90.877,90.877,0,0,1,67.043,45.292,96.042,96.042,0,0,1,80.736,61.169l2.926,4.771c.472.787.958,1.535,1.422,2.356L86.436,70.9c.88,1.75,1.833,3.446,2.64,5.233q1.177,2.7,2.349,5.377a182.04,182.04,0,0,1,7.362,22.25c2.021,7.408,3.654,14.7,5.211,21.551s3.048,13.28,4.527,19.158c.8,2.889,1.518,5.7,2.3,8.31.809,2.581,1.5,5.1,2.29,7.352s1.545,4.363,2.239,6.313l2.129,5.174q.484,1.177.917,2.222.48.994.9,1.867c.562,1.161,1.039,2.151,1.425,2.953l1.188,2.469s-.476-.782-1.371-2.246l-1.65-2.706q-.488-.8-1.044-1.726-.5-.986-1.066-2.095c-.75-1.486-1.584-3.134-2.488-4.923q-1.217-2.834-2.625-6.118c-.924-2.2-1.762-4.659-2.725-7.2-.934-2.562-1.757-5.358-2.7-8.222-.863-2.913-1.77-5.949-2.654-9.11q-1.269-4.77-2.62-9.838c-1.762-6.763-3.617-13.837-5.685-21.006a196.3,196.3,0,0,0-7.4-21.157q-1.126-2.522-2.254-5.064c-.77-1.669-1.643-3.175-2.457-4.776l-1.242-2.376c-.447-.785-.951-1.55-1.425-2.32l-2.821-4.539A92.1,92.1,0,0,0,64.841,50.561a101.109,101.109,0,0,0-14.24-11c-4.827-3.072-9.584-5.837-14.138-8.452-2.268-1.3-4.488-2.6-6.619-3.894-2.129-1.315-4.172-2.659-6.13-3.94-1.931-1.408-3.813-2.628-5.536-4.016-1.706-1.435-3.361-2.676-4.842-4.048q-2.207-2.09-4.116-3.9C8.007,9.965,6.9,8.726,5.9,7.609q-.748-.84-1.413-1.586c-.411-.547-.8-1.066-1.156-1.545C2.613,3.515,2,2.7,1.513,2.034Z" transform="translate(0 436.2)" stroke="rgba(0,0,0,0)" stroke-width="1" fill="url(#linear-gradient)"/>
      <path id="Path_6626" data-name="Path 6626" d="M0,0S.55.89,1.587,2.559c.992,1.713,2.64,4.026,4.649,6.883a105.022,105.022,0,0,0,8.02,9.386,58.514,58.514,0,0,0,5.258,4.945c1.845,1.767,3.972,3.165,6.093,4.837A131.849,131.849,0,0,0,40.044,37.35c5.223,2.818,10.845,5.438,16.6,8.682A104.263,104.263,0,0,1,74.038,57.745c1.432,1.181,2.791,2.591,4.2,3.886a48.246,48.246,0,0,1,4.065,4.28,52.7,52.7,0,0,1,3.9,4.666L89.985,75.7A131.49,131.49,0,0,1,101.93,99.185a221.4,221.4,0,0,1,7.888,25.843c2.183,8.552,3.95,16.9,5.844,24.665,1.845,7.8,3.828,14.971,5.881,21.453,1.127,3.153,2.065,6.313,3.253,9.051,1.129,2.8,2.144,5.519,3.336,7.829,2.175,4.864,4.488,8.633,6.294,11.881,1.951,3.028,3.5,5.468,4.649,6.932l1.718,2.356-1.872-2.092a79.059,79.059,0,0,1-5.106-6.3,108.977,108.977,0,0,1-7.01-11.312,127.184,127.184,0,0,1-7.47-16.655c-.64-1.577-1.149-3.29-1.745-4.981-.56-1.711-1.21-3.419-1.726-5.233-1.093-3.6-2.2-7.338-3.224-11.224-2.119-7.743-4.136-15.99-6.377-24.327A237.963,237.963,0,0,0,98.317,102.3,123.974,123.974,0,0,0,86.792,80.034l-3.415-4.659a48.827,48.827,0,0,0-3.654-4.439,44.759,44.759,0,0,0-3.818-4.092c-1.33-1.242-2.6-2.593-3.962-3.735A114.7,114.7,0,0,0,55.272,51.3C49.66,47.971,44.111,44.967,38.9,41.821c-2.615-1.528-5.133-3.163-7.552-4.791-1.222-.765-2.369-1.731-3.525-2.564-1.137-.887-2.288-1.638-3.351-2.591A82.825,82.825,0,0,1,13.25,20.769,100.063,100.063,0,0,1,5.659,10.383Q2.74,5.558,1.406,2.782C.487.968,0,0,0,0Z" transform="translate(0 408.138)" stroke="rgba(0,0,0,0)" stroke-width="1" fill="url(#linear-gradient)"/>
      <path id="Path_6627" data-name="Path 6627" d="M0,0S.479,1.22,1.374,3.51c.45,1.146,1,2.554,1.652,4.216.719,1.586,1.54,3.412,2.464,5.453.472,1.009.914,2.119,1.476,3.187s1.168,2.166,1.791,3.319,1.266,2.349,1.938,3.593c.716,1.185,1.513,2.342,2.3,3.573s1.616,2.481,2.464,3.776c.843,1.139,1.87,2.4,2.835,3.647a82.215,82.215,0,0,0,6.367,7.316A93.6,93.6,0,0,0,40.6,54.289C46.546,58.014,53.035,61.23,59.766,64.8S73.52,72.166,80.281,77.5A90.055,90.055,0,0,1,99.1,97.733l3.9,6.37c1.264,2.131,2.422,4.624,3.63,6.917a140.365,140.365,0,0,1,6.086,14.665c3.6,10.043,6.15,20.5,8.555,30.484,2.4,10,4.568,19.639,7.074,28.478a175.672,175.672,0,0,0,8.55,23.682c1.647,3.366,3.18,6.663,4.923,9.454.823,1.42,1.662,2.918,2.417,4.17q1.328,1.91,2.576,3.705c.836,1.188,1.625,2.383,2.424,3.449q1.25,1.485,2.405,2.862t2.224,2.65c.716.836,1.469,1.5,2.146,2.2,1.376,1.374,2.605,2.6,3.674,3.661,1.115.965,2.061,1.787,2.831,2.452,1.54,1.335,2.364,2.046,2.364,2.046s-.86-.606-2.474-1.735l-2.974-2.092c-1.149-.89-2.427-2.034-3.877-3.278-.714-.643-1.5-1.239-2.266-2.014q-1.144-1.192-2.388-2.491t-2.6-2.713c-.853-1-1.686-2.114-2.574-3.221s-1.794-2.266-2.73-3.451c-.956-1.374-1.789-2.7-2.725-4.116a95.76,95.76,0,0,1-5.4-9.378,158.639,158.639,0,0,1-9.483-23.888c-2.77-8.929-5.214-18.588-7.7-28.478s-5.223-19.925-8.665-29.514a133.045,133.045,0,0,0-5.815-13.822c-1.139-2.117-2.129-4.292-3.383-6.379l-3.789-6.13a85.871,85.871,0,0,0-17.718-19.3A144.488,144.488,0,0,0,58.459,70.1C51.8,66.407,45.3,62.768,39.294,58.659a91.817,91.817,0,0,1-16.086-14.1A80.325,80.325,0,0,1,16.9,36.549c-.939-1.376-1.821-2.6-2.74-4q-1.214-2.112-2.356-4.1c-.753-1.332-1.508-2.586-2.183-3.859L7.807,20.747q-.873-1.84-1.669-3.529c-.521-1.137-.926-2.312-1.357-3.375C3.94,11.686,3.17,9.787,2.574,8.081,2.019,6.345,1.55,4.869,1.169,3.671.406,1.276,0,0,0,0Z" transform="translate(0 372.357)" stroke="rgba(0,0,0,0)" stroke-width="1" fill="url(#linear-gradient)"/>
      <path id="Path_6628" data-name="Path 6628" d="M0,0S1.721,6.3,4.737,17.332c1.572,5.46,3.461,12.116,6.152,19.309A130.083,130.083,0,0,0,21.47,59.1q1.738,2.735,3.544,5.578,1.984,2.6,4.045,5.3a84.8,84.8,0,0,0,9.119,9.6c6.595,5.966,14.172,10.61,22.186,14.942s16.555,8.354,24.865,14.2a88.694,88.694,0,0,1,23.047,23.391l2.378,3.877c.765,1.281,1.555,2.466,2.3,3.823,1.418,2.84,2.975,5.6,4.255,8.513a161,161,0,0,1,6.817,18.031c3.942,12.343,6.633,25.036,9.559,36.942s6.045,23.162,10.055,32.961a122.555,122.555,0,0,0,6.49,13.595q1.775,3.006,3.49,5.9,1.951,2.731,3.825,5.363a49.253,49.253,0,0,0,3.811,4.693,51.322,51.322,0,0,0,3.788,4.163q1.936,1.9,3.769,3.7c1.259,1.117,2.52,2.112,3.723,3.129a121.634,121.634,0,0,0,12.993,9.149c7.423,4.48,11.667,7.039,11.667,7.039l-3.133-1.5c-2.043-.983-5.047-2.4-8.834-4.368a115.654,115.654,0,0,1-13.431-8.188,78.045,78.045,0,0,1-16.024-15.083q-1.939-2.519-3.96-5.14-1.9-2.97-3.881-6.049A118.87,118.87,0,0,1,140.9,238.8c-4.363-10.024-7.841-21.536-10.886-33.528s-5.964-24.376-9.765-36.25a152.113,152.113,0,0,0-6.56-17.139c-1.215-2.745-2.63-5.184-3.928-7.8-1.442-2.483-3.146-5.118-4.539-7.423a84.54,84.54,0,0,0-21.783-22.331c-7.985-5.656-16.328-9.963-24.4-14.511A109.346,109.346,0,0,1,36.478,83.637a86.35,86.35,0,0,1-9.361-10.493q-2.035-2.878-4-5.656-1.8-3.05-3.525-5.983A127.613,127.613,0,0,1,9.464,37.729C6.993,30.216,5.333,23.377,3.952,17.782,2.628,12.153,1.672,7.69,1.01,4.654S0,0,0,0Z" transform="translate(0 324.338)" stroke="rgba(0,0,0,0)" stroke-width="1" fill="url(#linear-gradient)"/>
      <path id="Path_6629" data-name="Path 6629" d="M0,0S.648,1.718,1.865,4.94C3.041,8.188,4.713,13.04,6.531,19.4c1.853,6.343,3.835,14.2,6.2,23.12a284.513,284.513,0,0,0,9.029,29.025A110.405,110.405,0,0,0,37.663,100.36a70.346,70.346,0,0,0,5.309,6.2,31.863,31.863,0,0,0,2.85,2.835q1.47,1.364,2.958,2.747c1.014.865,2.073,1.65,3.111,2.486,1.053.8,2.07,1.718,3.18,2.422,2.18,1.491,4.356,3.063,6.651,4.38,9.058,5.6,18.948,9.889,28.7,16.088a91.129,91.129,0,0,1,27.109,26.2l2.676,4.368a49.7,49.7,0,0,1,2.62,4.561l2.513,4.906c.853,1.625,1.5,3.378,2.256,5.057a175.7,175.7,0,0,1,7.435,21.182c4.177,14.48,7.059,29.177,10.828,42.635.887,3.41,1.943,6.641,2.948,9.884.474,1.645,1.088,3.158,1.633,4.72.562,1.547,1.09,3.116,1.672,4.627a123.35,123.35,0,0,0,7.946,16.545l2.207,3.679.547.914c.093.2.374.547.552.814l1.205,1.709c.8,1.112,1.584,2.312,2.393,3.329s1.618,2,2.415,2.984c.777,1.022,1.63,1.916,2.466,2.818s1.655,1.821,2.493,2.674c1.73,1.586,3.358,3.317,5.1,4.681a134.757,134.757,0,0,0,19.534,13.416c6,3.51,11.292,6.458,15.557,9.207a107.321,107.321,0,0,1,9.731,6.937l3.324,2.774s-1.193-.858-3.432-2.461c-2.246-1.569-5.609-3.649-9.933-6.086s-9.679-5.018-15.807-8.125a115.11,115.11,0,0,1-20.179-12.431c-1.811-1.315-3.534-3.011-5.36-4.568-.885-.838-1.752-1.753-2.645-2.64s-1.792-1.779-2.647-2.828q-1.3-1.525-2.63-3.072c-.87-1.046-1.635-2.173-2.469-3.27l-1.234-1.665c-.218-.315-.381-.479-.65-.917l-.587-.931q-1.177-1.87-2.371-3.764a125.577,125.577,0,0,1-8.589-17.014,198.014,198.014,0,0,1-6.7-19.745c-3.967-13.761-7.093-28.336-11.153-42.368a167.388,167.388,0,0,0-7.181-20.236c-.716-1.569-1.352-3.278-2.134-4.742l-2.307-4.471a45.805,45.805,0,0,0-2.547-4.4l-2.686-4.351-2.774-3.771a38.618,38.618,0,0,0-2.921-3.732l-3.055-3.488c-1-1.188-2.141-2.112-3.2-3.182a87.517,87.517,0,0,0-13.619-10.669c-9.442-6.045-19.253-10.681-28.514-16.577-2.329-1.4-4.576-3.072-6.812-4.661-2.229-1.625-4.355-3.51-6.475-5.3q-1.529-1.5-3.045-2.984a34.731,34.731,0,0,1-2.96-3.1,79.028,79.028,0,0,1-5.463-6.7,113.888,113.888,0,0,1-15.9-30.568,261.2,261.2,0,0,1-8.369-29.983c-2.09-9.1-3.825-17.051-5.47-23.479S2.716,8.445,1.657,5.1C.575,1.772,0,0,0,0Z" transform="translate(0 279.193)" stroke="rgba(0,0,0,0)" stroke-width="1" fill="url(#linear-gradient)"/>
      <path id="Path_6630" data-name="Path 6630" d="M0,0S.936,1.647,2.7,4.734c.919,1.5,1.9,3.525,3.043,5.932.56,1.21,1.239,2.452,1.826,3.894s1.212,2.98,1.875,4.6a240.332,240.332,0,0,1,7.941,24.65c2.684,9.76,5.326,20.974,8.782,32.731,3.485,11.7,7.964,24,14.651,34.625q1.254,1.98,2.525,3.982l.269.425.354.469.709.943,1.43,1.892c.966,1.217,1.9,2.64,2.906,3.715q1.507,1.654,3.026,3.334a35.12,35.12,0,0,0,3.187,3.168c1.1,1,2.175,2.09,3.307,3.06,2.32,1.806,4.593,3.806,7.057,5.385,9.662,6.851,20.488,11.385,31.2,17.875a97.888,97.888,0,0,1,15.765,11.549l3.754,3.569c1.22,1.269,2.386,2.659,3.578,3.987l1.782,2.016,1.662,2.234,3.383,4.593,2.93,4.781,1.464,2.4,1.381,2.684c.907,1.8,1.862,3.564,2.72,5.39l2.4,5.58a197.1,197.1,0,0,1,7.773,23.423c4.375,15.917,7.421,32,12.033,46.36,4.417,14.5,10.54,26.957,17.767,36.82a85.808,85.808,0,0,0,23.284,21.751c7.91,5.135,15.457,9.051,22.027,13.05a116.858,116.858,0,0,1,16.589,11.8q1.639,1.474,3.1,2.786c.973.87,1.8,1.877,2.618,2.708a51.539,51.539,0,0,1,3.994,4.527c2.078,2.615,3.187,4.009,3.187,4.009l-3.331-3.732a47.165,47.165,0,0,0-4.138-4.163c-.838-.763-1.7-1.677-2.691-2.474s-2.036-1.662-3.143-2.566a110.75,110.75,0,0,0-16.753-10.659c-6.639-3.542-14.292-6.971-22.414-11.955a86.118,86.118,0,0,1-24.459-21.622c-7.643-9.875-14.438-22.89-19.075-37.842-4.869-14.81-8.186-30.942-12.461-46.448a189.358,189.358,0,0,0-7.528-22.467l-2.29-5.27c-.807-1.691-1.677-3.275-2.508-4.925l-1.261-2.454-1.467-2.386-2.94-4.766-3.045-4.136-1.557-2.119-1.677-1.906c-1.125-1.259-2.215-2.581-3.363-3.789l-3.547-3.4a94.753,94.753,0,0,0-15.122-11.187c-10.432-6.365-21.292-11.28-31.259-18.52-2.522-1.677-4.891-3.808-7.286-5.742-1.168-1.041-2.3-2.188-3.432-3.283a38.53,38.53,0,0,1-3.312-3.483q-1.6-1.866-3.185-3.715c-1.068-1.217-1.919-2.6-2.879-3.877l-1.4-1.943-.694-.97-.347-.482c-.218-.323-.247-.4-.376-.609q-1.294-2.145-2.571-4.263c-6.795-11.371-11.2-24.3-14.536-36.314-3.358-12.067-5.661-23.438-8.046-33.3a244.494,244.494,0,0,0-7.176-24.89Q7.793,17.3,6.979,15.1c-.535-1.476-1.149-2.747-1.66-3.991C4.275,8.628,3.376,6.524,2.513,4.95.873,1.723,0,0,0,0Z" transform="translate(0 245.909)" stroke="rgba(0,0,0,0)" stroke-width="1" fill="url(#linear-gradient)"/>
      <path id="Path_6631" data-name="Path 6631" d="M0,0S.3.362.887,1.061c.574.721,1.474,1.7,2.564,3.136C4.517,5.649,5.927,7.384,7.345,9.7a78.165,78.165,0,0,1,4.832,8.049A139.059,139.059,0,0,1,22.543,42.605c1.662,5.089,3.236,10.632,4.81,16.5s3.09,12.114,4.766,18.535c.865,3.19,1.689,6.492,2.669,9.74q.715,2.456,1.444,4.952.8,2.442,1.613,4.923l.814,2.493.917,2.432q.92,2.434,1.858,4.913c.677,1.6,1.4,3.168,2.1,4.771a51.624,51.624,0,0,0,2.251,4.71q1.206,2.291,2.427,4.607c.833,1.52,1.792,2.9,2.691,4.365l1.371,2.178c.21.328.5.821.645,1.007l.775,1.027q1.547,2.053,3.116,4.131a44.7,44.7,0,0,0,3.234,3.749,48.7,48.7,0,0,0,3.341,3.569q1.767,1.661,3.549,3.344c1.2,1.093,2.481,2.019,3.725,3.043,10.058,8.032,21.587,12.957,33.07,19.61A113.815,113.815,0,0,1,120.7,179.113a91.2,91.2,0,0,1,7.878,7.985,45.8,45.8,0,0,1,3.7,4.5l3.61,4.9a132.378,132.378,0,0,1,11.566,22.362,236.535,236.535,0,0,1,8.012,25.2c4.485,17.058,7.795,34.195,13.2,49.136a128.658,128.658,0,0,0,9.261,20.632q1.364,2.273,2.713,4.517l.672,1.124c.117.213.464.662.687.983l1.5,2.087c1.007,1.357,1.975,2.84,2.994,4.07q1.544,1.789,3.063,3.559a35.586,35.586,0,0,0,3.155,3.327c1.078,1.046,2.136,2.122,3.212,3.124l3.307,2.762,1.635,1.361,1.679,1.212,3.312,2.393q1.679,1.085,3.332,2.148c2.188,1.457,4.407,2.681,6.555,3.965,4.324,2.493,8.518,4.749,12.473,7.081s7.685,4.678,11.109,7.152a84.612,84.612,0,0,1,16.724,15.391,69.249,69.249,0,0,1,5.426,7.2c1.567,2.119,2.718,4.187,3.7,5.776.965,1.618,1.63,2.962,2.114,3.815L268,398.2l-.76-1.261c-.513-.816-1.217-2.095-2.239-3.632-1.039-1.518-2.251-3.478-3.879-5.46a76.661,76.661,0,0,0-5.587-6.763,79.6,79.6,0,0,0-16.878-14.208c-6.885-4.485-14.978-8.318-23.765-13.018-2.19-1.22-4.446-2.371-6.7-3.776q-1.694-1.023-3.427-2.065l-3.432-2.332-1.74-1.183-1.711-1.342q-1.719-1.353-3.461-2.73c-1.132-1-2.249-2.075-3.39-3.124a36.657,36.657,0,0,1-3.368-3.38q-1.657-1.84-3.336-3.7c-1.1-1.264-2.046-2.662-3.087-4l-1.535-2.034c-.276-.386-.464-.584-.821-1.122l-.723-1.149-2.923-4.642a125.393,125.393,0,0,1-9.928-21.4c-5.727-15.514-9.325-32.843-13.729-49.54a228.134,228.134,0,0,0-7.785-24.254,125.372,125.372,0,0,0-11.1-21.253l-3.258-4.424a41.976,41.976,0,0,0-3.48-4.26,87.234,87.234,0,0,0-7.425-7.6,110.839,110.839,0,0,0-16.323-11.566c-11.236-6.553-22.9-11.891-33.339-20.4-1.291-1.093-2.613-2.08-3.859-3.248q-1.855-1.793-3.693-3.571a50.754,50.754,0,0,1-3.542-3.9,51.762,51.762,0,0,1-3.346-4.087q-1.533-2.134-3.048-4.241l-.755-1.051c-.362-.516-.506-.816-.77-1.237l-1.4-2.329c-.916-1.574-1.894-3.05-2.74-4.671q-1.239-2.467-2.459-4.9c-.848-1.586-1.564-3.287-2.263-4.986s-1.43-3.351-2.1-5.035q-.927-2.588-1.84-5.14l-.9-2.542q-.4-1.294-.8-2.586-.792-2.57-1.569-5.1-.7-2.57-1.388-5.091c-.948-3.351-1.72-6.7-2.544-9.953C26.684,65.85,24.108,53.824,21.087,43.6a141.975,141.975,0,0,0-9.56-25.063c-1.518-3.3-3.192-5.937-4.561-8.32C5.624,7.78,4.321,6.01,3.3,4.458,2.261,2.945,1.4,1.889.846,1.129S0,0,0,0Z" transform="translate(0 219.133)" stroke="rgba(0,0,0,0)" stroke-width="1" fill="url(#linear-gradient)"/>
      <path id="Path_6632" data-name="Path 6632" d="M0,0,4.048,3.578C5.3,4.9,6.942,6.35,8.7,8.393q1.324,1.529,2.848,3.28,1.43,1.914,3.041,4.062c1.117,1.454,2.06,3.148,3.18,4.835q.818,1.283,1.672,2.623c.57.892,1.066,1.943,1.621,2.945a125.784,125.784,0,0,1,6.492,13.727c2.046,5.157,4.038,10.813,5.854,16.951.926,3.058,1.823,6.225,2.664,9.5.885,3.261,1.721,6.614,2.591,10.034,1.745,6.829,3.493,13.964,5.592,21.108.995,3.617,2.188,7.147,3.366,10.757.584,1.806,1.3,3.517,1.953,5.3s1.325,3.564,2.119,5.243q1.137,2.566,2.29,5.167,1.287,2.453,2.591,4.932c.44.819.858,1.669,1.32,2.466l1.459,2.317c.961,1.5,1.99,3.207,2.906,4.568A94.286,94.286,0,0,0,76.338,154.1a108.447,108.447,0,0,0,16.636,11.573c5.834,3.356,11.913,6.335,17.982,9.8a109.961,109.961,0,0,1,17.989,12.246c1.474,1.171,2.843,2.635,4.27,3.94.7.694,1.432,1.305,2.1,2.065L137.329,196a53.6,53.6,0,0,1,3.933,4.713l3.808,5.17a130.832,130.832,0,0,1,12.084,23.751,232.5,232.5,0,0,1,8.239,26.728c2.337,9.019,4.349,18.051,6.6,26.718a226.581,226.581,0,0,0,7.79,24.719,128.1,128.1,0,0,0,10.647,20.835l.181.3c-.051-.068.1.142.144.2l.4.562.8,1.119,1.608,2.229,1.6,2.219c.54.692,1.1,1.291,1.647,1.938q1.65,1.914,3.28,3.8,1.749,1.712,3.476,3.4a39.6,39.6,0,0,0,3.529,3.146c1.2.968,2.351,2.034,3.566,2.9,2.427,1.753,4.8,3.527,7.24,5,4.808,3.119,9.608,5.717,14.2,8.31,2.3,1.293,4.561,2.535,6.753,3.85q3.307,1.885,6.394,3.96a101.409,101.409,0,0,1,11.41,8.7,94.14,94.14,0,0,1,16.244,19.28q1.441,2.372,2.721,4.49,1.18,2.269,2.214,4.241c1.376,2.623,2.349,5.057,3.239,6.92,1.572,3.928,2.41,6.02,2.41,6.02s-.9-2.026-2.6-5.825a117.562,117.562,0,0,0-8.6-14.993,88.671,88.671,0,0,0-16.432-18.058c-6.929-5.7-15.323-10.364-24.584-15.184-4.632-2.434-9.5-4.879-14.448-7.895-2.5-1.415-4.964-3.153-7.484-4.871-1.264-.848-2.476-1.909-3.73-2.87a41.031,41.031,0,0,1-3.708-3.136q-1.826-1.7-3.676-3.427-1.774-1.965-3.573-3.955c-.591-.672-1.215-1.322-1.784-2.021l-1.63-2.163-1.642-2.178-.821-1.093-.413-.545-.264-.359-.193-.31a124.746,124.746,0,0,1-11.4-21.649,230.274,230.274,0,0,1-8.266-25.427c-2.386-8.811-4.449-17.816-6.753-26.684a224.964,224.964,0,0,0-8.022-25.794,123.451,123.451,0,0,0-11.593-22.573l-3.446-4.683a49.933,49.933,0,0,0-3.7-4.463l-1.89-2.156c-.628-.724-1.327-1.3-1.985-1.96-1.354-1.244-2.637-2.642-4.04-3.764a106.473,106.473,0,0,0-17.359-11.921c-5.969-3.424-12.028-6.5-17.958-10.038A113.3,113.3,0,0,1,74.39,158.953a95.249,95.249,0,0,1-14.514-16.868c-1.154-1.765-2.053-3.368-3.082-5.047L55.3,134.56c-.472-.855-.9-1.76-1.347-2.632q-1.32-2.64-2.625-5.248-1.166-2.746-2.308-5.46c-.8-1.779-1.457-3.654-2.112-5.509s-1.361-3.664-1.933-5.541c-1.156-3.745-2.324-7.413-3.278-11.119-2.029-7.357-3.676-14.585-5.316-21.468C33.144,63.824,30.01,51.348,26.166,41.051A128.282,128.282,0,0,0,20.153,27.27c-.521-1.012-.97-2.056-1.516-2.98s-1.085-1.828-1.608-2.711c-1.061-1.726-2.012-3.549-3.026-4.952A96.993,96.993,0,0,0,3.923,3.872C1.364,1.344,0,0,0,0Z" transform="translate(0 196.103)" stroke="rgba(0,0,0,0)" stroke-width="1" fill="url(#linear-gradient)"/>
      <path id="Path_6633" data-name="Path 6633" d="M0,0,1.154.76c.758.513,1.9,1.212,3.344,2.283A76.114,76.114,0,0,1,16.562,13.587,90.692,90.692,0,0,1,24.279,23.1c1.325,1.968,2.566,3.994,3.928,6.108a35.135,35.135,0,0,1,1.953,3.41q.96,1.8,1.948,3.659a42.5,42.5,0,0,1,1.887,3.9Q34.9,42.2,35.842,44.29c1.217,2.813,2.29,5.861,3.478,8.921,2.144,6.289,4.2,13.057,6.054,20.241q2.753,10.735,5.737,22.328c1.987,7.672,4.265,15.428,7.054,23a117.967,117.967,0,0,0,10.227,21.543c1.019,1.594,2.107,3.4,3.077,4.847q1.745,2.343,3.508,4.705a48.222,48.222,0,0,0,3.627,4.3,43.793,43.793,0,0,0,3.8,3.982c10.478,10.5,23.189,16.288,35.915,23.323a113.766,113.766,0,0,1,18.938,12.568A93.34,93.34,0,0,1,154.182,212.8a128.721,128.721,0,0,1,12.627,25.146,246.042,246.042,0,0,1,8.459,28.136c4.744,18.909,8.635,37.8,15.7,53.365a104.532,104.532,0,0,0,12.023,20.842c.57.772,1.127,1.6,1.7,2.324l1.752,2.029c1.191,1.315,2.273,2.772,3.529,3.962q1.855,1.819,3.693,3.615c1.234,1.176,2.544,2.158,3.8,3.236a113.776,113.776,0,0,0,15.479,10.486q7.787,4.418,15.025,8.528a128.559,128.559,0,0,1,13.624,8.99c2.061,1.765,4.111,3.361,6,5.17q1.4,1.4,2.769,2.747a29.94,29.94,0,0,1,2.62,2.794q1.246,1.463,2.449,2.884a29.1,29.1,0,0,1,2.3,2.9c1.432,2.036,2.825,3.921,4.133,5.871a111.907,111.907,0,0,1,6.394,11.449,133.873,133.873,0,0,1,7.1,17.928c.721,2.146,1.19,3.845,1.535,4.974s.513,1.713.513,1.713-.2-.572-.567-1.677-.9-2.764-1.691-4.852a139.529,139.529,0,0,0-7.56-17.335A106.141,106.141,0,0,0,281,407.048c-1.3-1.794-2.74-3.61-4.182-5.522A26.676,26.676,0,0,0,274.5,398.8q-1.21-1.327-2.464-2.7a27.985,27.985,0,0,0-2.625-2.6q-1.367-1.25-2.769-2.54c-1.892-1.669-3.94-3.129-5.988-4.744a137.266,137.266,0,0,0-13.553-8.376l-15.149-8.042a113.783,113.783,0,0,1-15.976-10.214c-1.318-1.076-2.684-2.048-3.987-3.231q-1.943-1.811-3.908-3.644c-1.32-1.2-2.54-2.742-3.825-4.116l-1.914-2.134c-.609-.736-1.161-1.52-1.747-2.283l-1.738-2.31-.872-1.161-.437-.582-.279-.374-.205-.328q-1.639-2.632-3.29-5.287c-1.151-1.713-2.07-3.725-3.092-5.627-1.007-1.921-2.031-3.84-2.889-5.94a176.259,176.259,0,0,1-9.273-26.29c-2.6-9.2-4.808-18.669-7.162-28.026a237.655,237.655,0,0,0-8.254-27.214,121.6,121.6,0,0,0-11.979-23.7,88.75,88.75,0,0,0-15.951-17.8,110.4,110.4,0,0,0-18.317-12.26c-6.3-3.5-12.666-6.795-18.862-10.65A92.006,92.006,0,0,1,80.3,162.857a47.992,47.992,0,0,1-4.028-4.326,54.3,54.3,0,0,1-3.791-4.6q-1.742-2.4-3.466-4.771c-1.22-1.877-2.18-3.573-3.273-5.358A125.973,125.973,0,0,1,55.394,120.98c-2.769-7.919-4.982-15.934-6.873-23.734q-2.8-11.67-5.414-22.509c-1.721-7.2-3.689-13.854-5.637-20.141-1.09-3.041-2.073-6.091-3.195-8.9-.579-1.393-1.146-2.762-1.711-4.114s-1.107-2.694-1.74-3.894q-.92-1.852-1.8-3.642A35.334,35.334,0,0,0,27.182,30.6c-1.293-2.156-2.544-4.343-3.74-6.245a93.487,93.487,0,0,0-7.381-9.774A87.118,87.118,0,0,0,4.395,3.353C2.989,2.185,1.87,1.405,1.129.841S0,0,0,0Z" transform="translate(0 175.44)" stroke="rgba(0,0,0,0)" stroke-width="1" fill="url(#linear-gradient)"/>
      <path id="Path_6634" data-name="Path 6634" d="M0,0,4.842,2.669a96.019,96.019,0,0,1,13.284,9.093,85.9,85.9,0,0,1,17.98,20.756C42.185,41.985,47.844,54.712,52,69.6c2.207,7.389,4.119,15.272,6.177,23.338,2.029,8.081,4.177,16.357,6.827,24.506,1.264,4.123,2.818,8.066,4.351,12.082q1.279,2.885,2.571,5.807c.831,1.977,1.9,3.715,2.84,5.6l1.466,2.784,1.633,2.6,1.63,2.615.819,1.315c.039.071.193.306.144.242l.227.31.462.618q1.84,2.471,3.7,4.969c1.256,1.584,2.566,2.911,3.85,4.395a88.013,88.013,0,0,0,17.5,14.4c6.277,4.009,12.9,7.3,19.566,10.953a126.76,126.76,0,0,1,19.847,12.859l2.412,1.951,2.329,2.2a54.546,54.546,0,0,1,4.566,4.629l2.2,2.5a26.155,26.155,0,0,1,2.144,2.61l4.17,5.658,3.63,5.917a32.511,32.511,0,0,1,1.753,3.173l1.708,3.322c1.2,2.183,2.134,4.522,3.131,6.822l1.479,3.461,1.315,3.588A277.286,277.286,0,0,1,185.1,274.3c2.457,9.909,4.681,19.742,7.374,29.067a161.038,161.038,0,0,0,9.708,26.031,97.313,97.313,0,0,0,13.38,20.7c1.259,1.383,2.4,2.933,3.73,4.175q1.965,1.925,3.908,3.82a100.549,100.549,0,0,0,8.13,6.465,163.87,163.87,0,0,0,16.5,10.144c5.426,3.058,10.73,5.9,15.7,9.181a86.611,86.611,0,0,1,24.96,23.619,114.6,114.6,0,0,1,13.969,26.718,203.8,203.8,0,0,1,6.116,19.737c1.173,4.7,1.8,7.2,1.8,7.2s-.7-2.456-2.014-7.064c-1.371-4.563-3.427-11.253-6.626-19.246a109.126,109.126,0,0,0-14.326-25.576,86.464,86.464,0,0,0-24.824-22.054c-4.928-3.07-10.231-5.729-15.709-8.626a162.128,162.128,0,0,1-16.88-9.784,101.1,101.1,0,0,1-8.5-6.428q-2.053-1.921-4.133-3.862c-1.405-1.249-2.691-2.9-4.052-4.346a97.131,97.131,0,0,1-14.191-21.419,166.758,166.758,0,0,1-10.334-27c-2.857-9.564-5.157-19.5-7.6-29.3a268.455,268.455,0,0,0-8.462-28.593l-1.259-3.417-1.413-3.268c-.951-2.17-1.855-4.414-2.94-6.367l-1.564-3.033a29.029,29.029,0,0,0-1.665-3l-3.639-5.9-3.786-5.143a24.13,24.13,0,0,0-2.014-2.471l-2.075-2.361a50.245,50.245,0,0,0-4.307-4.4l-2.2-2.1-2.3-1.872a123.372,123.372,0,0,0-19.243-12.571c-6.6-3.622-13.282-7.049-19.718-11.295A92.829,92.829,0,0,1,86.4,165.284c-1.366-1.606-2.811-3.141-4.085-4.791l-3.664-5.028-.455-.623-.23-.315c-.191-.284-.176-.279-.271-.43l-.853-1.4-1.691-2.786-1.674-2.784-1.5-2.967c-.963-2-2.051-3.869-2.894-5.959q-1.305-3.091-2.6-6.145c-1.538-4.216-3.089-8.359-4.329-12.629-2.606-8.462-4.669-16.931-6.587-25.083-1.948-8.139-3.74-16.017-5.805-23.338C45.8,56.217,40.694,43.8,34.921,34.124A88,88,0,0,0,17.706,12.837,112.671,112.671,0,0,0,4.757,2.992C1.652,1.041,0,0,0,0Z" transform="translate(0 156.172)" stroke="rgba(0,0,0,0)" stroke-width="1" fill="url(#linear-gradient)"/>
      <path id="Path_6635" data-name="Path 6635" d="M0,0,5.1,2.566a137.716,137.716,0,0,1,14.226,8.105A84.081,84.081,0,0,1,39.543,29.138q1.3,1.7,2.637,3.461l.672.882.169.222.112.152.076.122.308.484q.616.968,1.239,1.951,1.25,1.965,2.535,3.989c.833,1.388,1.6,2.955,2.422,4.458a135.8,135.8,0,0,1,8.667,20.563c2.6,7.528,4.735,15.709,6.92,24.129,2.156,8.442,4.248,17.183,6.785,25.867a171.122,171.122,0,0,0,9.276,25.371,114.76,114.76,0,0,0,6.313,11.483l1.714,2.76.215.345c.007.02.13.2.047.086l.12.164.481.65.968,1.3c1.3,1.679,2.564,3.6,3.913,5.1s2.7,3.026,4.052,4.544q2.181,2.068,4.385,4.145a92.733,92.733,0,0,0,9.366,7.188c6.475,4.356,13.338,7.888,20.285,11.654a138.079,138.079,0,0,1,20.742,13.123,90.552,90.552,0,0,1,18.581,20.1l3.852,6.274c1.256,2.075,2.4,4.551,3.6,6.812l.887,1.733.782,1.8,1.552,3.6c1.088,2.359,1.938,4.906,2.862,7.389a305.758,305.758,0,0,1,8.831,30.817c2.535,10.32,4.918,20.514,7.846,30.137,2.943,9.586,6.372,18.689,10.732,26.535,1.032,2.029,2.259,3.8,3.368,5.7.56.885,1.156,1.987,1.679,2.684l1.907,2.613a84.4,84.4,0,0,0,24.8,23.162c5.847,3.771,11.728,6.88,17.41,10.085a146.53,146.53,0,0,1,16.239,10.283c10.224,7.428,18.491,17.55,24.413,27.974a141.578,141.578,0,0,1,12.436,30.054c2.7,8.919,4.277,16.227,5.453,21.143,1.127,4.945,1.726,7.58,1.726,7.58s-.675-2.593-1.946-7.457c-.655-2.42-1.464-5.407-2.41-8.912-1.051-3.444-2.112-7.494-3.588-11.825a135.651,135.651,0,0,0-12.862-28.969,88.067,88.067,0,0,0-24.3-26.337,140.98,140.98,0,0,0-16.129-9.65c-5.683-3.019-11.651-5.974-17.669-9.645a92.583,92.583,0,0,1-17.86-13.759,85.1,85.1,0,0,1-8.222-9.665l-1.921-2.584c-.767-1.027-1.254-1.955-1.9-2.943-1.188-1.982-2.488-3.837-3.591-5.954-4.654-8.21-8.33-17.735-11.439-27.612-3.112-9.9-5.58-20.248-8.108-30.5a297.948,297.948,0,0,0-8.657-29.964c-.887-2.361-1.7-4.8-2.737-7.017l-1.479-3.4-.741-1.7-.819-1.581c-1.124-2.09-2.088-4.243-3.339-6.3l-3.727-6.052A85.967,85.967,0,0,0,151.953,208.9a134.9,134.9,0,0,0-20.167-12.862,219.055,219.055,0,0,1-20.527-12.053,86.526,86.526,0,0,1-18.64-17.066c-1.442-1.662-2.615-3.5-3.928-5.231l-.961-1.315-.477-.658-.12-.161c-.159-.235-.108-.171-.174-.269l-.223-.369-1.784-2.928a109.793,109.793,0,0,1-6.507-12.224,179.1,179.1,0,0,1-9.259-26.532c-2.474-8.943-4.461-17.811-6.492-26.256-2.058-8.428-4.057-16.55-6.494-23.966a141.774,141.774,0,0,0-8.115-20.236c-.758-1.489-1.442-3.006-2.236-4.419q-1.239-2.082-2.444-4.106-.605-1.012-1.2-2.012l-.3-.5-.076-.125c.029.046-.036-.051-.051-.071l-.161-.222-.635-.892q-1.272-1.778-2.5-3.5A86.127,86.127,0,0,0,18.975,11.8c-2.916-2.195-5.641-3.771-7.956-5.328-2.364-1.41-4.373-2.608-6-3.581Z" transform="translate(0 137.522)" stroke="rgba(0,0,0,0)" stroke-width="1" fill="url(#linear-gradient)"/>
      <path id="Path_6636" data-name="Path 6636" d="M0,0S1.826,1.019,5.28,2.794C8.724,4.61,13.839,7,20.251,10.525c6.367,3.613,14.179,8.22,22.147,16.257a85.881,85.881,0,0,1,11.681,14.7q1.371,2.163,2.774,4.385,1.287,2.453,2.61,4.972l1.322,2.537c.393.892.792,1.789,1.188,2.691.785,1.814,1.635,3.6,2.385,5.5A232.377,232.377,0,0,1,72.342,86.24c2.383,8.748,4.509,17.914,6.978,27.1a218.684,218.684,0,0,0,8.87,27.119,105.478,105.478,0,0,0,13.441,23.839l2.036,2.735,2.117,2.366a51.913,51.913,0,0,0,4.37,4.593,81.719,81.719,0,0,0,9.542,7.973c6.643,4.783,13.761,8.53,20.981,12.417s14.595,7.924,21.639,13.387a89.777,89.777,0,0,1,19.407,20.771l4.011,6.529c1.286,2.229,2.488,4.754,3.73,7.125a150.5,150.5,0,0,1,6.245,15.184c3.676,10.469,6.4,21.426,9.007,32.154s5.145,21.3,8.362,31.171a129.4,129.4,0,0,0,11.9,26.857l1.787,2.933c.281.44.628,1.088.856,1.357l1,1.371c1.339,1.787,2.64,3.727,3.991,5.368q2.053,2.346,4.082,4.673c1.422,1.454,2.889,2.833,4.319,4.246a107.086,107.086,0,0,0,18.251,13.182c6.179,3.669,12.35,6.829,18.236,10.371a113.123,113.123,0,0,1,16.606,11.864c1.278,1.115,2.481,2.378,3.705,3.542q.909.887,1.809,1.767c.569.655,1.134,1.3,1.694,1.951q1.683,1.947,3.324,3.847c1.01,1.408,2.012,2.8,3,4.175l1.467,2.056c.54.721.912,1.437,1.371,2.149.875,1.432,1.76,2.781,2.559,4.3,1.665,2.931,3.134,5.9,4.485,8.841,5.412,11.842,8.511,23.45,10.941,32.914,2.371,9.525,3.982,17.124,5.2,22.243,1.193,5.133,1.877,7.846,1.877,7.846s-.763-2.667-2.1-7.724-3.231-12.519-5.766-21.91c-2.615-9.31-5.939-20.661-11.476-32-1.383-2.821-2.887-5.661-4.539-8.389-.782-1.405-1.711-2.742-2.61-4.128a48.115,48.115,0,0,0-2.836-3.943q-1.47-1.943-2.979-3.938-1.617-1.793-3.27-3.637-.829-.917-1.664-1.845l-1.782-1.662c-1.2-1.1-2.381-2.29-3.637-3.339a108.59,108.59,0,0,0-16.394-11.136c-5.847-3.327-12.047-6.309-18.361-9.848a107.843,107.843,0,0,1-18.955-13.047c-1.518-1.435-3.063-2.828-4.583-4.326q-2.211-2.482-4.436-4.994c-1.435-1.713-2.7-3.566-4.065-5.355l-1.009-1.357a18.579,18.579,0,0,1-1.024-1.574l-1.907-3.063a134.893,134.893,0,0,1-12.686-28.013c-3.424-10.207-6.049-20.984-8.67-31.682s-5.311-21.355-8.851-31.347A142.658,142.658,0,0,0,186,245.953c-1.161-2.183-2.2-4.412-3.449-6.57l-3.884-6.3a85.184,85.184,0,0,0-18.32-19.723c-6.724-5.255-13.9-9.249-21.094-13.15s-14.453-7.8-21.324-12.884A86.45,86.45,0,0,1,108,178.835a56.074,56.074,0,0,1-4.647-4.994l-2.266-2.61-2.022-2.767a108.421,108.421,0,0,1-13.9-25.283,227.27,227.27,0,0,1-8.78-28.16c-2.383-9.379-4.39-18.6-6.631-27.283a230.453,230.453,0,0,0-7.494-24.359c-.709-1.865-1.511-3.615-2.249-5.4q-.561-1.331-1.117-2.645c-.416-.824-.824-1.643-1.234-2.454q-1.228-2.442-2.424-4.827-1.36-2.277-2.689-4.495A86.686,86.686,0,0,0,41.479,28.732C33.853,20.507,26.21,15.57,19.945,11.686,13.622,7.919,8.6,5.121,5.2,3.119S0,0,0,0Z" transform="translate(0 118.78)" stroke="rgba(0,0,0,0)" stroke-width="1" fill="url(#linear-gradient)"/>
      <path id="Path_6637" data-name="Path 6637" d="M0,0S.465.3,1.366.88s2.227,1.491,4,2.5c3.51,2.158,8.775,4.862,15.484,8.3,6.685,3.5,14.934,7.521,23.741,14.533a82.809,82.809,0,0,1,13.194,13.2c1.068,1.357,2.1,2.808,3.173,4.253.276.391.508.662.821,1.156l.733,1.168q.733,1.177,1.479,2.361A115.145,115.145,0,0,1,69.771,58.73a177.589,177.589,0,0,1,9.4,24.89c2.723,8.987,4.981,18.544,7.45,28.2a286.242,286.242,0,0,0,8.562,28.8c.882,2.32,1.711,4.708,2.75,6.9s1.885,4.607,3.055,6.685c1.137,2.109,2.166,4.373,3.4,6.387q1.837,2.966,3.691,5.957,2.108,2.849,4.236,5.722c1.435,1.831,2.936,3.351,4.4,5.06a84.806,84.806,0,0,0,9.7,8.794c6.8,5.277,14.157,9.313,21.661,13.311s15.2,8.032,22.56,13.6c1.811,1.484,3.652,2.882,5.441,4.444,1.74,1.684,3.527,3.268,5.231,5.045,1.65,1.887,3.346,3.7,4.959,5.663l4.7,6.362,4.094,6.685c1.318,2.39,2.579,4.972,3.862,7.455,1.208,2.552,2.266,5.192,3.4,7.782,1.051,2.654,1.992,5.392,2.989,8.081,3.749,10.943,6.457,22.377,9.156,33.52s5.407,22.084,8.958,32.186a121.8,121.8,0,0,0,13.116,27.158q2.064,2.823,4.111,5.629a28.218,28.218,0,0,0,2.129,2.571l2.141,2.442,1.063,1.22,1.139,1.1,2.281,2.193a56.093,56.093,0,0,0,4.647,4.084,131.356,131.356,0,0,0,19.38,12.722c6.494,3.666,12.927,7.022,18.975,11.072a97.952,97.952,0,0,1,16.75,13.969,92.3,92.3,0,0,1,6.983,8.591c1.068,1.54,2.185,2.879,3.173,4.534.961,1.564,1.918,3.068,2.828,4.651a126.841,126.841,0,0,1,8.9,19.644c4.72,13.082,7.426,25.342,9.779,35.273,2.312,9.97,4.131,17.794,5.585,23.01.68,2.64,1.3,4.6,1.682,5.942s.592,2.031.592,2.031-.22-.68-.648-1.992-1.093-3.248-1.841-5.844c-1.579-5.145-3.676-12.844-6.159-22.719-2.552-9.819-5.5-21.905-10.4-34.535a120.821,120.821,0,0,0-9.031-18.708c-.919-1.511-1.928-2.989-2.9-4.527-.914-1.486-2.06-2.821-3.1-4.263a88.04,88.04,0,0,0-6.86-8.134A93.317,93.317,0,0,0,291.3,404.244c-5.964-3.8-12.38-6.959-18.955-10.464a131.885,131.885,0,0,1-19.974-12.48,57.8,57.8,0,0,1-4.9-4.128l-2.4-2.276-1.2-1.154-1.159-1.3c-1.51-1.765-3.172-3.442-4.573-5.319q-2.119-2.874-4.258-5.773a127.145,127.145,0,0,1-13.908-28.407c-3.742-10.5-6.568-21.685-9.307-32.826s-5.451-22.3-9.085-32.743c-.965-2.554-1.875-5.167-2.884-7.682-1.085-2.432-2.112-4.962-3.241-7.323-1.2-2.271-2.32-4.573-3.571-6.832l-4.114-6.658-4.275-5.829c-1.516-1.858-3.109-3.581-4.656-5.385-1.6-1.691-3.295-3.2-4.937-4.82-1.692-1.5-3.451-2.85-5.17-4.285-7.027-5.4-14.541-9.42-22.037-13.5s-15.03-8.266-22.093-13.827a88.853,88.853,0,0,1-10.148-9.337c-1.567-1.833-3.234-3.591-4.7-5.482q-2.112-2.893-4.214-5.759A123.645,123.645,0,0,1,92.075,143.1a297.131,297.131,0,0,1-8.4-29.673c-2.359-9.772-4.483-19.3-7.042-28.167a175.825,175.825,0,0,0-8.836-24.445,113.358,113.358,0,0,0-5.475-10.192q-.73-1.206-1.45-2.4l-.719-1.19c-.169-.288-.486-.7-.719-1.044-1.024-1.418-1.992-2.892-3.006-4.248A83.8,83.8,0,0,0,43.808,28.29c-8.5-7.269-16.635-11.654-23.245-15.44C13.918,9.159,8.738,6.042,5.272,3.7,3.522,2.581,2.232,1.579,1.34.963Z" transform="translate(0 99.238)" stroke="rgba(0,0,0,0)" stroke-width="1" fill="url(#linear-gradient)"/>
      <path id="Path_6638" data-name="Path 6638" d="M0,0,1.347,1.137c.9.714,2.18,1.938,3.957,3.229a118.247,118.247,0,0,0,15.738,9.916c6.9,3.833,15.511,7.636,25.026,13.715A83.765,83.765,0,0,1,60.6,39.667l1.838,1.821q.88,1.008,1.77,2.034c1.166,1.4,2.422,2.691,3.525,4.29,1.139,1.577,2.283,3.006,3.456,4.759q1.58,2.526,3.2,5.108A138.458,138.458,0,0,1,85.609,82.356c3.163,9.154,5.727,19.041,8.271,29.14s5.077,20.451,8.372,30.45a134.126,134.126,0,0,0,12.534,28.1l1.963,3.168.489.794.486.662,1.1,1.489a67.852,67.852,0,0,0,4.49,5.761,80.982,80.982,0,0,0,9.779,9.691c6.939,5.815,14.546,10.175,22.331,14.353s15.794,8.293,23.5,13.932a87.533,87.533,0,0,1,21.162,22.071l4.326,7.056c1.352,2.557,2.679,5.194,4.006,7.792,1.168,2.708,2.351,5.4,3.483,8.137,1.014,2.821,2.09,5.6,3.043,8.455,3.793,11.444,6.555,23.345,9.376,34.911s5.744,22.871,9.657,33.178A110.548,110.548,0,0,0,248.5,368.713c.731.98,1.447,2.019,2.185,2.943l2.249,2.559,2.237,2.554,2.39,2.307,2.383,2.293c.8.731,1.65,1.369,2.471,2.056l2.461,2.041c.824.672,1.689,1.229,2.525,1.85,6.729,4.9,13.7,8.662,20.492,12.446a159.08,159.08,0,0,1,19.612,12.287,90.762,90.762,0,0,1,16.584,16.64q1.767,2.442,3.5,4.832c1.168,1.733,2.109,3.39,3.155,5.062,1.051,1.594,1.946,3.507,2.894,5.243.462.89.936,1.757,1.379,2.647.411.917.821,1.823,1.224,2.728a156.835,156.835,0,0,1,7.856,21.6c4.092,14.14,6.648,26.931,9.227,37.189,2.535,10.28,4.83,18.192,6.675,23.386.87,2.64,1.689,4.536,2.17,5.876.5,1.322.765,2,.765,2s-.279-.665-.816-1.958c-.513-1.31-1.388-3.165-2.324-5.756a233.44,233.44,0,0,1-7.257-23.105c-2.784-10.178-5.6-22.873-9.909-36.646a150.281,150.281,0,0,0-8.1-20.827A101.6,101.6,0,0,0,322.5,431.424a86.149,86.149,0,0,0-16.24-15.677,153.991,153.991,0,0,0-19.444-11.581c-6.822-3.6-13.93-7.218-20.945-12.089-.872-.618-1.767-1.173-2.63-1.848l-2.591-2.056c-.858-.709-1.735-1.366-2.583-2.119l-2.508-2.378-2.515-2.405-2.427-2.738-2.434-2.759c-.77-.956-1.471-1.963-2.212-2.943a115.785,115.785,0,0,1-15.379-28.485c-4.135-10.747-7.191-22.372-10.063-33.968s-5.644-23.254-9.33-34.2c-.926-2.733-1.963-5.363-2.938-8.054l-3.327-7.677-3.693-7.118L197.03,246.5a83.2,83.2,0,0,0-19.967-21.055c-7.369-5.48-15.208-9.589-23.017-13.866s-15.631-8.8-22.863-14.949a85.347,85.347,0,0,1-10.337-10.4,72.551,72.551,0,0,1-4.568-5.932l-1.1-1.5-.609-.841-.516-.841L112,173.77a134.659,134.659,0,0,1-12.94-29.558c-3.28-10.42-5.717-20.981-8.139-31.118S86.1,93.184,83.131,84.209A136.227,136.227,0,0,0,72.6,60.111,89.4,89.4,0,0,0,45.407,30.164c-9.271-6.4-17.816-10.584-24.665-14.717A112.1,112.1,0,0,1,5.189,4.666C3.444,3.273,2.2,1.977,1.317,1.212.448.413,0,0,0,0Z" transform="translate(0 78.074)" stroke="rgba(0,0,0,0)" stroke-width="1" fill="url(#linear-gradient)"/>
      <path id="Path_6639" data-name="Path 6639" d="M0,0,5.008,5.729a93.509,93.509,0,0,0,15.558,12.8c7.008,4.673,15.892,8.873,26,14.318A108.973,108.973,0,0,1,62.326,43.038c1.325,1.112,2.725,2.087,4.035,3.356s2.645,2.527,3.992,3.815a93.96,93.96,0,0,1,7.66,9.159q.931,1.254,1.877,2.52c.682.987,1.168,1.841,1.767,2.774,1.127,1.877,2.347,3.583,3.429,5.649s2.175,4.155,3.275,6.262q1.47,3.311,2.958,6.68a230.414,230.414,0,0,1,9.6,29.837c2.765,10.522,5.27,21.434,8.406,32.11,3.143,10.652,6.907,21.133,11.979,30.411l.922,1.774,1.024,1.65,2.048,3.314,1.027,1.665.129.208c-.076-.112.061.081.083.108l.289.391.579.78,2.319,3.134a63.847,63.847,0,0,0,4.776,5.7,64.92,64.92,0,0,0,5.106,5.106c7.052,6.482,14.9,11.275,23,15.621,8.093,4.395,16.452,8.562,24.511,14.328a87.744,87.744,0,0,1,22.152,22.761l4.5,7.369c1.381,2.72,2.825,5.4,4.135,8.166,1.186,2.848,2.5,5.6,3.571,8.525,1.039,2.953,2.227,5.81,3.114,8.851,3.879,11.972,6.688,24.4,9.64,36.419,2.931,12.04,6.155,23.7,10.515,34.178,1.144,2.562,2.146,5.26,3.454,7.619,1.264,2.4,2.405,4.94,3.842,7.1l2.053,3.353c.32.513.726,1.22.975,1.577l1.151,1.569,2.29,3.126,1.141,1.559,1.178,1.352a83.142,83.142,0,0,0,9.838,9.916,104.356,104.356,0,0,0,10.583,7.812c7.184,4.664,14.529,8.386,21.609,12.49a112.113,112.113,0,0,1,20.079,14.262,89.267,89.267,0,0,1,16.08,19.784,119.44,119.44,0,0,1,6.16,11.373q1.3,3,2.569,5.932c.853,1.946,1.513,4.026,2.261,5.991a240.082,240.082,0,0,1,6.858,23.418c3.664,15.022,6.49,28.224,9.635,38.636a169.4,169.4,0,0,0,8.614,23.122l3.852,7.438s-1.405-2.518-4.043-7.233a155.762,155.762,0,0,1-9.188-22.807c-3.361-10.344-6.455-23.531-10.373-38.3a232.282,232.282,0,0,0-7.183-22.788c-.765-1.892-1.452-3.889-2.3-5.766s-1.7-3.779-2.562-5.7a113.692,113.692,0,0,0-6.1-10.872A84.326,84.326,0,0,0,321.5,430.933a107.354,107.354,0,0,0-19.759-13.416c-7.044-3.884-14.46-7.43-21.883-12.023a87.4,87.4,0,0,1-21.47-18.349l-1.273-1.454-1.146-1.55-2.3-3.109-1.154-1.559c-.5-.711-.763-1.205-1.156-1.819l-2.178-3.52c-1.518-2.273-2.738-4.928-4.08-7.452-1.386-2.483-2.454-5.294-3.661-7.98-4.62-10.962-8-23.037-10.989-35.143-3.026-12.106-5.842-24.305-9.616-35.779-.87-2.933-2.011-5.622-3.011-8.442-1.036-2.784-2.288-5.36-3.419-8.056-1.227-2.559-2.544-4.967-3.806-7.467l-4.382-7.12a83.583,83.583,0,0,0-20.92-21.724c-7.724-5.61-15.932-9.794-24.081-14.289-8.149-4.451-16.274-9.464-23.65-16.327a69.176,69.176,0,0,1-5.394-5.463,69.618,69.618,0,0,1-5.018-6.069l-2.307-3.153-.577-.785-.288-.393-.205-.284-.134-.22-1.078-1.76-2.148-3.51-1.068-1.753-.966-1.87a155.078,155.078,0,0,1-12.3-31.831c-3.09-11.028-5.478-22.047-8.093-32.516a228.672,228.672,0,0,0-9.032-29.36q-1.4-3.285-2.779-6.519-1.533-3.032-3.033-6.008c-.995-1.99-2.239-3.8-3.332-5.683-.552-.89-1.149-1.941-1.655-2.686-.6-.831-1.2-1.655-1.787-2.478a92.69,92.69,0,0,0-7.315-9.056q-1.939-1.921-3.838-3.8c-1.261-1.259-2.6-2.283-3.876-3.417a110.919,110.919,0,0,0-15.34-10.672c-9.938-5.82-18.816-10.417-25.777-15.408A91.854,91.854,0,0,1,4.862,6C1.692,2.087,0,0,0,0Z" transform="translate(0 54.245)" stroke="rgba(0,0,0,0)" stroke-width="1" fill="url(#linear-gradient)"/>
      <path id="Path_6640" data-name="Path 6640" d="M0,0,1.1,1.9c.726,1.259,1.787,3.153,3.324,5.4,1.442,2.383,3.52,4.852,5.849,7.973a93.035,93.035,0,0,0,8.753,9.132,90.04,90.04,0,0,0,11.806,9q6.691,4.18,14.668,8.237c5.287,2.791,10.98,5.558,16.836,9.212A91.416,91.416,0,0,1,79.973,64.982,96.88,96.88,0,0,1,95.751,87.4a161.462,161.462,0,0,1,11.666,30.137c3.187,10.914,5.8,22.416,8.831,33.816,3.046,11.378,6.5,22.748,11.339,33.022q1.921,3.718,3.857,7.47,2.126,3.428,4.27,6.883c1.628,2.173,3.244,4.434,4.893,6.558,1.713,1.87,3.344,3.869,5.126,5.663,7.174,7.257,15.3,12.566,23.734,17.242s17.21,8.89,25.677,14.812a88.7,88.7,0,0,1,23.374,23.677c1.55,2.547,3.114,5.006,4.634,7.648l2.19,4.263c.716,1.43,1.5,2.818,2.092,4.324,1.242,2.984,2.633,5.847,3.688,8.973l1.682,4.607c.548,1.542,1.007,3.136,1.513,4.7,3.987,12.585,6.812,25.638,9.97,38.154s6.719,24.606,11.6,35.263c1.215,2.659,2.588,5.138,3.867,7.7,1.408,2.412,2.877,4.732,4.3,7.093q2.383,3.267,4.749,6.514l4.967,5.651c6.91,7.2,14.568,12.309,22.223,16.836,7.672,4.507,15.413,8.389,22.761,13.123a91.4,91.4,0,0,1,20.26,17.31q1.125,1.3,2.236,2.586c.731.878,1.388,1.875,2.083,2.8s1.361,1.88,2.039,2.816l1.051,1.462.907,1.493c1.2,2,2.4,3.928,3.559,5.922q1.631,3.223,3.231,6.382a171.725,171.725,0,0,1,9.513,26.207c2.459,8.7,4.321,17.163,6.2,25.019q2.721,11.835,5.539,21.793a175.607,175.607,0,0,0,6.057,17.545,135.572,135.572,0,0,0,6.152,13.013c2.09,3.444,3.745,6.531,5.36,8.679,1.518,2.29,2.786,3.862,3.632,4.942s1.281,1.643,1.281,1.643-.45-.535-1.318-1.574-2.187-2.549-3.757-4.754c-1.662-2.06-3.412-5.086-5.595-8.44a119.643,119.643,0,0,1-6.47-12.844,173.377,173.377,0,0,1-6.433-17.486c-2.009-6.607-4.006-13.876-5.964-21.7-4-15.545-8.22-33.469-16.171-49.928q-1.547-2.962-3.126-5.986c-1.164-1.943-2.4-3.864-3.618-5.827l-.919-1.471-.951-1.259q-.994-1.327-1.995-2.664c-.68-.875-1.32-1.823-2.031-2.654q-1.089-1.214-2.185-2.434a86.606,86.606,0,0,0-19.8-16.276c-7.237-4.466-14.968-8.139-22.809-12.524a98.186,98.186,0,0,1-23.088-17.181c-1.794-1.975-3.6-4.021-5.377-6.071l-2.42-3.268-1.215-1.64-.606-.821-.305-.411-.152-.205c-.173-.249-.13-.2-.208-.318-1.513-2.471-3.072-4.908-4.563-7.443-1.361-2.691-2.818-5.3-4.106-8.088-5.184-11.182-8.934-23.751-12.167-36.414-3.246-12.688-6.089-25.535-9.975-37.619-.494-1.5-.943-3.043-1.471-4.515l-1.623-4.383c-1.014-2.984-2.347-5.666-3.53-8.491-.577-1.442-1.29-2.672-1.95-3.982l-2-3.894c-1.474-2.549-3.1-5.045-4.63-7.58l-2.4-3.263c-.831-1.1-1.62-2.29-2.491-3.329l-2.657-3.033a35.511,35.511,0,0,0-2.711-2.931c-1.9-1.76-3.706-3.737-5.717-5.245L196.4,250.8c-.99-.787-2.029-1.452-3.041-2.188-8.132-5.771-16.78-9.995-25.318-14.819-8.523-4.805-16.983-10.378-24.506-18.078-1.887-1.924-3.681-4.131-5.507-6.181-1.679-2.183-3.263-4.422-4.889-6.617-1.657-2.608-3.065-4.976-4.6-7.467-1.364-2.625-2.716-5.253-4.033-7.895-5.032-10.852-8.631-22.663-11.556-34.307-2.952-11.649-5.426-23.137-8.43-33.889A158.747,158.747,0,0,0,93.585,89.97a95.29,95.29,0,0,0-15.02-22.054c-11.09-11.825-23.145-18.1-33.611-24.034-5.262-2.909-10.153-5.876-14.6-8.86a93.774,93.774,0,0,1-11.769-9.557,87.346,87.346,0,0,1-8.65-9.623c-2.249-3.229-4.282-5.825-5.676-8.3C2.769,5.2,1.755,3.256,1.059,1.96S0,0,0,0Z" transform="translate(0 26.183)" stroke="rgba(0,0,0,0)" stroke-width="1" fill="url(#linear-gradient)"/>
      <path id="Path_6641" data-name="Path 6641" d="M0,0S.325.741.953,2.18s1.53,3.608,2.894,6.235A102.4,102.4,0,0,0,9.078,17.8a110.11,110.11,0,0,0,8.139,11.185c6.448,7.707,15.394,14.927,26.239,20.879,5.409,3.053,11.29,5.878,17.43,9.239A108.181,108.181,0,0,1,79.738,71.743a90.378,90.378,0,0,1,17.667,20.95q.983,1.573,1.975,3.163c.635,1.115,1.239,2.332,1.86,3.5s1.242,2.373,1.865,3.569,1.127,2.488,1.7,3.735c1.115,2.515,2.251,5.042,3.2,7.751q.748,2,1.5,4.013c.5,1.349.912,2.76,1.371,4.143,3.642,11.109,6.458,23.017,9.474,34.933s6.294,23.883,10.989,34.838a101.747,101.747,0,0,0,17.919,28.754,85.689,85.689,0,0,0,11.5,10.5c2.073,1.435,4.119,2.948,6.24,4.277,2.134,1.3,4.246,2.672,6.438,3.857,8.68,4.964,17.775,9.159,26.562,15.2a89.873,89.873,0,0,1,24.186,24.188l2.479,4.028c.789,1.349,1.625,2.53,2.378,4.018l2.263,4.412,1.129,2.21c.359.745.667,1.525,1,2.285,1.32,3.06,2.674,6.091,3.774,9.317.572,1.594,1.181,3.165,1.718,4.778l1.542,4.884c4.065,13.057,6.885,26.571,10.226,39.467.8,3.258,1.719,6.394,2.594,9.567.9,3.151,1.914,6.191,2.882,9.269a142.924,142.924,0,0,0,7.083,17.117l2.026,3.965c.662,1.337,1.476,2.481,2.2,3.728l2.239,3.664.139.227a.693.693,0,0,0,.088.132l.315.428.628.858,1.254,1.711,2.5,3.412,2.581,2.933c.875.956,1.682,2,2.6,2.887l2.752,2.645c7.372,6.983,15.438,11.83,23.45,16.318s16.034,8.667,23.511,14.079a87.752,87.752,0,0,1,20.106,20.021l2.148,2.967c.8,1.117,1.32,2.122,1.987,3.182q.953,1.569,1.892,3.124c.313.526.633,1.022.934,1.567l.865,1.7c1.124,2.288,2.349,4.468,3.348,6.785.985,2.334,1.987,4.622,2.926,6.927a232.509,232.509,0,0,1,8.508,28.011c2.263,9.119,4.165,17.86,6.218,25.9,4.008,16.125,8.853,29.392,14.059,39.008a119.446,119.446,0,0,0,7.521,12.079,82.72,82.72,0,0,0,6.311,7.768c1.77,2.029,3.229,3.361,4.194,4.3s1.469,1.415,1.469,1.415-.511-.455-1.5-1.339-2.481-2.151-4.3-4.092a91.043,91.043,0,0,1-14.35-19.341c-5.431-9.515-10.589-22.827-14.9-38.927-2.209-8.027-4.265-16.7-6.663-25.664a236.374,236.374,0,0,0-8.662-27.285q-1.437-3.289-2.906-6.643c-.99-2.219-2.163-4.226-3.249-6.379l-.831-1.6c-.3-.523-.63-1.024-.944-1.537q-.957-1.533-1.926-3.08c-.635-.978-1.31-2.188-1.921-2.987q-1.045-1.4-2.1-2.806a82.962,82.962,0,0,0-19.588-18.845c-7.318-5.089-15.257-9.036-23.382-13.363a108.966,108.966,0,0,1-24.218-16.543l-2.9-2.755c-.968-.917-1.87-2.058-2.811-3.085l-2.8-3.17-2.515-3.4-1.261-1.7-.631-.853-.315-.425c0,.01-.183-.249-.218-.313l-.149-.24L264.618,402c-.775-1.31-1.635-2.515-2.339-3.916l-2.153-4.165a148.5,148.5,0,0,1-7.494-17.9c-1.014-3.175-2.085-6.338-3.019-9.569-.907-3.246-1.87-6.482-2.689-9.772-3.439-13.094-6.294-26.478-10.259-39.022l-1.5-4.69c-.521-1.545-1.11-3.031-1.66-4.551-1.061-3.082-2.356-5.932-3.615-8.824-.318-.714-.616-1.464-.951-2.151l-1.041-2.009-2.075-4.026c-1.449-2.608-3.261-5.328-4.7-7.746a85.8,85.8,0,0,0-22.881-23.1c-8.442-5.893-17.449-10.134-26.263-15.242-2.214-1.217-4.392-2.647-6.575-4-2.178-1.388-4.3-2.977-6.441-4.48a90.059,90.059,0,0,1-12.072-11.163A107.88,107.88,0,0,1,128.166,195.3c-4.862-11.534-8.257-23.91-11.129-35.982-2.913-12.075-5.57-23.868-9-34.742-.432-1.352-.821-2.74-1.288-4.053l-1.413-3.913c-.887-2.647-1.96-5.1-3.006-7.543-.538-1.207-1.01-2.5-1.594-3.622l-1.716-3.4c-.579-1.124-1.12-2.268-1.723-3.368q-.975-1.609-1.943-3.207a88.91,88.91,0,0,0-16.846-20.62A114.031,114.031,0,0,0,60.145,61.978c-6.032-3.566-11.872-6.617-17.271-9.9C32.032,45.658,23.093,38.02,16.662,29.917A104.172,104.172,0,0,1,8.7,18.31a106.928,106.928,0,0,1-5.042-9.7C2.349,5.908,1.5,3.693.9,2.227S0,0,0,0Z" transform="translate(3.449 0)" stroke="rgba(0,0,0,0)" stroke-width="1" fill="url(#linear-gradient)"/>
      <path id="Path_6642" data-name="Path 6642" d="M0,0S.379.64,1.115,1.88q.55.931,1.366,2.3L4.473,7.206C5.2,8.384,6.118,9.513,7.11,10.825c1,1.286,2.058,2.75,3.261,4.221q1.874,2.049,4.023,4.4c1.427,1.574,3.1,2.938,4.771,4.549s3.608,2.914,5.539,4.5c1.973,1.469,4.094,2.84,6.294,4.3q6.691,4.1,14.641,8.134c5.28,2.762,10.94,5.59,16.777,9.232a90.028,90.028,0,0,1,17.5,14.309c1.391,1.579,2.838,3.1,4.221,4.781q1.995,2.665,4.026,5.385l.513.682c.242.359.33.521.5.792l.922,1.471q.92,1.478,1.853,2.967c1.283,1.892,2.393,4.231,3.578,6.445a165.765,165.765,0,0,1,11.5,30.137c3.153,10.889,5.751,22.353,8.787,33.7,3.05,11.322,6.5,22.656,11.378,32.843,1.293,2.452,2.534,4.984,3.879,7.406,1.423,2.256,2.889,4.749,4.282,6.839,1.623,2.148,3.227,4.461,4.886,6.5,1.711,1.85,3.314,3.879,5.123,5.627,7.161,7.2,15.274,12.473,23.68,17.124s17.156,8.87,25.6,14.775a88.9,88.9,0,0,1,23.223,23.516l2.388,3.886c.765,1.286,1.559,2.471,2.3,3.84l2.183,4.251c.709,1.427,1.493,2.806,2.087,4.307,1.234,2.98,2.63,5.827,3.681,8.941l1.674,4.593c.557,1.533,1.007,3.129,1.515,4.688,3.977,12.536,6.8,25.547,9.946,38.032s6.68,24.54,11.524,35.185c1.178,2.689,2.574,5.128,3.838,7.7,1.364,2.452,2.857,4.727,4.27,7.093l.269.44a.733.733,0,0,0,.083.122l.149.205.6.824,1.2,1.643,2.4,3.28c1.633,2,3.3,3.786,4.93,5.69,6.849,7.25,14.482,12.363,22.1,16.9,7.638,4.51,15.357,8.371,22.685,13.057a92.386,92.386,0,0,1,20.26,17.068,96.06,96.06,0,0,1,8.371,11.016q1.8,2.97,3.559,5.883c1.132,2.046,2.175,4.233,3.243,6.309a166.76,166.76,0,0,1,9.64,26.012c2.452,8.675,4.353,17.088,6.214,24.929q2.717,11.8,5.473,21.759c.985,3.263,1.909,6.419,2.9,9.352,1.066,2.87,1.943,5.732,3.026,8.227s2,4.967,3.063,7.091,2.048,4.131,2.97,5.991c.988,1.779,1.97,3.349,2.833,4.832.88,1.467,1.64,2.835,2.437,3.921q1.155,1.679,2.033,2.96.924,1.21,1.55,2.029c.833,1.093,1.266,1.655,1.266,1.655s-.445-.54-1.305-1.589c-.43-.526-.968-1.176-1.6-1.951q-.913-1.232-2.107-2.85c-.819-1.039-1.625-2.388-2.54-3.808-.9-1.442-1.928-2.97-2.965-4.71q-1.459-2.739-3.134-5.881c-1.11-2.1-2.078-4.558-3.219-7.037s-2.075-5.328-3.2-8.191c-1.053-2.923-2.041-6.069-3.1-9.327-1.973-6.6-3.935-13.859-5.891-21.653-2-7.768-4.045-16.071-6.609-24.508a166.438,166.438,0,0,0-9.682-25.09c-1.048-1.958-2.033-3.979-3.151-5.944q-1.793-2.871-3.625-5.8a91.59,91.59,0,0,0-8.117-10.322,87.716,87.716,0,0,0-19.813-16.051c-7.223-4.417-14.934-8.073-22.748-12.466a96.278,96.278,0,0,1-22.976-17.254c-1.767-2.019-3.608-4.006-5.326-6.1l-2.413-3.261-1.21-1.633-.606-.819-.152-.2c0,.01-.178-.244-.21-.306l-.284-.46c-1.5-2.474-3.085-4.869-4.532-7.443-1.349-2.691-2.826-5.267-4.074-8.083-5.145-11.165-8.868-23.694-12.087-36.324-3.229-12.646-6.072-25.447-9.948-37.487-.494-1.5-.936-3.036-1.471-4.495l-1.616-4.37c-1.012-2.979-2.347-5.641-3.522-8.459-.574-1.442-1.288-2.657-1.946-3.967l-2-3.879c-1.442-2.5-3.156-5.13-4.549-7.45a84.666,84.666,0,0,0-21.954-22.45c-8.1-5.759-16.718-9.985-25.229-14.78s-16.934-10.315-24.447-17.955c-1.9-1.855-3.676-4.1-5.5-6.13-1.721-2.144-3.263-4.4-4.9-6.582-1.679-2.52-3.063-4.937-4.6-7.4-1.41-2.559-2.708-5.233-4.057-7.829-5.072-10.769-8.67-22.546-11.605-34.141-2.955-11.61-5.416-23.066-8.391-33.8A162.646,162.646,0,0,0,93.34,89.535,93.917,93.917,0,0,0,78.484,67.39a93.393,93.393,0,0,0-16.9-14.4c-5.681-3.811-11.268-6.849-16.494-9.819-5.245-2.9-10.129-5.82-14.575-8.753-2.193-1.564-4.309-3.033-6.277-4.6-1.929-1.679-3.842-3.07-5.514-4.761s-3.319-3.133-4.737-4.786l-3.965-4.664c-1.168-1.54-2.192-3.053-3.16-4.392S5,8.667,4.3,7.445Q3.213,5.667,2.381,4.314c-.521-.943-.961-1.738-1.31-2.376Z" transform="translate(18.948 0)" stroke="rgba(0,0,0,0)" stroke-width="1" fill="url(#linear-gradient)"/>
      <path id="Path_6643" data-name="Path 6643" d="M0,0S1.726,2.024,5.02,5.69a93.613,93.613,0,0,0,15.572,12.7c7.005,4.646,15.885,8.824,25.98,14.282A107.465,107.465,0,0,1,62.3,42.9c1.317,1.122,2.725,2.073,4.021,3.375q1.969,1.885,3.984,3.815,1.914,2.156,3.874,4.363l.98,1.11.919,1.232,1.858,2.486L79.811,61.8q.869,1.386,1.75,2.789l1.723,2.757a29.142,29.142,0,0,1,1.689,2.909q1.621,3.1,3.27,6.257,1.456,3.314,2.943,6.683a234.171,234.171,0,0,1,9.547,29.825c2.755,10.513,5.258,21.407,8.4,32.066,3.146,10.637,6.917,21.094,11.991,30.353a32.733,32.733,0,0,0,1.951,3.41l2.048,3.307,1.029,1.664,1.083,1.476,2.32,3.129a64.113,64.113,0,0,0,4.771,5.68,66.481,66.481,0,0,0,5.106,5.091c7.047,6.467,14.892,11.239,22.986,15.582,8.083,4.387,16.435,8.555,24.481,14.313a87.812,87.812,0,0,1,22.125,22.744l4.5,7.357c1.379,2.718,2.821,5.4,4.131,8.161,1.186,2.843,2.491,5.587,3.571,8.511,1.034,2.95,2.224,5.8,3.109,8.838,3.879,11.957,6.685,24.367,9.635,36.378,2.923,12.023,6.135,23.682,10.488,34.153,1.146,2.549,2.134,5.262,3.439,7.614,1.271,2.39,2.4,4.945,3.832,7.1l2.048,3.353.968,1.579,1.149,1.567,2.288,3.124,1.139,1.557c.384.5.785.909,1.176,1.366l2.349,2.676a26.535,26.535,0,0,0,2.413,2.566l2.505,2.405a26.533,26.533,0,0,0,2.547,2.278,105.684,105.684,0,0,0,10.564,7.822c7.174,4.668,14.5,8.389,21.58,12.48a113.389,113.389,0,0,1,20.075,14.194,89.94,89.94,0,0,1,16.1,19.7l1.647,2.711.816,1.347.755,1.469q1.5,2.933,2.962,5.8,1.3,3,2.566,5.922c.875,1.924,1.521,4.011,2.271,5.974a234.5,234.5,0,0,1,6.885,23.372c3.674,15,6.485,28.192,9.608,38.6a171.513,171.513,0,0,0,8.547,23.14c2.464,4.888,3.828,7.457,3.828,7.457s-1.422-2.483-4.016-7.252a156.731,156.731,0,0,1-9.124-22.827c-3.342-10.342-6.419-23.521-10.347-38.26a226.405,226.405,0,0,0-7.208-22.739c-.768-1.885-1.437-3.894-2.307-5.746q-1.261-2.808-2.557-5.69-1.426-2.7-2.884-5.456l-.731-1.383-.831-1.322-1.676-2.672a84.974,84.974,0,0,0-15.741-18.6,108.415,108.415,0,0,0-19.757-13.35c-7.039-3.872-14.448-7.421-21.858-12.016a87.251,87.251,0,0,1-21.431-18.376c-.421-.489-.868-.953-1.261-1.462l-1.146-1.547-2.3-3.107-1.154-1.557c-.494-.736-.76-1.21-1.151-1.828l-2.175-3.515c-1.518-2.271-2.721-4.94-4.067-7.452-1.384-2.481-2.437-5.3-3.649-7.98-4.607-10.953-7.968-23.022-10.96-35.111-3.021-12.094-5.837-24.274-9.608-35.735-.868-2.931-2.012-5.612-3.006-8.43-1.039-2.779-2.285-5.355-3.42-8.046-1.227-2.552-2.542-4.962-3.8-7.457l-4.378-7.11a83.536,83.536,0,0,0-20.893-21.707c-7.714-5.6-15.912-9.784-24.049-14.277-8.139-4.446-16.259-9.435-23.633-16.281a71.42,71.42,0,0,1-5.39-5.446,72.1,72.1,0,0,1-5.023-6.054l-2.3-3.151-1.208-1.667-1.078-1.757-2.144-3.505a35.035,35.035,0,0,1-2.041-3.61,154.428,154.428,0,0,1-12.319-31.77c-3.094-11.011-5.482-22.018-8.088-32.477a231.643,231.643,0,0,0-8.985-29.358q-1.4-3.289-2.769-6.524-1.526-3.028-3.026-6A27.472,27.472,0,0,0,81.4,69.9q-.85-1.408-1.694-2.8-.825-1.36-1.64-2.711-.9-1.243-1.784-2.474c-.594-.821-1.181-1.64-1.767-2.452l-.878-1.217-.936-1.1L69,52.83q-1.936-1.925-3.833-3.8c-1.247-1.288-2.6-2.29-3.865-3.429A109.17,109.17,0,0,0,46,34.891c-9.921-5.832-18.789-10.408-25.75-15.369A91.969,91.969,0,0,1,4.876,5.961C1.674,2.117,0,0,0,0Z" transform="translate(36.969 0)" stroke="rgba(0,0,0,0)" stroke-width="1" fill="url(#linear-gradient)"/>
      <path id="Path_6644" data-name="Path 6644" d="M0,0S.462.342,1.361,1c.909.628,2.207,1.728,3.994,2.85a152.548,152.548,0,0,0,15.66,9.022C27.83,16.491,36.28,20.331,45.48,26.821a86.769,86.769,0,0,1,13.93,12.39c1.122,1.325,2.285,2.632,3.419,4.026q1.632,2.218,3.3,4.488c1.159,1.652,2.075,3.263,3.143,4.925q.777,1.239,1.562,2.493c.511.868.978,1.833,1.474,2.755,8.161,14.641,13.316,33.765,18.2,53.556,2.493,9.894,5.038,20.009,8.408,29.71a125.1,125.1,0,0,0,12.788,27.06l.961,1.557.239.386c.1.144.005.024.066.105l.134.178.54.733,2.168,2.926c.728.956,1.44,2.009,2.187,2.884l2.261,2.542,2.268,2.549,2.447,2.317,2.452,2.327L130,188.8c6.871,5.563,14.36,9.77,22.013,13.861s15.509,8.176,23.057,13.763a88.448,88.448,0,0,1,20.73,21.768l4.25,6.929c1.334,2.476,2.63,5.089,3.938,7.631,1.19,2.63,2.3,5.309,3.451,7.963l3.016,8.279c3.762,11.214,6.5,22.893,9.264,34.256s5.585,22.5,9.325,32.709a115.936,115.936,0,0,0,13.824,27.148l2.139,2.923a26.1,26.1,0,0,0,2.163,2.735c1.489,1.64,2.884,3.4,4.424,4.937,1.574,1.484,3.1,3.036,4.688,4.449q2.423,2,4.825,3.984c6.529,5.008,13.336,8.792,19.994,12.492a196.416,196.416,0,0,1,19.321,11.686,84.176,84.176,0,0,1,16.7,15.325c.616.731,1.254,1.415,1.843,2.173q.858,1.188,1.709,2.359c1.127,1.6,2.258,3.028,3.344,4.72q1.507,2.442,2.974,4.83c.941,1.691,1.836,3.432,2.73,5.116a148.432,148.432,0,0,1,8.342,20.7c4.365,13.673,6.951,26.227,9.383,36.356,2.4,10.146,4.412,18.056,6.071,23.269.755,2.654,1.493,4.581,1.916,5.932.447,1.334.677,2.024.677,2.024l-.731-1.982c-.457-1.325-1.246-3.212-2.073-5.827-1.784-5.13-4.072-12.913-6.653-22.988-2.632-10.026-5.47-22.453-10.033-35.715a141.892,141.892,0,0,0-8.543-19.864l-2.693-4.8q-1.5-2.35-3.031-4.752c-.985-1.479-2.163-2.928-3.253-4.414q-.833-1.115-1.677-2.239c-.577-.721-1.205-1.364-1.809-2.056a79.675,79.675,0,0,0-16.374-14.421,190.134,190.134,0,0,0-19.216-11.024c-6.707-3.529-13.683-7.181-20.512-12.187q-2.523-2-5.072-4.013c-1.66-1.462-3.275-3.072-4.925-4.615-1.633-1.606-3.18-3.515-4.781-5.28a27.84,27.84,0,0,1-2.246-2.813l-2.151-2.9a120.884,120.884,0,0,1-14.707-28.492c-3.95-10.63-6.9-22.047-9.706-33.43s-5.553-22.795-9.2-33.515l-2.911-7.878c-1.1-2.5-2.173-5.04-3.3-7.5-1.219-2.322-2.383-4.664-3.635-6.983l-4.131-6.695a84.336,84.336,0,0,0-19.556-20.764c-7.215-5.424-14.9-9.5-22.556-13.68s-15.345-8.55-22.5-14.416l-2.679-2.19-2.567-2.464-2.554-2.459-2.449-2.782-2.429-2.782c-.787-.943-1.462-1.963-2.2-2.936L111.1,175.31l-.538-.733-.135-.183a3.242,3.242,0,0,1-.188-.286l-.254-.408-1.007-1.645A126.08,126.08,0,0,1,95.76,143.523c-3.371-10.148-5.83-20.507-8.205-30.475s-4.661-19.617-7.421-28.554a137.436,137.436,0,0,0-9.687-24.286A90.424,90.424,0,0,0,44.769,28.952c-8.929-6.78-17.293-11-24.042-14.9A139.465,139.465,0,0,1,5.253,4.165c-1.762-1.229-3.026-2.4-3.92-3.082Z" transform="translate(59.371 0)" stroke="rgba(0,0,0,0)" stroke-width="1" fill="url(#linear-gradient)"/>
      <path id="Path_6645" data-name="Path 6645" d="M0,0S1.792.9,5.148,2.588c3.344,1.74,8.308,4.087,14.409,7.961a84.714,84.714,0,0,1,20.7,17.911C42,30.788,43.835,33,45.656,35.637q1.257,1.987,2.554,4.026c.43.679.868,1.364,1.3,2.053.427.711.819,1.508,1.232,2.266q1.224,2.313,2.481,4.686c.821,1.6,1.508,3.336,2.28,5.03,1.589,3.353,2.845,7.093,4.275,10.8,2.6,7.6,4.93,15.763,7.115,24.283s4.3,17.347,6.8,26.156a169.34,169.34,0,0,0,9.2,25.75c.863,2.126,1.97,4,2.984,5.991l1.545,2.967,1.718,2.779,1.728,2.782.868,1.4.912,1.227q1.954,2.621,3.928,5.267a85.662,85.662,0,0,0,17.88,16.191c6.511,4.451,13.431,8.027,20.436,11.823a140.315,140.315,0,0,1,20.942,13.182A90.262,90.262,0,0,1,174.6,224.547l3.886,6.328c1.264,2.109,2.42,4.6,3.627,6.881a140.511,140.511,0,0,1,6.12,14.675,313.545,313.545,0,0,1,8.87,31.115c2.554,10.41,4.969,20.69,7.961,30.367a143.372,143.372,0,0,0,10.953,26.657A98.626,98.626,0,0,0,231.046,360.8a88.965,88.965,0,0,0,17.327,13.663c5.93,3.715,11.869,6.876,17.6,10.107a149.172,149.172,0,0,1,16.345,10.574,93.477,93.477,0,0,1,7.269,6.353c1.139,1.149,2.312,2.175,3.383,3.385q1.584,1.848,3.131,3.657c.508.611,1.039,1.181,1.52,1.819q.7.99,1.4,1.963,1.39,1.95,2.742,3.847c1.775,2.718,3.229,5.38,4.786,7.949,5.92,10.86,9.479,21.741,12.072,30.8s4.189,16.442,5.357,21.411c1.137,4.989,1.743,7.648,1.743,7.648s-.682-2.618-1.963-7.528-3.148-12.123-5.905-21.023c-2.757-8.848-6.565-19.5-12.5-29.7a90.632,90.632,0,0,0-24.144-27.351,143.193,143.193,0,0,0-16.21-9.921c-5.734-3.046-11.742-6.042-17.835-9.647a90.157,90.157,0,0,1-18.1-13.622,97.809,97.809,0,0,1-15.983-20.991,148.577,148.577,0,0,1-11.674-27.752c-3.182-9.968-5.685-20.412-8.234-30.763a305.5,305.5,0,0,0-8.7-30.274,132,132,0,0,0-5.812-13.844c-1.134-2.112-2.112-4.282-3.363-6.36l-3.762-6.108a85.742,85.742,0,0,0-17.708-19.224,137.4,137.4,0,0,0-20.375-12.93c-6.969-3.784-13.991-7.514-20.7-12.236a90.371,90.371,0,0,1-18.74-17.43l-3.9-5.328-1.024-1.418-.907-1.481-1.8-2.96-1.784-2.95L83,149.985c-1.039-2.122-2.171-4.133-3.046-6.379a177.225,177.225,0,0,1-9.168-26.891c-2.427-9.051-4.444-17.977-6.492-26.5s-4.243-16.582-6.68-24.083C56.274,62.489,55.1,58.794,53.6,55.5c-.728-1.66-1.381-3.393-2.146-4.942s-1.533-3.075-2.285-4.583c-.384-.753-.731-1.523-1.137-2.246s-.841-1.413-1.259-2.114q-1.25-2.1-2.466-4.141c-1.633-2.51-3.439-4.857-5.072-7.188a86.839,86.839,0,0,0-20.013-18.6c-5.989-4.1-10.855-6.851-14.15-8.775Z" transform="translate(89.752 0)" stroke="rgba(0,0,0,0)" stroke-width="1" fill="url(#linear-gradient)"/>
      <path id="Path_6646" data-name="Path 6646" d="M0,0,4.365,3.221a83.8,83.8,0,0,1,11.657,11c1.2,1.32,2.324,2.96,3.583,4.546q.931,1.214,1.907,2.483c.677.912,1.215,1.867,1.85,2.828A109.481,109.481,0,0,1,30.824,37.4a155.518,155.518,0,0,1,6.756,17q.77,2.343,1.564,4.744.708,2.449,1.435,4.959c1,3.332,1.862,6.817,2.816,10.342,3.7,14.106,7.1,29.732,12.813,44.51l1.051,2.791,1.188,2.686C59.26,126.2,60,128.07,60.884,129.8q1.349,2.563,2.715,5.16l.684,1.3.76,1.207,1.528,2.422,1.53,2.437.384.611a6.059,6.059,0,0,0,.362.5l.86,1.146q1.723,2.306,3.464,4.639a90.978,90.978,0,0,0,7.421,7.9c10.434,10.129,22.981,15.775,35.539,22.756a110.676,110.676,0,0,1,18.66,12.473A94.187,94.187,0,0,1,151.464,210.9a129.575,129.575,0,0,1,12.487,24.772,237.869,237.869,0,0,1,8.4,27.725c2.359,9.349,4.48,18.647,6.859,27.581a179.349,179.349,0,0,0,8.46,25.222c1.574,3.987,3.542,7.5,5.37,11.112q1.529,2.519,3.043,5.008l.753,1.251c.105.166.3.511.327.533l.423.584,1.682,2.334,1.672,2.322.833,1.156.86,1q1.727,2,3.429,3.979c1.151,1.3,2.417,2.412,3.61,3.617l1.809,1.765,1.877,1.562c9.943,8.491,20.461,13.548,29.954,19.041,2.373,1.418,4.717,2.691,6.959,4.182l3.339,2.134q1.617,1.177,3.192,2.322a89.735,89.735,0,0,1,11.441,10.041,101.611,101.611,0,0,1,15.585,21.979,136.393,136.393,0,0,1,7.416,17.337c1.413,4.231,2.168,6.489,2.168,6.489l-2.376-6.323a144.051,144.051,0,0,0-7.839-16.675,96.11,96.11,0,0,0-15.856-20.825c-6.849-6.685-15.357-12.167-24.877-17.268-9.508-5.157-20.194-9.88-30.643-18.334l-1.973-1.562-1.909-1.772c-1.266-1.22-2.583-2.322-3.833-3.666q-1.859-2.064-3.742-4.158l-.939-1.056-.848-1.127-1.706-2.268-1.716-2.278-.43-.572a8.23,8.23,0,0,1-.469-.709l-.811-1.288q-1.613-2.6-3.244-5.218c-1.958-3.752-4.052-7.443-5.739-11.586-7.247-16.213-11.373-35.3-16.022-53.675a229.382,229.382,0,0,0-8.186-26.8A122.159,122.159,0,0,0,148.4,215.449a89.494,89.494,0,0,0-15.712-17.606,107.688,107.688,0,0,0-18.036-12.163c-12.363-6.917-25.215-13.038-36.123-23.809a95.324,95.324,0,0,1-7.856-8.6l-3.422-4.705-.843-1.176c-.166-.24-.23-.288-.477-.684l-.394-.655-1.574-2.61-1.562-2.6-.777-1.291-.7-1.381q-1.393-2.764-2.762-5.495c-.9-1.841-1.645-3.808-2.464-5.688l-1.193-2.835-1.051-2.926C47.77,105.7,44.593,89.823,41.122,75.7,37.685,61.551,34,48.9,29.5,38.731a111.107,111.107,0,0,0-7.013-13.46c-.594-.968-1.166-2.041-1.743-2.862-.621-.868-1.227-1.713-1.819-2.544-1.2-1.625-2.278-3.31-3.429-4.676A97.047,97.047,0,0,0,4.258,3.527C1.479,1.227,0,0,0,0Z" transform="translate(122.072 0)" stroke="rgba(0,0,0,0)" stroke-width="1" fill="url(#linear-gradient)"/>
      <path id="Path_6647" data-name="Path 6647" d="M0,0,3.507,4.141a101.533,101.533,0,0,1,8.88,13.453q1.287,2.405,2.7,5.062,1.265,2.808,2.65,5.876c.23.511.464,1.027.7,1.55q.315.814.633,1.65.645,1.665,1.308,3.4c.926,2.278,1.721,4.761,2.571,7.311,3.4,10.192,6.387,22.235,9.677,35.185,1.718,6.423,3.468,13.143,5.712,19.742,1.031,3.373,2.339,6.58,3.576,9.906.616,1.669,1.391,3.2,2.082,4.827.736,1.584,1.376,3.283,2.229,4.769q1.21,2.3,2.439,4.629l.611,1.166.687,1.085,1.371,2.175,1.381,2.19.692,1.1.173.276c-.054-.066.1.13.134.181l.389.516,3.131,4.15a38.884,38.884,0,0,0,3.239,3.828c1.117,1.181,2.146,2.51,3.334,3.617l3.568,3.358c1.176,1.163,2.483,2.046,3.728,3.092,10.073,8.147,21.668,13.072,33.2,19.754a114.577,114.577,0,0,1,17.051,11.928,93.365,93.365,0,0,1,7.917,8.017A46.1,46.1,0,0,1,133,192.444l3.629,4.925a133.132,133.132,0,0,1,11.61,22.477,238.626,238.626,0,0,1,8.029,25.339c4.5,17.137,7.812,34.363,13.3,49.332,5.262,15.122,12.72,27.61,21.118,36.971a42.7,42.7,0,0,0,3.2,3.3c1.093,1.027,2.124,2.178,3.248,3.092,2.239,1.838,4.4,3.784,6.668,5.314a139.842,139.842,0,0,0,13.284,8.489c4.353,2.483,8.569,4.749,12.541,7.115,1.98,1.2,3.921,2.322,5.771,3.578,1.86,1.205,3.668,2.373,5.37,3.683,1.713,1.264,3.385,2.444,4.92,3.823.775.658,1.537,1.308,2.285,1.941q.561.477,1.11.943c.352.35.7.7,1.044,1.036q2.061,2.057,3.955,3.94,1.782,2.1,3.4,4a100.028,100.028,0,0,1,9.058,13.2c1.821,3.4,2.791,5.223,2.791,5.223s-1.032-1.733-2.963-4.986a104.67,104.67,0,0,0-9.41-12.458q-1.638-1.778-3.451-3.752-1.914-1.749-4-3.654c-.347-.318-.7-.64-1.049-.963l-1.122-.865c-.75-.582-1.518-1.178-2.3-1.779-1.542-1.269-3.224-2.337-4.942-3.483-6.9-4.573-15.015-8.474-23.849-13.157A137.592,137.592,0,0,1,202.6,346.93c-2.346-1.486-4.612-3.41-6.956-5.233-1.173-.9-2.271-2.058-3.422-3.09a43.151,43.151,0,0,1-3.407-3.339l-3.351-3.718-.843-.943-.763-1.009-1.532-2.034-1.545-2.043-.775-1.029-.193-.257c-.178-.244-.154-.235-.242-.364l-.364-.577q-1.459-2.317-2.935-4.661a53,53,0,0,1-2.787-4.952c-.867-1.733-1.835-3.38-2.635-5.214l-2.415-5.514c-.836-1.823-1.471-3.823-2.219-5.742a244.864,244.864,0,0,1-7.433-24.425c-2.2-8.381-4.18-16.946-6.406-25.334a229.678,229.678,0,0,0-7.8-24.386A125.849,125.849,0,0,0,133.436,201.7l-3.275-4.446a43.128,43.128,0,0,0-3.5-4.277,89.051,89.051,0,0,0-7.465-7.631,111.22,111.22,0,0,0-16.413-11.586c-5.646-3.3-11.407-6.257-17.048-9.523A114.113,114.113,0,0,1,69.3,153.2c-1.293-1.115-2.637-2.056-3.867-3.3q-1.862-1.8-3.71-3.591c-1.232-1.185-2.373-2.647-3.544-3.962a44.376,44.376,0,0,1-3.324-4.136q-1.54-2.141-3.062-4.26l-.381-.528-.242-.35-.178-.293L50.28,131.6l-1.41-2.346-1.4-2.329-.7-1.159-.623-1.242q-1.243-2.478-2.471-4.923c-.858-1.589-1.5-3.373-2.239-5.045-.694-1.713-1.469-3.341-2.078-5.086-1.227-3.481-2.525-6.849-3.525-10.337-2.192-6.859-3.854-13.72-5.482-20.26C27.2,65.755,24.579,53.685,21.5,43.441c-.77-2.554-1.489-5.055-2.342-7.345q-.609-1.738-1.2-3.417-.3-.84-.584-1.665-.326-.788-.648-1.562-1.283-3.1-2.461-5.942-1.32-2.684-2.518-5.116-.6-1.217-1.169-2.366-.642-1.082-1.241-2.1Q8.142,11.886,7.1,10.1C6.426,8.877,5.732,7.9,5.089,6.956S3.874,5.17,3.358,4.407C1.166,1.533,0,0,0,0Z" transform="translate(146.155 0)" stroke="rgba(0,0,0,0)" stroke-width="1" fill="url(#linear-gradient)"/>
      <path id="Path_6648" data-name="Path 6648" d="M0,0S.946,1.642,2.716,4.725c.43.787.965,1.6,1.454,2.613S5.2,9.454,5.781,10.647c.567,1.21,1.247,2.452,1.84,3.891s1.222,2.977,1.887,4.6A235.305,235.305,0,0,1,17.5,43.806c2.7,9.777,5.338,21.013,8.787,32.8,3.49,11.718,7.939,24.081,14.624,34.742q1.257,1.984,2.53,3.991l.318.5.081.125c-.078-.108.029.039.034.044l.178.235.711.943,1.432,1.894c.965,1.232,1.9,2.623,2.906,3.745q1.511,1.657,3.033,3.339c.513.548,1,1.144,1.537,1.66l1.645,1.525c1.1,1.009,2.185,2.082,3.31,3.08,2.327,1.8,4.6,3.823,7.061,5.4,9.679,6.873,20.519,11.427,31.254,17.916A98.25,98.25,0,0,1,112.74,167.3c5.138,4.483,9.757,10.236,14.118,16.323l3,4.893,1.464,2.4,1.383,2.689c.909,1.8,1.867,3.566,2.725,5.4l2.407,5.59a197.936,197.936,0,0,1,7.778,23.47c4.375,15.949,7.433,32.056,12.06,46.433,4.431,14.526,10.6,26.965,17.848,36.84a86.179,86.179,0,0,0,23.36,21.7c7.929,5.128,15.494,9.044,22.074,13.06a115.3,115.3,0,0,1,16.6,11.879q1.638,1.481,3.1,2.8c.97.885,1.8,1.892,2.613,2.733q1.206,1.294,2.227,2.4c.685.723,1.234,1.52,1.765,2.161l3.18,4.038s-1.159-1.308-3.326-3.762c-.55-.594-1.125-1.339-1.831-2s-1.471-1.4-2.3-2.192c-.841-.772-1.7-1.689-2.691-2.5s-2.036-1.674-3.143-2.584a108.817,108.817,0,0,0-16.762-10.735c-6.646-3.559-14.314-6.988-22.453-11.965-8.1-4.972-16.826-11.437-24.54-21.578-7.658-9.867-14.5-22.878-19.151-37.851-4.888-14.834-8.215-30.993-12.492-46.531a189.083,189.083,0,0,0-7.535-22.511l-2.3-5.282c-.8-1.7-1.679-3.283-2.51-4.932l-1.261-2.459-1.469-2.388-2.882-4.673c-4.1-5.744-8.413-11.2-13.279-15.482A94.852,94.852,0,0,0,95.369,161.49c-10.459-6.365-21.333-11.3-31.316-18.564-2.53-1.682-4.9-3.837-7.3-5.764-1.163-1.071-2.3-2.2-3.434-3.3L51.632,132.2c-.557-.567-1.083-1.234-1.623-1.845q-1.6-1.874-3.187-3.723c-1.046-1.242-1.919-2.608-2.872-3.894l-1.4-1.948-.7-.97-.173-.242-.139-.2-.081-.137-.325-.538q-1.294-2.148-2.571-4.27C31.768,103.029,27.4,90.048,24.056,78.013,20.708,65.921,18.4,54.526,16,44.654A240.475,240.475,0,0,0,8.78,19.747q-.924-2.471-1.743-4.671C6.492,13.6,5.878,12.334,5.36,11.087S4.336,8.714,3.886,7.67,2.933,5.763,2.535,4.942C.882,1.718,0,0,0,0Z" transform="translate(165.04 0)" stroke="rgba(0,0,0,0)" stroke-width="1" fill="url(#linear-gradient)"/>
      <path id="Path_6649" data-name="Path 6649" d="M0,0,2.1,4.925C3.434,8.159,5.292,13.055,7.32,19.5c2,6.467,4.163,14.5,6.555,23.721,1.2,4.607,2.491,9.493,3.928,14.577.714,2.547,1.506,5.108,2.276,7.763.865,2.576,1.665,5.282,2.635,7.914C26.5,84.03,31.464,94.951,38.23,104.053a73.115,73.115,0,0,0,5.387,6.729q1.4,1.544,2.809,3.109c.99.968,2.021,1.889,3.036,2.845a91.367,91.367,0,0,0,13.133,10.029c9.281,5.9,19.441,10.283,29.495,16.579A91.01,91.01,0,0,1,120,169.979l2.823,4.6,1.376,2.249c.46.745.873,1.652,1.31,2.474l2.588,5.047c.819,1.709,1.525,3.485,2.293,5.226,1.582,3.429,2.77,7.167,4.126,10.752,1.151,3.713,2.422,7.36,3.412,11.124,4.246,14.932,7.188,30.03,11.16,43.818,3.923,13.793,9,26.19,15.264,36.162l1.139,1.9,1.22,1.718q1.257,1.771,2.5,3.522c.841,1.1,1.7,2.075,2.537,3.112.846,1.014,1.652,2.07,2.559,2.967a74.371,74.371,0,0,0,5.292,5.309c1.757,1.7,3.578,3.129,5.355,4.558s3.593,2.63,5.329,3.916c1.784,1.149,3.51,2.317,5.223,3.38,3.422,2.136,6.709,4.048,9.811,5.834,6.2,3.561,11.61,6.768,15.963,9.745a96.5,96.5,0,0,1,9.806,7.76l3.317,3.121-3.434-2.818a108.115,108.115,0,0,0-10.026-6.912c-4.412-2.674-9.87-5.5-16.176-8.645-6.289-3.207-13.487-6.639-20.935-12.087-1.853-1.379-3.759-2.757-5.612-4.426a74.113,74.113,0,0,1-5.6-5.236,38.616,38.616,0,0,1-2.76-3.016c-.9-1.066-1.853-2.112-2.737-3.219q-1.269-1.7-2.552-3.434l-1.332-1.8-1.225-1.943c-6.714-10.18-12.292-23.076-16.42-37.213-4.18-14.115-7.384-29.172-11.513-43.652-.977-3.669-2.207-7.14-3.326-10.716-1.308-3.4-2.449-6.983-3.96-10.207-.728-1.633-1.413-3.341-2.178-4.918l-2.376-4.6c-.411-.763-.755-1.55-1.217-2.3L119.64,178.9l-2.7-4.375a86.844,86.844,0,0,0-26.483-25.471c-9.743-6.145-19.877-10.9-29.377-17.112a90.034,90.034,0,0,1-13.521-10.752c-1.049-1.039-2.1-2.034-3.129-3.092l-2.962-3.441a78.45,78.45,0,0,1-5.407-7.074c-7.047-9.87-11.9-21.421-15.553-32.45-3.666-11.065-5.976-21.763-8.135-31.1C10.253,34.662,8.352,26.552,6.553,20,4.7,13.48,3.124,8.445,1.9,5.1S0,0,0,0Z" transform="translate(181.079 0)" stroke="rgba(0,0,0,0)" stroke-width="1" fill="url(#linear-gradient)"/>
      <path id="Path_6650" data-name="Path 6650" d="M0,0S.57,1.708,1.642,4.908c1.029,3.226,2.527,8,4.185,14.206,1.691,6.186,3.586,13.8,5.954,22.36a225.417,225.417,0,0,0,9.315,27.6A120.811,120.811,0,0,0,28.177,83.05c.64,1.176,1.408,2.2,2.1,3.327l1.075,1.667.5.763.6.794c1.611,2.063,3.192,4.387,4.9,6.326a82.416,82.416,0,0,0,11.045,10.708l3.021,2.381q1.562,1.082,3.143,2.17c2.085,1.511,4.29,2.769,6.482,4.114,8.826,5.248,18.4,9.462,27.813,15.54A91.7,91.7,0,0,1,115,156.446l2.591,4.224c.853,1.44,1.75,2.73,2.54,4.387,1.613,3.17,3.319,6.279,4.646,9.62a175.471,175.471,0,0,1,7.318,20.414c4.1,13.983,6.929,28.214,10.464,41.325,3.505,13.113,7.694,25.239,13.077,35.275,1.315,2.537,2.816,4.783,4.182,7.144l.523.875.535.772,1.144,1.63c.77,1.051,1.5,2.236,2.273,3.168a87.992,87.992,0,0,0,9.376,10.481A113.16,113.16,0,0,0,192.246,309.6c5.764,3.525,10.882,6.338,15.049,8.855,4.177,2.459,7.384,4.683,9.557,6.218,2.156,1.591,3.3,2.442,3.3,2.442s-1.183-.741-3.4-2.122c-2.224-1.352-5.529-3.17-9.76-5.368-4.229-2.217-9.423-4.659-15.33-7.79a98.257,98.257,0,0,1-19.292-12.928c-1.665-1.515-3.383-3.031-5.03-4.82-1.7-1.657-3.322-3.649-5-5.627-.86-.973-1.572-2.058-2.368-3.1l-1.173-1.591-.621-.858-.56-.887c-1.469-2.4-3.077-4.7-4.493-7.3-5.8-10.278-10.422-22.822-14.106-36.177-3.713-13.363-6.776-27.407-10.755-40.951a167.6,167.6,0,0,0-7.059-19.473c-1.288-3.2-2.847-5.971-4.322-8.88a47.939,47.939,0,0,0-2.483-4.248l-2.6-4.211-2.684-3.644a40.4,40.4,0,0,0-2.813-3.632,76.461,76.461,0,0,0-6.035-6.494,89.056,89.056,0,0,0-13.106-10.491c-9.112-5.922-18.567-10.464-27.561-15.983A92.578,92.578,0,0,1,35.221,99.517c-1.755-2.117-3.236-4.414-4.835-6.563L29.8,92.14c-.289-.425-.394-.631-.6-.956l-1.1-1.777c-.711-1.2-1.474-2.315-2.114-3.566a128.408,128.408,0,0,1-7-14.851,211.361,211.361,0,0,1-8.7-28.664C8.178,33.547,6.531,25.836,5.04,19.551s-2.7-11.19-3.612-14.5C.5,1.757,0,0,0,0Z" transform="translate(195.324 0)" stroke="rgba(0,0,0,0)" stroke-width="1" fill="url(#linear-gradient)"/>
      <path id="Path_6651" data-name="Path 6651" d="M0,0S.469,1.65,1.352,4.739C2.207,7.846,3.481,12.4,5,18.239,6.546,24.061,8.406,31.142,10.886,39c1.281,3.891,2.65,8.027,4.336,12.167a128.346,128.346,0,0,0,5.688,12.6A98.486,98.486,0,0,0,28.29,75.876q2.189,2.874,4.448,5.837,2.343,2.581,4.759,5.238c6.707,6.8,14.58,12.013,22.961,16.684,8.369,4.732,17.366,8.731,26.146,14.756A90,90,0,0,1,111.032,142.8c1.611,2.686,3.268,5.2,4.83,8.034l2.286,4.456,1.139,2.227,1,2.312,1.987,4.622c.675,1.53,1.193,3.177,1.8,4.754.569,1.6,1.2,3.17,1.713,4.8l1.54,4.886c4.062,13.038,6.746,26.412,9.936,38.846,3.141,12.453,6.653,24.147,11.226,34.114q1.811,3.622,3.571,7.147,1.954,3.289,3.847,6.475c.545,1,1.344,2.016,1.994,3.011.684.987,1.354,2.014,2.048,2.87q1.027,1.342,2.041,2.659,1.063,1.254,2.107,2.478a82.916,82.916,0,0,0,8.477,8.455,98.563,98.563,0,0,0,8.188,6.441c5.284,3.686,10.051,6.458,13.969,8.755,3.93,2.254,7,4.148,9.085,5.419l3.19,2.009s-1.139-.584-3.273-1.682c-2.146-1.056-5.289-2.6-9.291-4.571-3.994-2-8.86-4.417-14.333-7.741a82.681,82.681,0,0,1-17.5-14.12q-1.111-1.21-2.244-2.449c-.736-.89-1.479-1.792-2.224-2.7-.775-.9-1.449-1.86-2.161-2.816-.709-1.007-1.418-1.816-2.144-3.009q-2.042-3.234-4.143-6.575-1.9-3.6-3.857-7.313c-4.96-10.21-8.848-22.235-12.138-34.825-3.336-12.578-6.255-25.74-10.173-38.291l-1.5-4.69c-.5-1.564-1.1-3.043-1.655-4.571-.579-1.5-1.08-3.08-1.726-4.519l-1.9-4.363-.953-2.18-1.051-2.029-2.092-4.062c-1.486-2.684-3.221-5.28-4.815-7.932l-2.513-3.415c-.88-1.141-1.679-2.422-2.62-3.451L99.927,137.1l-1.386-1.586L97.073,134.1l-2.935-2.821c-.97-.958-2.033-1.7-3.043-2.566-1.029-.814-2.024-1.709-3.075-2.456l-3.158-2.229c-8.445-5.834-17.305-10.163-25.77-15.122A99.659,99.659,0,0,1,35.656,90.874q-2.526-2.937-4.976-5.8-2.2-3.069-4.334-6.04A105.339,105.339,0,0,1,18.926,65.95,154.8,154.8,0,0,1,9.42,39.958C7.183,31.831,5.56,24.6,4.211,18.664,2.884,12.72,1.843,8.049,1.132,4.862Z" transform="translate(208.476 0)" stroke="rgba(0,0,0,0)" stroke-width="1" fill="url(#linear-gradient)"/>
      <path id="Path_6652" data-name="Path 6652" d="M0,0S.425,1.554,1.217,4.466c.809,2.9,1.995,7.159,3.5,12.573,1.591,5.348,3.49,11.881,6.248,18.874,1.283,3.581,2.957,7.1,4.654,10.845.89,1.833,1.9,3.6,2.874,5.473.5.917.97,1.894,1.518,2.791q.84,1.316,1.7,2.659c.569.9,1.149,1.8,1.73,2.716l.838,1.315L25.271,63c1.325,1.713,2.662,3.515,4.045,5.245L33.655,73C35.177,74.52,36.8,75.94,38.4,77.448c6.565,5.72,14.052,10.214,21.969,14.433,7.91,4.255,16.313,8.252,24.491,14.049a88.371,88.371,0,0,1,22.673,23.127l2.344,3.82c.753,1.256,1.528,2.442,2.266,3.754,1.4,2.8,2.916,5.522,4.206,8.379a163.138,163.138,0,0,1,6.751,17.735c3.911,12.145,6.595,24.638,9.459,36.385,2.838,11.769,5.869,22.885,9.713,32.643,1.017,2.378,1.968,4.786,3,7.059q1.642,3.307,3.236,6.507c1.149,2.034,2.332,3.967,3.463,5.905l.851,1.44.9,1.271c.623.882,1.247,1.757,1.858,2.623l1.823,2.564c.608.819,1.251,1.5,1.867,2.241,1.251,1.432,2.427,2.916,3.656,4.233a90.633,90.633,0,0,0,7.3,6.915,109.727,109.727,0,0,0,12.7,9.288c7.264,4.544,11.468,7.013,11.468,7.013s-1.073-.516-3.087-1.479-4.971-2.373-8.692-4.37a104.521,104.521,0,0,1-13.155-8.342,87.053,87.053,0,0,1-7.709-6.465c-1.325-1.247-2.6-2.752-3.947-4.177-.658-.738-1.371-1.44-2.009-2.234q-.931-1.217-1.889-2.461t-1.926-2.51l-1.022-1.339-.921-1.44c-1.227-1.938-2.508-3.879-3.757-5.927q-1.727-3.256-3.512-6.621c-1.12-2.317-2.156-4.774-3.261-7.213a233.254,233.254,0,0,1-10.52-33.156c-3-11.808-5.888-23.993-9.652-35.664a154.629,154.629,0,0,0-6.5-16.853c-1.22-2.672-2.6-5.1-3.879-7.672-1.44-2.437-3.1-5.038-4.48-7.306a84.239,84.239,0,0,0-21.422-22.079c-7.851-5.6-16.056-9.894-24-14.345A112.774,112.774,0,0,1,36.739,81.542C35.1,79.9,33.447,78.367,31.88,76.7q-2.284-2.68-4.5-5.277c-1.359-1.833-2.632-3.693-3.916-5.487l-.953-1.344-.919-1.537q-.869-1.47-1.721-2.911T18.19,57.29c-.54-.958-1-2-1.493-2.972-.951-1.99-1.951-3.862-2.787-5.822-1.606-3.989-3.18-7.712-4.353-11.454C7.015,29.712,5.343,22.988,3.94,17.5,2.593,11.969,1.65,7.575,1,4.588Z" transform="translate(221.086 0)" stroke="rgba(0,0,0,0)" stroke-width="1" fill="url(#linear-gradient)"/>
      <path id="Path_6653" data-name="Path 6653" d="M0,0S.423,1.43,1.215,4.114c.386,1.349.887,3,1.511,4.9s1.293,4.128,2.143,6.543a152.2,152.2,0,0,0,6.758,16.794q1.129,2.269,2.332,4.681,1.309,2.277,2.689,4.686c.9,1.618,1.982,3.085,2.994,4.7.516.75,1.041,1.687,1.567,2.31q.869,1.133,1.76,2.293t1.8,2.342l.912,1.188.965,1.041q1.932,2.093,3.931,4.265,2.13,1.954,4.329,3.974c1.464,1.339,3.06,2.447,4.617,3.708,6.34,4.776,13.426,8.616,20.842,12.524,7.406,3.925,15.23,7.812,22.8,13.407,1.885,1.42,3.737,2.982,5.617,4.478q2.706,2.566,5.426,5.145c1.711,1.941,3.446,3.855,5.145,5.837l4.874,6.595,4.241,6.929c1.347,2.542,2.667,5.17,3.991,7.751q1.731,4.04,3.461,8.061c1.007,2.794,2.058,5.548,3.011,8.347,3.774,11.253,6.384,22.88,9.026,33.882,2.633,11.019,5.219,21.546,8.433,30.968.848,2.312,1.591,4.681,2.493,6.861s1.8,4.316,2.677,6.426q1.477,3,2.9,5.9l.709,1.445.785,1.33,1.547,2.623q.763,1.305,1.513,2.574c.418.785,1.066,1.584,1.577,2.359,1.1,1.525,2.119,3.17,3.195,4.495q1.606,2.035,3.129,3.962l3.151,3.468a88.162,88.162,0,0,0,11.3,10.041c1.625,1.266,3.114,2.283,4.4,3.19,1.286.926,2.393,1.672,3.3,2.244l2.769,1.806s-.992-.516-2.857-1.481c-.934-.469-2.078-1.085-3.412-1.862-1.342-.741-2.882-1.623-4.561-2.764a83.5,83.5,0,0,1-11.837-9.181q-1.628-1.584-3.356-3.27-1.665-1.866-3.419-3.845c-1.193-1.3-2.21-2.838-3.363-4.3-.567-.792-1.127-1.4-1.716-2.366-.54-.843-1.09-1.7-1.64-2.559L144,235.93l-.851-1.332-.777-1.447q-1.562-2.915-3.183-5.937l-2.931-6.533c-.98-2.224-1.8-4.627-2.725-6.991a309.058,309.058,0,0,1-9.154-31.259c-2.755-10.989-5.563-22.257-9.181-33.044-.929-2.674-1.941-5.284-2.911-7.946q-1.65-3.791-3.312-7.606-1.833-3.534-3.674-7.081l-4.265-6.9L96.6,113.808q-2.42-2.775-4.83-5.548-2.57-2.467-5.121-4.92c-1.792-1.44-3.549-2.945-5.348-4.324-7.257-5.39-14.844-9.552-22.24-13.646a141.233,141.233,0,0,1-21.038-13.6c-1.589-1.379-3.209-2.593-4.705-4.053s-2.953-2.926-4.395-4.353q-2.053-2.427-4.033-4.774l-.983-1.166-.877-1.244c-.584-.824-1.159-1.64-1.731-2.449A101.291,101.291,0,0,1,10.293,33.677,161.714,161.714,0,0,1,4.111,16.09c-.767-2.5-1.359-4.783-1.86-6.778C1.726,7.328,1.313,5.631.995,4.241.347,1.476,0,0,0,0Z" transform="translate(233.642 0)" stroke="rgba(0,0,0,0)" stroke-width="1" fill="url(#linear-gradient)"/>
      <path id="Path_6654" data-name="Path 6654" d="M0,0S.452,1.281,1.3,3.688,3.5,9.52,5.282,13.8a121.407,121.407,0,0,0,7.357,14.428c.789,1.291,1.582,2.647,2.488,3.923q.664.975,1.344,1.98l.342.5.086.127c-.037-.049.044.054.059.073l.188.24.753.958q1.507,1.947,3.092,3.989l.795,1.031.843.912q.847.913,1.711,1.845a85.272,85.272,0,0,0,7.491,7.2q2.057,1.6,4.187,3.248c1.4,1.132,2.931,2.016,4.419,3.06C46.474,61.3,53.108,64.643,60,68.277s14.1,7.455,21.052,12.862a88.578,88.578,0,0,1,10.129,9.173c1.574,1.819,3.219,3.525,4.739,5.456l4.519,6.113,3.928,6.421c1.283,2.227,2.479,4.749,3.713,7.11a149.635,149.635,0,0,1,6.184,15.066c3.647,10.324,6.206,21.057,8.66,31.284s4.7,20.092,7.374,29.064c.7,2.212,1.3,4.483,2.058,6.568q1.111,3.157,2.185,6.221c1.62,3.906,3.085,7.8,4.861,11.16.421.863.841,1.718,1.254,2.564l.619,1.259.682,1.161q1.353,2.317,2.645,4.524c.821,1.523,1.738,2.791,2.637,4.158.875,1.371,1.775,2.53,2.64,3.7a88.979,88.979,0,0,0,9.7,10.926c2.882,2.652,5.2,4.651,6.809,5.917l2.481,1.933s-.9-.565-2.584-1.616a79.063,79.063,0,0,1-7.137-5.16,83.89,83.89,0,0,1-10.322-10.185c-.941-1.122-1.941-2.263-2.857-3.529-.917-1.234-1.958-2.51-2.869-3.991a94.051,94.051,0,0,1-5.676-9.42c-1.943-3.358-3.576-7.267-5.378-11.214q-1.191-3.1-2.417-6.3c-.836-2.126-1.5-4.409-2.268-6.656-2.945-9.085-5.482-18.989-8.02-29.14s-5.289-20.473-8.779-30.335a141.632,141.632,0,0,0-5.915-14.218c-1.161-2.17-2.2-4.392-3.449-6.543l-3.952-6.387-4.1-5.595c-1.422-1.836-2.972-3.449-4.446-5.187a85.442,85.442,0,0,0-9.584-8.8A152.287,152.287,0,0,0,58.7,73.581a197.369,197.369,0,0,1-19.61-11.916c-1.516-1.149-3.051-2.131-4.48-3.371q-2.156-1.826-4.241-3.591A93.285,93.285,0,0,1,22.8,46.69a81.664,81.664,0,0,1-6.3-8.376l-.711-1.029-.176-.254-.12-.176-.083-.139-.33-.547q-.656-1.093-1.293-2.158c-.87-1.388-1.625-2.852-2.376-4.246A131.185,131.185,0,0,1,4.558,14.441C2.916,9.977,1.818,6.318,1.088,3.835.379,1.335,0,0,0,0Z" transform="translate(246.609 0)" stroke="rgba(0,0,0,0)" stroke-width="1" fill="url(#linear-gradient)"/>
      <path id="Path_6655" data-name="Path 6655" d="M0,0,1.462,3.141c.914,2.095,2.447,4.947,4.378,8.547a93.666,93.666,0,0,0,7.814,11.833,65.058,65.058,0,0,0,5.385,6.372q1.456,1.544,2.987,3.168l3.309,2.992A94.148,94.148,0,0,0,40.728,46.927c5.659,3.3,11.789,6.269,18.122,9.642A115.788,115.788,0,0,1,78.062,68.9l2.373,1.919,2.3,2.173a52.6,52.6,0,0,1,4.517,4.576l2.19,2.469a25.453,25.453,0,0,1,2.126,2.588l4.151,5.614,3.6,5.891a32.3,32.3,0,0,1,1.74,3.148l1.689,3.3c1.178,2.166,2.119,4.473,3.1,6.749l1.459,3.412,1.293,3.527a253.856,253.856,0,0,1,8.3,28.546c2.273,9.408,4.273,18.515,6.494,26.921a193.755,193.755,0,0,0,7.316,22.871c.684,1.677,1.359,3.319,2.012,4.923q1.1,2.288,2.151,4.468a84.606,84.606,0,0,0,4.263,7.956,77.182,77.182,0,0,0,4.153,6.533c1.325,2,2.667,3.537,3.82,5.091,2.422,2.872,4.348,5.155,5.749,6.5l2.114,2.173s-.78-.653-2.239-1.877a67.377,67.377,0,0,1-6.145-5.812,85.824,85.824,0,0,1-8.626-10.972,81.436,81.436,0,0,1-4.737-7.7c-.782-1.423-1.591-2.889-2.383-4.419q-1.092-2.405-2.239-4.913c-.381-.841-.763-1.687-1.151-2.544l-1.051-2.7c-.694-1.826-1.459-3.654-2.131-5.583-1.323-3.881-2.664-7.917-3.862-12.163-2.469-8.45-4.732-17.523-7.078-26.789a272.179,272.179,0,0,0-8.386-27.507l-1.246-3.356-1.4-3.217c-.936-2.148-1.848-4.348-2.926-6.284l-1.552-3a28.178,28.178,0,0,0-1.662-2.977l-3.625-5.856-3.757-5.123a23.046,23.046,0,0,0-1.995-2.461L84.72,82.639a49.5,49.5,0,0,0-4.253-4.373L78.3,76.182l-2.259-1.853A126.5,126.5,0,0,0,57.53,61.866C51.292,58.38,45.189,55.01,39.5,51.346c-2.857-1.777-5.575-3.769-8.186-5.737-1.3-1-2.527-2.136-3.757-3.168L25.74,40.877q-.869-.862-1.714-1.706-1.69-1.7-3.3-3.327c-1.041-1.181-2.031-2.4-3-3.566a73.02,73.02,0,0,1-5.152-7,102.686,102.686,0,0,1-7.4-12.827C3.361,8.626,2.058,5.512,1.264,3.324.44,1.156,0,0,0,0Z" transform="translate(260.514 0)" stroke="rgba(0,0,0,0)" stroke-width="1" fill="url(#linear-gradient)"/>
      <path id="Path_6656" data-name="Path 6656" d="M0,0,1.589,2.51c.514.824,1.149,1.841,1.956,2.94.394.557.817,1.161,1.269,1.8A22.978,22.978,0,0,0,6.284,9.21q1.624,2.024,3.581,4.468c1.322,1.584,2.843,3.041,4.4,4.732a93.3,93.3,0,0,0,11.309,9.557,144.534,144.534,0,0,0,14.348,8.552c5.187,2.777,10.755,5.372,16.457,8.6A104.922,104.922,0,0,1,73.608,56.775,97.112,97.112,0,0,1,89.329,74.49l3.314,5.424a64.7,64.7,0,0,1,3.116,5.734,132.953,132.953,0,0,1,5.5,12.2,222.625,222.625,0,0,1,7.848,25.594c2.171,8.472,3.921,16.745,5.788,24.452,1.8,7.743,3.789,14.837,5.754,21.314a166.955,166.955,0,0,0,6.436,16.816c1.142,2.329,2.136,4.61,3.195,6.558q1.628,2.882,2.982,5.282c.873,1.64,1.8,2.877,2.544,4.1.743,1.2,1.423,2.139,1.973,2.9,1.1,1.537,1.689,2.359,1.689,2.359l-1.843-2.1c-.606-.682-1.356-1.525-2.173-2.6s-1.841-2.222-2.808-3.767c-1-1.5-2.109-3.158-3.319-4.964-1.2-1.831-2.3-4.06-3.578-6.316q-.469-.862-.956-1.748l-.887-1.906q-.9-1.936-1.858-3.984c-.67-1.337-1.21-2.833-1.8-4.334s-1.2-3.048-1.811-4.622c-2.261-6.438-4.561-13.566-6.56-21.287-2.009-7.663-4.126-15.741-6.318-24.1a239.623,239.623,0,0,0-7.9-24.518c-1.65-3.862-3.27-7.89-5.209-11.383a57.871,57.871,0,0,0-2.962-5.377l-3.2-5.179a93.108,93.108,0,0,0-14.766-16.9A115.548,115.548,0,0,0,55,50.381l-16.22-9.388a124.688,124.688,0,0,1-14.326-9.748q-1.587-1.371-3.109-2.686a33.288,33.288,0,0,1-2.919-2.681q-1.375-1.415-2.679-2.757Q15.1,22.453,14.47,21.8c-.4-.484-.8-.958-1.185-1.427-1.525-1.914-3.038-3.569-4.26-5.331q-1.808-2.673-3.317-4.9C4.681,8.728,3.879,7.157,3.16,5.959,2.427,4.734,1.867,3.632,1.41,2.735.489.951,0,0,0,0Z" transform="translate(276.015 0)" stroke="rgba(0,0,0,0)" stroke-width="1" fill="url(#linear-gradient)"/>
      <path id="Path_6657" data-name="Path 6657" d="M0,0,1.657,1.748c.542.57,1.21,1.273,1.994,2.1.394.411.814.855,1.264,1.327.467.423.965.875,1.491,1.349,1.046.943,2.207,1.987,3.468,3.124l4.241,3.292c1.517,1.156,3.2,2.183,4.937,3.373,1.752,1.144,3.639,2.2,5.58,3.385,3.943,2.185,8.252,4.383,12.854,6.69s9.484,4.717,14.448,7.719A90.311,90.311,0,0,1,66.852,45.023L70.458,48.5c1.193,1.193,2.3,2.576,3.463,3.862l1.725,1.965c.553.694,1.078,1.442,1.62,2.161l3.29,4.463,2.85,4.651c.472.785.953,1.528,1.418,2.346l1.347,2.6c.877,1.743,1.828,3.437,2.635,5.211q1.173,2.687,2.339,5.355A181.17,181.17,0,0,1,98.5,103.276c2.017,7.379,3.647,14.646,5.194,21.473s3.033,13.236,4.5,19.1c.8,2.882,1.508,5.69,2.278,8.291.8,2.571,1.491,5.082,2.268,7.335s1.532,4.356,2.217,6.3c.765,1.88,1.472,3.608,2.107,5.167q.48,1.173.909,2.219c.315.665.613,1.288.89,1.867.552,1.163,1.027,2.151,1.408,2.955.768,1.606,1.176,2.466,1.176,2.466s-.472-.782-1.359-2.244c-.443-.738-.992-1.643-1.635-2.711l-1.039-1.726q-.5-.986-1.056-2.095c-.743-1.484-1.569-3.129-2.466-4.918-.8-1.884-1.674-3.925-2.605-6.106-.911-2.2-1.745-4.649-2.7-7.181-.926-2.554-1.745-5.341-2.684-8.2-.855-2.9-1.757-5.927-2.635-9.078q-1.265-4.748-2.61-9.8c-1.757-6.736-3.61-13.783-5.673-20.923A195.341,195.341,0,0,0,87.6,84.4q-1.119-2.515-2.249-5.045c-.765-1.662-1.635-3.163-2.447-4.759l-1.239-2.366c-.447-.78-.946-1.54-1.42-2.312L77.37,65.3,74.417,61.25c-.506-.684-.995-1.4-1.513-2.058l-1.616-1.875c-1.088-1.225-2.124-2.547-3.246-3.688q-1.7-1.676-3.4-3.341A100.693,100.693,0,0,0,50.466,39.313c-4.805-3.065-9.545-5.825-14.081-8.43q-3.4-2-6.6-3.877c-2.119-1.308-4.158-2.647-6.111-3.916-1.924-1.4-3.8-2.61-5.519-3.987-1.7-1.423-3.351-2.659-4.832-4.016q-2.2-2.071-4.109-3.867C8.01,9.882,6.9,8.655,5.9,7.545Q5.15,6.713,4.485,5.976c-.411-.548-.794-1.058-1.156-1.533-.714-.956-1.322-1.767-1.814-2.425C.526.7,0,0,0,0Z" transform="translate(294.034 0)" stroke="rgba(0,0,0,0)" stroke-width="1" fill="url(#linear-gradient)"/>
      <path id="Path_6658" data-name="Path 6658" d="M0,0,1.533.992c1,.631,2.459,1.64,4.348,2.716,1.862,1.151,4.182,2.371,6.827,3.813,2.667,1.359,5.685,2.833,8.99,4.431S28.61,15.2,32.4,17.2A106.569,106.569,0,0,1,44.2,24.09a80.28,80.28,0,0,1,12.018,9.782A96.153,96.153,0,0,1,67.268,47.21l2.412,3.881L70.856,53l1.137,2.1c.746,1.405,1.528,2.784,2.234,4.207q1.012,2.163,2.019,4.312a146.99,146.99,0,0,1,6.587,17.858c1.86,5.971,3.334,11.911,4.644,17.542,1.342,5.627,2.461,10.977,3.527,15.9s2.07,9.4,2.982,13.36c.968,3.925,1.789,7.372,2.566,10.151.724,2.816,1.4,4.962,1.823,6.453s.667,2.28.667,2.28-.306-.736-.875-2.117c-.55-1.4-1.464-3.373-2.393-6.069-1-2.654-2.112-5.944-3.324-9.774-.582-1.926-1.2-3.979-1.853-6.142-.613-2.183-1.256-4.48-1.929-6.876l-4.214-15.46c-1.5-5.458-3.178-11.119-5.064-16.816a162.216,162.216,0,0,0-6.607-16.8q-.96-2.016-1.936-4.048c-.667-1.313-1.388-2.544-2.08-3.825L67.725,57.32l-1.186-1.88L64.21,51.757A92.519,92.519,0,0,0,53.883,39.007a91.927,91.927,0,0,0-11.309-9.814c-3.835-2.806-7.646-5.306-11.322-7.528s-7.181-4.321-10.4-6.26q-2.416-1.5-4.627-2.865-2.182-1.456-4.133-2.752C9.51,7.99,7.294,6.333,5.5,4.849,3.681,3.466,2.366,2.117,1.423,1.3.494.452,0,0,0,0Z" transform="translate(316.438 0)" stroke="rgba(0,0,0,0)" stroke-width="1" fill="url(#linear-gradient)"/>
      <path id="Path_6659" data-name="Path 6659" d="M0,0S1.565.557,4.277,1.625c1.354.54,3,1.2,4.874,2.041.936.416,1.936.853,2.989,1.317l3.282,1.64a81.177,81.177,0,0,1,7.32,4.123c1.308.721,2.569,1.76,3.906,2.662a38.085,38.085,0,0,1,4,3.072q1.983,1.741,4.023,3.534c1.349,1.229,2.613,2.708,3.92,4.119l1.96,2.148c.633.76,1.225,1.6,1.843,2.4q1.866,2.489,3.745,5,1.6,2.654,3.192,5.3c.525.895,1.068,1.733,1.576,2.667l1.474,2.95c.961,1.968,1.985,3.884,2.814,5.9q1.206,3.028,2.378,5.979c.819,1.931,1.423,3.979,2.068,5.942.609,1.987,1.305,3.864,1.792,5.805,1.053,3.83,2.051,7.45,2.774,10.874q.576,2.552,1.1,4.881.466,2.346.885,4.444c.562,2.784,1.009,5.228,1.371,7.242.719,4.031,1.093,6.355,1.093,6.355s-.716-2.139-1.9-5.918c-.587-1.889-1.3-4.185-2.114-6.819-.792-2.645-1.733-5.59-2.74-8.794-.97-3.241-2.2-6.595-3.392-10.21-.57-1.831-1.342-3.551-2.024-5.392-.741-1.794-1.34-3.759-2.2-5.529q-1.206-2.72-2.447-5.526c-.388-.97-.9-1.762-1.344-2.652S49.6,49.41,49.141,48.52l-1.366-2.679c-.494-.882-1.063-1.738-1.594-2.61Q44.565,40.621,42.936,38q-1.672-2.284-3.339-4.563c-.574-.77-1.122-1.579-1.713-2.31l-1.828-2.068c-1.234-1.337-2.383-2.818-3.62-4.084q-1.884-1.841-3.72-3.635c-1.193-1.266-2.513-2.166-3.72-3.263-1.239-1.017-2.4-2.161-3.627-3.009-2.434-1.767-4.693-3.6-6.873-5.038-2.158-1.5-4.14-2.9-5.922-4.072C6.8,4.749,5.255,3.693,3.984,2.823,1.44,1.061,0,0,0,0Z" transform="translate(346.82 0)" stroke="rgba(0,0,0,0)" stroke-width="1" fill="url(#linear-gradient)"/>
      <path id="Path_6660" data-name="Path 6660" d="M0,0S.811.32,2.193,1c.687.342,1.532.741,2.471,1.269.472.264.98.513,1.506.836.521.345,1.056.753,1.623,1.156,1.132.814,2.368,1.7,3.647,2.733,1.266,1.046,2.52,2.322,3.833,3.622l1.987,2.021c.667.694,1.264,1.54,1.9,2.334.628.811,1.256,1.63,1.892,2.452L23,20.038c1.093,1.814,2.193,3.622,3.241,5.443.523.924,1.068,1.757,1.54,2.762s.931,2.007,1.386,2.989c.89,1.977,1.772,3.879,2.474,5.756.684,1.887,1.281,3.71,1.826,5.387q.4,1.258.775,2.4c.218.787.391,1.557.572,2.263.357,1.415.63,2.674.86,3.7.457,2.058.667,3.256.667,3.256s-.552-.956-1.435-2.669c-.435-.858-.975-1.887-1.547-3.1S32.1,45.7,31.337,44.285s-1.569-2.953-2.378-4.615c-.843-1.618-1.85-3.138-2.774-4.847-.467-.843-.941-1.7-1.422-2.571s-1.093-1.7-1.628-2.576c-1.122-1.726-2.227-3.525-3.336-5.314l-1.679-2.285q-.865-1.214-1.718-2.415c-.579-.782-1.1-1.65-1.694-2.376l-1.757-2.153c-1.163-1.388-2.214-2.921-3.3-4.167-1.11-1.19-2.131-2.4-3.082-3.517S4.734,5.272,3.894,4.431c-.824-.853-1.523-1.66-2.1-2.307C.636.814,0,0,0,0Z" transform="translate(379.14 0)" stroke="rgba(0,0,0,0)" stroke-width="1" fill="url(#linear-gradient)"/>
      <path id="Path_6661" data-name="Path 6661" d="M0,0A5.028,5.028,0,0,1,.85.22a11.588,11.588,0,0,1,2.036.936A10.675,10.675,0,0,1,5.438,3.173,27.771,27.771,0,0,1,8.031,6.284c.457.743.76,1.232,1.11,1.892.345.611.653,1.251.946,1.882a22.591,22.591,0,0,1,1.379,3.828,28.272,28.272,0,0,1,.653,3.077c.12.775.144,1.254.144,1.254a6.24,6.24,0,0,1-.814-.45,14.472,14.472,0,0,1-1.867-1.418c-.352-.323-.719-.684-1.093-1.085s-.8-.824-1.2-1.3S6.474,13,6.083,12.448c-.381-.5-.824-1.185-1.112-1.618A28.613,28.613,0,0,1,2.916,7.448C2.334,6.262,1.747,5.086,1.288,4.006A27.038,27.038,0,0,1,.3,1.2C.09.472,0,0,0,0Z" transform="translate(403.218 0)" stroke="rgba(0,0,0,0)" stroke-width="1" fill="url(#linear-gradient)"/>
    </g>
  </g>
</svg>
