<svg xmlns="http://www.w3.org/2000/svg" width="56.199" height="56.2" viewBox="0 0 56.199 56.2">
  <g id="earth-grid-symbol" transform="translate(0.1 0.1)">
    <path id="Path_6168" data-name="Path 6168" d="M50.854,11.855c-.426-.6-.871-1.189-1.344-1.754A27.947,27.947,0,0,0,28,0h-.068c-.031,0-.063,0-.1,0A27.957,27.957,0,0,0,6.489,10.1q-.706.85-1.344,1.754a27.9,27.9,0,0,0,0,32.289c.426.6.873,1.189,1.344,1.754A27.954,27.954,0,0,0,27.836,56c.033,0,.065,0,.1,0H28A27.948,27.948,0,0,0,49.509,45.9c.471-.565.918-1.153,1.344-1.755a27.9,27.9,0,0,0,0-32.289ZM19.815,3.642a26.193,26.193,0,0,0-6.186,10.466,26.706,26.706,0,0,1-5.284-2.63A25.772,25.772,0,0,1,19.815,3.642ZM7,13.235a29.491,29.491,0,0,0,5.979,3.017,44.627,44.627,0,0,0-1.532,11.512H2.3A25.554,25.554,0,0,1,7,13.235ZM2.388,30.061h9.1a44.136,44.136,0,0,0,1.485,9.689A29.324,29.324,0,0,0,7,42.767,25.528,25.528,0,0,1,2.388,30.061ZM8.352,44.517a26.865,26.865,0,0,1,5.275-2.625,26.17,26.17,0,0,0,6.188,10.465A25.764,25.764,0,0,1,8.352,44.517Zm18.5,9.1c-4.715-.646-8.783-5.481-11.09-12.445a42.464,42.464,0,0,1,11.09-1.7Zm0-16.439A43.753,43.753,0,0,0,15.117,39.02a42.6,42.6,0,0,1-1.328-8.958H26.851Zm0-9.418H13.74a43.368,43.368,0,0,1,1.387-10.78A43.76,43.76,0,0,0,26.85,18.819v8.944Zm0-11.24a42.405,42.405,0,0,1-11.083-1.7c2.306-6.96,6.371-11.8,11.083-12.447Zm26.843,11.24H44.422A44.6,44.6,0,0,0,42.9,16.3,29.472,29.472,0,0,0,49,13.236,25.557,25.557,0,0,1,53.694,27.763ZM47.652,11.481a26.817,26.817,0,0,1-5.4,2.671A26.122,26.122,0,0,0,35.978,3.573,25.772,25.772,0,0,1,47.652,11.481ZM29.149,2.4c4.663.72,8.679,5.551,10.96,12.464a42.475,42.475,0,0,1-10.96,1.662Zm0,16.423a43.832,43.832,0,0,0,11.6-1.8,43.266,43.266,0,0,1,1.377,10.742H29.149Zm0,11.241H42.077a42.773,42.773,0,0,1-1.319,8.921,43.836,43.836,0,0,0-11.607-1.8l0-7.12Zm0,23.542V39.477A42.544,42.544,0,0,1,40.116,41.14C37.831,48.055,33.81,52.882,29.149,53.6Zm6.829-1.174a26.1,26.1,0,0,0,6.276-10.577,26.847,26.847,0,0,1,5.393,2.666A25.781,25.781,0,0,1,35.978,52.428ZM49,42.767A29.4,29.4,0,0,0,42.9,39.7a44.121,44.121,0,0,0,1.47-9.643h9.237A25.49,25.49,0,0,1,49,42.767Z" fill="#1c1f2a" stroke="#1c1f2a" stroke-width="0.2"/>
  </g>
</svg>
