<svg xmlns="http://www.w3.org/2000/svg" xmlns:xlink="http://www.w3.org/1999/xlink" width="55.633" height="56.2" viewBox="0 0 55.633 56.2">
  <defs>
    <clipPath id="clip-path">
      <rect id="Rectangle_11389" data-name="Rectangle 11389" width="23.8" height="56" transform="translate(0 0)" fill="none" stroke="#1c1f2a" stroke-width="0.2"/>
    </clipPath>
  </defs>
  <g id="icon3" transform="translate(-365.9 -2198.637)">
    <g id="walkie-talkie" transform="translate(366 2198.737)">
      <g id="Group_23288" data-name="Group 23288" transform="translate(0)">
        <g id="Group_23287" data-name="Group 23287" transform="translate(0)">
          <path id="Path_6145" data-name="Path 6145" d="M153.664,16.333H152.5V14.058a2.394,2.394,0,0,0-2.391-2.391h-4.551a2.394,2.394,0,0,0-2.391,2.391v2.275h-3.5V14.058a2.39,2.39,0,0,0-1.167-2.05V3.5a3.5,3.5,0,0,0-7,0v8.507a2.39,2.39,0,0,0-1.167,2.05v2.275A2.336,2.336,0,0,0,128,18.666v35A2.336,2.336,0,0,0,130.33,56h23.333A2.336,2.336,0,0,0,156,53.667v-35A2.336,2.336,0,0,0,153.664,16.333ZM145.5,14.058a.061.061,0,0,1,.058-.058h4.551a.062.062,0,0,1,.058.058v2.275H145.5ZM133.831,3.5a1.166,1.166,0,0,1,2.333,0v8.166h-2.333Zm-1.167,10.558a.061.061,0,0,1,.057-.058h4.551a.061.061,0,0,1,.057.058v2.275h-4.666Zm-2.333,39.609v-35h23.333v35Z" transform="translate(-127.997)" fill="#1c1f2a" stroke="#1c1f2a" stroke-width="0.2"/>
          <path id="Path_6146" data-name="Path 6146" d="M189.328,193.162h0a1.167,1.167,0,0,0-1.167-1.167H171.828a1.167,1.167,0,0,0-1.167,1.167V202.5a1.167,1.167,0,0,0,1.167,1.167h16.334a1.167,1.167,0,0,0,1.167-1.167v-4.662s0,0,0,0,0,0,0,0Zm-2.334,3.5h-7.121a1.167,1.167,0,1,0,0,2.334h7.121v2.333h-14v-7h14Z" transform="translate(-165.995 -170.996)" fill="#1c1f2a" stroke="#1c1f2a" stroke-width="0.2"/>
          <path id="Path_6147" data-name="Path 6147" d="M214.5,237h.028a1.167,1.167,0,0,0,0-2.334H214.5a1.167,1.167,0,0,0,0,2.334Z" transform="translate(-203.996 -208.998)" fill="#1c1f2a" stroke="#1c1f2a" stroke-width="0.2"/>
          <path id="Path_6148" data-name="Path 6148" d="M213.028,322.331a1.167,1.167,0,0,0,0-2.334h-9.372a1.167,1.167,0,1,0,0,2.334Z" transform="translate(-194.341 -284.997)" fill="#1c1f2a" stroke="#1c1f2a" stroke-width="0.2"/>
          <path id="Path_6149" data-name="Path 6149" d="M188.164,362.664H171.83a1.167,1.167,0,1,0,0,2.334h16.334a1.167,1.167,0,0,0,0-2.334Z" transform="translate(-165.996 -322.998)" fill="#1c1f2a" stroke="#1c1f2a" stroke-width="0.2"/>
          <path id="Path_6150" data-name="Path 6150" d="M213.028,447.994h-9.372a1.167,1.167,0,1,0,0,2.334h9.372a1.167,1.167,0,0,0,0-2.334Z" transform="translate(-194.341 -398.995)" fill="#1c1f2a" stroke="#1c1f2a" stroke-width="0.2"/>
          <path id="Path_6151" data-name="Path 6151" d="M320.939,405.324h-.028a1.167,1.167,0,1,0,0,2.334h.028a1.167,1.167,0,1,0,0-2.334Z" transform="translate(-298.772 -360.992)" fill="#1c1f2a" stroke="#1c1f2a" stroke-width="0.2"/>
          <path id="Path_6152" data-name="Path 6152" d="M184.784,405.328H171.83a1.167,1.167,0,1,0,0,2.334h12.954a1.167,1.167,0,0,0,0-2.334Z" transform="translate(-165.996 -360.995)" fill="#1c1f2a" stroke="#1c1f2a" stroke-width="0.2"/>
        </g>
      </g>
    </g>
    <g id="Mask_Group_2" data-name="Mask Group 2" transform="translate(397.733 2198.737)" clip-path="url(#clip-path)">
      <path id="Path_6142" data-name="Path 6142" d="M42,5.142a2.988,2.988,0,0,0-.879-2.128L38.986.879a3.015,3.015,0,0,0-4.256,0L8.2,27.407a2.985,2.985,0,0,0-.876,2.02H7.311a2.7,2.7,0,0,0-1.924.794l-.992.992A2.71,2.71,0,0,0,3.6,33.031a2.7,2.7,0,0,0-1.816.792l-.992.992a2.726,2.726,0,0,0,0,3.847l2.544,2.544a2.726,2.726,0,0,0,3.847,0l.992-.992A2.7,2.7,0,0,0,8.969,38.4a2.7,2.7,0,0,0,1.817-.792l.993-.992a2.712,2.712,0,0,0,.795-1.937,2.986,2.986,0,0,0,2.019-.876l.335-.335,4.208,4.207a2.06,2.06,0,0,0,1.126.579,2.068,2.068,0,0,0,.577,1.125l1.9,1.9a2.084,2.084,0,0,0,2.941,0l2.614-2.614a2.083,2.083,0,0,0,0-2.941l-1.9-1.9a2.062,2.062,0,0,0-1.126-.579,2.066,2.066,0,0,0-.578-1.125l-4.208-4.208L41.121,7.27A2.988,2.988,0,0,0,42,5.142ZM6.939,38.975l-.992.992a.975.975,0,0,1-1.372,0L2.032,37.424a.975.975,0,0,1,0-1.371l.992-.992a.975.975,0,0,1,1.371,0L6.94,37.6a.974.974,0,0,1,0,1.372Zm3.6-3.6-.993.992a.975.975,0,0,1-1.371,0L5.633,33.822a.971.971,0,0,1,0-1.371l.992-.992a.975.975,0,0,1,1.372,0L9.135,32.6l1.2,1.2.008.008.2.2A.971.971,0,0,1,10.542,35.374Zm14.15-.318a.333.333,0,0,1,.466,0l1.9,1.9a.333.333,0,0,1,0,.466l-2.614,2.614a.333.333,0,0,1-.466,0l-1.9-1.9a.334.334,0,0,1,0-.464l0,0,2.377-2.377Zm-1.237-1.7a.334.334,0,0,1,0,.466l-.291.29-2.324,2.324h0a.333.333,0,0,1-.464,0l-4.208-4.208,3.081-3.081ZM39.883,6.032,18.629,27.286h0l-4.318,4.318,0,.005-.949.949a1.265,1.265,0,0,1-1.778,0l-1.222-1.222-.916-.916a1.265,1.265,0,0,1,0-1.781L35.968,2.117a1.265,1.265,0,0,1,1.781,0l2.134,2.134a1.265,1.265,0,0,1,0,1.781Z" transform="translate(-24.098 28) rotate(-45)" fill="#1c1f2a" stroke="#1c1f2a" stroke-width="0.2"/>
      <path id="Path_6143" data-name="Path 6143" d="M.265.262.251.277A.875.875,0,0,0,1.5,1.5l.015-.015A.875.875,0,1,0,.265.262Z" transform="translate(4.352 31.49) rotate(-45)" fill="#1c1f2a" stroke="#1c1f2a" stroke-width="0.2"/>
      <path id="Path_6144" data-name="Path 6144" d="M4.652.256.256,4.651A.875.875,0,1,0,1.494,5.889l4.4-4.395A.875.875,0,1,0,4.652.256Z" transform="translate(1.255 37.123) rotate(-45)" fill="#1c1f2a" stroke="#1c1f2a" stroke-width="0.2"/>
    </g>
  </g>
</svg>
