<svg xmlns="http://www.w3.org/2000/svg" width="57.261" height="56.239" viewBox="0 0 57.261 56.239">
  <g id="icon2" transform="translate(0.1 -4.365)">
    <g id="Group_23269" data-name="Group 23269" transform="translate(0 4.465)">
      <g id="Group_23268" data-name="Group 23268" transform="translate(0 0)">
        <path id="Path_6136" data-name="Path 6136" d="M56.11,4.465H.951A.951.951,0,0,0,0,5.416V43.457a.951.951,0,0,0,.951.951H18.124c.029.317.075.629.131.938l-5.216,6.217a.951.951,0,0,0,.508,1.537l5.742,1.371,2.348,5.421a.951.951,0,0,0,1.6.233l5.208-6.206h.169l5.208,6.206a.951.951,0,0,0,1.6-.233l2.348-5.421L43.515,53.1a.951.951,0,0,0,.508-1.537l-5.216-6.217c.056-.309.1-.621.131-.938H56.11a.951.951,0,0,0,.951-.951V5.416A.951.951,0,0,0,56.11,4.465ZM22.77,57.722l-1.926-4.441a.951.951,0,0,0-.651-.547l-4.708-1.125L18.9,47.54c.018.042.042.08.06.122.124.285.258.556.406.825.061.112.126.223.19.332q.2.326.415.639c.1.146.208.285.318.428.127.162.259.32.4.476s.3.328.457.486c.117.117.238.23.361.341.1.1.195.195.3.285s.208.151.311.231c.047.036.087.078.134.113.086.065.176.121.263.183.137.1.272.2.414.285.27.173.549.331.831.476.108.055.219.106.329.157q.38.179.766.325c.074.028.147.059.222.085a10.235,10.235,0,0,0,1.1.319l.01,0Zm7.546-5.908a8.618,8.618,0,0,1-1.324.174h-.012c-.15.008-.3.018-.452.018s-.3-.01-.452-.018h-.012a8.685,8.685,0,0,1-1.321-.173l-.08-.016c-.169-.037-.337-.083-.5-.13-.069-.02-.14-.038-.208-.06-.119-.037-.236-.081-.353-.123s-.228-.083-.34-.129c-.069-.029-.138-.061-.206-.1-.156-.07-.311-.142-.462-.221L24.516,51a8.612,8.612,0,0,1-1.122-.717c-.2-.147-.38-.31-.56-.471a8.414,8.414,0,0,1-.608-.6c-.076-.082-.158-.16-.23-.244a8.35,8.35,0,0,1-.725-.992c-.032-.051-.06-.106-.1-.159a8.322,8.322,0,0,1-.533-1.053c-.013-.032-.029-.065-.041-.1a8.552,8.552,0,0,1-.405-1.282c0-.017-.013-.03-.018-.048a8.561,8.561,0,1,1,16.7.01c0,.016-.014.03-.018.047a8.587,8.587,0,0,1-.4,1.281c-.013.033-.029.067-.043.1a8.282,8.282,0,0,1-.531,1.046c-.031.053-.06.109-.1.163a8.428,8.428,0,0,1-.724.991c-.071.084-.152.16-.227.242a8.626,8.626,0,0,1-.615.606c-.181.161-.36.323-.557.47s-.373.27-.565.393l-.011.007c-.172.109-.348.21-.527.305-.035.019-.069.039-.1.057-.144.075-.285.143-.437.208-.076.034-.151.069-.228.1-.107.045-.215.084-.323.123s-.243.089-.366.127c-.066.021-.132.039-.2.058-.168.048-.338.1-.509.131Zm11.259-.208-4.708,1.125a.951.951,0,0,0-.651.547l-1.926,4.444-3.415-4.069h.009a10.014,10.014,0,0,0,1.1-.32c.071-.025.14-.054.211-.08.265-.1.527-.211.784-.334.1-.049.209-.1.312-.148.285-.148.571-.309.845-.485.132-.084.259-.178.387-.268.1-.066.19-.126.285-.195.05-.038.1-.083.145-.122.1-.078.205-.144.3-.225s.2-.19.3-.28c.126-.114.249-.229.369-.348q.235-.235.455-.483c.138-.156.269-.314.4-.476.109-.14.216-.285.318-.428.146-.207.285-.42.414-.637.067-.11.131-.222.19-.335q.222-.4.4-.823c.017-.049.042-.087.06-.13Zm13.583-9.1H38.944a10.456,10.456,0,0,0-20.827,0H1.9V6.367H55.159Z" transform="translate(0 -4.465)" fill="#1c1f2a" stroke="#1c1f2a" stroke-width="0.2"/>
      </g>
    </g>
    <g id="Group_23271" data-name="Group 23271" transform="translate(3.804 8.269)">
      <g id="Group_23270" data-name="Group 23270">
        <path id="Path_6137" data-name="Path 6137" d="M32.951,36.465a.951.951,0,0,0-.951.951v3.8h1.9V38.367h2.853v-1.9Z" transform="translate(-32 -36.465)" fill="#1c1f2a" stroke="#1c1f2a" stroke-width="0.2"/>
      </g>
    </g>
    <g id="Group_23273" data-name="Group 23273" transform="translate(48.502 8.269)">
      <g id="Group_23272" data-name="Group 23272">
        <path id="Path_6138" data-name="Path 6138" d="M411.8,36.465H408v1.9h2.853V41.22h1.9v-3.8A.951.951,0,0,0,411.8,36.465Z" transform="translate(-408 -36.465)" fill="#1c1f2a" stroke="#1c1f2a" stroke-width="0.2"/>
      </g>
    </g>
    <g id="Group_23275" data-name="Group 23275" transform="translate(48.502 35.849)">
      <g id="Group_23274" data-name="Group 23274">
        <path id="Path_6139" data-name="Path 6139" d="M410.853,268.465v2.853H408v1.9h3.8a.951.951,0,0,0,.951-.951v-3.8Z" transform="translate(-408 -268.465)" fill="#1c1f2a" stroke="#1c1f2a" stroke-width="0.2"/>
      </g>
    </g>
    <g id="Group_23277" data-name="Group 23277" transform="translate(3.804 35.849)">
      <g id="Group_23276" data-name="Group 23276">
        <path id="Path_6140" data-name="Path 6140" d="M33.9,271.318v-2.853H32v3.8a.951.951,0,0,0,.951.951h3.8v-1.9Z" transform="translate(-32 -268.465)" fill="#1c1f2a" stroke="#1c1f2a" stroke-width="0.2"/>
      </g>
    </g>
    <g id="Group_23279" data-name="Group 23279" transform="translate(17.118 14.926)">
      <g id="Group_23278" data-name="Group 23278" transform="translate(0 0)">
        <rect id="Rectangle_11387" data-name="Rectangle 11387" width="22.825" height="1.902" fill="#1c1f2a" stroke="#1c1f2a" stroke-width="0.2"/>
      </g>
    </g>
    <g id="Group_23281" data-name="Group 23281" transform="translate(11.412 20.632)">
      <g id="Group_23280" data-name="Group 23280" transform="translate(0 0)">
        <rect id="Rectangle_11388" data-name="Rectangle 11388" width="34.237" height="1.902" fill="#1c1f2a" stroke="#1c1f2a" stroke-width="0.2"/>
      </g>
    </g>
    <g id="Group_23283" data-name="Group 23283" transform="translate(21.874 36.8)">
      <g id="Group_23282" data-name="Group 23282">
        <path id="Path_6141" data-name="Path 6141" d="M190.657,276.465a6.657,6.657,0,1,0,6.657,6.657A6.657,6.657,0,0,0,190.657,276.465Zm0,11.412a4.755,4.755,0,1,1,4.755-4.755A4.755,4.755,0,0,1,190.657,287.877Z" transform="translate(-184 -276.465)" fill="#1c1f2a" stroke="#1c1f2a" stroke-width="0.2"/>
      </g>
    </g>
  </g>
</svg>
