<svg xmlns="http://www.w3.org/2000/svg" width="49.456" height="56" viewBox="0 0 49.456 56">
  <g id="icon24-7" transform="translate(-29.799)">
    <g id="Group_23375" data-name="Group 23375" transform="translate(29.799)">
      <path id="Path_6172" data-name="Path 6172" d="M42.975,181.471H33.307A6.31,6.31,0,0,1,36.6,177.44l3.212-1.606A5.719,5.719,0,0,0,37.257,165H35.518a5.725,5.725,0,0,0-5.719,5.719v.869h3.294v-.869a2.427,2.427,0,0,1,2.425-2.425h1.739a2.425,2.425,0,0,1,1.084,4.593l-3.212,1.606a9.589,9.589,0,0,0-5.33,8.624v1.647H42.975Z" transform="translate(-29.799 -146.882)"/>
      <path id="Path_6173" data-name="Path 6173" d="M188.034,173.235h-2.27a2.674,2.674,0,0,1-2.671-2.671V165H179.8v5.564a5.972,5.972,0,0,0,5.965,5.965h2.27v8.235h3.294V165h-3.294Z" transform="translate(-163.328 -146.882)"/>
      <path id="Path_6174" data-name="Path 6174" d="M371.312,184.707,377.471,165H364.8v3.294h8.191l-4.822,15.43Z" transform="translate(-328.015 -146.882)"/>
      <path id="Path_6175" data-name="Path 6175" d="M314.8,240h4.941v3.294H314.8Z" transform="translate(-283.505 -213.647)"/>
      <path id="Path_6176" data-name="Path 6176" d="M239.8,0h3.294V6.588H239.8Z" transform="translate(-216.74)"/>
      <path id="Path_6177" data-name="Path 6177" d="M0,0H3.294V4.392H0Z" transform="translate(15.586 3.61) rotate(-15.009)"/>
      <path id="Path_6178" data-name="Path 6178" d="M0,0H3.294V4.392H0Z" transform="matrix(0.866, -0.5, 0.5, 0.866, 8.73, 6.918)"/>
      <path id="Path_6179" data-name="Path 6179" d="M0,0H3.294V4.392H0Z" transform="translate(2.964 11.883) rotate(-45)"/>
      <path id="Path_6180" data-name="Path 6180" d="M0,0H4.392V3.294H0Z" transform="translate(29.516 7.002) rotate(-74.991)"/>
      <path id="Path_6181" data-name="Path 6181" d="M0,0H4.392V3.294H0Z" transform="matrix(0.5, -0.866, 0.866, 0.5, 35.632, 9.076)"/>
      <path id="Path_6182" data-name="Path 6182" d="M0,0H4.392V3.294H0Z" transform="translate(41.005 12.663) rotate(-45)"/>
      <path id="Path_6183" data-name="Path 6183" d="M239.8,450h3.294v6.588H239.8Z" transform="translate(-216.74 -400.588)"/>
      <path id="Path_6184" data-name="Path 6184" d="M0,0H4.392V3.294H0Z" transform="translate(15.591 52.395) rotate(-74.991)"/>
      <path id="Path_6185" data-name="Path 6185" d="M0,0H4.392V3.294H0Z" transform="matrix(0.5, -0.866, 0.866, 0.5, 8.729, 49.082)"/>
      <path id="Path_6186" data-name="Path 6186" d="M0,0H4.392V3.294H0Z" transform="translate(2.961 44.113) rotate(-45)"/>
      <path id="Path_6187" data-name="Path 6187" d="M0,0H3.294V4.392H0Z" transform="translate(29.521 48.993) rotate(-15.009)"/>
      <path id="Path_6188" data-name="Path 6188" d="M0,0H3.294V4.392H0Z" transform="matrix(0.866, -0.5, 0.5, 0.866, 35.632, 46.924)"/>
      <path id="Path_6189" data-name="Path 6189" d="M0,0H3.294V4.392H0Z" transform="translate(41.002 43.341) rotate(-45)"/>
    </g>
  </g>
</svg>
