<svg xmlns="http://www.w3.org/2000/svg" width="47.928" height="56.468" viewBox="0 0 47.928 56.468">
  <g id="icon4" transform="translate(0.12 0.319)">
    <path id="Path_6169" data-name="Path 6169" d="M47.632,15.193l0-.044c-.024-.538-.041-1.107-.05-1.74A5.935,5.935,0,0,0,41.991,7.6C35.553,7.236,30.572,5.136,26.316.988L26.28.954a3.584,3.584,0,0,0-4.871,0l-.036.035C17.117,5.136,12.136,7.236,5.7,7.6A5.935,5.935,0,0,0,.109,13.41c-.009.629-.026,1.2-.05,1.74l0,.1C-.069,21.816-.225,29.988,2.509,37.4A28.2,28.2,0,0,0,9.274,47.942a35.391,35.391,0,0,0,13.239,7.831,4.1,4.1,0,0,0,.543.148,4.008,4.008,0,0,0,1.576,0,4.113,4.113,0,0,0,.545-.149A35.414,35.414,0,0,0,38.4,47.937,28.24,28.24,0,0,0,45.168,37.4C47.911,29.958,47.756,21.771,47.632,15.193ZM42.085,36.259C39.2,44.076,33.316,49.445,24.092,52.67a.826.826,0,0,1-.1.028.737.737,0,0,1-.289,0,.818.818,0,0,1-.1-.028c-9.234-3.22-15.123-8.585-18-16.4C3.073,29.432,3.216,21.931,3.342,15.314v-.037c.026-.569.043-1.164.052-1.819a2.638,2.638,0,0,1,2.486-2.582,28.831,28.831,0,0,0,9.786-2.152,25.6,25.6,0,0,0,7.975-5.358.3.3,0,0,1,.407,0,25.611,25.611,0,0,0,7.975,5.358,28.832,28.832,0,0,0,9.786,2.152,2.637,2.637,0,0,1,2.486,2.582c.01.658.027,1.254.052,1.818C44.472,21.9,44.611,29.409,42.085,36.259Zm0,0" fill="#1c1f2a" stroke="#bd9a5f" stroke-width="0.3"/>
    <path id="Path_6170" data-name="Path 6170" d="M104.354,128.41a13.956,13.956,0,1,0,13.956,13.956A13.972,13.972,0,0,0,104.354,128.41Zm0,24.626a10.67,10.67,0,1,1,10.67-10.67A10.682,10.682,0,0,1,104.354,153.036Zm0,0" transform="translate(-80.511 -114.366)" fill="#1c1f2a" stroke="#bd9a5f" stroke-width="0.3"/>
    <path id="Path_6171" data-name="Path 6171" d="M164.719,212.473l-6.482,6.482-1.759-1.759a1.643,1.643,0,1,0-2.324,2.323l2.922,2.922a1.643,1.643,0,0,0,2.323,0l7.644-7.644a1.643,1.643,0,0,0-2.324-2.323Zm0,0" transform="translate(-136.865 -188.805)" fill="#1c1f2a" stroke="#bd9a5f" stroke-width="0.3"/>
  </g>
</svg>
