<svg id="icon1" xmlns="http://www.w3.org/2000/svg" width="45.935" height="56" viewBox="0 0 45.935 56">
  <path id="Path_6132" data-name="Path 6132" d="M91.414,20.951l-1.98-3.471-.02-3.678A4.112,4.112,0,0,0,87.4,9.993L83.961,7.985,81.953,4.548A4.1,4.1,0,0,0,78.44,2.532l-3.974-.021L71.052.564a4.093,4.093,0,0,0-4.09-.033l-3.471,1.98-3.678.02A4.113,4.113,0,0,0,56,4.548L54,7.985,50.559,9.993a4.1,4.1,0,0,0-2.016,3.513l-.021,3.974-1.947,3.414a4.094,4.094,0,0,0-.033,4.09l1.98,3.471.02,3.678a4.112,4.112,0,0,0,2.018,3.809L54,37.951,56,41.387a4.1,4.1,0,0,0,3.13,2V54.906a1.094,1.094,0,0,0,1.515,1.01l8.329-3.474,8.329,3.474a1.094,1.094,0,0,0,1.515-1.01V43.393a4.113,4.113,0,0,0,3.131-2.007l2.008-3.436L87.4,35.942a4.1,4.1,0,0,0,2.016-3.513l.021-3.974,1.947-3.414a4.093,4.093,0,0,0,.033-4.09ZM69.4,50.247a1.094,1.094,0,0,0-.842,0l-7.235,3.018V43.412l2.169.011L66.9,45.371a4.094,4.094,0,0,0,4.09.033l3.471-1.98,2.169-.011v9.852Zm20.1-26.312-.009.016-2.093,3.67a1.093,1.093,0,0,0-.144.536l-.023,4.262a1.905,1.905,0,0,1-.932,1.634L82.61,36.206a1.094,1.094,0,0,0-.392.392l-2.153,3.684a1.91,1.91,0,0,1-1.8.937c-.031,0-.062,0-.093,0l-4.007.021a1.093,1.093,0,0,0-.536.144L69.913,43.5a1.9,1.9,0,0,1-1.9-.019L68,43.474l-3.67-2.093a1.093,1.093,0,0,0-.536-.144l-4.262-.023a1.905,1.905,0,0,1-1.634-.933L55.739,36.6a1.094,1.094,0,0,0-.392-.392l-3.684-2.153a1.912,1.912,0,0,1-.937-1.8q0-.047,0-.093l-.021-4.008a1.094,1.094,0,0,0-.144-.536L48.444,23.9a1.9,1.9,0,0,1,.019-1.9l.009-.016,2.093-3.67a1.093,1.093,0,0,0,.144-.536l.023-4.262a1.905,1.905,0,0,1,.932-1.634l3.684-2.153a1.1,1.1,0,0,0,.392-.392l2.153-3.684a1.914,1.914,0,0,1,1.8-.937c.031,0,.062,0,.093,0L63.789,4.7a1.093,1.093,0,0,0,.536-.144l3.719-2.121a1.9,1.9,0,0,1,1.9.019l.016.009,3.67,2.093a1.093,1.093,0,0,0,.536.144l4.262.023a1.905,1.905,0,0,1,1.634.932l2.153,3.684a1.094,1.094,0,0,0,.392.392l3.684,2.153a1.913,1.913,0,0,1,.937,1.8q0,.047,0,.093l.021,4.008a1.093,1.093,0,0,0,.144.536l2.121,3.719a1.9,1.9,0,0,1-.019,1.9Z" transform="translate(-46.011 0)" fill="#1c1f2a"/>
  <path id="Path_6133" data-name="Path 6133" d="M117.874,54.975c-13.761-.116-21.915,16.063-13.633,27.032a16.876,16.876,0,0,0,8.434,6.061,1.094,1.094,0,0,0,.67-2.082c-15.886-5.4-12.247-28.527,4.529-28.824,16.778.3,20.413,23.428,4.528,28.824a1.094,1.094,0,0,0,.67,2.082C141.318,81.729,137.208,55.441,117.874,54.975Z" transform="translate(-94.906 -48.961)" fill="#1c1f2a"/>
  <path id="Path_6134" data-name="Path 6134" d="M188.178,122.886V115.97a3.276,3.276,0,0,0-3.263-3.281h-4.327l-1.17-4.011a2.991,2.991,0,0,0-2.748-2.2h-2.187a1.094,1.094,0,0,0-1.094,1.094v5.116h-3.806a1.094,1.094,0,0,0-1.094,1.094v11.291a1.094,1.094,0,0,0,1.094,1.094h15.332A3.276,3.276,0,0,0,188.178,122.886ZM173.39,123.98h-2.712v-9.1h2.712Zm2.188-15.313h1.093a.877.877,0,0,1,.648.624l1.4,4.8a1.094,1.094,0,0,0,1.05.787h5.147a1.086,1.086,0,0,1,1.075,1.094v6.915a1.086,1.086,0,0,1-1.075,1.094h-9.338Z" transform="translate(-155.093 -94.833)" fill="#1c1f2a"/>
  <path id="Path_6135" data-name="Path 6135" d="M247.082,344.979h0a1.094,1.094,0,1,0,1.095,1.094A1.093,1.093,0,0,0,247.081,344.979Z" transform="translate(-224.115 -307.246)" fill="#1c1f2a"/>
</svg>
