<svg xmlns="http://www.w3.org/2000/svg" width="56.3" height="56.3" viewBox="0 0 56.3 56.3">
  <g id="apartment" transform="translate(1.15 1.149)">
    <g id="Group_23496" data-name="Group 23496" transform="translate(-1 -0.999)">
      <g id="Group_23495" data-name="Group 23495" transform="translate(0 0)">
        <path id="Path_6566" data-name="Path 6566" d="M54.067,53.134H50.276a7.266,7.266,0,0,0,.058-.933A6.491,6.491,0,0,0,46.6,46.286V14.868a.882.882,0,0,0-.933-.933h-14v-14A.882.882,0,0,0,30.734-1H5.534A.882.882,0,0,0,4.6-.066v53.2H-.067A.882.882,0,0,0-1,54.068.882.882,0,0,0-.067,55H54.067a.933.933,0,0,0,0-1.867Zm-9.333-7.4a6.74,6.74,0,0,0-.933-.066,6.3,6.3,0,0,0-2.049.344A.906.906,0,0,0,41,45.668a.882.882,0,0,0-.933.933v.286a6.537,6.537,0,0,0-.981.869q-.071.075-.139.152a5.914,5.914,0,0,0-2.9-2.007.941.941,0,0,0-.651-.233,1.1,1.1,0,0,0-.292.038,5.53,5.53,0,0,0-.642-.038,4.91,4.91,0,0,0-1.777.293c-.066.022-.132.045-.2.07A5.82,5.82,0,0,0,30.3,44.92l-.025-.006c-.069-.018-.139-.035-.209-.05s-.114-.023-.171-.034l-.075-.014c-.06-.01-.12-.02-.181-.028l-.081-.011c-.056-.007-.112-.013-.168-.018l-.123-.01-.132-.009c-.089,0-.177-.007-.266-.007q-.1,0-.2,0l-.133.007-.053,0a5.485,5.485,0,0,0-2.409.721V15.8H44.733V45.734ZM6.467.868H29.8V13.934H25.133a.882.882,0,0,0-.933.933V43.894a6.761,6.761,0,0,0-1.625-1.2q-.079-.042-.16-.082l-.063-.031A6.461,6.461,0,0,0,20.2,41.97l-.032,0q-.132-.013-.265-.021l-.071,0c-.1,0-.2-.008-.3-.008A6.333,6.333,0,0,0,15.8,43.159v-.291a.933.933,0,1,0-1.867,0v1.867a1.061,1.061,0,0,0,.067.382,6.728,6.728,0,0,0-.907,2.511A6.339,6.339,0,0,0,10.2,48.715v-.248a.882.882,0,0,0-.933-.933.882.882,0,0,0-.933.933v1.867a1.1,1.1,0,0,0,.041.3,6.509,6.509,0,0,0-.907,2.5h-1V.868ZM13.509,49.42l.056,0c.049,0,.1-.008.148-.01.073,0,.147-.005.221-.005a.882.882,0,0,0,.933-.933A4.621,4.621,0,0,1,19.533,43.8a4.553,4.553,0,0,1,4.573,4.013,1.012,1.012,0,0,0,.418.6l.04.026.044.026a.965.965,0,0,0,.108.051l0,0a1.038,1.038,0,0,0,.133.043h0a.537.537,0,0,0,.185.024.9.9,0,0,0,.748-.4h0l.093-.093A3.758,3.758,0,0,1,28.867,46.6a3.629,3.629,0,0,1,1.825.507,5.668,5.668,0,0,0-1.818,3.872q-.007.143-.007.288a5.488,5.488,0,0,0,.322,1.867H9.36A4.7,4.7,0,0,1,13.509,49.42Zm17.883,3.714a3.984,3.984,0,0,1-.565-1.96,3.645,3.645,0,0,1,1.106-2.642,3.778,3.778,0,0,1,.427-.342.937.937,0,0,0,.427-.1,3.671,3.671,0,0,1,5.227,1.96.846.846,0,0,0,.84.56.644.644,0,0,0,.285-.078.789.789,0,0,0,.555-.482,4.294,4.294,0,0,1,1.6-1.812.857.857,0,0,0,.374-.212,4.733,4.733,0,0,1,2.129-.5A4.621,4.621,0,0,1,48.467,52.2a3.176,3.176,0,0,1-.093.933H31.392Z" transform="translate(1 0.999)" fill="#1c1f2a" stroke="#1c1f2a" stroke-width="0.3"/>
        <path id="Path_6567" data-name="Path 6567" d="M273,220.867a.882.882,0,0,0-.933.933v1.867a.933.933,0,0,0,1.867,0V221.8A.882.882,0,0,0,273,220.867Z" transform="translate(-242.2 -196.6)" fill="#1c1f2a" stroke="#1c1f2a" stroke-width="0.3"/>
        <path id="Path_6568" data-name="Path 6568" d="M273,374.467a.882.882,0,0,0-.933.933v1.867a.933.933,0,0,0,1.867,0V375.4A.882.882,0,0,0,273,374.467Z" transform="translate(-242.2 -333.4)" fill="#1c1f2a" stroke="#1c1f2a" stroke-width="0.3"/>
        <path id="Path_6569" data-name="Path 6569" d="M273,272.067a.882.882,0,0,0-.933.933v1.867a.933.933,0,0,0,1.867,0V273A.882.882,0,0,0,273,272.067Z" transform="translate(-242.2 -242.2)" fill="#1c1f2a" stroke="#1c1f2a" stroke-width="0.3"/>
        <path id="Path_6570" data-name="Path 6570" d="M273,323.267a.882.882,0,0,0-.933.933v1.867a.933.933,0,0,0,1.867,0V324.2A.882.882,0,0,0,273,323.267Z" transform="translate(-242.2 -287.8)" fill="#1c1f2a" stroke="#1c1f2a" stroke-width="0.3"/>
        <path id="Path_6571" data-name="Path 6571" d="M273,169.667a.882.882,0,0,0-.933.933v1.867a.933.933,0,0,0,1.867,0V170.6A.882.882,0,0,0,273,169.667Z" transform="translate(-242.2 -151)" fill="#1c1f2a" stroke="#1c1f2a" stroke-width="0.3"/>
        <path id="Path_6572" data-name="Path 6572" d="M324.2,224.6a.882.882,0,0,0,.933-.933V221.8a.933.933,0,1,0-1.867,0v1.867A.882.882,0,0,0,324.2,224.6Z" transform="translate(-287.8 -196.6)" fill="#1c1f2a" stroke="#1c1f2a" stroke-width="0.3"/>
        <path id="Path_6573" data-name="Path 6573" d="M324.2,173.4a.882.882,0,0,0,.933-.933V170.6a.933.933,0,1,0-1.867,0v1.867A.882.882,0,0,0,324.2,173.4Z" transform="translate(-287.8 -151)" fill="#1c1f2a" stroke="#1c1f2a" stroke-width="0.3"/>
        <path id="Path_6574" data-name="Path 6574" d="M324.2,275.8a.882.882,0,0,0,.933-.933V273a.933.933,0,1,0-1.867,0v1.867A.882.882,0,0,0,324.2,275.8Z" transform="translate(-287.8 -242.2)" fill="#1c1f2a" stroke="#1c1f2a" stroke-width="0.3"/>
        <path id="Path_6575" data-name="Path 6575" d="M324.2,327a.882.882,0,0,0,.933-.933V324.2a.933.933,0,0,0-1.867,0v1.867A.882.882,0,0,0,324.2,327Z" transform="translate(-287.8 -287.8)" fill="#1c1f2a" stroke="#1c1f2a" stroke-width="0.3"/>
        <path id="Path_6576" data-name="Path 6576" d="M324.2,378.2a.882.882,0,0,0,.933-.933V375.4a.933.933,0,0,0-1.867,0v1.867A.882.882,0,0,0,324.2,378.2Z" transform="translate(-287.8 -333.4)" fill="#1c1f2a" stroke="#1c1f2a" stroke-width="0.3"/>
        <path id="Path_6577" data-name="Path 6577" d="M375.4,275.8a.882.882,0,0,0,.933-.933V273a.933.933,0,1,0-1.867,0v1.867A.882.882,0,0,0,375.4,275.8Z" transform="translate(-333.4 -242.2)" fill="#1c1f2a" stroke="#1c1f2a" stroke-width="0.3"/>
        <path id="Path_6578" data-name="Path 6578" d="M375.4,224.6a.882.882,0,0,0,.933-.933V221.8a.933.933,0,0,0-1.867,0v1.867A.882.882,0,0,0,375.4,224.6Z" transform="translate(-333.4 -196.6)" fill="#1c1f2a" stroke="#1c1f2a" stroke-width="0.3"/>
        <path id="Path_6579" data-name="Path 6579" d="M375.4,378.2a.882.882,0,0,0,.933-.933V375.4a.933.933,0,0,0-1.867,0v1.867A.882.882,0,0,0,375.4,378.2Z" transform="translate(-333.4 -333.4)" fill="#1c1f2a" stroke="#1c1f2a" stroke-width="0.3"/>
        <path id="Path_6580" data-name="Path 6580" d="M375.4,327a.882.882,0,0,0,.933-.933V324.2a.933.933,0,0,0-1.867,0v1.867A.882.882,0,0,0,375.4,327Z" transform="translate(-333.4 -287.8)" fill="#1c1f2a" stroke="#1c1f2a" stroke-width="0.3"/>
        <path id="Path_6581" data-name="Path 6581" d="M375.4,173.4a.882.882,0,0,0,.933-.933V170.6a.933.933,0,0,0-1.867,0v1.867A.882.882,0,0,0,375.4,173.4Z" transform="translate(-333.4 -151)" fill="#1c1f2a" stroke="#1c1f2a" stroke-width="0.3"/>
        <path id="Path_6582" data-name="Path 6582" d="M85.267,292.867a.882.882,0,0,0,.933-.933v-1.867a.933.933,0,0,0-1.867,0v1.867A.882.882,0,0,0,85.267,292.867Z" transform="translate(-75.001 -257.401)" fill="#1c1f2a" stroke="#1c1f2a" stroke-width="0.3"/>
        <path id="Path_6583" data-name="Path 6583" d="M85.267,344.067a.882.882,0,0,0,.933-.933v-1.867a.933.933,0,0,0-1.867,0v1.867A.882.882,0,0,0,85.267,344.067Z" transform="translate(-75.001 -303.001)" fill="#1c1f2a" stroke="#1c1f2a" stroke-width="0.3"/>
        <path id="Path_6584" data-name="Path 6584" d="M85.267,395.267a.882.882,0,0,0,.933-.933v-1.867a.933.933,0,0,0-1.867,0v1.867A.882.882,0,0,0,85.267,395.267Z" transform="translate(-75.001 -348.601)" fill="#1c1f2a" stroke="#1c1f2a" stroke-width="0.3"/>
        <path id="Path_6585" data-name="Path 6585" d="M85.267,36.867a.882.882,0,0,0,.933-.933V34.067a.933.933,0,1,0-1.867,0v1.867A.882.882,0,0,0,85.267,36.867Z" transform="translate(-75.001 -29.401)" fill="#1c1f2a" stroke="#1c1f2a" stroke-width="0.3"/>
        <path id="Path_6586" data-name="Path 6586" d="M85.267,88.067a.882.882,0,0,0,.933-.933V85.267a.933.933,0,1,0-1.867,0v1.867A.882.882,0,0,0,85.267,88.067Z" transform="translate(-75.001 -75.001)" fill="#1c1f2a" stroke="#1c1f2a" stroke-width="0.3"/>
        <path id="Path_6587" data-name="Path 6587" d="M85.267,139.267a.882.882,0,0,0,.933-.933v-1.867a.933.933,0,1,0-1.867,0v1.867A.882.882,0,0,0,85.267,139.267Z" transform="translate(-75.001 -120.601)" fill="#1c1f2a" stroke="#1c1f2a" stroke-width="0.3"/>
        <path id="Path_6588" data-name="Path 6588" d="M85.267,190.467a.882.882,0,0,0,.933-.933v-1.867a.933.933,0,1,0-1.867,0v1.867A.882.882,0,0,0,85.267,190.467Z" transform="translate(-75.001 -166.201)" fill="#1c1f2a" stroke="#1c1f2a" stroke-width="0.3"/>
        <path id="Path_6589" data-name="Path 6589" d="M85.267,241.667a.882.882,0,0,0,.933-.933v-1.867a.933.933,0,0,0-1.867,0v1.867A.882.882,0,0,0,85.267,241.667Z" transform="translate(-75.001 -211.801)" fill="#1c1f2a" stroke="#1c1f2a" stroke-width="0.3"/>
        <path id="Path_6590" data-name="Path 6590" d="M136.467,88.067a.882.882,0,0,0,.933-.933V85.267a.933.933,0,0,0-1.867,0v1.867A.882.882,0,0,0,136.467,88.067Z" transform="translate(-120.601 -75.001)" fill="#1c1f2a" stroke="#1c1f2a" stroke-width="0.3"/>
        <path id="Path_6591" data-name="Path 6591" d="M136.467,36.867a.882.882,0,0,0,.933-.933V34.067a.933.933,0,0,0-1.867,0v1.867A.882.882,0,0,0,136.467,36.867Z" transform="translate(-120.601 -29.401)" fill="#1c1f2a" stroke="#1c1f2a" stroke-width="0.3"/>
        <path id="Path_6592" data-name="Path 6592" d="M136.467,190.467a.882.882,0,0,0,.933-.933v-1.867a.933.933,0,0,0-1.867,0v1.867A.882.882,0,0,0,136.467,190.467Z" transform="translate(-120.601 -166.201)" fill="#1c1f2a" stroke="#1c1f2a" stroke-width="0.3"/>
        <path id="Path_6593" data-name="Path 6593" d="M136.467,139.267a.882.882,0,0,0,.933-.933v-1.867a.933.933,0,0,0-1.867,0v1.867A.882.882,0,0,0,136.467,139.267Z" transform="translate(-120.601 -120.601)" fill="#1c1f2a" stroke="#1c1f2a" stroke-width="0.3"/>
        <path id="Path_6594" data-name="Path 6594" d="M136.467,241.667a.882.882,0,0,0,.933-.933v-1.867a.933.933,0,0,0-1.867,0v1.867A.882.882,0,0,0,136.467,241.667Z" transform="translate(-120.601 -211.801)" fill="#1c1f2a" stroke="#1c1f2a" stroke-width="0.3"/>
        <path id="Path_6595" data-name="Path 6595" d="M136.467,292.867a.882.882,0,0,0,.933-.933v-1.867a.933.933,0,0,0-1.867,0v1.867A.882.882,0,0,0,136.467,292.867Z" transform="translate(-120.601 -257.401)" fill="#1c1f2a" stroke="#1c1f2a" stroke-width="0.3"/>
        <path id="Path_6596" data-name="Path 6596" d="M136.467,344.067a.882.882,0,0,0,.933-.933v-1.867a.933.933,0,0,0-1.867,0v1.867A.882.882,0,0,0,136.467,344.067Z" transform="translate(-120.601 -303.001)" fill="#1c1f2a" stroke="#1c1f2a" stroke-width="0.3"/>
        <path id="Path_6597" data-name="Path 6597" d="M187.667,139.267a.882.882,0,0,0,.933-.933v-1.867a.933.933,0,1,0-1.867,0v1.867A.882.882,0,0,0,187.667,139.267Z" transform="translate(-166.201 -120.601)" fill="#1c1f2a" stroke="#1c1f2a" stroke-width="0.3"/>
        <path id="Path_6598" data-name="Path 6598" d="M187.667,88.067a.882.882,0,0,0,.933-.933V85.267a.933.933,0,1,0-1.867,0v1.867A.882.882,0,0,0,187.667,88.067Z" transform="translate(-166.201 -75.001)" fill="#1c1f2a" stroke="#1c1f2a" stroke-width="0.3"/>
        <path id="Path_6599" data-name="Path 6599" d="M187.667,36.867a.882.882,0,0,0,.933-.933V34.067a.933.933,0,1,0-1.867,0v1.867A.882.882,0,0,0,187.667,36.867Z" transform="translate(-166.201 -29.401)" fill="#1c1f2a" stroke="#1c1f2a" stroke-width="0.3"/>
        <path id="Path_6600" data-name="Path 6600" d="M187.667,344.067a.882.882,0,0,0,.933-.933v-1.867a.933.933,0,0,0-1.867,0v1.867A.882.882,0,0,0,187.667,344.067Z" transform="translate(-166.201 -303.001)" fill="#1c1f2a" stroke="#1c1f2a" stroke-width="0.3"/>
        <path id="Path_6601" data-name="Path 6601" d="M187.667,292.867a.882.882,0,0,0,.933-.933v-1.867a.933.933,0,0,0-1.867,0v1.867A.882.882,0,0,0,187.667,292.867Z" transform="translate(-166.201 -257.401)" fill="#1c1f2a" stroke="#1c1f2a" stroke-width="0.3"/>
        <path id="Path_6602" data-name="Path 6602" d="M187.667,241.667a.882.882,0,0,0,.933-.933v-1.867a.933.933,0,0,0-1.867,0v1.867A.882.882,0,0,0,187.667,241.667Z" transform="translate(-166.201 -211.801)" fill="#1c1f2a" stroke="#1c1f2a" stroke-width="0.3"/>
        <path id="Path_6603" data-name="Path 6603" d="M187.667,190.467a.882.882,0,0,0,.933-.933v-1.867a.933.933,0,1,0-1.867,0v1.867A.882.882,0,0,0,187.667,190.467Z" transform="translate(-166.201 -166.201)" fill="#1c1f2a" stroke="#1c1f2a" stroke-width="0.3"/>
        <path id="Path_6604" data-name="Path 6604" d="M238.867,88.067a.882.882,0,0,0,.933-.933V85.267a.933.933,0,1,0-1.867,0v1.867A.882.882,0,0,0,238.867,88.067Z" transform="translate(-211.801 -75.001)" fill="#1c1f2a" stroke="#1c1f2a" stroke-width="0.3"/>
        <path id="Path_6605" data-name="Path 6605" d="M238.867,36.867a.882.882,0,0,0,.933-.933V34.067a.933.933,0,0,0-1.867,0v1.867A.882.882,0,0,0,238.867,36.867Z" transform="translate(-211.801 -29.401)" fill="#1c1f2a" stroke="#1c1f2a" stroke-width="0.3"/>
      </g>
    </g>
  </g>
</svg>
