<svg xmlns="http://www.w3.org/2000/svg" width="56.17" height="56.124" viewBox="0 0 56.17 56.124">
  <g id="bank" transform="translate(0.114 0.065)">
    <g id="Group_23498" data-name="Group 23498" transform="translate(0 0.008)">
      <g id="Group_23497" data-name="Group 23497" transform="translate(0 0)">
        <path id="Path_6606" data-name="Path 6606" d="M54.31,49.521a12.834,12.834,0,0,0-2.975-16.241V25.674H52.5a1.167,1.167,0,0,0,1.167-1.167v-3.5h1.167a1.167,1.167,0,0,0,.665-2.123L28.666.216a1.167,1.167,0,0,0-1.33,0L.5,18.884a1.167,1.167,0,0,0,.665,2.123H2.333v3.5A1.167,1.167,0,0,0,3.5,25.674H4.667V44.341H3.5a1.167,1.167,0,0,0-1.167,1.167v3.71A3.5,3.5,0,0,0,0,52.508v2.333a1.167,1.167,0,0,0,1.167,1.167H54.835A1.167,1.167,0,0,0,56,54.842V52.508A3.5,3.5,0,0,0,54.31,49.521ZM51.335,23.341H42V21.007h9.334ZM49,25.674v6.079A12.716,12.716,0,0,0,44.335,30.4V25.674H49ZM28,2.6,51.113,18.674H4.888ZM15.167,44.341H14V25.674h1.167a1.167,1.167,0,0,0,1.167-1.167v-3.5H21v3.5a1.167,1.167,0,0,0,1.167,1.167h1.167V44.341H22.167A1.167,1.167,0,0,0,21,45.508v3.5H16.334v-3.5A1.167,1.167,0,0,0,15.167,44.341Zm8.167,2.333h7.5a12.729,12.729,0,0,0,.922,2.333H23.334V46.675Zm2.333-2.333V25.674h4.667V44.341Zm5.833-21H23.334V21.007h9.334v2.333Zm1.167,2.333h1.167A1.167,1.167,0,0,0,35,24.507v-3.5h4.667v3.5a1.167,1.167,0,0,0,1.167,1.167H42V30.4a12.834,12.834,0,0,0-9.334,5.413Zm-28-4.667H14V23.34H4.667Zm7,4.667V44.341H7V25.674Zm-7,21H14v2.333H4.667Zm-2.333,7V52.508A1.167,1.167,0,0,1,3.5,51.341H33.274a12.939,12.939,0,0,0,2.532,2.333H2.333Zm51.335,0h-3.15a12.93,12.93,0,0,0,2.45-2.228,1.167,1.167,0,0,1,.7,1.062Zm-10.5,0a10.5,10.5,0,1,1,10.5-10.5A10.5,10.5,0,0,1,43.168,53.675Z" transform="translate(0 -0.008)" fill="#1c1f2a" stroke="#bd9a5f" stroke-width="0.1"/>
        <path id="Path_6607" data-name="Path 6607" d="M174.581,54.019l-12.834-9.334-1.435,1.89L170.24,53.8H149.333V56.13h24.5a1.17,1.17,0,0,0,.747-2.112Z" transform="translate(-132.999 -39.798)" fill="#1c1f2a" stroke="#bd9a5f" stroke-width="0.1"/>
        <path id="Path_6608" data-name="Path 6608" d="M359,322.325h-1.167v-2.333H355.5v2.333h-1.167A2.333,2.333,0,0,0,352,324.659v2.333a2.333,2.333,0,0,0,2.333,2.333H359v2.333h-4.667v-1.167H352v1.167a2.333,2.333,0,0,0,2.333,2.333H355.5v2.333h2.333v-2.333H359a2.333,2.333,0,0,0,2.333-2.333v-2.333A2.333,2.333,0,0,0,359,326.992h-4.667v-2.333H359v1.167h2.333v-1.167A2.333,2.333,0,0,0,359,322.325Z" transform="translate(-313.499 -284.993)" fill="#1c1f2a" stroke="#bd9a5f" stroke-width="0.1"/>
      </g>
    </g>
  </g>
</svg>
