<svg id="build" xmlns="http://www.w3.org/2000/svg" width="47.431" height="48" viewBox="0 0 47.431 48">
  <path id="Path_51218" data-name="Path 51218" d="M42.428,10.71a8.4,8.4,0,0,0-1.71-1.567A13,13,0,0,0,18.248,4.765l-.039-.175H13.922l-.133.6a1.8,1.8,0,0,1-2.722,1.128l-.517-.33L8.886,7.65H6.12v-3.2a2.3,2.3,0,1,0-1.53,0V9.18H7.62l.226.356a1.8,1.8,0,0,1-1.128,2.723l-.6.133V13.77H4.449a2.3,2.3,0,1,0,0,1.53H6.12v1.379l.6.133a1.8,1.8,0,0,1,1.128,2.722l-.227.356H4.59v9.321a2.3,2.3,0,1,0,1.53,0V21.42H8.886l1.663,1.663.161-.1v3.17a2.3,2.3,0,1,0,1.53,0V22.489a1.821,1.821,0,0,1,.48.12,1.78,1.78,0,0,1,1.068,1.272l.133.6h4.287l.133-.6a1.774,1.774,0,0,1,1.018-1.244c.274.314.549.63.817.927,1.488,1.655,2.773,3.084,2.773,4.741v1.53a2.28,2.28,0,0,0,.6,1.53,2.268,2.268,0,0,0,.605,3.535l-2.09,4.18L28.305,48l6.243-8.919-2.09-4.18a2.269,2.269,0,0,0,.605-3.536,2.277,2.277,0,0,0,.6-1.53v-1.53a4.191,4.191,0,0,1,.789-2.3h1.144a15.331,15.331,0,0,0,6.649-1.53h5.187V10.71ZM5.355,1.53A.765.765,0,1,1,4.59,2.3.766.766,0,0,1,5.355,1.53ZM2.3,15.3a.765.765,0,1,1,.765-.765A.766.766,0,0,1,2.3,15.3Zm3.06,16.83a.765.765,0,1,1,.765-.765A.766.766,0,0,1,5.355,32.131Zm22.95-30.6A11.538,11.538,0,0,1,38.688,8.118a8.387,8.387,0,0,0-2.733-.467A19.087,19.087,0,0,1,28.82,6.267a2.09,2.09,0,0,0-.806-.147,2,2,0,0,0-2,2A3.806,3.806,0,0,0,29.2,11.89l1.346.224a.065.065,0,0,1,.053.063.063.063,0,0,1-.063.063H25.359a1.793,1.793,0,0,1-1.076-2.7l.33-.518L21.581,5.987l-.518.33a1.778,1.778,0,0,1-1.654.145,1.84,1.84,0,0,1-.378-.212A11.444,11.444,0,0,1,28.305,1.53Zm-16.83,27.54a.765.765,0,1,1,.765-.765A.766.766,0,0,1,11.475,29.071Zm5.568-6.12H15.088a3.329,3.329,0,0,0-4.282-1.773L9.423,19.795A3.329,3.329,0,0,0,7.65,15.513V13.558A3.329,3.329,0,0,0,9.423,9.275l1.382-1.382A3.329,3.329,0,0,0,15.088,6.12h1.955a3.329,3.329,0,0,0,4.282,1.773l1.382,1.382a3.336,3.336,0,0,0,.019,2.5,3.252,3.252,0,0,0,.243.464H20.888a5.355,5.355,0,1,0,0,4.59h2.083a3.327,3.327,0,0,0-.264,2.964l-1.382,1.382a3.329,3.329,0,0,0-4.282,1.773ZM17.6,12.837a2.3,2.3,0,1,0,0,3.4,2.278,2.278,0,0,0,1.527.6,3.825,3.825,0,1,1,0-4.59,2.278,2.278,0,0,0-1.527.6Zm-.765,1.7a.765.765,0,1,1-.765-.765A.766.766,0,0,1,16.83,14.535Zm7.65,15.3v-.765h7.65v.765a.766.766,0,0,1-.765.765h-6.12A.766.766,0,0,1,24.48,29.836Zm7.65,3.06a.766.766,0,0,1-.765.765h-6.12a.765.765,0,1,1,0-1.53h6.12A.766.766,0,0,1,32.131,32.9Zm-4.59,6.12a.765.765,0,1,1,.765.765A.766.766,0,0,1,27.54,39.016Zm1.53,5.224V41.17a2.3,2.3,0,1,0-1.53,0v3.069l-3.7-5.289,1.88-3.76h5.175l1.88,3.76Zm3.124-16.7H24.415c-.273-1.711-1.429-3.126-2.719-4.572l1.431-1.431a2.3,2.3,0,0,0,1.522,1.325,2.268,2.268,0,0,0-.169.854,2.3,2.3,0,0,0,2.3,2.3h5.912A5.508,5.508,0,0,0,32.194,27.54Zm-5.419-3.06a.765.765,0,0,1,0-1.53H30.6V21.42H25.245a.765.765,0,1,1,0-1.53H30.6V18.36H25.245a.765.765,0,0,1,0-1.53H30.6V15.3H19.125a.765.765,0,0,1,0-1.53H30.537a1.593,1.593,0,0,0,.262-3.165l-1.346-.224A2.282,2.282,0,0,1,27.54,8.123a.485.485,0,0,1,.518-.473.6.6,0,0,1,.236.055A20.551,20.551,0,0,0,35.956,9.18a6.913,6.913,0,0,1,5.355,2.574V23.227a13.792,13.792,0,0,1-5.716,1.253ZM45.9,22.95h-3.06V12.24H45.9Z" fill="#bd9a5f"/>
  <path id="Path_51219" data-name="Path 51219" d="M50,54h2v2H50Z" transform="translate(-14.569 -14.744)" fill="#bd9a5f"/>
  <path id="Path_51220" data-name="Path 51220" d="M54,54h2v2H54Z" transform="translate(-14.569 -14.744)" fill="#bd9a5f"/>
  <path id="Path_51221" data-name="Path 51221" d="M58,54h2v2H58Z" transform="translate(-14.569 -14.744)" fill="#bd9a5f"/>
  <path id="Path_51222" data-name="Path 51222" d="M48,50H62v2H48Z" transform="translate(-14.569 -12.136)" fill="#bd9a5f"/>
  <path id="Path_51223" data-name="Path 51223" d="M48,46H62v2H48Z" transform="translate(-14.569 -11.165)" fill="#bd9a5f"/>
  <path id="Path_51224" data-name="Path 51224" d="M48,42H62v2H48Z" transform="translate(-14.569 -10.194)" fill="#bd9a5f"/>
</svg>
