<svg xmlns="http://www.w3.org/2000/svg" width="63.454" height="27.417" viewBox="0 0 63.454 27.417">
  <g id="eagle-eye" transform="translate(0 0)">
    <path id="Path_6073" data-name="Path 6073" d="M843.468-12977.837c1.961-3.479,2.674-4.1,3.743-4.9s14.081-2.762,25.578,1.158,19.517,7.13,34.133,22.369c-16.487-13.19-28.786-17.111-34.133-18S850.687-12980.69,843.468-12977.837Z" transform="translate(-843.468 12983.944)" fill="#bd9a5f"/>
    <path id="Path_6074" data-name="Path 6074" d="M948.8-12945.043c-1.577.616-9.186,4.662-15.219,2.263s-8.707-10.491-8.844-11.725-5.69-.891-5.69-.891,1.234,8.433,7.2,12.889a16.488,16.488,0,0,0,12.683,3.359C940.366-12939.285,948.73-12943.879,948.8-12945.043Z" transform="translate(-908.098 12959.569)" fill="#bd9a5f"/>
    <path id="Path_6075" data-name="Path 6075" d="M992.39-12928.224l-4.25-.412a9.833,9.833,0,0,0,2.468,5.279c2.125,2.123,7.335,1.783,7.335,1.783s-3.922-1.387-4.831-2.587S992.39-12928.224,992.39-12928.224Z" transform="translate(-967.182 12936.647)" fill="#bd9a5f"/>
    <path id="Path_6076" data-name="Path 6076" d="M940.764-12883.107c-.549.938-9.118,10.534-18.1,9.372s-13.163-4.87-17.344-9.942c1.1,3.017,7.472,13.165,17.756,12.888C933.086-12871.406,940.284-12878.975,940.764-12883.107Z" transform="translate(-896.362 12898.201)" fill="#bd9a5f"/>
  </g>
</svg>
