<svg xmlns="http://www.w3.org/2000/svg" width="57" height="57" viewBox="0 0 57 57">
  <g id="government" transform="translate(0.5 0.5)">
    <path id="Path_6564" data-name="Path 6564" d="M215.365,193.243a4.922,4.922,0,1,0-4.929-4.922A4.931,4.931,0,0,0,215.365,193.243Zm0-6.562a1.641,1.641,0,1,1-1.648,1.641A1.646,1.646,0,0,1,215.365,186.68Z" transform="translate(-187.42 -163.34)" fill="#1c1f2a" stroke="#bd9a5f" stroke-width="1"/>
    <path id="Path_6565" data-name="Path 6565" d="M1.641,32.123h1.7V54.359A1.641,1.641,0,0,0,4.983,56H51.016a1.641,1.641,0,0,0,1.641-1.641V32.123h1.7A1.641,1.641,0,0,0,56,30.482V25.014a1.641,1.641,0,0,0-1.065-1.536L29.641,14V9.844h7.916A1.641,1.641,0,0,0,39.2,8.2V1.641A1.641,1.641,0,0,0,37.557,0H28a1.641,1.641,0,0,0-1.641,1.641V14L1.065,23.477A1.641,1.641,0,0,0,0,25.014v5.469a1.641,1.641,0,0,0,1.641,1.641Zm14.8,20.6H13.146V40.326a1.642,1.642,0,0,1,1.641-1.641H14.8a1.642,1.642,0,0,1,1.641,1.641Zm9.857,0V38.106a1.642,1.642,0,0,1,1.641-1.641h.014a1.642,1.642,0,0,1,1.641,1.641V52.719Zm16.557,0H39.56V40.326A1.642,1.642,0,0,1,41.2,38.686h.014a1.642,1.642,0,0,1,1.641,1.641ZM29.641,3.281h6.275V6.563H29.641ZM3.281,26.151,28,16.889l24.719,9.262v2.691H36.7a1.641,1.641,0,1,0,0,3.281H49.376v20.6h-3.24V40.326A4.927,4.927,0,0,0,41.214,35.4H41.2a4.927,4.927,0,0,0-4.922,4.922V52.719h-3.4V38.106a4.927,4.927,0,0,0-4.922-4.922h-.014a4.927,4.927,0,0,0-4.922,4.922V52.719H19.721V40.326A4.927,4.927,0,0,0,14.8,35.4h-.014a4.927,4.927,0,0,0-4.922,4.922V52.719H6.624v-20.6H19.191a1.641,1.641,0,1,0,0-3.281H3.281Z" fill="#1c1f2a" stroke="#bd9a5f" stroke-width="1"/>
  </g>
</svg>
