<svg xmlns="http://www.w3.org/2000/svg" width="50.523" height="50.554" viewBox="0 0 50.523 50.554">
  <g id="idea" transform="translate(0.25 0.238)">
    <g id="Group_23464" data-name="Group 23464" transform="translate(0 0.273)">
      <g id="Group_23463" data-name="Group 23463">
        <path id="Path_6503" data-name="Path 6503" d="M49.3,14.977h0l0,0-3.228-.461a.83.83,0,0,1-.381-1.486L48.3,11.072a.83.83,0,0,0,.166-1.162L45.479,5.927a.83.83,0,0,0-1.162-.166L41.709,7.718a.83.83,0,0,1-1.323-.781l.461-3.228a.83.83,0,0,0-.7-.939h0l-4.926-.7a.83.83,0,0,0-.939.7h0L33.815,6a.83.83,0,0,1-1.486.381L30.374,3.769A.83.83,0,0,0,29.212,3.6L26.718,5.474a16.057,16.057,0,0,0-3.394,0,15.768,15.768,0,0,0-13.9,14.139c-.022.235-.031.468-.042.7H9.13a.83.83,0,0,0-.812.664l-.573,2.727-2.3-1.584a.83.83,0,0,0-1.058.1L1.9,24.707a.83.83,0,0,0-.1,1.057L3.38,28.057l-2.728.573A.83.83,0,0,0,0,29.443v3.32a.83.83,0,0,0,.659.812l2.728.573L1.81,36.442a.83.83,0,0,0,.1,1.057l2.49,2.49a.83.83,0,0,0,1.058.1L7.747,38.5l.573,2.728a.83.83,0,0,0,.812.664h3.32a.83.83,0,0,0,.812-.659l.573-2.728,2.293,1.577a.83.83,0,0,0,1.057-.1L18.477,38.7v2.365a3.309,3.309,0,0,0,1.66,2.858v4.611a3.32,3.32,0,0,0,3.32,3.32h3.32a3.32,3.32,0,0,0,3.32-3.32V43.92a3.309,3.309,0,0,0,1.66-2.858V37.777a4.066,4.066,0,0,1,1.92-3.388A15.926,15.926,0,0,0,35.628,32.9l-1.107-1.237A14.128,14.128,0,0,1,32.772,33,5.716,5.716,0,0,0,30.1,37.777v3.285a1.66,1.66,0,0,1-1.66,1.66H21.8a1.66,1.66,0,0,1-1.66-1.66V37.708A5.583,5.583,0,0,0,17.5,33.024,14.066,14.066,0,0,1,24.937,7.049a.9.9,0,0,0-.032.09.83.83,0,0,0,.159.615l1.956,2.608a.812.812,0,0,1,.05.921.825.825,0,0,1-.83.4l-3.228-.461a.83.83,0,0,0-.939.7h0l-.7,4.929a.83.83,0,0,0,.7.939h0l3.228.461a.83.83,0,0,1,.381,1.486L23.073,21.7a.83.83,0,0,0-.166,1.162l2.988,3.983a.83.83,0,0,0,1.162.166l2.609-1.956a.83.83,0,0,1,1.319.781l-.461,3.228a.83.83,0,0,0,.7.939h0l4.93.7a.919.919,0,0,0,.117.007A.83.83,0,0,0,37.1,30l.461-3.228a.83.83,0,0,1,1.486-.381L41,29a.83.83,0,0,0,1.162.166l3.983-2.988a.83.83,0,0,0,.166-1.162l-1.956-2.608a.816.816,0,0,1-.05-.921.806.806,0,0,1,.83-.4l3.228.461a.83.83,0,0,0,.939-.7h0l.7-4.93A.83.83,0,0,0,49.3,14.977ZM21.8,44.381h6.639v1.66H21.8Zm0,3.32h6.639v.83a1.66,1.66,0,0,1-1.66,1.66h-3.32a1.66,1.66,0,0,1-1.66-1.66ZM15.189,33.389a15.685,15.685,0,0,0,1.418,1.033,4.051,4.051,0,0,1,1.672,2.124L16.5,38.323l-1.724-1.188A1.66,1.66,0,0,0,12.21,38.16l-.435,2.072H9.8l-.435-2.069A1.66,1.66,0,0,0,6.8,37.138L5.077,38.323,3.565,36.814l1.188-1.723a1.66,1.66,0,0,0-1.024-2.567L1.66,32.089V30.117l2.069-.436A1.66,1.66,0,0,0,4.754,27.12L3.565,25.392l1.512-1.509L6.8,25.071a1.66,1.66,0,0,0,2.565-1.026l.145-.69a15.8,15.8,0,0,0,.658,2.814,4.979,4.979,0,1,0,5.018,7.22ZM13.9,32.22a3.315,3.315,0,1,1-3.112-4.437h.032A15.717,15.717,0,0,0,13.9,32.22ZM47.772,19.787l-2.407-.344A2.49,2.49,0,0,0,43.021,23.4l1.458,1.944-2.656,1.992-1.459-1.944a2.49,2.49,0,0,0-4.457,1.141l-.336,2.41-3.286-.47.344-2.407a2.49,2.49,0,0,0-3.959-2.344l-1.944,1.458-1.992-2.656,1.944-1.459a2.49,2.49,0,0,0-1.141-4.457l-2.407-.344.47-3.286,2.407.344a2.49,2.49,0,0,0,2.344-3.959L26.889,7.421,29.545,5.43,31,7.374A2.49,2.49,0,0,0,35.46,6.233L35.8,3.826l3.286.469L38.746,6.7A2.49,2.49,0,0,0,42.7,9.045l1.944-1.458,1.992,2.656L44.7,11.7a2.49,2.49,0,0,0,1.141,4.457l2.407.344Z" transform="translate(0 -2.057)" fill="#1c1f2a" stroke="#1c1f2a" stroke-width="0.5"/>
      </g>
    </g>
    <g id="Group_23466" data-name="Group 23466" transform="translate(29.046 7.961)">
      <g id="Group_23465" data-name="Group 23465">
        <path id="Path_6504" data-name="Path 6504" d="M286.639,76.171a6.639,6.639,0,1,0,6.639,6.639A6.639,6.639,0,0,0,286.639,76.171Zm0,11.618a4.979,4.979,0,1,1,4.979-4.979A4.979,4.979,0,0,1,286.639,87.789Z" transform="translate(-280 -76.171)" fill="#1c1f2a" stroke="#1c1f2a" stroke-width="0.5"/>
      </g>
    </g>
    <g id="Group_23468" data-name="Group 23468" transform="translate(24.286 36.788)">
      <g id="Group_23467" data-name="Group 23467">
        <rect id="Rectangle_11416" data-name="Rectangle 11416" width="1.66" height="2.49" fill="#1c1f2a" stroke="#1c1f2a" stroke-width="0.5"/>
      </g>
    </g>
    <g id="Group_23470" data-name="Group 23470" transform="translate(13.49 9.53)">
      <g id="Group_23469" data-name="Group 23469">
        <path id="Path_6505" data-name="Path 6505" d="M138.04,110.4a9.959,9.959,0,0,1-1.681-17.7l-.887-1.4a11.618,11.618,0,0,0,1.966,20.653,5.3,5.3,0,0,1,3.4,4.946h1.66A6.944,6.944,0,0,0,138.04,110.4Z" transform="translate(-130.044 -91.291)" fill="#1c1f2a" stroke="#1c1f2a" stroke-width="0.5"/>
      </g>
    </g>
    <g id="Group_23472" data-name="Group 23472" transform="translate(40.884 30.979)">
      <g id="Group_23471" data-name="Group 23471">
        <rect id="Rectangle_11417" data-name="Rectangle 11417" width="5.809" height="1.66" fill="#1c1f2a" stroke="#1c1f2a" stroke-width="0.5"/>
      </g>
    </g>
    <g id="Group_23474" data-name="Group 23474" transform="translate(39.523 35.32)">
      <g id="Group_23473" data-name="Group 23473" transform="translate(0 0)">
        <rect id="Rectangle_11418" data-name="Rectangle 11418" width="1.66" height="6.481" transform="matrix(0.64, -0.768, 0.768, 0.64, 0, 1.275)" fill="#1c1f2a" stroke="#1c1f2a" stroke-width="0.5"/>
      </g>
    </g>
    <g id="Group_23476" data-name="Group 23476" transform="translate(35.904 37.618)">
      <g id="Group_23475" data-name="Group 23475">
        <rect id="Rectangle_11419" data-name="Rectangle 11419" width="1.66" height="5.809" fill="#1c1f2a" stroke="#1c1f2a" stroke-width="0.5"/>
      </g>
    </g>
    <g id="Group_23478" data-name="Group 23478" transform="translate(0.847 12.746)">
      <g id="Group_23477" data-name="Group 23477" transform="translate(0 0)">
        <rect id="Rectangle_11420" data-name="Rectangle 11420" width="6.843" height="1.659" transform="translate(0 1.659) rotate(-14.035)" fill="#1c1f2a" stroke="#1c1f2a" stroke-width="0.5"/>
      </g>
    </g>
    <g id="Group_23480" data-name="Group 23480" transform="translate(2.226 4.578)">
      <g id="Group_23479" data-name="Group 23479" transform="translate(0 0)">
        <rect id="Rectangle_11421" data-name="Rectangle 11421" width="1.659" height="7.139" transform="matrix(0.581, -0.814, 0.814, 0.581, 0, 1.35)" fill="#1c1f2a" stroke="#1c1f2a" stroke-width="0.5"/>
      </g>
    </g>
    <g id="Group_23482" data-name="Group 23482" transform="translate(9.337 0.067)">
      <g id="Group_23481" data-name="Group 23481" transform="translate(0 0)">
        <rect id="Rectangle_11422" data-name="Rectangle 11422" width="1.66" height="6.852" transform="matrix(0.969, -0.248, 0.248, 0.969, 0, 0.411)" fill="#1c1f2a" stroke="#1c1f2a" stroke-width="0.5"/>
      </g>
    </g>
  </g>
</svg>
