<svg xmlns="http://www.w3.org/2000/svg" width="48.4" height="39.572" viewBox="0 0 48.4 39.572">
  <g id="plan" transform="translate(0.2 -46.976)">
    <path id="Path_51215" data-name="Path 51215" d="M46.947,50.24q-.063-.023-.128-.042L36.336,47.271a2.54,2.54,0,0,0-1.364,0L24.31,50.248a1.155,1.155,0,0,1-.62,0L13.028,47.271a2.535,2.535,0,0,0-1.364,0L5.815,48.9a.692.692,0,0,0,.372,1.332l5.467-1.527V59.571L8.282,60.627a.685.685,0,1,0,.409,1.308l2.962-.928v2.67H4.618a1.153,1.153,0,0,0-.693,2.074L8.248,69,1.383,70.919V51.753a.231.231,0,0,1,.169-.222l1.382-.386a.692.692,0,1,0-.372-1.332L1.18,50.2A1.619,1.619,0,0,0,0,51.753V82.807a1.614,1.614,0,0,0,2.048,1.555l9.988-2.789a1.153,1.153,0,0,1,.62,0L23.317,84.55a2.536,2.536,0,0,0,1.365,0l3.091-.863L30.981,86.1a1.153,1.153,0,0,0,1.846-.921v-2.9l2.517-.7a1.152,1.152,0,0,1,.62,0l9.987,2.789A1.624,1.624,0,0,0,48,82.807V51.753a1.62,1.62,0,0,0-1.052-1.513ZM24.691,51.578l2.515-.7v3.551l-2.515.733ZM13.037,48.71l10.27,2.868v3.56L18.163,53.52a.7.7,0,0,0-.9.66v6.705l-4.227-1.324V48.71Zm0,12.3,4.712,1.475a.692.692,0,0,0,.9-.66v-6.7l4.66,1.466v7.088H13.037Zm10.27,22.1-10.27-2.868V75.326a.692.692,0,1,0-1.383,0v4.917L1.676,83.029a.231.231,0,0,1-.293-.222V72.355l2.428-.678V76.02a.7.7,0,0,0,.878.666l4.9-1.369a.692.692,0,0,0-.372-1.332L5.2,75.109V71.29L9.64,70.049,23.308,80.328v2.783Zm1.383,0V81.369l1.689,1.271Zm6.752,1.6L5.308,65.06h2.9v.194a.692.692,0,1,0,1.383,0V65.06h3.365v1.2a.692.692,0,1,0,1.383,0v-1.2H17.71v.194a.692.692,0,1,0,1.383,0V65.06h3.365v1.2a.692.692,0,1,0,1.383,0v-1.2h3.365v.194a.692.692,0,1,0,1.383,0V65.06H31.4a.046.046,0,0,1,.046.046v19.61Zm3.519-4.473-2.135.6V72.662l2.135-.6Zm0-9.614-2.135.6V65.106a1.431,1.431,0,0,0-1.43-1.43H24.691V56.6l6.752-1.967v7.041a.7.7,0,0,0,.879.666l2.64-.74Zm0-10.466-2.135.6V53.711a.692.692,0,0,0-.885-.664l-3.352.976V50.489l6.372-1.779ZM46.616,82.807a.231.231,0,0,1-.292.222l-9.978-2.786V61.6l6.434,1.8a.692.692,0,1,0,.372-1.332l-6.806-1.9V48.71l5.248,1.466v3.093l-2.953-.825a.692.692,0,1,0-.372,1.332l3.831,1.07a.7.7,0,0,0,.878-.666V50.562l3.47.969a.231.231,0,0,1,.169.222V82.807Z" transform="translate(0 0)" fill="#bd9a5f" stroke="#bd9a5f" stroke-width="0.4"/>
    <path id="Path_51216" data-name="Path 51216" d="M410.447,324.8l-1.071-.3v-1.1a.692.692,0,1,0-1.383,0v.714l-.7-.2a.692.692,0,1,0-.372,1.332l1.071.3v1.1a.692.692,0,1,0,1.383,0v-.714l.7.2a.692.692,0,0,0,.372-1.332Z" transform="translate(-368.314 -249.699)" fill="#bd9a5f" stroke="#bd9a5f" stroke-width="0.4"/>
    <path id="Path_51217" data-name="Path 51217" d="M172.315,265.469H160.636a.968.968,0,0,0-.582,1.742l11.955,8.991a.974.974,0,0,0,1.551-.774v-8.715A1.247,1.247,0,0,0,172.315,265.469Zm-.138,9.128-10.3-7.745h6.128V268.7a.692.692,0,0,0,1.383,0v-1.852h2.786V274.6Z" transform="translate(-144.699 -197.827)" fill="#bd9a5f" stroke="#bd9a5f" stroke-width="0.4"/>
  </g>
</svg>
