<svg xmlns="http://www.w3.org/2000/svg" width="56" height="40.129" viewBox="0 0 56 40.129">
  <g id="plane" transform="translate(-514 -3835)">
    <path id="airplane" d="M6.674,24.23a.979.979,0,0,0-.48,1.282l2.2,4.727a.977.977,0,0,0,1.292.48l16.638-7.771L24.819,38.7a.979.979,0,0,0,.322.822,4.272,4.272,0,0,0,2.584.979,3.146,3.146,0,0,0,.773-.1c1.351-.352,2.4-1.556,3.112-3.612l6.547-19.387L51.125,11.36c3.817-1.781,5.784-5.392,4.463-8.211A4.955,4.955,0,0,0,51.761.478a9.072,9.072,0,0,0-5.343.823L31.454,8.317,15.365,2.024c-2.026-.763-3.631-.744-4.756.069A3.991,3.991,0,0,0,9.15,5.254a.979.979,0,0,0,.421.774L20.4,13.475l-6.2,2.936L3.8,13.768a.979.979,0,0,0-1.086.47L.117,18.906a.979.979,0,0,0,.509,1.38l7.7,3.181ZM11.156,4.765a1.674,1.674,0,0,1,.588-1.057c.558-.4,1.576-.343,2.936.166L29.007,9.462,22.47,12.515ZM2.348,18.9l1.7-3.024,10.012,2.486a.98.98,0,0,0,.646-.058L47.25,3.1a7.153,7.153,0,0,1,4.179-.666,3.065,3.065,0,0,1,2.388,1.546c.821,1.762-.793,4.336-3.524,5.608L39.019,14.874l.685-2.026a.995.995,0,1,0-1.889-.626L29.761,36.189c-.48,1.361-1.077,2.173-1.742,2.349a1.656,1.656,0,0,1-1.194-.225l1.957-20.552a.983.983,0,0,0-1.957-.186l-.3,3.141L9.727,28.546,8.348,25.61l2.759-1.291a.979.979,0,0,0,0-1.791Zm0,0" transform="translate(514.001 3834.624)" fill="#1c1f2a"/>
  </g>
</svg>
