<svg xmlns="http://www.w3.org/2000/svg" width="50.5" height="50.5" viewBox="0 0 50.5 50.5">
  <g id="satisfaction" transform="translate(0.25 0.25)">
    <path id="Path_6506" data-name="Path 6506" d="M11.816,23.535A11.768,11.768,0,0,0,11.816,0,11.879,11.879,0,0,0,0,11.816,11.781,11.781,0,0,0,11.816,23.535Zm0-20.605A8.838,8.838,0,1,1,2.93,11.816,9.006,9.006,0,0,1,11.816,2.93Z" fill="#1c1f2a" stroke="#fff" stroke-width="0.5"/>
    <path id="Path_6507" data-name="Path 6507" d="M69.175,126.856a5.873,5.873,0,0,0,5.524-3.9,1.465,1.465,0,1,0-2.761-.979,2.93,2.93,0,0,1-5.526,0,1.465,1.465,0,0,0-2.761.979A5.873,5.873,0,0,0,69.175,126.856Z" transform="translate(-57.359 -109.18)" fill="#1c1f2a" stroke="#fff" stroke-width="0.5"/>
    <path id="Path_6508" data-name="Path 6508" d="M11.816,294.535A11.768,11.768,0,1,0,0,282.719,11.879,11.879,0,0,0,11.816,294.535Zm0-20.605a8.838,8.838,0,0,1,0,17.676,9.006,9.006,0,0,1-8.887-8.887A8.848,8.848,0,0,1,11.816,273.93Z" transform="translate(0 -244.535)" fill="#1c1f2a" stroke="#fff" stroke-width="0.5"/>
    <path id="Path_6509" data-name="Path 6509" d="M64.542,396.775a1.465,1.465,0,0,0,1.87-.891,2.93,2.93,0,0,1,5.526,0,1.465,1.465,0,1,0,2.761-.979,5.86,5.86,0,0,0-11.048,0A1.465,1.465,0,0,0,64.542,396.775Z" transform="translate(-57.358 -352.816)" fill="#1c1f2a" stroke="#fff" stroke-width="0.5"/>
    <circle id="Ellipse_215" data-name="Ellipse 215" cx="1.465" cy="1.465" r="1.465" transform="translate(7.422 5.957)" fill="#1c1f2a" stroke="#fff" stroke-width="0.5"/>
    <circle id="Ellipse_216" data-name="Ellipse 216" cx="1.465" cy="1.465" r="1.465" transform="translate(13.281 5.957)" fill="#1c1f2a" stroke="#fff" stroke-width="0.5"/>
    <circle id="Ellipse_217" data-name="Ellipse 217" cx="1.465" cy="1.465" r="1.465" transform="translate(13.281 32.324)" fill="#1c1f2a" stroke="#fff" stroke-width="0.5"/>
    <circle id="Ellipse_218" data-name="Ellipse 218" cx="1.465" cy="1.465" r="1.465" transform="translate(7.422 32.324)" fill="#1c1f2a" stroke="#fff" stroke-width="0.5"/>
    <path id="Path_6510" data-name="Path 6510" d="M266,271H242.465a1.465,1.465,0,0,0,0,2.93,4.4,4.4,0,0,1,4.395,4.395v11.719a1.465,1.465,0,0,0,1.465,1.465H266a1.465,1.465,0,0,0,1.465-1.465V272.465A1.465,1.465,0,0,0,266,271Zm-1.465,17.578H249.789V278.324a7.287,7.287,0,0,0-1.468-4.395h16.214Z" transform="translate(-217.465 -244.535)" fill="#1c1f2a" stroke="#fff" stroke-width="0.5"/>
    <path id="Path_6511" data-name="Path 6511" d="M266,31H248.324a1.465,1.465,0,0,0-1.465,1.465V44.184a4.4,4.4,0,0,1-4.395,4.395,1.465,1.465,0,0,0,0,2.93H266a1.465,1.465,0,0,0,1.465-1.465V32.465A1.465,1.465,0,0,0,266,31Zm-1.465,17.578H248.321a7.287,7.287,0,0,0,1.468-4.395V33.93h14.746Z" transform="translate(-217.465 -27.973)" fill="#1c1f2a" stroke="#fff" stroke-width="0.5"/>
    <path id="Path_6512" data-name="Path 6512" d="M356.126,105.395a1.465,1.465,0,0,0,2.072,0L362.592,101a1.465,1.465,0,0,0-2.072-2.072l-3.359,3.359L356,101.126a1.465,1.465,0,1,0-2.072,2.072Z" transform="translate(-318.978 -88.88)" fill="#1c1f2a" stroke="#fff" stroke-width="0.5"/>
    <path id="Path_6513" data-name="Path 6513" d="M370.216,346.43a1.465,1.465,0,0,0,2.072,0l1.036-1.036,1.036,1.036a1.465,1.465,0,0,0,2.072-2.072l-1.036-1.036,1.036-1.036a1.465,1.465,0,0,0-2.072-2.072l-1.036,1.036-1.036-1.036a1.465,1.465,0,0,0-2.072,2.072l1.036,1.036-1.036,1.036A1.465,1.465,0,0,0,370.216,346.43Z" transform="translate(-333.675 -306.604)" fill="#1c1f2a" stroke="#fff" stroke-width="0.5"/>
  </g>
</svg>
