<svg xmlns="http://www.w3.org/2000/svg" xmlns:xlink="http://www.w3.org/1999/xlink" width="320" height="320" viewBox="0 0 320 320">
  <defs>
    <linearGradient id="linear-gradient" x1="1.555" y1="-3.042" x2="1" y2="2.621" gradientUnits="objectBoundingBox">
      <stop offset="0" stop-color="#fff" stop-opacity="0.012"/>
      <stop offset="0.452" stop-color="#1c1f2a"/>
      <stop offset="1" stop-color="#fff" stop-opacity="0"/>
    </linearGradient>
    <clipPath id="clip-path">
      <circle id="Ellipse_246" data-name="Ellipse 246" cx="160" cy="160" r="160" transform="translate(0.001 0.001)" stroke="#707070" stroke-width="1" fill="url(#linear-gradient)"/>
    </clipPath>
  </defs>
  <g id="dark" transform="translate(-0.001 -0.001)" opacity="0.25" clip-path="url(#clip-path)" style="mix-blend-mode: screen;isolation: isolate">
    <g id="Group_24163" data-name="Group 24163" transform="translate(-78.841 320.775) rotate(-90)" style="mix-blend-mode: overlay;isolation: isolate">
      <path id="Path_51161" data-name="Path 51161" d="M0,0A3.4,3.4,0,0,1,.607.121,7.342,7.342,0,0,1,2.05.707,7.04,7.04,0,0,1,3.839,2.052a13.131,13.131,0,0,1,.914,1c.318.374.559.7.913,1.185A20.481,20.481,0,0,1,7.04,6.8a15.184,15.184,0,0,1,.922,2.683,18.56,18.56,0,0,1,.412,2.178,8.82,8.82,0,0,1,.077.9,3.856,3.856,0,0,1-.589-.266A8.93,8.93,0,0,1,6.516,11.4a17.474,17.474,0,0,1-1.631-1.57,17.2,17.2,0,0,1-1.647-2.18c-.189-.278-.491-.718-.707-1.1-.238-.391-.455-.8-.658-1.215C1.483,4.5,1.1,3.667.8,2.891A18.146,18.146,0,0,1,.176.869C.047.344,0,0,0,0Z" transform="translate(0 464.613)" stroke="rgba(0,0,0,0)" stroke-width="1" fill="url(#linear-gradient)"/>
      <path id="Path_51162" data-name="Path 51162" d="M0,0S.463.178,1.238.572c.387.2.861.435,1.385.752a11.044,11.044,0,0,1,1.74,1.17c.629.476,1.313,1,2.023,1.6S7.774,5.434,8.5,6.178a23.166,23.166,0,0,1,2.144,2.473c.7.9,1.392,1.844,2.086,2.79.7,1.122,1.26,2.027,1.865,3.07a31.612,31.612,0,0,1,1.661,3.178c.508,1.088,1.016,2.133,1.423,3.172s.748,2.054,1.067,2.987a24.425,24.425,0,0,1,.792,2.6c.215.786.374,1.5.51,2.073.268,1.158.384,1.84.384,1.84s-.369-.467-.95-1.322c-.289-.429-.644-.941-1.018-1.557s-.824-1.273-1.3-2-.988-1.511-1.5-2.363S14.561,21.46,14,20.559c-.278-.446-.561-.9-.848-1.362s-.627-.918-.933-1.394c-.623-.911-1.307-1.989-1.857-2.847-.64-.909-1.285-1.812-1.9-2.738-.6-.943-1.239-1.8-1.848-2.647-.6-.865-1.187-1.7-1.738-2.5C4.313,6.323,3.79,5.566,3.3,4.861S2.373,3.488,1.946,2.926,1.179,1.834.888,1.406C.31.542,0,0,0,0Z" transform="translate(0 446.812)" stroke="rgba(0,0,0,0)" stroke-width="1" fill="url(#linear-gradient)"/>
      <path id="Path_51163" data-name="Path 51163" d="M0,0S.7.253,1.9.786a22.143,22.143,0,0,1,2.14,1.081A25.693,25.693,0,0,1,6.762,3.524a33.63,33.63,0,0,1,3.129,2.3c1.081.9,2.224,1.872,3.346,3.01A45.53,45.53,0,0,1,16.6,12.564c1.139,1.294,2.156,2.847,3.231,4.3,1.022,1.666,1.959,3,2.881,4.767.948,1.649,1.761,3.359,2.528,5.024s1.419,3.365,2.027,4.971c.587,1.623,1.132,3.166,1.549,4.648.453,1.453.822,2.815,1.111,4.045.312,1.213.553,2.286.727,3.183.359,1.787.527,2.824.527,2.824s-.435-.862-1.128-2.394c-.35-.759-.777-1.681-1.264-2.741s-1.045-2.227-1.644-3.5c-.587-1.292-1.3-2.609-1.98-4.056-.722-1.408-1.5-2.866-2.311-4.357q-.62-1.105-1.256-2.243c-.425-.752-.88-1.451-1.315-2.2-.824-1.449-1.929-3.034-2.819-4.453-1-1.389-1.948-2.866-2.976-4.166-.512-.654-.992-1.351-1.5-1.982s-1.015-1.253-1.51-1.865c-1-1.2-1.984-2.365-2.934-3.435C7.569,7.92,6.686,6.86,5.815,5.989,4.956,5.1,4.174,4.255,3.461,3.554,2.747,2.828,2.127,2.2,1.614,1.676.576.642,0,0,0,0Z" transform="translate(0 430.84)" stroke="rgba(0,0,0,0)" stroke-width="1" fill="url(#linear-gradient)"/>
      <path id="Path_51164" data-name="Path 51164" d="M0,0S.933.314,2.541.958c.8.308,1.776.739,2.883,1.287l1.768.863c.61.35,1.254.716,1.923,1.1a44.4,44.4,0,0,1,4.268,2.773c.76.5,1.487,1.16,2.261,1.755a26.36,26.36,0,0,1,2.312,2c.762.739,1.538,1.491,2.322,2.248.78.775,1.517,1.67,2.273,2.547l1.134,1.324c.37.459.718.96,1.081,1.438l2.2,2.987,1.919,3.1c.317.523.642,1.013.947,1.566l.9,1.715c.591,1.143,1.211,2.26,1.732,3.421s1.018,2.318,1.513,3.454c.514,1.117.929,2.292,1.347,3.431.4,1.152.848,2.237,1.183,3.363.709,2.227,1.377,4.326,1.865,6.34q.388,1.5.742,2.86c.2.922.4,1.8.576,2.622.368,1.64.659,3.083.869,4.287.433,2.4.642,3.78.642,3.78s-.484-1.232-1.262-3.412L38.517,53.9c-.533-1.513-1.183-3.182-1.874-5-.669-1.84-1.509-3.722-2.316-5.77-.4-1.032-.9-2-1.356-3.04-.486-1.011-.9-2.125-1.441-3.131-.516-1.028-1.041-2.076-1.57-3.136-.542-1.039-1.135-2-1.693-3.036l-.852-1.534c-.3-.506-.64-1.011-.958-1.523l-1.94-3.072-1.952-2.745c-.334-.463-.654-.947-1-1.391l-1.052-1.281c-.71-.831-1.37-1.738-2.074-2.545q-1.071-1.182-2.112-2.331c-.676-.8-1.425-1.423-2.1-2.146-.7-.682-1.351-1.425-2.048-2.014C10.8,9.014,9.53,7.759,8.29,6.771,7.066,5.742,5.946,4.778,4.927,3.988S3.042,2.433,2.3,1.874C.826.714,0,0,0,0Z" transform="translate(0 415.949)" stroke="rgba(0,0,0,0)" stroke-width="1" fill="url(#linear-gradient)"/>
      <path id="Path_51165" data-name="Path 51165" d="M0,0S1.158.4,3.168,1.188c1,.387,2.222.884,3.609,1.511.693.308,1.434.637,2.212.984l2.428,1.237a58.493,58.493,0,0,1,5.4,3.117c.964.548,1.893,1.328,2.879,2.008a29.458,29.458,0,0,1,2.949,2.314c.971.871,1.963,1.753,2.964,2.651.992.92,1.925,2.022,2.889,3.072l1.443,1.6c.468.563.905,1.186,1.36,1.78q1.352,1.805,2.715,3.622,1.21,2,2.418,4c.389.659.792,1.279,1.169,1.97l1.1,2.175c.72,1.447,1.481,2.86,2.1,4.343.6,1.487,1.2,2.959,1.785,4.4.61,1.424,1.073,2.932,1.559,4.379.457,1.464.982,2.847,1.351,4.279.8,2.828,1.551,5.5,2.1,8.031q.434,1.885.831,3.6.351,1.737.661,3.289c.423,2.059.758,3.867,1.018,5.362.525,2.989.8,4.71.8,4.71s-.537-1.579-1.423-4.37c-.44-1.394-.975-3.085-1.589-5.025-.593-1.952-1.307-4.117-2.073-6.475-.733-2.382-1.666-4.846-2.569-7.5-.433-1.345-1.013-2.607-1.53-3.96-.558-1.315-1.015-2.76-1.655-4.058q-.9-2-1.836-4.062c-.639-1.341-1.36-2.573-2.022-3.905l-1.018-1.972c-.368-.65-.79-1.285-1.183-1.927Q32.833,30.5,31.655,28.6q-1.261-1.737-2.518-3.469c-.425-.571-.829-1.171-1.264-1.715l-1.347-1.542c-.909-1-1.755-2.1-2.662-3.049-.926-.922-1.837-1.834-2.736-2.728-.875-.95-1.846-1.636-2.732-2.462-.911-.769-1.759-1.63-2.664-2.275-1.791-1.339-3.446-2.73-5.052-3.816C9.1,6.408,7.636,5.349,6.325,4.47L2.942,2.11C1.062.8,0,0,0,0Z" transform="translate(0 401.532)" stroke="rgba(0,0,0,0)" stroke-width="1" fill="url(#linear-gradient)"/>
      <path id="Path_51166" data-name="Path 51166" d="M0,0,3.764,1.6c2.382,1.041,5.808,2.433,9.879,4.389,2.033.988,4.245,2.057,6.535,3.435a58.906,58.906,0,0,1,7.109,4.753,57.512,57.512,0,0,1,7.174,6.5,75.075,75.075,0,0,1,6.654,8.349c1.032,1.683,1.967,3.006,2.923,4.784.469.844.954,1.678,1.4,2.526q.652,1.3,1.3,2.577a95.931,95.931,0,0,1,4.377,10.656c.65,1.776,1.2,3.578,1.749,5.335.5,1.787,1.022,3.51,1.453,5.229.926,3.4,1.647,6.686,2.311,9.711,1.315,6.049,2.25,11.137,2.951,14.683.686,3.556,1.075,5.59,1.075,5.59s-.157-.474-.45-1.366-.744-2.19-1.249-3.879C57.9,81.518,56.5,76.65,54.829,70.854c-.854-2.883-1.77-6.01-2.806-9.242s-2.2-6.58-3.493-9.936c-1.264-3.388-2.8-6.654-4.4-9.915q-.621-1.2-1.245-2.407c-.427-.782-.873-1.525-1.309-2.292-.813-1.508-1.946-3.091-2.828-4.519a72.81,72.81,0,0,0-6.2-8,70.437,70.437,0,0,0-6.675-6.535c-2.258-1.925-4.5-3.667-6.686-5.194s-4.279-2.9-6.221-4.168c-3.9-2.484-7.175-4.563-9.439-6.125C2.39,1.772,1.523,1.094.918.669Z" transform="translate(0 387.046)" stroke="rgba(0,0,0,0)" stroke-width="1" fill="url(#linear-gradient)"/>
      <path id="Path_51167" data-name="Path 51167" d="M0,0,1.122.618c.731.4,1.8,1.009,3.178,1.7,1.362.733,3.042,1.521,4.956,2.471l6.482,3.034c2.375,1.126,4.961,2.314,7.665,3.8a71.576,71.576,0,0,1,8.413,5.133,60.265,60.265,0,0,1,8.534,7.211q1.026,1.091,2.059,2.186c.674.758,1.323,1.578,1.987,2.365l.992,1.2L46.331,31l1.919,2.649,1.693,2.713.844,1.362.818,1.494c.54,1,1.1,1.986,1.617,2.993q.737,1.536,1.47,3.061A107.043,107.043,0,0,1,59.55,57.952c1.385,4.243,2.486,8.479,3.456,12.5,1,4.013,1.8,7.856,2.554,11.389s1.432,6.762,2.04,9.628c.638,2.843,1.171,5.345,1.663,7.372.469,2.042.875,3.627,1.143,4.716s.416,1.67.416,1.67-.2-.54-.58-1.555-.965-2.488-1.591-4.445c-.663-1.937-1.421-4.319-2.246-7.081s-1.719-5.9-2.651-9.331c-.952-3.42-1.959-7.136-3.072-11s-2.363-7.878-3.769-11.908a120.218,120.218,0,0,0-4.869-11.884q-.706-1.431-1.411-2.87c-.488-.93-1.005-1.806-1.506-2.719l-.756-1.357-.85-1.343-1.712-2.687A71.975,71.975,0,0,0,38.5,27.9a70.172,70.172,0,0,0-8-7.238c-2.711-2.09-5.407-3.956-8.014-5.6s-5.1-3.151-7.4-4.565C12.774,9.112,10.665,7.769,8.8,6.558S5.341,4.205,4.036,3.221C2.715,2.29,1.736,1.406,1.047.862Z" transform="translate(0 371.94)" stroke="rgba(0,0,0,0)" stroke-width="1" fill="url(#linear-gradient)"/>
      <path id="Path_51168" data-name="Path 51168" d="M0,0,1.228.924c.807.586,1.967,1.549,3.5,2.528.763.5,1.589,1.094,2.519,1.663s1.936,1.164,3.011,1.81C12.43,8.141,14.9,9.435,17.608,10.8c2.719,1.341,5.677,2.726,8.8,4.33a96.142,96.142,0,0,1,9.766,5.511,64,64,0,0,1,9.981,7.854l2.409,2.437c.792.846,1.543,1.783,2.318,2.675l1.156,1.356,1.092,1.474,2.222,3.042L57.3,42.613l.965,1.579.93,1.742c.608,1.166,1.253,2.307,1.827,3.489L62.656,53a120.347,120.347,0,0,1,5.288,14.829c1.477,4.954,2.651,9.866,3.711,14.51,1.079,4.642,2.014,9.038,2.913,13.081.916,4.024,1.787,7.691,2.605,10.92.435,1.6.841,3.095,1.219,4.476s.782,2.615,1.118,3.752c.663,2.284,1.3,3.986,1.7,5.188l.623,1.829s-.27-.588-.779-1.689c-.487-1.12-1.311-2.679-2.129-4.865-.421-1.083-.918-2.263-1.406-3.588-.467-1.339-.975-2.79-1.517-4.34-.5-1.578-1.035-3.257-1.6-5.027q-.779-2.7-1.634-5.656c-1.105-3.954-2.252-8.267-3.457-12.792s-2.545-9.237-4.049-13.984a131.817,131.817,0,0,0-5.3-14q-.785-1.678-1.576-3.365c-.542-1.1-1.134-2.11-1.7-3.178l-.856-1.583-.973-1.557L52.9,42.849l-1.987-2.756-1.018-1.408-1.083-1.294c-.723-.852-1.426-1.748-2.167-2.56q-1.136-1.173-2.263-2.339a72.2,72.2,0,0,0-9.424-7.882c-3.195-2.231-6.363-4.223-9.41-6.017s-5.947-3.5-8.609-5.135c-1.328-.839-2.605-1.632-3.807-2.428Q11.342,9.777,9.747,8.659,8.183,7.448,6.826,6.4c-.894-.724-1.691-1.466-2.42-2.091C2.93,3.095,1.893,1.882,1.137,1.156Z" transform="translate(0 355.582)" stroke="rgba(0,0,0,0)" stroke-width="1" fill="url(#linear-gradient)"/>
      <path id="Path_51169" data-name="Path 51169" d="M0,0S.446.472,1.281,1.362Q1.91,2.031,2.823,3c.3.321.629.669.977,1.039.361.331.748.68,1.154,1.052L7.636,7.533,10.92,10.1c1.173.907,2.483,1.7,3.826,2.632,1.355.894,2.821,1.717,4.323,2.639,3.057,1.7,6.4,3.41,9.968,5.2s7.357,3.658,11.211,5.98a70.244,70.244,0,0,1,11.574,8.453A74.236,74.236,0,0,1,62.4,47.281l2.261,3.688c.365.608.741,1.186,1.1,1.821L66.811,54.8c.68,1.353,1.417,2.664,2.04,4.045q.91,2.086,1.816,4.156a140.708,140.708,0,0,1,5.691,17.2c1.563,5.726,2.824,11.364,4.028,16.658s2.356,10.264,3.5,14.808c.622,2.233,1.173,4.41,1.776,6.424.625,2,1.162,3.939,1.77,5.683s1.194,3.372,1.731,4.88l1.646,4q.374.91.709,1.717.371.768.693,1.443c.435.9.8,1.663,1.1,2.282l.918,1.908s-.368-.6-1.06-1.736l-1.275-2.091q-.377-.621-.807-1.334-.388-.762-.824-1.619c-.58-1.149-1.224-2.422-1.923-3.805q-.941-2.191-2.029-4.729c-.714-1.7-1.362-3.6-2.107-5.562-.722-1.98-1.358-4.141-2.09-6.356-.667-2.252-1.368-4.6-2.052-7.041q-.981-3.687-2.025-7.6c-1.362-5.228-2.8-10.7-4.394-16.236a151.731,151.731,0,0,0-5.719-16.354q-.87-1.95-1.742-3.915c-.6-1.29-1.27-2.454-1.9-3.692l-.96-1.836c-.346-.606-.735-1.2-1.1-1.793L60.041,50.8a71.186,71.186,0,0,0-9.923-11.713,78.152,78.152,0,0,0-11.007-8.5c-3.731-2.375-7.408-4.512-10.928-6.533-1.753-1.007-3.469-2.012-5.116-3.01-1.646-1.016-3.225-2.056-4.738-3.046-1.493-1.088-2.947-2.031-4.279-3.1-1.319-1.109-2.6-2.069-3.743-3.129Q8.6,10.145,7.127,8.744c-.937-1.041-1.795-2-2.569-2.862q-.578-.649-1.092-1.226c-.318-.423-.616-.824-.894-1.194L1.17,1.572Z" transform="translate(0 337.162)" stroke="rgba(0,0,0,0)" stroke-width="1" fill="url(#linear-gradient)"/>
      <path id="Path_51170" data-name="Path 51170" d="M0,0S.425.688,1.226,1.978C1.993,3.3,3.267,5.09,4.82,7.3a81.177,81.177,0,0,0,6.2,7.255,45.229,45.229,0,0,0,4.064,3.822c1.426,1.366,3.07,2.447,4.71,3.739a101.912,101.912,0,0,0,11.16,6.756c4.037,2.178,8.383,4.2,12.832,6.711a80.59,80.59,0,0,1,13.444,9.053c1.107.913,2.158,2,3.244,3a37.292,37.292,0,0,1,3.142,3.308,40.735,40.735,0,0,1,3.013,3.607l2.927,3.958a101.636,101.636,0,0,1,9.233,18.154,171.133,171.133,0,0,1,6.1,19.975C86.57,103.251,87.936,109.7,89.4,115.7c1.426,6.027,2.959,11.572,4.546,16.582.871,2.437,1.6,4.88,2.515,7,.873,2.161,1.657,4.266,2.579,6.051,1.682,3.76,3.469,6.673,4.865,9.184,1.508,2.341,2.707,4.226,3.593,5.358l1.328,1.821-1.447-1.617a61.108,61.108,0,0,1-3.947-4.867,84.235,84.235,0,0,1-5.418-8.744A98.306,98.306,0,0,1,92.24,133.6c-.495-1.219-.888-2.543-1.349-3.85-.433-1.322-.935-2.643-1.334-4.045-.845-2.779-1.7-5.672-2.492-8.676-1.638-5.985-3.2-12.36-4.929-18.8a183.935,183.935,0,0,0-6.142-19.148,95.825,95.825,0,0,0-8.908-17.211l-2.639-3.6a37.741,37.741,0,0,0-2.824-3.431,34.6,34.6,0,0,0-2.951-3.163c-1.028-.96-2.012-2-3.063-2.887A88.657,88.657,0,0,0,42.722,39.65c-4.338-2.571-8.627-4.893-12.656-7.325-2.022-1.181-3.967-2.445-5.838-3.7-.945-.591-1.831-1.338-2.724-1.982-.879-.686-1.768-1.266-2.59-2a64.019,64.019,0,0,1-8.672-8.585A77.344,77.344,0,0,1,4.374,8.026Q2.118,4.3,1.086,2.15C.376.748,0,0,0,0Z" transform="translate(0 315.471)" stroke="rgba(0,0,0,0)" stroke-width="1" fill="url(#linear-gradient)"/>
      <path id="Path_51171" data-name="Path 51171" d="M0,0S.37.943,1.062,2.713c.348.886.777,1.974,1.277,3.259.555,1.226,1.19,2.637,1.9,4.215.365.78.706,1.638,1.141,2.464l1.385,2.566q.72,1.335,1.5,2.777c.553.916,1.169,1.81,1.78,2.762s1.249,1.918,1.9,2.919c.652.88,1.445,1.855,2.192,2.819a63.548,63.548,0,0,0,4.921,5.655,72.352,72.352,0,0,0,12.316,9.815c4.6,2.879,9.612,5.366,14.815,8.122a101.69,101.69,0,0,1,15.857,9.82A69.608,69.608,0,0,1,76.6,75.543l3.013,4.923c.977,1.647,1.872,3.575,2.806,5.347a108.494,108.494,0,0,1,4.7,11.336,227.374,227.374,0,0,1,6.612,23.563c1.855,7.729,3.531,15.18,5.468,22.012a135.786,135.786,0,0,0,6.609,18.305c1.273,2.6,2.458,5.15,3.805,7.308.637,1.1,1.285,2.256,1.868,3.223l1.991,2.864c.646.918,1.256,1.842,1.874,2.666q.966,1.148,1.859,2.212l1.719,2.048c.553.646,1.135,1.158,1.659,1.7,1.064,1.062,2.014,2.006,2.84,2.83.862.746,1.593,1.381,2.188,1.895,1.19,1.032,1.827,1.581,1.827,1.581s-.665-.469-1.912-1.341l-2.3-1.617c-.888-.688-1.876-1.572-3-2.534-.552-.5-1.16-.958-1.751-1.557l-1.846-1.925q-.964-1.009-2.008-2.1c-.659-.776-1.3-1.634-1.989-2.49s-1.387-1.751-2.11-2.668c-.739-1.062-1.383-2.088-2.107-3.182a74.019,74.019,0,0,1-4.172-7.249,122.622,122.622,0,0,1-7.33-18.464c-2.141-6.9-4.03-14.368-5.951-22.012s-4.037-15.4-6.7-22.813a102.836,102.836,0,0,0-4.495-10.684c-.88-1.636-1.646-3.318-2.615-4.931l-2.928-4.738a66.374,66.374,0,0,0-13.7-14.916,111.682,111.682,0,0,0-15.352-9.953c-5.146-2.855-10.168-5.668-14.814-8.844a70.97,70.97,0,0,1-12.434-10.9,62.088,62.088,0,0,1-4.874-6.195c-.726-1.064-1.407-2.008-2.118-3.093L9.125,21.985c-.582-1.03-1.166-2-1.687-2.983l-1.4-2.966q-.675-1.423-1.29-2.728c-.4-.879-.716-1.787-1.049-2.609C3.046,9.033,2.451,7.565,1.99,6.246,1.561,4.9,1.2,3.763.9,2.838Z" transform="translate(0 287.814)" stroke="rgba(0,0,0,0)" stroke-width="1" fill="url(#linear-gradient)"/>
      <path id="Path_51172" data-name="Path 51172" d="M0,0S1.33,4.871,3.662,13.4c1.215,4.221,2.675,9.365,4.755,14.925A100.548,100.548,0,0,0,16.6,45.685Q17.939,47.8,19.335,50q1.533,2.012,3.127,4.1a65.546,65.546,0,0,0,7.049,7.417A86.068,86.068,0,0,0,46.66,73.058c6.195,3.357,12.8,6.458,19.22,10.979a68.556,68.556,0,0,1,17.814,18.08l1.838,3c.591.99,1.2,1.906,1.774,2.955,1.1,2.2,2.3,4.326,3.289,6.58a124.446,124.446,0,0,1,5.269,13.937c3.047,9.541,5.127,19.352,7.389,28.554a184,184,0,0,0,7.772,25.477,94.728,94.728,0,0,0,5.016,10.508q1.372,2.324,2.7,4.563,1.508,2.111,2.957,4.145a38.07,38.07,0,0,0,2.945,3.627,39.666,39.666,0,0,0,2.928,3.217q1.5,1.471,2.913,2.862c.973.863,1.948,1.632,2.877,2.418A94.019,94.019,0,0,0,143.4,221.03l9.018,5.441L150,225.309c-1.579-.759-3.9-1.855-6.828-3.376A89.4,89.4,0,0,1,132.79,215.6,60.325,60.325,0,0,1,120.4,203.945q-1.5-1.947-3.061-3.973-1.471-2.3-3-4.676a91.881,91.881,0,0,1-5.436-10.716,172.167,172.167,0,0,1-8.415-25.915c-2.366-9.267-4.61-18.842-7.548-28.02A117.576,117.576,0,0,0,87.874,117.4c-.939-2.122-2.033-4.007-3.036-6.032-1.115-1.92-2.431-3.956-3.508-5.738a65.345,65.345,0,0,0-16.837-17.26C58.32,84,51.872,80.666,45.636,77.15a84.519,84.519,0,0,1-17.44-12.5,66.745,66.745,0,0,1-7.236-8.111q-1.573-2.225-3.089-4.372-1.389-2.358-2.724-4.625A98.638,98.638,0,0,1,7.315,29.163c-1.91-5.808-3.193-11.094-4.26-15.418C2.031,9.393,1.292,5.944.78,3.6S0,0,0,0Z" transform="translate(0 250.697)" stroke="rgba(0,0,0,0)" stroke-width="1" fill="url(#linear-gradient)"/>
      <path id="Path_51173" data-name="Path 51173" d="M0,0S.5,1.328,1.442,3.818c.909,2.511,2.2,6.261,3.607,11.175C6.48,19.9,8.013,25.968,9.838,32.864A219.915,219.915,0,0,0,16.816,55.3a85.338,85.338,0,0,0,12.3,22.275,54.374,54.374,0,0,0,4.1,4.791,24.629,24.629,0,0,0,2.2,2.192L37.7,86.68c.784.669,1.6,1.275,2.4,1.921.814.622,1.6,1.328,2.458,1.872,1.685,1.152,3.367,2.367,5.141,3.386,7,4.328,14.646,7.644,22.18,12.435a70.438,70.438,0,0,1,20.954,20.253l2.069,3.376a38.411,38.411,0,0,1,2.025,3.525l1.942,3.792c.659,1.256,1.158,2.611,1.744,3.909a135.811,135.811,0,0,1,5.747,16.372c3.229,11.192,5.456,22.552,8.37,32.955.686,2.636,1.5,5.133,2.278,7.64.366,1.271.841,2.441,1.262,3.648s.843,2.409,1.292,3.576a95.345,95.345,0,0,0,6.142,12.788l1.706,2.843.423.707c.072.151.289.423.427.629l.931,1.321c.622.86,1.224,1.787,1.85,2.573s1.251,1.544,1.867,2.307c.6.79,1.26,1.481,1.906,2.178s1.279,1.408,1.927,2.067c1.338,1.226,2.6,2.564,3.939,3.618a104.161,104.161,0,0,0,15.1,10.37c4.64,2.713,8.728,4.991,12.025,7.117a82.951,82.951,0,0,1,7.521,5.362l2.569,2.144s-.922-.663-2.652-1.9c-1.736-1.213-4.336-2.821-7.678-4.7s-7.482-3.879-12.218-6.28a88.975,88.975,0,0,1-15.6-9.609c-1.4-1.016-2.732-2.328-4.143-3.531-.684-.648-1.354-1.355-2.044-2.04s-1.385-1.375-2.046-2.186q-1.009-1.179-2.033-2.375c-.673-.809-1.264-1.68-1.908-2.528l-.954-1.287c-.168-.244-.295-.37-.5-.708l-.453-.72q-.91-1.445-1.833-2.909a97.065,97.065,0,0,1-6.639-13.151,153.052,153.052,0,0,1-5.179-15.262c-3.066-10.637-5.483-21.9-8.621-32.749a129.382,129.382,0,0,0-5.551-15.641c-.554-1.213-1.045-2.534-1.649-3.665l-1.783-3.455a35.406,35.406,0,0,0-1.969-3.4L88.375,129.9l-2.144-2.915a29.848,29.848,0,0,0-2.258-2.885l-2.362-2.7c-.776-.918-1.655-1.632-2.475-2.46A67.647,67.647,0,0,0,68.609,110.7c-7.3-4.672-14.882-8.256-22.04-12.813-1.8-1.081-3.537-2.375-5.266-3.6-1.723-1.256-3.367-2.713-5-4.094L33.945,87.88a26.847,26.847,0,0,1-2.288-2.394A61.085,61.085,0,0,1,27.434,80.3a88.03,88.03,0,0,1-12.29-23.627A201.9,201.9,0,0,1,8.676,33.5C7.06,26.465,5.719,20.321,4.447,15.352S2.1,6.527,1.281,3.943C.444,1.37,0,0,0,0Z" transform="translate(0 215.803)" stroke="rgba(0,0,0,0)" stroke-width="1" fill="url(#linear-gradient)"/>
      <path id="Path_51174" data-name="Path 51174" d="M0,0S.724,1.273,2.084,3.66c.71,1.158,1.466,2.724,2.352,4.585.433.935.958,1.895,1.411,3.01s.937,2.3,1.449,3.556a185.765,185.765,0,0,1,6.138,19.053c2.075,7.544,4.117,16.212,6.788,25.3,2.694,9.042,6.155,18.555,11.324,26.764Q32.516,87.456,33.5,89l.208.329.274.363.548.729,1.105,1.462c.746.941,1.466,2.04,2.246,2.872q1.165,1.278,2.339,2.577a27.146,27.146,0,0,0,2.464,2.449c.852.775,1.682,1.615,2.556,2.365,1.793,1.4,3.55,2.942,5.454,4.162,7.468,5.3,15.836,8.8,24.117,13.816A75.663,75.663,0,0,1,87,129.055l2.9,2.758c.943.981,1.844,2.056,2.766,3.081l1.377,1.559,1.285,1.727,2.615,3.55,2.265,3.7,1.132,1.851,1.068,2.074c.7,1.389,1.44,2.755,2.1,4.166l1.857,4.313a152.346,152.346,0,0,1,6.008,18.1c3.382,12.3,5.736,24.736,9.3,35.834a95.083,95.083,0,0,0,13.733,28.46,66.325,66.325,0,0,0,18,16.813c6.114,3.969,11.948,7,17.026,10.087a90.328,90.328,0,0,1,12.822,9.12q1.267,1.139,2.394,2.154c.752.673,1.394,1.451,2.024,2.093a39.833,39.833,0,0,1,3.087,3.5c1.606,2.022,2.464,3.1,2.464,3.1l-2.575-2.885a36.455,36.455,0,0,0-3.2-3.217c-.648-.589-1.313-1.3-2.08-1.912s-1.574-1.285-2.429-1.984a85.605,85.605,0,0,0-12.949-8.239c-5.131-2.738-11.047-5.388-17.325-9.24A66.565,66.565,0,0,1,133.757,242.9a93.53,93.53,0,0,1-14.744-29.25c-3.764-11.447-6.327-23.916-9.632-35.9a146.365,146.365,0,0,0-5.819-17.366l-1.77-4.073c-.623-1.307-1.3-2.532-1.938-3.807l-.975-1.9-1.134-1.844-2.273-3.684-2.354-3.2-1.2-1.638-1.3-1.474c-.869-.973-1.712-2-2.6-2.928l-2.742-2.63a73.239,73.239,0,0,0-11.689-8.647c-8.063-4.92-16.458-8.719-24.162-14.315-1.95-1.3-3.781-2.943-5.632-4.438-.9-.8-1.774-1.691-2.653-2.537a29.782,29.782,0,0,1-2.56-2.692q-1.238-1.442-2.462-2.872c-.826-.941-1.483-2.008-2.225-3l-1.081-1.5-.537-.75-.268-.372c-.168-.249-.191-.308-.291-.47q-1-1.658-1.987-3.295C24.479,79.537,21.077,69.544,18.5,60.257c-2.6-9.327-4.376-18.116-6.219-25.739A188.982,188.982,0,0,0,6.73,15.279q-.706-1.91-1.336-3.61c-.414-1.141-.888-2.124-1.283-3.085C3.3,6.669,2.609,5.042,1.942,3.826.675,1.332,0,0,0,0Z" transform="translate(0 190.076)" stroke="rgba(0,0,0,0)" stroke-width="1" fill="url(#linear-gradient)"/>
      <path id="Path_51175" data-name="Path 51175" d="M0,0S.232.28.686.82c.444.557,1.139,1.315,1.982,2.424C3.491,4.366,4.582,5.708,5.677,7.5a60.418,60.418,0,0,1,3.735,6.221,107.486,107.486,0,0,1,8.013,19.214c1.285,3.933,2.5,8.218,3.718,12.756s2.388,9.363,3.684,14.326c.669,2.466,1.306,5.018,2.063,7.529q.552,1.9,1.116,3.828.618,1.887,1.247,3.805l.629,1.927.709,1.88q.711,1.882,1.436,3.8c.523,1.236,1.081,2.449,1.625,3.688a39.9,39.9,0,0,0,1.74,3.641q.932,1.771,1.876,3.561c.644,1.175,1.385,2.239,2.08,3.374l1.06,1.683c.163.253.389.635.5.778l.6.794q1.2,1.587,2.409,3.193a34.549,34.549,0,0,0,2.5,2.9A37.648,37.648,0,0,0,49,109.149q1.366,1.284,2.743,2.585c.928.845,1.918,1.561,2.879,2.352,7.774,6.208,16.686,10.015,25.562,15.158a87.975,87.975,0,0,1,13.112,9.2,70.5,70.5,0,0,1,6.089,6.172,35.405,35.405,0,0,1,2.862,3.478l2.791,3.788a102.321,102.321,0,0,1,8.94,17.285,182.829,182.829,0,0,1,6.193,19.482c3.467,13.185,6.025,26.431,10.2,37.98a99.448,99.448,0,0,0,7.158,15.947q1.054,1.757,2.1,3.491l.52.869c.091.164.359.512.531.759l1.16,1.613c.779,1.049,1.527,2.2,2.314,3.146q1.193,1.383,2.367,2.751a27.505,27.505,0,0,0,2.439,2.571c.833.809,1.651,1.64,2.482,2.414l2.556,2.135,1.264,1.052,1.3.937,2.56,1.85q1.3.839,2.575,1.661c1.691,1.126,3.406,2.073,5.067,3.064,3.342,1.927,6.584,3.671,9.641,5.473s5.94,3.616,8.587,5.528a65.4,65.4,0,0,1,12.926,11.9,53.526,53.526,0,0,1,4.194,5.564c1.211,1.638,2.1,3.236,2.857,4.464.746,1.251,1.26,2.29,1.634,2.949l.552,1.02-.588-.975c-.4-.631-.941-1.619-1.73-2.807-.8-1.173-1.74-2.688-3-4.221a59.258,59.258,0,0,0-4.319-5.228,61.529,61.529,0,0,0-13.046-10.982c-5.322-3.467-11.577-6.429-18.369-10.062-1.693-.943-3.437-1.833-5.179-2.919q-1.309-.791-2.649-1.6l-2.653-1.8-1.345-.914-1.322-1.037q-1.329-1.046-2.675-2.11c-.875-.775-1.738-1.6-2.62-2.414a28.337,28.337,0,0,1-2.6-2.613q-1.281-1.423-2.579-2.862c-.846-.977-1.581-2.057-2.386-3.091l-1.187-1.572c-.213-.3-.359-.452-.635-.867l-.559-.888-2.26-3.588a96.923,96.923,0,0,1-7.674-16.541c-4.427-11.991-7.208-25.386-10.612-38.292a176.336,176.336,0,0,0-6.017-18.747,96.907,96.907,0,0,0-8.577-16.427l-2.519-3.42a32.449,32.449,0,0,0-2.69-3.293,67.428,67.428,0,0,0-5.74-5.876A85.672,85.672,0,0,0,79,133.7c-8.685-5.065-17.7-9.191-25.77-15.77-1-.845-2.02-1.608-2.983-2.511q-1.434-1.386-2.855-2.76a39.23,39.23,0,0,1-2.738-3.015,40.009,40.009,0,0,1-2.586-3.159l-2.356-3.278-.584-.812c-.28-.4-.391-.631-.6-.956l-1.085-1.8c-.708-1.217-1.464-2.358-2.118-3.61q-.958-1.907-1.9-3.788c-.656-1.226-1.209-2.541-1.75-3.854S30.578,85.8,30.058,84.5l-1.423-3.973-.7-1.965q-.309-1-.616-2-.612-1.987-1.213-3.941-.541-1.987-1.073-3.935c-.733-2.59-1.33-5.179-1.967-7.693C20.625,50.9,18.634,41.6,16.3,33.7A109.74,109.74,0,0,0,8.91,14.324C7.737,11.77,6.443,9.735,5.385,7.893,4.347,6.014,3.34,4.646,2.549,3.446,1.748,2.277,1.079,1.46.654.873S0,0,0,0Z" transform="translate(0 169.379)" stroke="rgba(0,0,0,0)" stroke-width="1" fill="url(#linear-gradient)"/>
      <path id="Path_51176" data-name="Path 51176" d="M0,0,3.129,2.766c.967,1.02,2.237,2.142,3.6,3.722q1.023,1.182,2.2,2.535,1.105,1.479,2.35,3.14c.863,1.124,1.593,2.433,2.458,3.737q.632.992,1.292,2.027c.44.69.824,1.5,1.253,2.277A97.225,97.225,0,0,1,21.3,30.814c1.581,3.986,3.121,8.358,4.525,13.1.716,2.363,1.409,4.812,2.059,7.344.684,2.52,1.33,5.112,2,7.755,1.349,5.279,2.7,10.793,4.323,16.316.769,2.8,1.691,5.524,2.6,8.315.451,1.4,1.007,2.719,1.51,4.1s1.024,2.755,1.638,4.053q.879,1.984,1.77,3.994.995,1.9,2,3.813c.34.633.663,1.29,1.02,1.906l1.128,1.791c.743,1.162,1.538,2.479,2.246,3.531a72.879,72.879,0,0,0,10.88,12.286,83.825,83.825,0,0,0,12.859,8.946c4.51,2.594,9.208,4.9,13.9,7.578a85,85,0,0,1,13.9,9.465c1.139.9,2.2,2.037,3.3,3.046.54.537,1.107,1.009,1.625,1.6l1.555,1.755a41.432,41.432,0,0,1,3.04,3.643l2.944,4a101.126,101.126,0,0,1,9.341,18.358,179.708,179.708,0,0,1,6.369,20.659c1.806,6.971,3.361,13.952,5.1,20.652a175.137,175.137,0,0,0,6.021,19.106,99.014,99.014,0,0,0,8.23,16.1l.14.232c-.04-.053.079.11.111.155l.312.435.622.865,1.243,1.723,1.234,1.715c.418.535.85,1,1.273,1.5q1.275,1.479,2.535,2.94,1.352,1.323,2.687,2.63a30.605,30.605,0,0,0,2.728,2.432c.928.748,1.817,1.572,2.756,2.243,1.876,1.355,3.712,2.726,5.6,3.867,3.716,2.411,7.427,4.419,10.979,6.424,1.78,1,3.525,1.959,5.22,2.976q2.556,1.457,4.942,3.061a78.391,78.391,0,0,1,8.819,6.724,72.766,72.766,0,0,1,12.556,14.9q1.114,1.834,2.1,3.471.912,1.754,1.712,3.278c1.064,2.027,1.815,3.909,2.5,5.349,1.215,3.036,1.863,4.653,1.863,4.653s-.7-1.566-2.012-4.5a90.87,90.87,0,0,0-6.645-11.589,68.54,68.54,0,0,0-12.7-13.958c-5.356-4.41-11.844-8.011-19-11.736-3.58-1.882-7.342-3.771-11.168-6.1-1.929-1.094-3.837-2.437-5.785-3.765-.977-.656-1.914-1.476-2.883-2.218a31.711,31.711,0,0,1-2.866-2.424q-1.411-1.318-2.841-2.649l-2.762-3.057c-.457-.52-.939-1.022-1.379-1.562l-1.26-1.672-1.27-1.683-.635-.845-.319-.421-.2-.278-.149-.24a96.423,96.423,0,0,1-8.811-16.733,177.99,177.99,0,0,1-6.39-19.654c-1.844-6.811-3.439-13.771-5.22-20.625a173.885,173.885,0,0,0-6.2-19.938,95.421,95.421,0,0,0-8.961-17.447L107,158.871a38.6,38.6,0,0,0-2.857-3.45l-1.461-1.666c-.485-.559-1.026-1.007-1.534-1.515-1.047-.962-2.039-2.042-3.123-2.909a82.3,82.3,0,0,0-13.418-9.214c-4.613-2.647-9.3-5.022-13.88-7.759A87.575,87.575,0,0,1,57.5,122.863a73.623,73.623,0,0,1-11.219-13.038c-.892-1.364-1.587-2.6-2.382-3.9l-1.152-1.916c-.365-.661-.693-1.36-1.041-2.035q-1.02-2.04-2.029-4.056-.9-2.123-1.784-4.221c-.618-1.375-1.126-2.824-1.632-4.258s-1.052-2.832-1.494-4.283c-.894-2.894-1.8-5.73-2.534-8.594-1.568-5.687-2.841-11.273-4.109-16.594C25.619,49.333,23.2,39.69,20.225,31.73a99.156,99.156,0,0,0-4.648-10.652c-.4-.782-.75-1.589-1.171-2.3s-.839-1.413-1.243-2.1c-.82-1.334-1.555-2.743-2.339-3.828a74.971,74.971,0,0,0-7.791-9.86C1.054,1.039,0,0,0,0Z" transform="translate(0 151.579)" stroke="rgba(0,0,0,0)" stroke-width="1" fill="url(#linear-gradient)"/>
      <path id="Path_51177" data-name="Path 51177" d="M0,0,.892.588c.586.4,1.47.937,2.585,1.765A58.832,58.832,0,0,1,12.8,10.5a70.1,70.1,0,0,1,5.965,7.353c1.024,1.521,1.984,3.087,3.036,4.721a27.158,27.158,0,0,1,1.509,2.636q.742,1.389,1.506,2.828a32.854,32.854,0,0,1,1.458,3.015q.7,1.564,1.428,3.178c.941,2.175,1.77,4.53,2.688,6.9,1.657,4.861,3.248,10.093,4.68,15.645q2.128,8.3,4.434,17.259c1.536,5.93,3.3,11.925,5.452,17.776a91.183,91.183,0,0,0,7.9,16.652c.788,1.232,1.629,2.626,2.379,3.746q1.349,1.811,2.711,3.637a37.275,37.275,0,0,0,2.8,3.321,33.851,33.851,0,0,0,2.938,3.078c8.1,8.114,17.924,12.59,27.761,18.027a87.936,87.936,0,0,1,14.638,9.715,72.148,72.148,0,0,1,13.081,14.5,99.5,99.5,0,0,1,9.76,19.437,190.179,190.179,0,0,1,6.539,21.747c3.667,14.615,6.675,29.216,12.135,41.249a80.8,80.8,0,0,0,9.293,16.11c.44.6.871,1.238,1.315,1.8l1.355,1.568c.92,1.016,1.757,2.142,2.728,3.062q1.434,1.406,2.855,2.794c.954.909,1.967,1.668,2.936,2.5a87.946,87.946,0,0,0,11.965,8.105q6.019,3.415,11.613,6.592A99.368,99.368,0,0,1,202.2,296.4c1.593,1.364,3.178,2.6,4.64,4q1.085,1.08,2.141,2.124a23.145,23.145,0,0,1,2.025,2.159q.963,1.131,1.893,2.229a22.491,22.491,0,0,1,1.776,2.244c1.107,1.574,2.184,3.03,3.195,4.538a86.5,86.5,0,0,1,4.942,8.849,103.477,103.477,0,0,1,5.485,13.858c.557,1.659.92,2.972,1.187,3.845s.4,1.324.4,1.324-.151-.442-.438-1.3-.7-2.137-1.307-3.75a107.85,107.85,0,0,0-5.844-13.4,82.043,82.043,0,0,0-5.09-8.489c-1-1.387-2.118-2.79-3.232-4.268a20.615,20.615,0,0,0-1.791-2.107q-.935-1.026-1.9-2.084a21.628,21.628,0,0,0-2.029-2.006q-1.057-.966-2.141-1.963c-1.462-1.29-3.045-2.418-4.629-3.667A106.093,106.093,0,0,0,191,292.059l-11.71-6.216a87.952,87.952,0,0,1-12.348-7.9c-1.018-.831-2.074-1.583-3.082-2.5q-1.5-1.4-3.021-2.817c-1.02-.926-1.963-2.12-2.957-3.182L156.4,267.8c-.47-.569-.9-1.175-1.351-1.765l-1.343-1.785-.674-.9-.338-.45-.216-.289-.159-.253q-1.267-2.035-2.543-4.086c-.89-1.324-1.6-2.879-2.39-4.349-.779-1.485-1.57-2.968-2.233-4.591a136.24,136.24,0,0,1-7.168-20.321c-2.007-7.113-3.716-14.43-5.536-21.662a183.7,183.7,0,0,0-6.38-21.035A93.988,93.988,0,0,0,116.812,168a68.6,68.6,0,0,0-12.329-13.76,85.329,85.329,0,0,0-14.158-9.477c-4.867-2.705-9.79-5.252-14.579-8.232a71.117,71.117,0,0,1-13.675-10.65,37.093,37.093,0,0,1-3.114-3.344,41.97,41.97,0,0,1-2.93-3.557q-1.346-1.856-2.679-3.688c-.943-1.451-1.685-2.762-2.53-4.141a97.371,97.371,0,0,1-8-17.638C40.676,87.39,38.966,81.2,37.5,75.167q-2.168-9.02-4.185-17.4C31.989,52.2,30.468,47.06,28.963,42.2c-.843-2.35-1.6-4.708-2.469-6.877-.448-1.077-.886-2.135-1.322-3.18s-.856-2.082-1.345-3.01q-.711-1.431-1.394-2.815a27.311,27.311,0,0,0-1.421-2.666c-1-1.666-1.967-3.357-2.891-4.827a72.261,72.261,0,0,0-5.705-7.555A67.338,67.338,0,0,0,3.4,2.592C2.311,1.689,1.445,1.086.873.65S0,0,0,0Z" transform="translate(0 135.607)" stroke="rgba(0,0,0,0)" stroke-width="1" fill="url(#linear-gradient)"/>
      <path id="Path_51178" data-name="Path 51178" d="M0,0,3.743,2.063A74.218,74.218,0,0,1,14.011,9.091a66.4,66.4,0,0,1,13.9,16.044A107.394,107.394,0,0,1,40.194,53.8c1.706,5.711,3.183,11.8,4.774,18.039,1.568,6.246,3.229,12.643,5.277,18.942.977,3.187,2.178,6.235,3.363,9.339q.989,2.23,1.988,4.489c.642,1.528,1.468,2.872,2.2,4.328l1.133,2.152,1.262,2.006,1.26,2.022.633,1.016c.03.055.149.236.112.187l.176.24.357.478q1.423,1.91,2.857,3.841c.971,1.224,1.984,2.25,2.976,3.4a68.03,68.03,0,0,0,13.525,11.133c4.852,3.1,9.968,5.643,15.124,8.466a97.979,97.979,0,0,1,15.341,9.939l1.865,1.508,1.8,1.7a42.166,42.166,0,0,1,3.529,3.578l1.7,1.929a20.215,20.215,0,0,1,1.657,2.018l3.223,4.374,2.805,4.574a25.133,25.133,0,0,1,1.355,2.452l1.321,2.568c.924,1.687,1.649,3.5,2.42,5.273l1.143,2.675,1.017,2.773a214.327,214.327,0,0,1,6.69,22.792c1.9,7.659,3.618,15.26,5.7,22.467a124.474,124.474,0,0,0,7.5,20.121,75.217,75.217,0,0,0,10.342,16c.973,1.069,1.852,2.267,2.883,3.227q1.519,1.488,3.021,2.953a77.724,77.724,0,0,0,6.284,5,126.656,126.656,0,0,0,12.751,7.84c4.194,2.363,8.294,4.561,12.137,7.1a66.947,66.947,0,0,1,19.293,18.256,88.577,88.577,0,0,1,10.8,20.652,157.531,157.531,0,0,1,4.727,15.256c.907,3.629,1.388,5.564,1.388,5.564s-.54-1.9-1.557-5.46c-1.06-3.527-2.649-8.7-5.122-14.876a84.35,84.35,0,0,0-11.073-19.769A66.833,66.833,0,0,0,202.963,299.3c-3.809-2.373-7.908-4.428-12.142-6.667a125.313,125.313,0,0,1-13.047-7.563A78.147,78.147,0,0,1,171.2,280.1q-1.587-1.485-3.195-2.985c-1.086-.965-2.08-2.241-3.132-3.359A75.078,75.078,0,0,1,153.9,257.2a128.9,128.9,0,0,1-7.988-20.873c-2.209-7.393-3.986-15.069-5.872-22.647a207.5,207.5,0,0,0-6.541-22.1l-.973-2.641-1.092-2.526C130.7,184.739,130,183,129.166,181.5l-1.209-2.345a22.44,22.44,0,0,0-1.287-2.322l-2.813-4.563-2.926-3.975a18.651,18.651,0,0,0-1.557-1.91l-1.6-1.825a38.84,38.84,0,0,0-3.329-3.4l-1.7-1.623-1.778-1.447a95.362,95.362,0,0,0-14.874-9.717c-5.1-2.8-10.266-5.449-15.241-8.73a71.753,71.753,0,0,1-14.062-11.884c-1.056-1.241-2.173-2.428-3.157-3.7L60.8,120.167l-.352-.482-.177-.244c-.147-.219-.136-.215-.21-.333l-.659-1.081-1.307-2.154L56.8,113.723l-1.16-2.294c-.744-1.549-1.585-2.991-2.237-4.606q-1.009-2.389-2.008-4.75C50.2,98.815,49,95.612,48.046,92.312c-2.014-6.541-3.609-13.087-5.092-19.388-1.506-6.291-2.891-12.38-4.487-18.039C35.4,43.453,31.455,33.852,26.992,26.376A68.023,68.023,0,0,0,13.686,9.922,87.09,87.09,0,0,0,3.677,2.312C1.277.8,0,0,0,0Z" transform="translate(0 120.713)" stroke="rgba(0,0,0,0)" stroke-width="1" fill="url(#linear-gradient)"/>
      <path id="Path_51179" data-name="Path 51179" d="M0,0,3.943,1.984a106.448,106.448,0,0,1,11,6.265A64.991,64.991,0,0,1,30.565,22.522q1,1.315,2.039,2.675l.519.682.13.172.087.117.059.094.238.374.958,1.508q.966,1.519,1.959,3.083c.644,1.073,1.237,2.284,1.872,3.446a104.964,104.964,0,0,1,6.7,15.894c2.007,5.819,3.66,12.142,5.349,18.651,1.666,6.526,3.284,13.282,5.245,19.994a132.269,132.269,0,0,0,7.17,19.611,88.7,88.7,0,0,0,4.88,8.876l1.325,2.133.166.266c.006.015.1.157.036.066l.093.127.372.5.748,1c1.007,1.3,1.982,2.783,3.025,3.945s2.084,2.339,3.132,3.512q1.686,1.6,3.389,3.2a71.679,71.679,0,0,0,7.24,5.556c5,3.367,10.31,6.1,15.679,9.008a106.729,106.729,0,0,1,16.032,10.144A69.993,69.993,0,0,1,133.368,172.7l2.977,4.85c.971,1.6,1.855,3.518,2.781,5.265l.686,1.339.6,1.392,1.2,2.785c.841,1.823,1.5,3.792,2.212,5.711a236.339,236.339,0,0,1,6.826,23.82c1.959,7.977,3.8,15.857,6.065,23.295a107.523,107.523,0,0,0,8.3,20.51c.8,1.568,1.746,2.936,2.6,4.4.433.684.894,1.536,1.3,2.074l1.474,2.02a65.238,65.238,0,0,0,19.172,17.9c4.519,2.915,9.065,5.318,13.457,7.8a113.254,113.254,0,0,1,12.552,7.948,68.9,68.9,0,0,1,18.87,21.623,109.432,109.432,0,0,1,9.613,23.231c2.086,6.894,3.306,12.543,4.215,16.342.871,3.822,1.334,5.859,1.334,5.859s-.521-2-1.5-5.764c-.506-1.87-1.132-4.179-1.863-6.888-.813-2.662-1.632-5.793-2.774-9.14a104.852,104.852,0,0,0-9.941-22.392,68.072,68.072,0,0,0-18.779-20.357,108.977,108.977,0,0,0-12.467-7.459c-4.393-2.333-9.006-4.617-13.658-7.455a71.564,71.564,0,0,1-13.8-10.635,65.774,65.774,0,0,1-6.355-7.47l-1.485-2c-.593-.793-.969-1.511-1.466-2.275-.918-1.532-1.923-2.966-2.775-4.6a111.684,111.684,0,0,1-8.842-21.343c-2.405-7.653-4.313-15.651-6.267-23.576a230.3,230.3,0,0,0-6.692-23.161c-.686-1.825-1.317-3.707-2.116-5.424l-1.143-2.632-.572-1.313-.633-1.222c-.869-1.615-1.614-3.28-2.581-4.869L131,176.218a66.449,66.449,0,0,0-13.552-14.751,104.272,104.272,0,0,0-15.588-9.941A169.32,169.32,0,0,1,86,142.21,66.881,66.881,0,0,1,71.59,129.019c-1.115-1.285-2.022-2.705-3.036-4.043l-.743-1.016-.368-.508-.092-.125c-.123-.181-.083-.132-.134-.208l-.172-.285-1.379-2.263a84.867,84.867,0,0,1-5.029-9.448A138.432,138.432,0,0,1,53.48,90.613c-1.912-6.913-3.448-13.767-5.018-20.295-1.591-6.514-3.136-12.792-5.02-18.524A109.586,109.586,0,0,0,37.17,36.153c-.586-1.151-1.115-2.324-1.729-3.416q-.958-1.61-1.889-3.174-.468-.782-.926-1.555l-.229-.384-.059-.1c.023.036-.028-.04-.04-.055l-.125-.172-.491-.69Q30.7,25.238,29.749,23.9A66.572,66.572,0,0,0,14.666,9.123c-2.254-1.7-4.36-2.915-6.15-4.119C6.69,3.915,5.137,2.989,3.881,2.237Z" transform="translate(0 106.298)" stroke="rgba(0,0,0,0)" stroke-width="1" fill="url(#linear-gradient)"/>
      <path id="Path_51180" data-name="Path 51180" d="M0,0S1.411.788,4.081,2.159c2.662,1.4,6.616,3.25,11.572,5.976A73.8,73.8,0,0,1,32.771,20.7,66.382,66.382,0,0,1,41.8,32.061q1.06,1.672,2.144,3.389l2.018,3.843,1.022,1.961c.3.69.612,1.383.918,2.08.606,1.4,1.264,2.785,1.844,4.251a179.617,179.617,0,0,1,6.171,19.074C57.759,73.421,59.4,80.506,61.311,87.6a169.032,169.032,0,0,0,6.856,20.962,81.529,81.529,0,0,0,10.389,18.426l1.574,2.114,1.636,1.829a40.127,40.127,0,0,0,3.378,3.55,63.166,63.166,0,0,0,7.376,6.163,143.859,143.859,0,0,0,16.217,9.6,115.712,115.712,0,0,1,16.726,10.348,69.394,69.394,0,0,1,15,16.055l3.1,5.046c.994,1.723,1.923,3.675,2.883,5.507a116.327,116.327,0,0,1,4.827,11.736c2.841,8.092,4.946,16.561,6.962,24.853s3.977,16.463,6.463,24.094a100.023,100.023,0,0,0,9.2,20.759l1.381,2.267c.217.34.486.841.661,1.049l.773,1.06c1.035,1.381,2.04,2.881,3.085,4.149q1.587,1.814,3.155,3.612c1.1,1.124,2.233,2.19,3.338,3.282A82.772,82.772,0,0,0,200.4,294.251c4.776,2.836,9.546,5.279,14.1,8.016a87.438,87.438,0,0,1,12.836,9.171c.988.862,1.918,1.838,2.864,2.738q.7.686,1.4,1.366c.44.506.877,1.007,1.309,1.508l2.569,2.974c.78,1.088,1.555,2.167,2.316,3.227l1.134,1.589c.417.557.7,1.111,1.06,1.661.676,1.107,1.36,2.15,1.978,3.327,1.287,2.265,2.422,4.557,3.467,6.834a148.638,148.638,0,0,1,8.457,25.441c1.833,7.363,3.078,13.236,4.022,17.192.922,3.967,1.451,6.065,1.451,6.065s-.589-2.061-1.623-5.97-2.5-9.677-4.457-16.935c-2.022-7.2-4.591-15.97-8.87-24.731-1.069-2.18-2.231-4.376-3.508-6.484-.6-1.086-1.322-2.12-2.018-3.191A37.186,37.186,0,0,0,236.686,325q-1.136-1.5-2.3-3.044-1.25-1.386-2.528-2.811-.64-.708-1.287-1.426l-1.377-1.285c-.929-.846-1.84-1.77-2.811-2.581a83.931,83.931,0,0,0-12.671-8.608c-4.519-2.571-9.312-4.876-14.192-7.612a83.356,83.356,0,0,1-14.651-10.085c-1.173-1.109-2.367-2.186-3.542-3.344q-1.709-1.919-3.429-3.86c-1.109-1.324-2.086-2.756-3.142-4.139l-.78-1.049a14.358,14.358,0,0,1-.792-1.217l-1.474-2.367a104.266,104.266,0,0,1-9.805-21.653c-2.647-7.89-4.676-16.219-6.7-24.489s-4.105-16.507-6.841-24.23a110.268,110.268,0,0,0-4.591-11.09c-.9-1.687-1.7-3.41-2.666-5.078l-3-4.872a65.843,65.843,0,0,0-14.16-15.245,113.91,113.91,0,0,0-16.3-10.164,133.9,133.9,0,0,1-16.482-9.958,66.823,66.823,0,0,1-7.674-6.561,43.341,43.341,0,0,1-3.592-3.86l-1.751-2.018-1.563-2.139a83.8,83.8,0,0,1-10.742-19.543,175.67,175.67,0,0,1-6.786-21.766C57.2,81.656,55.652,74.532,53.92,67.817a178.129,178.129,0,0,0-5.793-18.829c-.548-1.442-1.168-2.794-1.738-4.175q-.434-1.029-.863-2.044c-.321-.637-.637-1.27-.954-1.9q-.949-1.887-1.874-3.731-1.052-1.76-2.078-3.474a67,67,0,0,0-8.558-11.458A75.53,75.53,0,0,0,15.417,9.033c-4.888-2.911-8.772-5.075-11.4-6.622S0,0,0,0Z" transform="translate(0 91.811)" stroke="rgba(0,0,0,0)" stroke-width="1" fill="url(#linear-gradient)"/>
      <path id="Path_51181" data-name="Path 51181" d="M0,0S.359.232,1.056.68,2.777,1.833,4.147,2.613C6.86,4.281,10.93,6.371,16.116,9.027c5.167,2.7,11.543,5.813,18.351,11.234a64.008,64.008,0,0,1,10.2,10.2c.826,1.049,1.627,2.171,2.452,3.287.214.3.393.512.635.894l.567.9q.567.91,1.143,1.825A89,89,0,0,1,53.93,45.4,137.268,137.268,0,0,1,61.2,64.634c2.1,6.947,3.85,14.334,5.759,21.795a221.251,221.251,0,0,0,6.618,22.258c.682,1.793,1.322,3.639,2.125,5.335s1.457,3.561,2.362,5.167c.879,1.63,1.674,3.38,2.63,4.937q1.42,2.293,2.853,4.6,1.629,2.2,3.274,4.423c1.109,1.415,2.269,2.59,3.4,3.911a65.551,65.551,0,0,0,7.495,6.8,114.361,114.361,0,0,0,16.743,10.289c5.8,3.1,11.746,6.208,17.438,10.512,1.4,1.147,2.823,2.227,4.205,3.435,1.345,1.3,2.726,2.526,4.043,3.9,1.275,1.459,2.586,2.86,3.833,4.377l3.635,4.918,3.164,5.167c1.018,1.848,1.993,3.843,2.985,5.762.933,1.972,1.751,4.013,2.628,6.015.812,2.052,1.54,4.168,2.311,6.246,2.9,8.458,4.991,17.3,7.077,25.91s4.179,17.07,6.924,24.878a94.141,94.141,0,0,0,10.138,20.992q1.6,2.182,3.178,4.351a21.812,21.812,0,0,0,1.646,1.987l1.655,1.887.822.943.88.854,1.763,1.695a43.348,43.348,0,0,0,3.592,3.157,101.528,101.528,0,0,0,14.98,9.834c5.02,2.834,9.992,5.428,14.666,8.558a75.713,75.713,0,0,1,12.947,10.8,71.352,71.352,0,0,1,5.4,6.641c.826,1.19,1.689,2.226,2.452,3.5.742,1.209,1.483,2.371,2.186,3.6a98.04,98.04,0,0,1,6.883,15.184c3.648,10.111,5.74,19.588,7.559,27.264,1.787,7.706,3.193,13.754,4.317,17.786.525,2.04,1.005,3.554,1.3,4.593s.457,1.57.457,1.57-.17-.525-.5-1.54-.845-2.511-1.423-4.517c-1.22-3.977-2.841-9.928-4.761-17.561-1.972-7.589-4.253-16.932-8.035-26.694a93.387,93.387,0,0,0-6.981-14.461c-.71-1.168-1.491-2.311-2.239-3.5-.706-1.149-1.592-2.18-2.4-3.295a68.052,68.052,0,0,0-5.3-6.288,72.131,72.131,0,0,0-12.719-10.147c-4.61-2.94-9.569-5.379-14.651-8.088a101.942,101.942,0,0,1-15.439-9.647,44.682,44.682,0,0,1-3.784-3.191l-1.853-1.759-.928-.892-.9-1.007c-1.168-1.364-2.452-2.66-3.535-4.111l-3.291-4.462a98.277,98.277,0,0,1-10.75-21.957,263.274,263.274,0,0,1-7.194-25.373c-2.122-8.609-4.213-17.236-7.023-25.309-.746-1.974-1.449-3.994-2.229-5.938-.839-1.88-1.632-3.835-2.505-5.66-.926-1.755-1.793-3.535-2.76-5.281l-3.18-5.146-3.3-4.506c-1.171-1.436-2.4-2.768-3.6-4.162-1.239-1.307-2.547-2.477-3.816-3.726-1.307-1.158-2.668-2.2-4-3.312C125,164.762,119.191,161.654,113.4,158.5a117.567,117.567,0,0,1-17.077-10.688,68.681,68.681,0,0,1-7.844-7.217c-1.211-1.417-2.5-2.775-3.629-4.238q-1.632-2.236-3.257-4.451a95.572,95.572,0,0,1-10.419-21.3,229.671,229.671,0,0,1-6.5-22.936c-1.823-7.553-3.465-14.92-5.443-21.772A135.9,135.9,0,0,0,52.4,47.007a87.62,87.62,0,0,0-4.232-7.878q-.564-.932-1.121-1.855l-.555-.92c-.13-.223-.376-.542-.555-.807-.792-1.1-1.54-2.235-2.324-3.284a64.77,64.77,0,0,0-9.752-10.4C27.291,16.248,21,12.858,15.895,9.932,10.758,7.079,6.754,4.67,4.075,2.857,2.723,2,1.725,1.22,1.035.744Z" transform="translate(0 76.706)" stroke="rgba(0,0,0,0)" stroke-width="1" fill="url(#linear-gradient)"/>
      <path id="Path_51182" data-name="Path 51182" d="M0,0,1.041.878c.7.552,1.685,1.5,3.059,2.5a91.4,91.4,0,0,0,12.165,7.665C21.6,14,28.254,16.941,35.609,21.64a64.746,64.746,0,0,1,11.236,9.021l1.421,1.408q.68.779,1.368,1.572c.9,1.084,1.872,2.08,2.724,3.316.88,1.219,1.765,2.324,2.671,3.678q1.222,1.953,2.471,3.949a107.022,107.022,0,0,1,8.672,19.074c2.445,7.075,4.427,14.717,6.393,22.524s3.924,15.808,6.471,23.537a103.673,103.673,0,0,0,9.688,21.717l1.517,2.449.378.614.376.512.854,1.151a52.451,52.451,0,0,0,3.471,4.453,62.6,62.6,0,0,0,7.559,7.491,99.213,99.213,0,0,0,17.26,11.094c6.016,3.238,12.208,6.41,18.162,10.769a67.658,67.658,0,0,1,16.357,17.06L158,192.481c1.045,1.976,2.071,4.015,3.1,6.023.9,2.093,1.817,4.177,2.692,6.289.784,2.18,1.615,4.328,2.352,6.535,2.932,8.846,5.067,18.044,7.247,26.984a218.07,218.07,0,0,0,7.465,25.645A85.448,85.448,0,0,0,192.081,285c.565.758,1.119,1.561,1.689,2.275l1.738,1.978,1.729,1.974,1.848,1.783,1.842,1.772c.622.565,1.275,1.058,1.91,1.589l1.9,1.578c.637.52,1.305.95,1.952,1.43A150.5,150.5,0,0,0,222.53,309a122.96,122.96,0,0,1,15.159,9.5,70.154,70.154,0,0,1,12.819,12.862q1.366,1.887,2.7,3.735c.9,1.339,1.63,2.62,2.439,3.913.812,1.232,1.5,2.711,2.237,4.052.357.688.724,1.358,1.066,2.046.317.708.635,1.409.946,2.108a121.224,121.224,0,0,1,6.072,16.7c3.163,10.929,5.139,20.816,7.132,28.745,1.959,7.946,3.733,14.062,5.16,18.077.672,2.04,1.305,3.507,1.678,4.542.389,1.022.591,1.549.591,1.549s-.215-.514-.631-1.513c-.4-1.013-1.073-2.447-1.8-4.449A180.436,180.436,0,0,1,272.494,393c-2.152-7.867-4.326-17.68-7.659-28.326a116.161,116.161,0,0,0-6.259-16.1,78.528,78.528,0,0,0-9.3-15.1,66.589,66.589,0,0,0-12.552-12.118A119.027,119.027,0,0,0,221.7,312.4a149.48,149.48,0,0,1-16.189-9.344c-.674-.478-1.366-.907-2.033-1.428l-2-1.589c-.663-.548-1.341-1.056-2-1.638l-1.939-1.838-1.944-1.859-1.876-2.116-1.882-2.133c-.6-.739-1.137-1.517-1.71-2.275a89.5,89.5,0,0,1-11.887-22.018,222.827,222.827,0,0,1-7.778-26.255c-2.226-8.97-4.362-17.975-7.211-26.437-.716-2.112-1.517-4.145-2.271-6.225l-2.571-5.934-2.855-5.5-3.255-5.275a64.314,64.314,0,0,0-15.434-16.274c-5.7-4.236-11.755-7.412-17.791-10.718A102.109,102.109,0,0,1,101.4,151.988a65.969,65.969,0,0,1-7.99-8.035,56.077,56.077,0,0,1-3.531-4.585l-.848-1.16-.471-.65-.4-.65-1.585-2.592a104.085,104.085,0,0,1-10-22.847c-2.535-8.054-4.419-16.218-6.291-24.052s-3.728-15.39-6.025-22.327a105.3,105.3,0,0,0-8.141-18.626A69.1,69.1,0,0,0,35.1,23.316c-7.166-4.948-13.771-8.181-19.065-11.375A86.645,86.645,0,0,1,4.011,3.607C2.662,2.53,1.7,1.528,1.018.937Z" transform="translate(0 60.347)" stroke="rgba(0,0,0,0)" stroke-width="1" fill="url(#linear-gradient)"/>
      <path id="Path_51183" data-name="Path 51183" d="M0,0,3.871,4.428A72.278,72.278,0,0,0,15.9,14.321c5.416,3.612,12.284,6.858,20.1,11.067a84.231,84.231,0,0,1,12.18,7.878c1.024.86,2.107,1.613,3.119,2.594s2.044,1.954,3.085,2.949A72.627,72.627,0,0,1,60.3,45.889q.72.969,1.451,1.948c.527.763.9,1.423,1.366,2.144.871,1.451,1.814,2.77,2.651,4.366s1.681,3.212,2.531,4.84q1.136,2.559,2.286,5.163A178.1,178.1,0,0,1,78,87.413c2.137,8.133,4.073,16.567,6.5,24.819a120.117,120.117,0,0,0,9.259,23.506l.712,1.372.792,1.275,1.583,2.562.794,1.287.1.161c-.059-.087.047.062.064.083l.223.3.448.6,1.793,2.422a49.351,49.351,0,0,0,3.692,4.406,50.183,50.183,0,0,0,3.947,3.947,84.826,84.826,0,0,0,17.78,12.074c6.256,3.4,12.717,6.618,18.946,11.075A67.822,67.822,0,0,1,161.754,194.9l3.48,5.7c1.067,2.1,2.184,4.175,3.2,6.312.916,2.2,1.929,4.326,2.76,6.59.8,2.282,1.721,4.491,2.407,6.841,3,9.254,5.169,18.857,7.451,28.15a180.55,180.55,0,0,0,8.128,26.418c.884,1.98,1.659,4.066,2.67,5.889.977,1.853,1.859,3.818,2.97,5.488l1.587,2.592c.248.4.561.943.754,1.219l.89,1.213,1.77,2.416.882,1.205.911,1.045a64.267,64.267,0,0,0,7.6,7.665,80.666,80.666,0,0,0,8.181,6.038c5.553,3.6,11.23,6.482,16.7,9.654a86.658,86.658,0,0,1,15.52,11.024,69,69,0,0,1,12.429,15.292,92.32,92.32,0,0,1,4.761,8.791q1.006,2.318,1.986,4.585c.659,1.5,1.169,3.112,1.748,4.631a185.572,185.572,0,0,1,5.3,18.1c2.832,11.611,5.016,21.815,7.447,29.864a130.939,130.939,0,0,0,6.658,17.873l2.978,5.749s-1.086-1.946-3.125-5.59a120.4,120.4,0,0,1-7.1-17.629c-2.6-8-4.99-18.188-8.018-29.6a179.546,179.546,0,0,0-5.552-17.614c-.592-1.462-1.122-3.006-1.776-4.457s-1.311-2.921-1.98-4.408a87.878,87.878,0,0,0-4.712-8.4A65.179,65.179,0,0,0,248.5,333.091a82.978,82.978,0,0,0-15.273-10.37c-5.445-3-11.177-5.743-16.915-9.293a67.554,67.554,0,0,1-16.6-14.183l-.984-1.124-.886-1.2-1.781-2.4-.892-1.205c-.389-.55-.59-.931-.894-1.406l-1.683-2.721c-1.173-1.757-2.116-3.809-3.153-5.76-1.071-1.919-1.9-4.092-2.83-6.168a184.8,184.8,0,0,1-8.494-27.164c-2.339-9.358-4.516-18.787-7.433-27.655-.672-2.267-1.555-4.345-2.328-6.526-.8-2.152-1.768-4.143-2.643-6.227-.948-1.978-1.967-3.839-2.942-5.772l-3.387-5.5a64.606,64.606,0,0,0-16.17-16.792c-5.97-4.336-12.314-7.57-18.613-11.045a88.107,88.107,0,0,1-18.281-12.62,53.468,53.468,0,0,1-4.17-4.223,53.809,53.809,0,0,1-3.879-4.691L96.495,146.6,96.049,146l-.223-.3-.159-.219-.1-.17-.833-1.36-1.661-2.713-.826-1.355-.746-1.445a119.867,119.867,0,0,1-9.509-24.6C79.6,105.3,77.755,96.786,75.734,88.694A176.753,176.753,0,0,0,68.753,66q-1.085-2.539-2.148-5.039-1.185-2.344-2.344-4.644c-.769-1.538-1.731-2.938-2.575-4.393-.427-.688-.888-1.5-1.279-2.076-.463-.642-.924-1.279-1.381-1.916a71.645,71.645,0,0,0-5.654-7Q51.871,39.448,50.4,38c-.975-.973-2.012-1.765-3-2.641a85.736,85.736,0,0,0-11.857-8.249c-7.682-4.5-14.544-8.052-19.924-11.91A71,71,0,0,1,3.758,4.64Z" transform="translate(0 41.929)" stroke="rgba(0,0,0,0)" stroke-width="1" fill="url(#linear-gradient)"/>
      <path id="Path_51184" data-name="Path 51184" d="M0,0,.854,1.47c.561.973,1.381,2.437,2.569,4.177C4.538,7.489,6.144,9.4,7.944,11.81a71.912,71.912,0,0,0,6.766,7.058,69.6,69.6,0,0,0,9.125,6.954q5.172,3.231,11.337,6.367c4.087,2.158,8.487,4.3,13.013,7.121A70.66,70.66,0,0,1,61.815,50.228a74.884,74.884,0,0,1,12.2,17.327A124.8,124.8,0,0,1,83.028,90.85c2.464,8.436,4.481,17.327,6.826,26.138,2.354,8.795,5.022,17.583,8.764,25.524q1.485,2.874,2.981,5.774,1.644,2.65,3.3,5.32c1.258,1.68,2.507,3.427,3.782,5.069,1.324,1.445,2.585,2.991,3.962,4.377a78.837,78.837,0,0,0,18.345,13.327c6.512,3.626,13.3,6.871,19.847,11.449a68.559,68.559,0,0,1,18.067,18.3c1.2,1.969,2.407,3.869,3.582,5.912l1.693,3.295c.554,1.105,1.156,2.178,1.617,3.342.96,2.307,2.035,4.519,2.851,6.936l1.3,3.561c.423,1.192.778,2.424,1.169,3.635,3.082,9.728,5.266,19.817,7.707,29.492s5.194,19.019,8.968,27.257c.939,2.056,2,3.971,2.989,5.955,1.088,1.865,2.224,3.658,3.325,5.483q1.842,2.525,3.671,5.035l3.839,4.368a77.891,77.891,0,0,0,17.177,13.013c5.93,3.484,11.914,6.484,17.593,10.143a70.652,70.652,0,0,1,15.66,13.38q.87,1,1.729,2c.565.678,1.073,1.449,1.61,2.167s1.052,1.453,1.576,2.176l.812,1.13.7,1.154c.924,1.544,1.855,3.036,2.751,4.578q1.261,2.491,2.5,4.933a132.735,132.735,0,0,1,7.353,20.257c1.9,6.726,3.34,13.267,4.793,19.339q2.1,9.148,4.281,16.845a135.735,135.735,0,0,0,4.681,13.561,104.786,104.786,0,0,0,4.755,10.059c1.615,2.662,2.894,5.048,4.143,6.709,1.173,1.77,2.154,2.985,2.807,3.82s.99,1.27.99,1.27-.348-.414-1.018-1.217-1.691-1.97-2.9-3.675c-1.285-1.593-2.637-3.932-4.325-6.524a92.491,92.491,0,0,1-5-9.928,134.02,134.02,0,0,1-4.973-13.516c-1.553-5.107-3.1-10.725-4.61-16.769-3.089-12.016-6.354-25.87-12.5-38.592q-1.2-2.29-2.416-4.627c-.9-1.5-1.857-2.987-2.8-4.5l-.71-1.137-.735-.973q-.768-1.026-1.542-2.059c-.525-.676-1.02-1.409-1.57-2.052q-.842-.938-1.689-1.882A66.941,66.941,0,0,0,245.432,336.9c-5.594-3.452-11.57-6.291-17.631-9.681a75.893,75.893,0,0,1-17.846-13.28c-1.387-1.527-2.779-3.108-4.156-4.693l-1.87-2.526-.939-1.268-.469-.635-.236-.317-.117-.159c-.134-.193-.1-.155-.161-.246-1.169-1.91-2.375-3.794-3.527-5.753-1.052-2.08-2.178-4.1-3.174-6.252-4.007-8.643-6.906-18.358-9.4-28.146-2.509-9.807-4.706-19.737-7.71-29.078-.382-1.16-.729-2.352-1.137-3.49l-1.254-3.387c-.784-2.307-1.814-4.379-2.728-6.563-.446-1.115-1-2.065-1.508-3.078l-1.549-3.01c-1.139-1.97-2.394-3.9-3.578-5.859l-1.857-2.522c-.642-.854-1.252-1.77-1.925-2.573l-2.054-2.345a27.447,27.447,0,0,0-2.1-2.265c-1.472-1.36-2.864-2.889-4.419-4.054l-2.278-1.863c-.765-.608-1.568-1.122-2.35-1.691-6.286-4.461-12.97-7.725-19.569-11.455a82.141,82.141,0,0,1-18.942-13.973c-1.459-1.487-2.845-3.193-4.257-4.778-1.3-1.687-2.522-3.418-3.779-5.114-1.281-2.016-2.369-3.847-3.554-5.772-1.054-2.029-2.1-4.06-3.117-6.1a150.445,150.445,0,0,1-8.932-26.518c-2.282-9-4.194-17.884-6.516-26.195a122.7,122.7,0,0,0-8.454-22.715A73.655,73.655,0,0,0,60.727,52.5c-8.572-9.14-17.89-13.992-25.98-18.577C30.68,31.67,26.9,29.376,23.461,27.07a72.483,72.483,0,0,1-9.1-7.387,67.514,67.514,0,0,1-6.686-7.438c-1.738-2.5-3.31-4.5-4.387-6.418C2.141,4.018,1.357,2.517.818,1.515S0,0,0,0Z" transform="translate(0 20.238)" stroke="rgba(0,0,0,0)" stroke-width="1" fill="url(#linear-gradient)"/>
      <path id="Path_51185" data-name="Path 51185" d="M0,0S.251.572.737,1.685,1.92,4.474,2.974,6.5a79.154,79.154,0,0,0,4.043,7.253A85.11,85.11,0,0,0,13.308,22.4,70.872,70.872,0,0,0,33.589,38.541c4.181,2.36,8.727,4.544,13.473,7.141a83.618,83.618,0,0,1,14.572,9.771A69.858,69.858,0,0,1,75.289,71.647q.76,1.216,1.527,2.445c.491.862.958,1.8,1.438,2.707s.96,1.834,1.442,2.758.871,1.923,1.315,2.887c.861,1.944,1.74,3.9,2.473,5.991q.578,1.547,1.16,3.1c.385,1.043.7,2.133,1.06,3.2,2.815,8.587,4.991,17.791,7.323,27s4.865,18.46,8.494,26.928a78.646,78.646,0,0,0,13.85,22.225,66.233,66.233,0,0,0,8.885,8.116c1.6,1.109,3.183,2.278,4.823,3.306,1.649,1.005,3.282,2.065,4.976,2.981,6.709,3.837,13.739,7.079,20.531,11.748a69.468,69.468,0,0,1,18.694,18.7l1.916,3.113c.61,1.043,1.256,1.955,1.838,3.106l1.749,3.41.873,1.708c.278.576.516,1.179.775,1.766,1.02,2.365,2.067,4.708,2.917,7.2.442,1.232.913,2.447,1.328,3.694l1.192,3.775c3.142,10.093,5.322,20.538,7.9,30.506.616,2.518,1.328,4.942,2,7.395.693,2.435,1.479,4.786,2.228,7.164a110.475,110.475,0,0,0,5.475,13.231l1.566,3.064c.512,1.033,1.141,1.918,1.7,2.881l1.73,2.832.108.176a.535.535,0,0,0,.068.1l.244.331.486.663.969,1.323,1.935,2.637,1.995,2.267c.676.739,1.3,1.549,2.01,2.231l2.127,2.044c5.7,5.4,11.933,9.144,18.126,12.613s12.393,6.7,18.173,10.882a67.828,67.828,0,0,1,15.541,15.475l1.661,2.294c.616.863,1.02,1.64,1.536,2.46q.737,1.213,1.462,2.414c.242.406.489.79.722,1.211l.669,1.317c.869,1.768,1.815,3.454,2.588,5.245s1.536,3.573,2.262,5.354a179.716,179.716,0,0,1,6.577,21.651c1.749,7.049,3.219,13.8,4.807,20.017,3.1,12.464,6.843,22.719,10.867,30.151a92.317,92.317,0,0,0,5.813,9.337,63.937,63.937,0,0,0,4.878,6c1.368,1.568,2.5,2.6,3.242,3.325l1.135,1.094s-.395-.351-1.158-1.035-1.918-1.663-3.325-3.163a70.372,70.372,0,0,1-11.092-14.95c-4.2-7.355-8.184-17.644-11.521-30.089-1.708-6.2-3.3-12.908-5.15-19.837a182.711,182.711,0,0,0-6.7-21.09q-1.111-2.542-2.246-5.135c-.765-1.715-1.672-3.267-2.511-4.931l-.642-1.234c-.229-.4-.487-.792-.729-1.188q-.739-1.185-1.489-2.38c-.491-.756-1.013-1.691-1.485-2.309q-.808-1.08-1.623-2.169a64.126,64.126,0,0,0-15.141-14.566c-5.656-3.933-11.793-6.985-18.073-10.329a84.225,84.225,0,0,1-18.719-12.787l-2.239-2.129c-.748-.708-1.445-1.591-2.173-2.384l-2.163-2.45-1.944-2.624-.975-1.317-.487-.659-.244-.329c0,.008-.142-.193-.168-.242l-.115-.185-1.836-2.97c-.6-1.013-1.264-1.944-1.808-3.027l-1.665-3.219a114.781,114.781,0,0,1-5.792-13.837c-.784-2.454-1.612-4.9-2.333-7.4-.7-2.509-1.445-5.01-2.078-7.553-2.658-10.121-4.865-20.467-7.929-30.162l-1.158-3.626c-.4-1.194-.858-2.343-1.283-3.518-.82-2.382-1.821-4.585-2.794-6.82-.246-.552-.476-1.132-.735-1.663l-.8-1.553-1.6-3.112c-1.12-2.016-2.52-4.119-3.633-5.987A66.32,66.32,0,0,0,153.233,201.4c-6.525-4.555-13.487-7.833-20.3-11.782-1.712-.941-3.4-2.046-5.082-3.089-1.683-1.073-3.327-2.3-4.978-3.463a69.611,69.611,0,0,1-9.331-8.628,83.386,83.386,0,0,1-14.476-23.48,177.735,177.735,0,0,1-8.6-27.812c-2.252-9.333-4.306-18.449-6.954-26.854-.334-1.045-.635-2.118-1-3.132l-1.092-3.025c-.686-2.046-1.515-3.941-2.324-5.83-.416-.933-.78-1.931-1.232-2.8L76.54,78.877c-.448-.869-.865-1.753-1.332-2.6q-.754-1.244-1.5-2.479A68.724,68.724,0,0,0,60.685,57.857a88.14,88.14,0,0,0-14.2-9.951c-4.663-2.756-9.176-5.114-13.35-7.652a73.875,73.875,0,0,1-20.261-17.13,80.52,80.52,0,0,1-6.157-8.972,82.65,82.65,0,0,1-3.9-7.495C1.816,4.566,1.16,2.855.7,1.721S0,0,0,0Z" transform="translate(2.666 0)" stroke="rgba(0,0,0,0)" stroke-width="1" fill="url(#linear-gradient)"/>
      <path id="Path_51186" data-name="Path 51186" d="M0,0,.862,1.453q.425.72,1.056,1.782L3.457,5.57c.559.911,1.271,1.783,2.039,2.8.771.994,1.591,2.125,2.52,3.263q1.448,1.584,3.11,3.4c1.1,1.217,2.394,2.271,3.688,3.516S17.6,20.8,19.095,22.027c1.525,1.135,3.165,2.2,4.865,3.327q5.172,3.171,11.317,6.288c4.081,2.135,8.456,4.321,12.968,7.136a69.587,69.587,0,0,1,13.523,11.06c1.075,1.22,2.193,2.4,3.263,3.7q1.542,2.06,3.112,4.162l.4.527c.187.278.255.4.389.612l.712,1.137q.711,1.142,1.432,2.294c.992,1.462,1.85,3.27,2.766,4.982a128.128,128.128,0,0,1,8.889,23.295c2.437,8.417,4.446,17.277,6.792,26.051,2.358,8.751,5.026,17.512,8.795,25.386,1,1.895,1.959,3.852,3,5.724,1.1,1.744,2.233,3.671,3.31,5.286,1.255,1.661,2.494,3.448,3.777,5.024,1.322,1.43,2.562,3,3.96,4.349a79.119,79.119,0,0,0,18.3,13.236c6.493,3.607,13.261,6.856,19.785,11.421A68.718,68.718,0,0,1,168.4,205.2l1.846,3c.591.994,1.205,1.91,1.78,2.968l1.687,3.285c.548,1.1,1.154,2.169,1.613,3.329.954,2.3,2.033,4.5,2.845,6.911l1.294,3.55c.431,1.185.778,2.418,1.171,3.624,3.074,9.69,5.26,19.747,7.688,29.4s5.163,18.968,8.908,27.2c.911,2.078,1.989,3.964,2.966,5.949,1.054,1.895,2.209,3.654,3.3,5.483l.208.34a.565.565,0,0,0,.064.094l.115.159.467.637.931,1.27,1.855,2.535c1.262,1.545,2.549,2.926,3.811,4.4a76.324,76.324,0,0,0,17.085,13.062c5.9,3.486,11.87,6.471,17.534,10.092a71.41,71.41,0,0,1,15.66,13.193,74.255,74.255,0,0,1,6.471,8.515q1.389,2.3,2.751,4.547c.875,1.581,1.681,3.272,2.507,4.876a128.9,128.9,0,0,1,7.451,20.106c1.9,6.705,3.365,13.208,4.8,19.269q2.1,9.12,4.23,16.818c.761,2.522,1.476,4.961,2.239,7.228.824,2.218,1.5,4.43,2.339,6.359s1.547,3.839,2.367,5.481,1.583,3.193,2.3,4.631c.763,1.375,1.523,2.588,2.19,3.735s1.268,2.192,1.884,3.03q.893,1.3,1.572,2.288.714.935,1.2,1.568c.644.844.979,1.279.979,1.279s-.344-.418-1.009-1.228c-.333-.406-.748-.909-1.238-1.508q-.706-.952-1.628-2.2c-.633-.8-1.256-1.846-1.963-2.943-.7-1.115-1.491-2.3-2.292-3.641q-1.128-2.117-2.422-4.546c-.858-1.625-1.606-3.523-2.488-5.439s-1.6-4.119-2.477-6.331c-.814-2.26-1.578-4.691-2.394-7.21-1.525-5.1-3.042-10.712-4.553-16.737-1.545-6-3.127-12.422-5.109-18.944a128.648,128.648,0,0,0-7.483-19.393c-.81-1.513-1.572-3.076-2.435-4.595q-1.386-2.219-2.8-4.479a70.794,70.794,0,0,0-6.274-7.978,67.8,67.8,0,0,0-15.315-12.407c-5.583-3.414-11.544-6.24-17.583-9.635a74.42,74.42,0,0,1-17.759-13.336c-1.366-1.561-2.789-3.1-4.117-4.712l-1.865-2.52-.935-1.262-.468-.633-.117-.157c0,.008-.138-.189-.162-.236l-.219-.355c-1.162-1.912-2.384-3.763-3.5-5.753-1.043-2.08-2.184-4.071-3.149-6.248-3.977-8.63-6.854-18.315-9.342-28.077s-4.693-19.669-7.689-28.976c-.382-1.156-.724-2.346-1.137-3.474l-1.249-3.378c-.782-2.3-1.814-4.36-2.722-6.539-.444-1.115-1-2.054-1.5-3.066l-1.545-3c-1.115-1.929-2.439-3.966-3.516-5.759a65.443,65.443,0,0,0-16.97-17.353c-6.265-4.451-12.923-7.718-19.5-11.424a82.422,82.422,0,0,1-18.9-13.879c-1.468-1.434-2.841-3.168-4.253-4.738-1.33-1.657-2.522-3.4-3.784-5.088-1.3-1.948-2.367-3.816-3.552-5.721-1.09-1.978-2.093-4.045-3.136-6.051a146.728,146.728,0,0,1-8.97-26.389c-2.284-8.974-4.187-17.829-6.486-26.127a125.717,125.717,0,0,0-8.339-22.732A72.594,72.594,0,0,0,60.665,52.089,72.188,72.188,0,0,0,47.6,40.959c-4.391-2.945-8.71-5.294-12.749-7.589-4.055-2.243-7.829-4.5-11.266-6.765-1.695-1.209-3.331-2.345-4.852-3.552-1.491-1.3-2.97-2.373-4.262-3.68s-2.566-2.422-3.661-3.7l-3.064-3.6c-.9-1.19-1.695-2.36-2.443-3.4S3.867,6.7,3.325,5.755Q2.484,4.38,1.84,3.335C1.438,2.605,1.1,1.991.828,1.5Z" transform="translate(14.646 0)" stroke="rgba(0,0,0,0)" stroke-width="1" fill="url(#linear-gradient)"/>
      <path id="Path_51187" data-name="Path 51187" d="M0,0S1.334,1.564,3.881,4.4a72.358,72.358,0,0,0,12.037,9.815C21.332,17.8,28.2,21.033,36,25.252a83.066,83.066,0,0,1,12.157,7.9c1.018.867,2.107,1.6,3.108,2.609q1.522,1.457,3.079,2.949l2.994,3.372.758.858.71.952,1.436,1.921,1.449,1.946q.672,1.071,1.353,2.156l1.332,2.131A22.523,22.523,0,0,1,65.681,54.3q1.253,2.395,2.528,4.837Q69.333,61.7,70.483,64.3a181,181,0,0,1,7.38,23.053c2.129,8.126,4.064,16.546,6.492,24.785A119.625,119.625,0,0,0,93.623,135.6a25.3,25.3,0,0,0,1.508,2.636l1.583,2.556.8,1.287.837,1.141,1.793,2.418a49.558,49.558,0,0,0,3.688,4.391,51.385,51.385,0,0,0,3.947,3.935,85.048,85.048,0,0,0,17.767,12.044c6.248,3.391,12.7,6.612,18.923,11.064a67.875,67.875,0,0,1,17.1,17.58l3.476,5.687c1.066,2.1,2.18,4.173,3.193,6.308.916,2.2,1.925,4.319,2.76,6.578.8,2.28,1.719,4.485,2.4,6.832,3,9.242,5.167,18.834,7.448,28.118a180.62,180.62,0,0,0,8.107,26.4c.886,1.971,1.649,4.068,2.658,5.885.982,1.848,1.853,3.822,2.962,5.488l1.583,2.592.748,1.22.888,1.211,1.768,2.414.88,1.2c.3.385.607.7.909,1.056l1.815,2.069a20.508,20.508,0,0,0,1.865,1.984l1.937,1.859a20.5,20.5,0,0,0,1.969,1.761,81.692,81.692,0,0,0,8.166,6.046c5.545,3.609,11.211,6.484,16.68,9.647A87.645,87.645,0,0,1,249.3,329.981a69.521,69.521,0,0,1,12.443,15.226l1.273,2.1.631,1.041.584,1.135q1.156,2.267,2.29,4.483l1.984,4.578c.676,1.487,1.175,3.1,1.755,4.617a181.255,181.255,0,0,1,5.322,18.065c2.84,11.593,5.012,21.791,7.427,29.837a132.571,132.571,0,0,0,6.607,17.886c1.9,3.779,2.959,5.764,2.959,5.764s-1.1-1.919-3.1-5.606a121.141,121.141,0,0,1-7.053-17.644c-2.583-7.994-4.962-18.181-8-29.573a175.018,175.018,0,0,0-5.571-17.576c-.593-1.457-1.111-3.01-1.784-4.442q-.975-2.171-1.976-4.4-1.1-2.086-2.229-4.217l-.565-1.069-.643-1.022-1.3-2.065a65.68,65.68,0,0,0-12.167-14.377A83.8,83.8,0,0,0,232.915,322.4c-5.441-2.993-11.167-5.736-16.9-9.288a67.441,67.441,0,0,1-16.565-14.2c-.325-.378-.671-.737-.975-1.13l-.886-1.2-1.778-2.4-.892-1.2c-.382-.569-.588-.935-.89-1.413l-1.681-2.717c-1.173-1.755-2.1-3.818-3.144-5.76-1.07-1.918-1.884-4.1-2.821-6.168a185.6,185.6,0,0,1-8.472-27.139c-2.335-9.348-4.511-18.762-7.427-27.621-.671-2.265-1.555-4.338-2.324-6.516-.8-2.148-1.766-4.139-2.643-6.219-.948-1.972-1.965-3.835-2.938-5.764l-3.384-5.5a64.569,64.569,0,0,0-16.15-16.779c-5.962-4.33-12.3-7.563-18.589-11.035A88.347,88.347,0,0,1,106.2,157.766a55.206,55.206,0,0,1-4.166-4.209,55.727,55.727,0,0,1-3.882-4.68l-1.782-2.435-.933-1.288-.833-1.358-1.657-2.709a27.082,27.082,0,0,1-1.577-2.79,119.367,119.367,0,0,1-9.522-24.557c-2.392-8.511-4.238-17.019-6.252-25.1a179.048,179.048,0,0,0-6.945-22.692q-1.08-2.542-2.14-5.042-1.179-2.341-2.339-4.64a21.234,21.234,0,0,0-1.249-2.231l-1.309-2.165q-.638-1.051-1.268-2.1-.694-.961-1.379-1.912c-.459-.635-.913-1.268-1.366-1.895l-.678-.941-.724-.846-2.862-3.34q-1.5-1.488-2.962-2.94c-.964-1-2.006-1.77-2.987-2.651a84.383,84.383,0,0,0-11.831-8.275c-7.668-4.508-14.523-8.045-19.9-11.88A71.088,71.088,0,0,1,3.769,4.608C1.294,1.636,0,0,0,0Z" transform="translate(28.575 0)" stroke="rgba(0,0,0,0)" stroke-width="1" fill="url(#linear-gradient)"/>
      <path id="Path_51188" data-name="Path 51188" d="M0,0S.357.264,1.052.776c.7.486,1.706,1.336,3.087,2.2a117.912,117.912,0,0,0,12.1,6.973c5.267,2.794,11.8,5.762,18.91,10.778a67.068,67.068,0,0,1,10.767,9.577c.867,1.024,1.767,2.035,2.643,3.112q1.261,1.715,2.552,3.469c.9,1.277,1.6,2.522,2.43,3.807l1.207,1.927c.395.671.756,1.417,1.139,2.129,6.308,11.317,10.293,26.1,14.066,41.4,1.927,7.648,3.894,15.466,6.5,22.964a96.7,96.7,0,0,0,9.885,20.916l.742,1.2.185.3c.074.111,0,.019.051.081l.1.138.418.567,1.676,2.261c.563.739,1.113,1.553,1.691,2.229l1.748,1.965,1.753,1.971,1.891,1.791,1.895,1.8,1.989,1.6A105.149,105.149,0,0,0,117.5,156.645c5.913,3.17,11.987,6.32,17.822,10.639a68.366,68.366,0,0,1,16.023,16.826l3.285,5.356c1.031,1.914,2.033,3.933,3.044,5.9.92,2.033,1.78,4.1,2.668,6.155l2.331,6.4c2.908,8.668,5.025,17.695,7.16,26.478a235.654,235.654,0,0,0,7.208,25.282,89.613,89.613,0,0,0,10.686,20.984l1.653,2.26a20.168,20.168,0,0,0,1.672,2.114c1.151,1.268,2.229,2.63,3.42,3.816,1.217,1.147,2.4,2.346,3.624,3.438q1.873,1.547,3.729,3.079a121.73,121.73,0,0,0,15.454,9.656,151.8,151.8,0,0,1,14.935,9.033,65.065,65.065,0,0,1,12.906,11.846c.476.565.969,1.094,1.424,1.68q.663.918,1.321,1.823c.871,1.237,1.746,2.341,2.585,3.648q1.165,1.887,2.3,3.733c.727,1.307,1.419,2.653,2.11,3.954a114.728,114.728,0,0,1,6.448,16c3.374,10.569,5.373,20.272,7.253,28.1,1.855,7.842,3.41,13.956,4.693,17.986.584,2.052,1.154,3.54,1.481,4.585.346,1.031.523,1.564.523,1.564l-.565-1.532c-.353-1.024-.963-2.482-1.6-4.5-1.379-3.966-3.147-9.981-5.143-17.769-2.035-7.75-4.228-17.355-7.755-27.606a109.679,109.679,0,0,0-6.6-15.354l-2.082-3.71q-1.157-1.817-2.343-3.673c-.761-1.143-1.672-2.263-2.514-3.412q-.644-.862-1.3-1.731c-.446-.557-.931-1.054-1.4-1.589A61.585,61.585,0,0,0,231.3,316.956a146.959,146.959,0,0,0-14.853-8.521,121.612,121.612,0,0,1-15.855-9.42q-1.95-1.544-3.92-3.1c-1.283-1.13-2.531-2.375-3.807-3.567-1.262-1.241-2.458-2.717-3.7-4.081a21.516,21.516,0,0,1-1.736-2.175l-1.663-2.245A93.437,93.437,0,0,1,174.4,261.823a239.7,239.7,0,0,1-7.5-25.84c-2.174-8.8-4.292-17.619-7.115-25.906l-2.25-6.089c-.85-1.929-1.68-3.9-2.547-5.8-.943-1.795-1.842-3.6-2.809-5.4l-3.193-5.175a65.188,65.188,0,0,0-15.116-16.049c-5.577-4.192-11.513-7.344-17.434-10.574a108.628,108.628,0,0,1-17.391-11.143l-2.071-1.693-1.984-1.9-1.974-1.9-1.893-2.15-1.878-2.15c-.608-.729-1.13-1.517-1.7-2.269l-1.668-2.278-.416-.567-.1-.142a2.5,2.5,0,0,1-.145-.221l-.2-.315-.779-1.271a97.454,97.454,0,0,1-10.221-22.054c-2.605-7.844-4.506-15.851-6.342-23.555s-3.6-15.163-5.736-22.071a106.232,106.232,0,0,0-7.487-18.772A69.894,69.894,0,0,0,34.6,22.378c-6.9-5.241-13.367-8.5-18.583-11.521A107.8,107.8,0,0,1,4.06,3.219C2.7,2.269,1.721,1.364,1.03.837Z" transform="translate(45.891 0)" stroke="rgba(0,0,0,0)" stroke-width="1" fill="url(#linear-gradient)"/>
      <path id="Path_51189" data-name="Path 51189" d="M0,0S1.385.7,3.979,2C6.563,3.346,10.4,5.16,15.116,8.154A65.48,65.48,0,0,1,31.118,22c1.343,1.8,2.764,3.512,4.171,5.547q.972,1.536,1.974,3.112c.333.525.671,1.054,1.007,1.587.33.55.633,1.166.952,1.751q.946,1.788,1.918,3.622c.635,1.236,1.166,2.579,1.763,3.888,1.228,2.592,2.2,5.483,3.3,8.349,2.006,5.876,3.811,12.184,5.5,18.77s3.325,13.408,5.256,20.217a130.892,130.892,0,0,0,7.109,19.9c.667,1.644,1.523,3.095,2.307,4.631l1.194,2.294,1.328,2.148,1.336,2.15.671,1.081.7.948q1.511,2.026,3.036,4.071a66.213,66.213,0,0,0,13.82,12.515,176.484,176.484,0,0,0,15.8,9.138,108.457,108.457,0,0,1,16.187,10.189,69.768,69.768,0,0,1,14.506,15.655l3,4.891c.977,1.63,1.87,3.554,2.8,5.318a108.606,108.606,0,0,1,4.731,11.343,242.353,242.353,0,0,1,6.856,24.05c1.974,8.046,3.841,15.993,6.153,23.472a110.818,110.818,0,0,0,8.466,20.6,76.235,76.235,0,0,0,11.615,15.638,68.764,68.764,0,0,0,13.393,10.561c4.583,2.872,9.174,5.315,13.607,7.812a115.3,115.3,0,0,1,12.634,8.173,72.252,72.252,0,0,1,5.619,4.91c.88.888,1.787,1.681,2.615,2.617q1.224,1.428,2.42,2.826c.393.472.8.913,1.175,1.406q.544.765,1.084,1.517,1.074,1.508,2.12,2.974c1.372,2.1,2.5,4.158,3.7,6.144a115.466,115.466,0,0,1,9.331,23.8c2.016,7.011,3.238,12.709,4.141,16.55l1.347,5.912s-.527-2.023-1.517-5.819-2.433-9.371-4.564-16.25a111.277,111.277,0,0,0-9.66-22.955,70.054,70.054,0,0,0-18.662-21.141,110.677,110.677,0,0,0-12.53-7.669c-4.432-2.354-9.076-4.67-13.786-7.457a69.688,69.688,0,0,1-13.992-10.529,75.6,75.6,0,0,1-12.354-16.225,114.843,114.843,0,0,1-9.023-21.451c-2.46-7.7-4.394-15.777-6.365-23.778a236.143,236.143,0,0,0-6.724-23.4,102.036,102.036,0,0,0-4.493-10.7c-.876-1.632-1.632-3.31-2.6-4.916l-2.908-4.721a66.274,66.274,0,0,0-13.688-14.859,106.2,106.2,0,0,0-15.749-9.994,159.121,159.121,0,0,1-16-9.458,69.853,69.853,0,0,1-14.485-13.472l-3.012-4.119-.792-1.1-.7-1.145-1.391-2.288-1.379-2.28-1.238-2.433c-.8-1.64-1.678-3.195-2.354-4.931a136.987,136.987,0,0,1-7.087-20.786c-1.876-7-3.435-13.9-5.018-20.485s-3.28-12.817-5.163-18.615c-1.039-2.813-1.95-5.67-3.108-8.215-.563-1.283-1.067-2.622-1.659-3.82S38.585,36.7,38,35.537c-.3-.582-.565-1.177-.879-1.736s-.65-1.092-.973-1.634l-1.906-3.2c-1.262-1.94-2.658-3.754-3.92-5.556A67.122,67.122,0,0,0,14.855,9.034c-4.629-3.166-8.39-5.3-10.937-6.783Z" transform="translate(69.374 0)" stroke="rgba(0,0,0,0)" stroke-width="1" fill="url(#linear-gradient)"/>
      <path id="Path_51190" data-name="Path 51190" d="M0,0,3.374,2.49a64.775,64.775,0,0,1,9.01,8.5c.926,1.02,1.8,2.288,2.77,3.514q.72.938,1.474,1.92c.523.7.939,1.443,1.43,2.186a84.624,84.624,0,0,1,5.768,10.295,120.208,120.208,0,0,1,5.222,13.14q.6,1.811,1.209,3.667.547,1.893,1.109,3.833c.776,2.575,1.44,5.269,2.176,7.994,2.857,10.9,5.485,22.981,9.9,34.4l.812,2.158.918,2.076c.629,1.372,1.2,2.815,1.884,4.153q1.043,1.981,2.1,3.988l.529,1,.588.933,1.181,1.872,1.183,1.884.3.472a4.684,4.684,0,0,0,.28.385l.665.886q1.332,1.783,2.677,3.586a70.318,70.318,0,0,0,5.736,6.11c8.065,7.829,17.763,12.193,27.47,17.589a85.547,85.547,0,0,1,14.423,9.641,72.8,72.8,0,0,1,12.889,14.34,100.156,100.156,0,0,1,9.652,19.148,183.861,183.861,0,0,1,6.49,21.43c1.823,7.226,3.463,14.413,5.3,21.319a138.626,138.626,0,0,0,6.539,19.5c1.217,3.081,2.738,5.8,4.151,8.589q1.182,1.947,2.352,3.871l.582.967c.081.129.23.395.253.412l.327.452,1.3,1.8,1.292,1.795.644.894.665.775q1.335,1.544,2.651,3.076c.89,1,1.868,1.865,2.79,2.8l1.4,1.364,1.451,1.207c7.686,6.563,15.815,10.472,23.153,14.717,1.835,1.1,3.646,2.08,5.379,3.233l2.581,1.649q1.25.91,2.467,1.795a69.357,69.357,0,0,1,8.844,7.761,78.54,78.54,0,0,1,12.046,16.988,105.425,105.425,0,0,1,5.732,13.4c1.092,3.27,1.676,5.016,1.676,5.016l-1.836-4.888a111.345,111.345,0,0,0-6.059-12.889,74.289,74.289,0,0,0-12.256-16.1c-5.294-5.167-11.87-9.4-19.229-13.348-7.35-3.986-15.609-7.636-23.686-14.171l-1.525-1.207L160.724,273c-.979-.943-2-1.795-2.962-2.834q-1.437-1.6-2.893-3.214l-.725-.816-.656-.871-1.319-1.753-1.326-1.761-.333-.442a6.368,6.368,0,0,1-.363-.548l-.627-1q-1.247-2.006-2.507-4.034c-1.513-2.9-3.132-5.753-4.436-8.955-5.6-12.532-8.791-27.287-12.384-41.488a177.3,177.3,0,0,0-6.327-20.714,94.423,94.423,0,0,0-9.157-18.044,69.174,69.174,0,0,0-12.144-13.608,83.237,83.237,0,0,0-13.941-9.4c-9.556-5.347-19.49-10.077-27.922-18.4a73.682,73.682,0,0,1-6.072-6.648l-2.645-3.637-.652-.909c-.128-.185-.178-.223-.368-.529l-.3-.506-1.217-2.018-1.207-2.008-.6-1L47.1,106.8q-1.077-2.137-2.135-4.247c-.694-1.423-1.272-2.943-1.9-4.4l-.922-2.192L41.322,93.7c-4.4-12-6.854-24.273-9.537-35.19C29.129,47.576,26.28,37.8,22.8,29.937a85.881,85.881,0,0,0-5.42-10.4c-.459-.748-.9-1.578-1.347-2.212-.48-.671-.948-1.324-1.406-1.967C13.7,14.1,12.866,12.8,11.976,11.74A75.013,75.013,0,0,0,3.291,2.726C1.143.948,0,0,0,0Z" transform="translate(94.356 0)" stroke="rgba(0,0,0,0)" stroke-width="1" fill="url(#linear-gradient)"/>
      <path id="Path_51191" data-name="Path 51191" d="M0,0,2.711,3.2A78.48,78.48,0,0,1,9.575,13.6q.995,1.859,2.09,3.913.978,2.171,2.048,4.542c.178.395.359.793.54,1.2q.244.629.489,1.275.5,1.287,1.011,2.624c.716,1.761,1.33,3.68,1.988,5.651,2.628,7.878,4.937,17.187,7.48,27.2,1.328,4.965,2.681,10.159,4.415,15.26.8,2.607,1.808,5.086,2.764,7.657.476,1.29,1.075,2.475,1.609,3.731.569,1.224,1.064,2.537,1.723,3.686q.935,1.78,1.885,3.578l.472.9.531.839,1.06,1.681,1.067,1.693.535.85.134.213c-.041-.051.076.1.1.14l.3.4,2.42,3.208a30.054,30.054,0,0,0,2.5,2.959c.863.913,1.659,1.94,2.577,2.8l2.758,2.6c.909.9,1.919,1.581,2.881,2.39,7.786,6.3,16.748,10.1,25.666,15.269a88.563,88.563,0,0,1,13.18,9.22,72.165,72.165,0,0,1,6.119,6.2,35.632,35.632,0,0,1,2.878,3.49l2.805,3.807a102.905,102.905,0,0,1,8.974,17.374,184.447,184.447,0,0,1,6.206,19.586c3.482,13.246,6.038,26.561,10.278,38.131a84.206,84.206,0,0,0,16.323,28.577,33,33,0,0,0,2.473,2.551c.845.793,1.642,1.683,2.511,2.39,1.73,1.421,3.4,2.925,5.154,4.107a108.089,108.089,0,0,0,10.268,6.561c3.365,1.919,6.624,3.671,9.694,5.5,1.53.924,3.03,1.795,4.461,2.766,1.438.931,2.836,1.834,4.151,2.847,1.324.977,2.616,1.889,3.8,2.955.6.508,1.188,1.011,1.766,1.5q.434.368.858.729c.272.27.54.538.807.8q1.593,1.59,3.057,3.046,1.377,1.624,2.624,3.095a77.316,77.316,0,0,1,7,10.2c1.407,2.632,2.158,4.037,2.158,4.037s-.8-1.339-2.29-3.854a80.908,80.908,0,0,0-7.274-9.63q-1.266-1.374-2.668-2.9-1.479-1.352-3.093-2.824l-.811-.744-.867-.669c-.58-.45-1.173-.911-1.778-1.375-1.192-.981-2.492-1.806-3.82-2.692-5.33-3.535-11.606-6.55-18.434-10.17a106.36,106.36,0,0,1-10.542-6.3c-1.814-1.149-3.565-2.636-5.377-4.045-.907-.7-1.755-1.591-2.645-2.388a33.345,33.345,0,0,1-2.634-2.581l-2.59-2.874-.652-.729-.59-.78-1.185-1.572-1.194-1.579-.6-.8-.149-.2c-.138-.189-.119-.181-.187-.281l-.282-.446q-1.128-1.791-2.269-3.6a40.971,40.971,0,0,1-2.154-3.828c-.67-1.339-1.419-2.613-2.036-4.03l-1.867-4.262c-.646-1.409-1.137-2.955-1.716-4.438a189.271,189.271,0,0,1-5.745-18.88c-1.7-6.478-3.231-13.1-4.952-19.582a177.532,177.532,0,0,0-6.027-18.849,97.274,97.274,0,0,0-8.613-16.514l-2.532-3.437a33.334,33.334,0,0,0-2.7-3.306,68.832,68.832,0,0,0-5.77-5.9,85.967,85.967,0,0,0-12.687-8.955c-4.364-2.554-8.817-4.837-13.178-7.361a88.2,88.2,0,0,1-12.705-8.534c-1-.862-2.039-1.589-2.989-2.549q-1.44-1.394-2.868-2.775c-.952-.916-1.834-2.046-2.739-3.063a34.3,34.3,0,0,1-2.57-3.2q-1.19-1.655-2.367-3.293l-.295-.408-.187-.27-.138-.227-.548-.911-1.09-1.814-1.081-1.8-.54-.9-.482-.96q-.961-1.916-1.91-3.8c-.663-1.228-1.162-2.607-1.731-3.9-.537-1.324-1.135-2.583-1.606-3.932-.948-2.69-1.952-5.294-2.724-7.99-1.695-5.3-2.979-10.6-4.238-15.66C21.026,50.825,19,41.5,16.616,33.578c-.6-1.974-1.151-3.907-1.81-5.677L13.88,25.26q-.229-.649-.452-1.287-.252-.609-.5-1.207-.992-2.4-1.9-4.593Q10.006,16.1,9.08,14.219q-.465-.941-.9-1.829-.5-.836-.96-1.621L5.488,7.808c-.522-.947-1.058-1.7-1.555-2.431S2.995,4,2.6,3.406C.9,1.185,0,0,0,0Z" transform="translate(112.971 0)" stroke="rgba(0,0,0,0)" stroke-width="1" fill="url(#linear-gradient)"/>
      <path id="Path_51192" data-name="Path 51192" d="M0,0S.731,1.27,2.1,3.652c.333.608.746,1.236,1.124,2.02s.8,1.636,1.245,2.558.964,1.895,1.423,3.008.944,2.3,1.459,3.556a181.879,181.879,0,0,1,6.18,19.067c2.084,7.557,4.126,16.242,6.792,25.35,2.7,9.057,6.136,18.613,11.3,26.854Q32.6,87.6,33.58,89.149l.246.389.062.1c-.061-.083.023.03.026.034l.138.181.55.729,1.107,1.464c.746.952,1.472,2.027,2.246,2.894s1.559,1.715,2.345,2.581c.4.423.771.884,1.188,1.283L42.76,99.98c.852.78,1.689,1.61,2.558,2.38,1.8,1.392,3.552,2.955,5.458,4.175,7.481,5.313,15.861,8.832,24.158,13.848a75.942,75.942,0,0,1,12.209,8.933,73.512,73.512,0,0,1,10.913,12.617l2.322,3.782,1.132,1.857,1.069,2.078c.7,1.391,1.443,2.756,2.106,4.171l1.861,4.321a153,153,0,0,1,6.012,18.141c3.382,12.328,5.745,24.778,9.322,35.891a94.982,94.982,0,0,0,13.8,28.475,66.613,66.613,0,0,0,18.056,16.775c6.129,3.964,11.976,6.99,17.062,10.094a89.123,89.123,0,0,1,12.83,9.182q1.266,1.145,2.394,2.167c.75.684,1.392,1.462,2.02,2.112q.932,1,1.721,1.852c.529.559.954,1.175,1.364,1.67l2.458,3.121s-.9-1.011-2.571-2.908c-.425-.459-.869-1.035-1.415-1.547l-1.778-1.695c-.65-.6-1.315-1.305-2.08-1.931s-1.574-1.294-2.43-2a84.111,84.111,0,0,0-12.956-8.3c-5.137-2.751-11.064-5.4-17.355-9.248a66.715,66.715,0,0,1-18.968-16.679,93.347,93.347,0,0,1-14.8-29.257c-3.778-11.466-6.35-23.956-9.656-35.966a146.153,146.153,0,0,0-5.825-17.4l-1.774-4.083c-.62-1.311-1.3-2.537-1.94-3.813l-.975-1.9-1.135-1.846-2.228-3.612a69.986,69.986,0,0,0-10.264-11.967,73.316,73.316,0,0,0-11.71-8.653c-8.084-4.92-16.49-8.734-24.206-14.349-1.955-1.3-3.784-2.966-5.639-4.455-.9-.827-1.776-1.7-2.654-2.551l-1.307-1.285c-.431-.438-.837-.954-1.255-1.426q-1.238-1.448-2.464-2.877c-.809-.96-1.483-2.016-2.22-3.01l-1.083-1.506-.538-.75-.134-.187-.108-.151-.062-.106-.251-.416q-1-1.661-1.987-3.3C24.555,79.637,21.179,69.6,18.594,60.3c-2.588-9.346-4.37-18.154-6.223-25.785A185.875,185.875,0,0,0,6.786,15.263q-.714-1.91-1.347-3.61c-.421-1.137-.9-2.12-1.3-3.083S3.352,6.735,3,5.929,2.267,4.455,1.959,3.82C.682,1.328,0,0,0,0Z" transform="translate(127.568 0)" stroke="rgba(0,0,0,0)" stroke-width="1" fill="url(#linear-gradient)"/>
      <path id="Path_51193" data-name="Path 51193" d="M0,0,1.623,3.807c1.032,2.5,2.467,6.284,4.036,11.266,1.549,5,3.217,11.207,5.067,18.335.931,3.561,1.925,7.338,3.036,11.268.552,1.969,1.164,3.949,1.759,6,.669,1.991,1.287,4.083,2.037,6.117,2.925,8.158,6.763,16.6,11.993,23.635a56.514,56.514,0,0,0,4.164,5.2q1.08,1.193,2.171,2.4c.765.748,1.563,1.46,2.346,2.2a70.623,70.623,0,0,0,10.151,7.752c7.173,4.561,15.027,7.948,22.8,12.815a70.346,70.346,0,0,1,21.574,20.587l2.182,3.558L96,136.682c.355.576.674,1.277,1.013,1.912l2,3.9c.633,1.321,1.179,2.694,1.772,4.039,1.223,2.651,2.141,5.539,3.189,8.311.89,2.87,1.872,5.689,2.637,8.6,3.282,11.542,5.556,23.212,8.626,33.869,3.032,10.661,6.955,20.244,11.8,27.952l.88,1.47.943,1.328q.972,1.369,1.931,2.722c.65.85,1.313,1.6,1.961,2.405.654.784,1.277,1.6,1.978,2.294a57.488,57.488,0,0,0,4.09,4.1c1.358,1.315,2.766,2.418,4.139,3.523s2.777,2.033,4.119,3.027c1.379.888,2.713,1.791,4.037,2.613,2.645,1.651,5.186,3.129,7.584,4.51,4.795,2.753,8.974,5.231,12.339,7.533a74.588,74.588,0,0,1,7.58,6l2.564,2.413-2.654-2.178a83.566,83.566,0,0,0-7.75-5.343c-3.41-2.067-7.629-4.251-12.5-6.682-4.861-2.479-10.425-5.131-16.182-9.342-1.432-1.066-2.906-2.131-4.338-3.421a57.285,57.285,0,0,1-4.328-4.047,29.85,29.85,0,0,1-2.133-2.331c-.7-.824-1.432-1.632-2.116-2.488q-.981-1.318-1.973-2.654l-1.03-1.391-.947-1.5c-5.19-7.869-9.5-17.837-12.692-28.764-3.231-10.911-5.708-22.549-8.9-33.741-.755-2.836-1.706-5.519-2.571-8.283-1.011-2.63-1.893-5.4-3.061-7.89-.563-1.262-1.092-2.583-1.683-3.8l-1.836-3.556c-.318-.589-.584-1.2-.941-1.774l-1.069-1.731L90.389,134.9a67.127,67.127,0,0,0-20.47-19.688c-7.531-4.75-15.364-8.422-22.707-13.227A69.592,69.592,0,0,1,36.76,93.676c-.811-.8-1.625-1.572-2.418-2.39l-2.29-2.66a60.637,60.637,0,0,1-4.179-5.468c-5.447-7.629-9.2-16.558-12.021-25.082-2.834-8.553-4.619-16.822-6.288-24.041-1.638-7.243-3.108-13.512-4.5-18.579-1.432-5.037-2.651-8.929-3.6-11.511Z" transform="translate(139.965 0)" stroke="rgba(0,0,0,0)" stroke-width="1" fill="url(#linear-gradient)"/>
      <path id="Path_51194" data-name="Path 51194" d="M0,0S.44,1.321,1.27,3.794c.8,2.494,1.953,6.182,3.234,10.98,1.307,4.782,2.772,10.663,4.6,17.283a174.237,174.237,0,0,0,7.2,21.332,93.381,93.381,0,0,0,5.473,10.8c.5.909,1.088,1.7,1.627,2.571l.831,1.288.383.589.463.614c1.245,1.595,2.467,3.391,3.784,4.889a63.7,63.7,0,0,0,8.537,8.277l2.335,1.84q1.207.836,2.43,1.678c1.611,1.168,3.316,2.141,5.01,3.18C54,93.177,61.4,96.434,68.679,101.133a70.882,70.882,0,0,1,20.213,19.792l2,3.265c.659,1.113,1.353,2.11,1.963,3.391,1.247,2.45,2.566,4.854,3.591,7.436a135.629,135.629,0,0,1,5.657,15.779c3.17,10.809,5.356,21.808,8.088,31.942C112.9,192.874,116.141,202.247,120.3,210c1.016,1.961,2.176,3.7,3.233,5.522l.4.676.414.6.884,1.26c.6.812,1.158,1.729,1.757,2.449a68.013,68.013,0,0,0,7.247,8.1,87.465,87.465,0,0,0,14.357,10.7c4.455,2.724,8.411,4.9,11.632,6.845,3.229,1.9,5.708,3.62,7.387,4.806,1.667,1.23,2.554,1.887,2.554,1.887s-.914-.572-2.628-1.64c-1.719-1.045-4.274-2.45-7.544-4.149-3.268-1.714-7.283-3.6-11.85-6.021a75.948,75.948,0,0,1-14.912-9.992c-1.287-1.171-2.615-2.343-3.888-3.726-1.311-1.281-2.568-2.821-3.862-4.349-.665-.752-1.215-1.591-1.831-2.4l-.907-1.23-.48-.663-.433-.686c-1.135-1.857-2.379-3.635-3.473-5.645-4.485-7.944-8.056-17.64-10.9-27.963-2.87-10.329-5.237-21.184-8.313-31.653a129.544,129.544,0,0,0-5.456-15.052c-1-2.475-2.2-4.615-3.34-6.864a37.058,37.058,0,0,0-1.919-3.284l-2.008-3.255-2.074-2.817a31.23,31.23,0,0,0-2.174-2.807,59.1,59.1,0,0,0-4.665-5.02,68.837,68.837,0,0,0-10.13-8.109c-7.043-4.578-14.351-8.088-21.3-12.354A71.558,71.558,0,0,1,27.224,76.922c-1.356-1.636-2.5-3.412-3.737-5.073l-.451-.629c-.223-.329-.3-.487-.465-.739l-.846-1.373c-.55-.926-1.139-1.789-1.634-2.756a99.253,99.253,0,0,1-5.413-11.479A163.372,163.372,0,0,1,7.95,32.717C6.321,25.93,5.048,19.97,3.9,15.112S1.808,6.463,1.1,3.905C.383,1.358,0,0,0,0Z" transform="translate(150.976 0)" stroke="rgba(0,0,0,0)" stroke-width="1" fill="url(#linear-gradient)"/>
      <path id="Path_51195" data-name="Path 51195" d="M0,0S.363,1.275,1.045,3.663C1.706,6.065,2.69,9.584,3.864,14.1c1.2,4.5,2.634,9.973,4.551,16.044.99,3.008,2.048,6.2,3.352,9.4a99.206,99.206,0,0,0,4.4,9.735,76.125,76.125,0,0,0,5.7,9.367q1.692,2.222,3.438,4.512,1.811,2,3.678,4.049a77.022,77.022,0,0,0,17.748,12.9c6.469,3.658,13.423,6.748,20.21,11.406a69.562,69.562,0,0,1,18.881,18.87c1.245,2.076,2.526,4.017,3.733,6.21l1.767,3.444.88,1.721.775,1.787,1.536,3.573c.521,1.183.922,2.456,1.389,3.675.44,1.239.924,2.45,1.324,3.709l1.19,3.777c3.14,10.077,5.215,20.415,7.68,30.026,2.428,9.626,5.142,18.664,8.677,26.369q1.4,2.8,2.76,5.524l2.974,5c.421.776,1.039,1.559,1.542,2.328.529.763,1.047,1.557,1.583,2.218q.794,1.037,1.578,2.056.822.969,1.628,1.916a64.092,64.092,0,0,0,6.552,6.535,76.184,76.184,0,0,0,6.329,4.978c4.085,2.849,7.769,4.991,10.8,6.767,3.038,1.742,5.407,3.206,7.022,4.188L160,237.739l-2.53-1.3c-1.659-.816-4.088-2.01-7.181-3.533-3.087-1.549-6.849-3.414-11.079-5.983a63.909,63.909,0,0,1-13.524-10.914q-.859-.935-1.734-1.893c-.569-.688-1.143-1.385-1.719-2.084-.6-.693-1.12-1.438-1.67-2.176-.548-.778-1.1-1.4-1.657-2.326q-1.578-2.5-3.2-5.082-1.471-2.783-2.981-5.653c-3.834-7.891-6.839-17.187-9.382-26.918-2.579-9.722-4.835-19.9-7.863-29.6l-1.16-3.626c-.389-1.209-.854-2.352-1.279-3.533-.448-1.158-.835-2.38-1.334-3.493l-1.468-3.372-.737-1.685L88.692,123l-1.617-3.14c-1.148-2.074-2.49-4.081-3.722-6.131l-1.942-2.639c-.68-.882-1.3-1.872-2.026-2.668l-2.146-2.449-1.071-1.226-1.136-1.1-2.269-2.18c-.75-.741-1.572-1.317-2.352-1.984-.8-.629-1.564-1.321-2.377-1.9l-2.441-1.723c-6.528-4.51-13.376-7.856-19.919-11.689A77.031,77.031,0,0,1,27.561,70.241q-1.953-2.27-3.847-4.479-1.7-2.372-3.35-4.668a81.422,81.422,0,0,1-5.736-10.117A119.656,119.656,0,0,1,7.281,30.886C5.552,24.6,4.3,19.016,3.255,14.426,2.229,9.832,1.425,6.221.875,3.758Z" transform="translate(161.142 0)" stroke="rgba(0,0,0,0)" stroke-width="1" fill="url(#linear-gradient)"/>
      <path id="Path_51196" data-name="Path 51196" d="M0,0S.329,1.2.941,3.452,2.483,8.985,3.648,13.17c1.23,4.134,2.7,9.184,4.829,14.589.992,2.768,2.286,5.485,3.6,8.383.688,1.417,1.47,2.781,2.222,4.23.387.708.75,1.464,1.173,2.158q.649,1.017,1.315,2.056c.44.693.888,1.392,1.338,2.1L18.77,47.7l.763,1c1.024,1.324,2.057,2.717,3.127,4.054l3.353,3.673c1.177,1.177,2.433,2.275,3.669,3.44A89.453,89.453,0,0,0,46.663,71.02c6.114,3.289,12.609,6.378,18.931,10.86A68.307,68.307,0,0,1,83.119,99.756l1.812,2.953c.582.971,1.181,1.887,1.751,2.9,1.082,2.161,2.254,4.268,3.251,6.476A126.1,126.1,0,0,1,95.152,125.8c3.023,9.388,5.1,19.044,7.311,28.124a194.187,194.187,0,0,0,7.508,25.231c.786,1.838,1.521,3.7,2.318,5.456q1.27,2.556,2.5,5.029c.888,1.572,1.8,3.066,2.677,4.564l.658,1.113.7.982c.482.682.964,1.358,1.436,2.027l1.409,1.982c.47.633.967,1.156,1.443,1.732.967,1.107,1.876,2.254,2.826,3.272a70.058,70.058,0,0,0,5.641,5.345,84.812,84.812,0,0,0,9.817,7.179c5.615,3.512,8.865,5.42,8.865,5.42s-.829-.4-2.386-1.143-3.843-1.835-6.718-3.378a80.791,80.791,0,0,1-10.168-6.448,67.292,67.292,0,0,1-5.959-5c-1.024-.964-2.006-2.127-3.051-3.229-.508-.571-1.06-1.113-1.553-1.727s-.967-1.262-1.46-1.9-.986-1.287-1.489-1.94l-.79-1.035-.712-1.113c-.948-1.5-1.938-3-2.9-4.581q-1.335-2.517-2.715-5.118c-.865-1.791-1.666-3.69-2.52-5.575A180.293,180.293,0,0,1,99.7,155.438c-2.316-9.127-4.551-18.545-7.461-27.566a119.521,119.521,0,0,0-5.024-13.027c-.943-2.065-2.007-3.939-3-5.93-1.113-1.884-2.4-3.894-3.463-5.647A65.113,65.113,0,0,0,64.2,86.2c-6.068-4.332-12.411-7.648-18.553-11.088A87.169,87.169,0,0,1,28.4,63.028c-1.27-1.27-2.545-2.454-3.756-3.745L21.166,55.2c-1.05-1.417-2.035-2.855-3.027-4.241L17.4,49.924l-.71-1.188-1.33-2.25q-.66-1.114-1.3-2.2c-.418-.741-.771-1.544-1.154-2.3-.735-1.538-1.508-2.985-2.154-4.5C9.511,34.4,8.294,31.524,7.387,28.632,5.422,22.966,4.13,17.769,3.045,13.525,2,9.252,1.275,5.855.771,3.546Z" transform="translate(170.889 0)" stroke="rgba(0,0,0,0)" stroke-width="1" fill="url(#linear-gradient)"/>
      <path id="Path_51197" data-name="Path 51197" d="M0,0S.327,1.105.939,3.18c.3,1.043.686,2.316,1.168,3.79s1,3.191,1.657,5.058A117.639,117.639,0,0,0,8.987,25.008q.873,1.754,1.8,3.618,1.012,1.76,2.078,3.622c.7,1.251,1.532,2.384,2.314,3.629.4.58.8,1.3,1.211,1.785q.672.876,1.36,1.772t1.389,1.81l.7.918.746.8q1.494,1.618,3.038,3.3,1.646,1.51,3.346,3.072c1.132,1.035,2.365,1.891,3.569,2.866a117.552,117.552,0,0,0,16.11,9.681c5.725,3.034,11.772,6.038,17.627,10.363,1.457,1.1,2.889,2.3,4.342,3.461q2.091,1.984,4.194,3.977c1.322,1.5,2.664,2.979,3.977,4.512l3.767,5.1,3.278,5.356c1.041,1.965,2.061,4,3.085,5.991q1.338,3.123,2.675,6.231c.778,2.159,1.591,4.289,2.328,6.452,2.917,8.7,4.935,17.686,6.977,26.189s4.034,16.654,6.518,23.937c.656,1.787,1.23,3.618,1.927,5.3s1.39,3.336,2.069,4.967q1.142,2.321,2.243,4.559l.548,1.117.606,1.028,1.2,2.027q.59,1.009,1.169,1.989c.323.606.824,1.224,1.219,1.823.846,1.179,1.638,2.45,2.469,3.474q1.241,1.573,2.418,3.063l2.435,2.681a68.147,68.147,0,0,0,8.736,7.761c1.256.979,2.407,1.765,3.4,2.465.994.716,1.85,1.292,2.551,1.734l2.141,1.4s-.767-.4-2.209-1.145c-.722-.363-1.606-.839-2.637-1.44-1.037-.572-2.227-1.254-3.525-2.137a64.541,64.541,0,0,1-9.15-7.1q-1.259-1.224-2.594-2.528-1.287-1.442-2.643-2.972c-.922-1.005-1.708-2.193-2.6-3.327-.438-.612-.871-1.081-1.326-1.829-.418-.652-.843-1.311-1.268-1.978l-1.3-2.023-.657-1.03-.6-1.118q-1.207-2.253-2.46-4.589l-2.265-5.05c-.758-1.719-1.391-3.576-2.107-5.4a238.89,238.89,0,0,1-7.075-24.162c-2.129-8.494-4.3-17.2-7.1-25.541-.718-2.067-1.5-4.085-2.25-6.142q-1.275-2.93-2.56-5.879l-2.84-5.473-3.3-5.332-3.429-4.674q-1.87-2.145-3.733-4.289-1.987-1.907-3.958-3.8c-1.385-1.113-2.743-2.277-4.134-3.342A149.179,149.179,0,0,0,45.651,65.987,109.167,109.167,0,0,1,29.389,55.475c-1.228-1.066-2.48-2-3.637-3.132s-2.282-2.261-3.4-3.365q-1.587-1.876-3.117-3.69l-.759-.9-.678-.962c-.451-.637-.9-1.268-1.338-1.893a78.293,78.293,0,0,1-8.507-15.5A125,125,0,0,1,3.178,12.437C2.585,10.508,2.127,8.74,1.74,7.2c-.406-1.534-.725-2.845-.971-3.92C.268,1.141,0,0,0,0Z" transform="translate(180.594 0)" stroke="rgba(0,0,0,0)" stroke-width="1" fill="url(#linear-gradient)"/>
      <path id="Path_51198" data-name="Path 51198" d="M0,0S.349.99,1,2.851s1.7,4.508,3.079,7.82A93.842,93.842,0,0,0,9.769,21.823c.61,1,1.222,2.046,1.923,3.032q.513.754,1.039,1.53l.264.389.066.1c-.028-.038.034.042.045.057l.145.185.582.741q1.165,1.5,2.39,3.083l.614.8.652.7q.654.706,1.322,1.426A65.91,65.91,0,0,0,24.6,39.431q1.59,1.236,3.236,2.511c1.085.875,2.265,1.559,3.416,2.365,4.666,3.072,9.794,5.658,15.122,8.468A106.615,106.615,0,0,1,62.65,62.716a68.468,68.468,0,0,1,7.829,7.09c1.217,1.406,2.488,2.724,3.663,4.217l3.493,4.725,3.036,4.963c.992,1.721,1.916,3.671,2.87,5.5a115.661,115.661,0,0,1,4.78,11.645,241.842,241.842,0,0,1,6.694,24.181c1.889,7.914,3.633,15.53,5.7,22.465.54,1.71,1,3.465,1.591,5.076q.859,2.44,1.689,4.808c1.253,3.019,2.384,6.032,3.758,8.626.325.667.65,1.328.969,1.982l.478.973.527.9q1.046,1.791,2.044,3.5c.635,1.177,1.343,2.158,2.039,3.214.676,1.06,1.372,1.955,2.04,2.858a68.778,68.778,0,0,0,7.5,8.445c2.227,2.05,4.017,3.6,5.263,4.574l1.918,1.494s-.7-.436-2-1.249a61.11,61.11,0,0,1-5.517-3.988,64.843,64.843,0,0,1-7.979-7.873c-.727-.867-1.5-1.749-2.209-2.728-.708-.954-1.513-1.94-2.218-3.085a72.7,72.7,0,0,1-4.387-7.281c-1.5-2.6-2.764-5.617-4.157-8.668q-.921-2.4-1.868-4.872c-.646-1.644-1.156-3.408-1.753-5.145-2.277-7.022-4.238-14.678-6.2-22.524s-4.088-15.825-6.786-23.448a109.473,109.473,0,0,0-4.572-10.99c-.9-1.678-1.7-3.4-2.666-5.058L75.169,82.1,72,77.776c-1.1-1.419-2.3-2.666-3.436-4.009a66.042,66.042,0,0,0-7.408-6.805A117.711,117.711,0,0,0,45.371,56.875a152.556,152.556,0,0,1-15.158-9.21c-1.171-.888-2.358-1.647-3.463-2.605q-1.667-1.411-3.278-2.775a72.105,72.105,0,0,1-5.849-6.195,63.123,63.123,0,0,1-4.869-6.475l-.55-.8-.136-.2-.093-.136-.064-.108-.255-.423q-.507-.845-1-1.668c-.673-1.073-1.256-2.2-1.836-3.282a101.4,101.4,0,0,1-5.3-11.844c-1.27-3.45-2.118-6.278-2.683-8.2Z" transform="translate(190.617 0)" stroke="rgba(0,0,0,0)" stroke-width="1" fill="url(#linear-gradient)"/>
      <path id="Path_51199" data-name="Path 51199" d="M0,0,1.13,2.428c.707,1.619,1.891,3.824,3.384,6.607a72.4,72.4,0,0,0,6.04,9.146,50.286,50.286,0,0,0,4.162,4.925q1.125,1.193,2.309,2.449l2.558,2.312a72.772,72.772,0,0,0,11.9,8.405c4.374,2.554,9.112,4.846,14.007,7.453a89.5,89.5,0,0,1,14.85,9.531l1.835,1.483,1.776,1.68a40.656,40.656,0,0,1,3.491,3.537l1.693,1.908a19.674,19.674,0,0,1,1.644,2l3.208,4.34,2.783,4.553a24.966,24.966,0,0,1,1.345,2.433l1.306,2.551c.911,1.674,1.638,3.457,2.4,5.216L82.941,85.6l1,2.726a196.222,196.222,0,0,1,6.414,22.065c1.757,7.272,3.3,14.311,5.02,20.809a149.762,149.762,0,0,0,5.655,17.678c.529,1.3,1.05,2.566,1.555,3.8q.853,1.768,1.663,3.454a65.4,65.4,0,0,0,3.295,6.15,59.657,59.657,0,0,0,3.21,5.05c1.024,1.544,2.061,2.734,2.953,3.935,1.872,2.22,3.361,3.984,4.444,5.027l1.634,1.68-1.731-1.451a52.078,52.078,0,0,1-4.75-4.493,66.337,66.337,0,0,1-6.667-8.481,62.948,62.948,0,0,1-3.661-5.951c-.6-1.1-1.23-2.233-1.842-3.416q-.844-1.859-1.73-3.8c-.295-.65-.589-1.3-.89-1.967l-.812-2.09c-.537-1.411-1.128-2.824-1.648-4.315-1.022-3-2.059-6.119-2.985-9.4-1.908-6.531-3.657-13.544-5.471-20.706a210.382,210.382,0,0,0-6.482-21.262l-.963-2.594-1.085-2.486C78.341,83.9,77.636,82.2,76.8,80.706l-1.2-2.322a21.779,21.779,0,0,0-1.285-2.3l-2.8-4.527-2.9-3.96a17.814,17.814,0,0,0-1.542-1.9l-1.587-1.817A38.264,38.264,0,0,0,62.2,60.5l-1.674-1.612-1.746-1.432a97.777,97.777,0,0,0-14.309-9.633c-4.822-2.694-9.539-5.3-13.935-8.131-2.209-1.373-4.309-2.913-6.327-4.434-1-.775-1.954-1.651-2.9-2.448L19.9,31.6q-.672-.666-1.324-1.319-1.306-1.312-2.554-2.571c-.8-.913-1.57-1.851-2.316-2.756a56.441,56.441,0,0,1-3.983-5.411A79.371,79.371,0,0,1,4,9.624C2.6,6.667,1.591,4.26.977,2.569.34.894,0,0,0,0Z" transform="translate(201.365 0)" stroke="rgba(0,0,0,0)" stroke-width="1" fill="url(#linear-gradient)"/>
      <path id="Path_51200" data-name="Path 51200" d="M0,0,1.228,1.94c.4.637.888,1.423,1.512,2.273.3.431.631.9.981,1.392A17.761,17.761,0,0,0,4.857,7.119q1.255,1.564,2.768,3.454c1.022,1.224,2.2,2.35,3.4,3.658a72.119,72.119,0,0,0,8.742,7.387,111.718,111.718,0,0,0,11.09,6.611c4.009,2.146,8.313,4.153,12.72,6.646A81.1,81.1,0,0,1,56.9,43.884,75.063,75.063,0,0,1,69.047,57.578l2.562,4.192A50.009,50.009,0,0,1,74.018,66.2a102.764,102.764,0,0,1,4.249,9.429,172.078,172.078,0,0,1,6.066,19.783c1.678,6.548,3.03,12.943,4.474,18.9,1.394,5.985,2.928,11.468,4.447,16.474a129.044,129.044,0,0,0,4.975,13c.882,1.8,1.651,3.563,2.469,5.069q1.258,2.227,2.3,4.083c.675,1.268,1.394,2.224,1.967,3.166s1.1,1.653,1.525,2.243c.852,1.188,1.305,1.823,1.305,1.823l-1.424-1.621c-.469-.527-1.048-1.179-1.68-2.012s-1.423-1.717-2.171-2.911c-.775-1.158-1.63-2.441-2.566-3.837-.924-1.415-1.774-3.138-2.766-4.882q-.363-.666-.739-1.351l-.686-1.474q-.7-1.5-1.436-3.08c-.518-1.033-.935-2.19-1.392-3.35s-.924-2.356-1.4-3.573c-1.748-4.976-3.525-10.485-5.071-16.454C84.917,109.7,83.281,103.46,81.586,97a185.219,185.219,0,0,0-6.11-18.951c-1.275-2.985-2.528-6.1-4.026-8.8a44.729,44.729,0,0,0-2.29-4.156l-2.477-4A71.968,71.968,0,0,0,55.271,48.027a89.313,89.313,0,0,0-12.754-9.086L29.979,31.685a96.378,96.378,0,0,1-11.073-7.534q-1.227-1.06-2.4-2.076A25.73,25.73,0,0,1,14.247,20q-1.063-1.094-2.071-2.131-.5-.516-.992-1.018c-.312-.374-.616-.741-.916-1.1-1.179-1.479-2.348-2.758-3.293-4.12q-1.4-2.066-2.564-3.784C3.618,6.747,3,5.532,2.443,4.606c-.567-.947-1-1.8-1.353-2.492C.378.735,0,0,0,0Z" transform="translate(213.347 0)" stroke="rgba(0,0,0,0)" stroke-width="1" fill="url(#linear-gradient)"/>
      <path id="Path_51201" data-name="Path 51201" d="M0,0,1.281,1.351c.419.44.935.984,1.541,1.623.3.317.629.661.977,1.026.361.327.746.676,1.153,1.043.808.729,1.706,1.536,2.681,2.415L10.911,10c1.173.894,2.477,1.687,3.816,2.607,1.355.884,2.813,1.7,4.313,2.617,3.047,1.689,6.378,3.387,9.936,5.171s7.33,3.646,11.167,5.966A69.807,69.807,0,0,1,51.674,34.8l2.787,2.688c.922.922,1.782,1.991,2.677,2.985l1.334,1.519c.427.537.833,1.115,1.253,1.67l2.543,3.45,2.2,3.6c.365.606.737,1.181,1.1,1.814l1.041,2.006c.678,1.347,1.413,2.656,2.037,4.028q.906,2.077,1.808,4.139a140.034,140.034,0,0,1,5.683,17.132c1.559,5.7,2.819,11.321,4.015,16.6s2.344,10.23,3.48,14.761c.616,2.227,1.166,4.4,1.761,6.408.62,1.988,1.153,3.928,1.753,5.67s1.185,3.367,1.714,4.871c.592,1.453,1.137,2.789,1.629,3.994l.7,1.715c.244.514.474,1,.688,1.443.427.9.794,1.663,1.088,2.284.593,1.241.909,1.906.909,1.906s-.364-.6-1.05-1.734c-.342-.571-.767-1.27-1.264-2.1l-.8-1.334q-.383-.762-.816-1.619c-.574-1.147-1.213-2.418-1.906-3.8-.621-1.457-1.294-3.034-2.014-4.719-.7-1.7-1.349-3.593-2.088-5.551-.716-1.974-1.349-4.128-2.074-6.339-.661-2.243-1.358-4.582-2.037-7.017q-.977-3.67-2.018-7.576c-1.358-5.207-2.79-10.654-4.385-16.172A150.989,150.989,0,0,0,67.71,65.235q-.865-1.944-1.738-3.9c-.591-1.285-1.264-2.445-1.891-3.678l-.958-1.829c-.346-.6-.731-1.19-1.1-1.787L59.8,50.472l-2.282-3.129c-.391-.529-.769-1.081-1.169-1.591L55.1,44.3c-.841-.947-1.642-1.969-2.509-2.851q-1.318-1.3-2.624-2.583a77.831,77.831,0,0,0-10.962-8.483c-3.714-2.369-7.377-4.5-10.884-6.516q-2.624-1.544-5.1-3c-1.638-1.011-3.214-2.046-4.723-3.027-1.487-1.081-2.936-2.018-4.266-3.081-1.315-1.1-2.59-2.056-3.735-3.1q-1.7-1.6-3.176-2.989C6.191,7.638,5.332,6.69,4.559,5.832L3.467,4.619C3.15,4.2,2.853,3.8,2.573,3.435c-.552-.739-1.022-1.366-1.4-1.874Z" transform="translate(227.274 0)" stroke="rgba(0,0,0,0)" stroke-width="1" fill="url(#linear-gradient)"/>
      <path id="Path_51202" data-name="Path 51202" d="M0,0,1.185.767c.775.487,1.9,1.268,3.361,2.1,1.44.89,3.232,1.833,5.277,2.947,2.061,1.05,4.394,2.19,6.949,3.425s5.343,2.509,8.269,4.052a82.373,82.373,0,0,1,9.127,5.33,62.053,62.053,0,0,1,9.29,7.561,74.322,74.322,0,0,1,8.538,10.31l1.865,3,.909,1.476.879,1.625c.576,1.086,1.181,2.152,1.727,3.251q.782,1.672,1.561,3.333a113.617,113.617,0,0,1,5.092,13.8c1.438,4.616,2.577,9.206,3.59,13.559,1.037,4.349,1.9,8.485,2.726,12.288s1.6,7.262,2.3,10.327c.748,3.034,1.383,5.7,1.984,7.846.559,2.176,1.081,3.835,1.409,4.988s.516,1.763.516,1.763-.236-.569-.676-1.636c-.425-1.079-1.132-2.607-1.85-4.691-.771-2.052-1.632-4.595-2.569-7.555-.45-1.489-.928-3.076-1.432-4.748-.474-1.687-.971-3.463-1.491-5.315L65.28,77.855c-1.158-4.219-2.456-8.594-3.914-13a125.385,125.385,0,0,0-5.107-12.989q-.742-1.559-1.5-3.129c-.516-1.015-1.073-1.967-1.608-2.957l-.807-1.477-.916-1.453-1.8-2.847a71.513,71.513,0,0,0-7.982-9.854,71.056,71.056,0,0,0-8.741-7.585c-2.964-2.169-5.91-4.1-8.751-5.819s-5.55-3.34-8.042-4.838q-1.868-1.156-3.576-2.214Q10.851,8.569,9.342,7.567C7.351,6.176,5.638,4.9,4.255,3.748,2.845,2.679,1.829,1.636,1.1,1,.382.35,0,0,0,0Z" transform="translate(244.591 0)" stroke="rgba(0,0,0,0)" stroke-width="1" fill="url(#linear-gradient)"/>
      <path id="Path_51203" data-name="Path 51203" d="M0,0S1.209.431,3.306,1.256c1.047.418,2.32.931,3.767,1.578.724.321,1.5.659,2.311,1.018L11.921,5.12A62.746,62.746,0,0,1,17.58,8.307c1.011.557,1.986,1.36,3.019,2.057a29.438,29.438,0,0,1,3.091,2.375q1.533,1.346,3.11,2.732c1.043.95,2.02,2.093,3.03,3.183l1.515,1.661c.489.588.947,1.237,1.425,1.857q1.442,1.924,2.894,3.862,1.236,2.052,2.467,4.1c.406.691.825,1.339,1.218,2.061l1.139,2.28c.743,1.521,1.534,3,2.175,4.557q.932,2.341,1.838,4.621c.633,1.493,1.1,3.076,1.6,4.593.47,1.536,1.009,2.987,1.385,4.487.814,2.96,1.585,5.758,2.144,8.405q.445,1.972.854,3.773.36,1.814.684,3.435c.435,2.152.78,4.041,1.06,5.6.555,3.115.845,4.912.845,4.912s-.553-1.653-1.47-4.574c-.454-1.46-1-3.234-1.634-5.271-.612-2.044-1.339-4.321-2.118-6.8-.75-2.505-1.7-5.1-2.622-7.892-.44-1.415-1.037-2.745-1.564-4.168-.572-1.387-1.036-2.906-1.7-4.274q-.932-2.1-1.891-4.272c-.3-.75-.7-1.362-1.039-2.05s-.7-1.366-1.052-2.054l-1.056-2.071c-.382-.682-.822-1.343-1.232-2.018q-1.25-2.018-2.509-4.043-1.293-1.766-2.581-3.527c-.444-.6-.867-1.22-1.324-1.785l-1.413-1.6c-.954-1.033-1.842-2.178-2.8-3.157L22.2,16.5c-.922-.979-1.942-1.674-2.875-2.522-.958-.786-1.853-1.67-2.8-2.326-1.882-1.366-3.627-2.783-5.313-3.894C9.535,6.6,8,5.513,6.626,4.606L3.08,2.182C1.113.82,0,0,0,0Z" transform="translate(268.075 0)" stroke="rgba(0,0,0,0)" stroke-width="1" fill="url(#linear-gradient)"/>
      <path id="Path_51204" data-name="Path 51204" d="M0,0S.627.247,1.695.771c.531.265,1.185.572,1.91.981.365.2.758.4,1.164.646.4.266.816.582,1.254.894C6.9,3.92,7.854,4.608,8.842,5.4S10.79,7.2,11.8,8.2L13.34,9.766c.516.537.977,1.19,1.466,1.8s.971,1.26,1.462,1.895l1.509,2.023c.844,1.4,1.695,2.8,2.505,4.207.4.714.825,1.358,1.19,2.135s.72,1.551,1.071,2.311c.688,1.528,1.37,3,1.912,4.449s.99,2.868,1.411,4.164q.312.972.6,1.857c.168.608.3,1.2.442,1.749.276,1.094.487,2.067.665,2.86.353,1.591.516,2.517.516,2.517s-.427-.739-1.109-2.063c-.336-.663-.754-1.459-1.2-2.4s-.977-1.954-1.563-3.049-1.213-2.282-1.838-3.567c-.652-1.251-1.43-2.426-2.144-3.746-.361-.652-.727-1.317-1.1-1.988s-.845-1.311-1.258-1.991c-.867-1.334-1.721-2.724-2.579-4.107l-1.3-1.766q-.669-.938-1.328-1.867c-.448-.6-.852-1.275-1.309-1.836L10.009,11.7C9.11,10.623,8.3,9.439,7.457,8.475,6.6,7.555,5.81,6.624,5.075,5.757S3.66,4.075,3.01,3.425,1.833,2.142,1.385,1.642C.491.629,0,0,0,0Z" transform="translate(293.057 0)" stroke="rgba(0,0,0,0)" stroke-width="1" fill="url(#linear-gradient)"/>
      <path id="Path_51205" data-name="Path 51205" d="M0,0A3.886,3.886,0,0,1,.657.17,8.957,8.957,0,0,1,2.231.894,8.251,8.251,0,0,1,4.2,2.452a21.465,21.465,0,0,1,2,2.405c.353.574.588.952.858,1.462.267.472.5.967.731,1.455a17.462,17.462,0,0,1,1.066,2.959,21.853,21.853,0,0,1,.5,2.379c.093.6.111.969.111.969a4.823,4.823,0,0,1-.629-.348,11.186,11.186,0,0,1-1.443-1.1c-.272-.249-.555-.529-.845-.839s-.618-.637-.926-1.005S5,10.045,4.7,9.622c-.295-.384-.637-.916-.86-1.251A22.116,22.116,0,0,1,2.254,5.757C1.8,4.84,1.351,3.932,1,3.1A20.9,20.9,0,0,1,.232.926C.07.365,0,0,0,0Z" transform="translate(311.668 0)" stroke="rgba(0,0,0,0)" stroke-width="1" fill="url(#linear-gradient)"/>
    </g>
  </g>
</svg>
