<svg xmlns="http://www.w3.org/2000/svg" width="40.935" height="48" viewBox="0 0 40.935 48">
  <g id="secure-shield" transform="translate(-37.681 0)">
    <g id="Group_24172" data-name="Group 24172" transform="translate(37.681 0)">
      <g id="Group_24171" data-name="Group 24171" transform="translate(0 0)">
        <path id="Path_51209" data-name="Path 51209" d="M77.873,8.288A79.845,79.845,0,0,1,58.662.14a1.009,1.009,0,0,0-1.027,0A77.659,77.659,0,0,1,38.424,8.288a1.01,1.01,0,0,0-.743.974V19.579a29.68,29.68,0,0,0,9.013,21.685C51.12,45.6,56.277,48,58.149,48s7.028-2.4,11.455-6.736a29.68,29.68,0,0,0,9.012-21.685V9.262A1.01,1.01,0,0,0,77.873,8.288ZM76.6,19.579A27.7,27.7,0,0,1,68.19,39.821c-4.353,4.265-9.007,6.159-10.041,6.159s-5.689-1.894-10.042-6.159A27.7,27.7,0,0,1,39.7,19.579v-9.55A79.519,79.519,0,0,0,58.149,2.179,82.036,82.036,0,0,0,76.6,10.028Z" transform="translate(-37.681 0)" fill="#bd9a5f"/>
        <path id="Path_51210" data-name="Path 51210" d="M87.847,99.583a1.01,1.01,0,0,0-1.31-.569c-1.8.711-3.655,1.365-5.5,1.944a1.01,1.01,0,0,0-.708.963v3.9a1.01,1.01,0,1,0,2.019,0v-3.161c1.657-.536,3.313-1.129,4.931-1.767A1.009,1.009,0,0,0,87.847,99.583Z" transform="translate(-76.329 -89.667)" fill="#bd9a5f"/>
        <path id="Path_51211" data-name="Path 51211" d="M171.214,88.231a1.01,1.01,0,0,0,.4-.085l.019-.008a1.01,1.01,0,1,0-.815-1.847l-.016.007a1.009,1.009,0,0,0,.408,1.933Z" transform="translate(-157.779 -78.123)" fill="#bd9a5f"/>
        <path id="Path_51212" data-name="Path 51212" d="M310.924,345.693a1.01,1.01,0,0,0-1.4.293,24.575,24.575,0,0,1-2.9,3.624,25.794,25.794,0,0,1-2.9,2.577,1.01,1.01,0,1,0,1.224,1.606,27.833,27.833,0,0,0,3.123-2.779,26.568,26.568,0,0,0,3.141-3.923A1.01,1.01,0,0,0,310.924,345.693Z" transform="translate(-278.426 -313.135)" fill="#bd9a5f"/>
        <path id="Path_51213" data-name="Path 51213" d="M277.125,432.1l-.058.034a1.01,1.01,0,1,0,1.012,1.747l.067-.039a1.01,1.01,0,1,0-1.02-1.742Z" transform="translate(-254.168 -391.469)" fill="#bd9a5f"/>
        <path id="Path_51214" data-name="Path 51214" d="M128.424,162.045a3.283,3.283,0,1,0-4.643,4.644l5.962,5.962a3.284,3.284,0,0,0,4.643,0L146.833,160.2a3.283,3.283,0,0,0-4.644-4.643l-10.125,10.125Zm15.193-5.056a1.264,1.264,0,1,1,1.788,1.787l-12.446,12.446a1.265,1.265,0,0,1-1.788,0l-5.962-5.962A1.264,1.264,0,0,1,127,163.473l4.354,4.354a1.01,1.01,0,0,0,1.428,0Z" transform="translate(-114.839 -140.105)" fill="#bd9a5f"/>
      </g>
    </g>
  </g>
</svg>
