<svg xmlns="http://www.w3.org/2000/svg" width="56.092" height="56" viewBox="0 0 56.092 56">
  <g id="smart-city" transform="translate(0 -0.419)">
    <path id="Path_6530" data-name="Path 6530" d="M59.108,61.164a.822.822,0,0,0,.581-1.4,7.365,7.365,0,0,0-10.416,0,.822.822,0,0,0,1.162,1.162,5.722,5.722,0,0,1,8.092,0A.819.819,0,0,0,59.108,61.164Z" transform="translate(-43.661 -50.92)" fill="#1c1f2a"/>
    <path id="Path_6531" data-name="Path 6531" d="M72.305,101.269a2.9,2.9,0,1,0,2.9-2.9A2.9,2.9,0,0,0,72.305,101.269Zm4.155,0a1.256,1.256,0,1,1-1.256-1.256A1.257,1.257,0,0,1,76.46,101.269Z" transform="translate(-64.384 -87.22)" fill="#1c1f2a"/>
    <path id="Path_6532" data-name="Path 6532" d="M24.756,25.774a9.7,9.7,0,0,1,13.718,0,.822.822,0,1,0,1.162-1.162,11.344,11.344,0,0,0-16.042,0,.822.822,0,0,0,1.162,1.162Z" transform="translate(-20.795 -18.584)" fill="#1c1f2a"/>
    <path id="Path_6533" data-name="Path 6533" d="M55.27,54.776H49.65V33.684a1.832,1.832,0,0,0-1.4-1.785l-8.118-1.973V24.459a.822.822,0,1,0-1.643,0v5.068l-1.732-.421a1.842,1.842,0,0,0-.627-.043V14.92h2.358v9.554a.822.822,0,1,0,1.643,0V14.56a1.285,1.285,0,0,0-1.283-1.283h-.327v-2.36a1.332,1.332,0,0,0-1.331-1.331h-1.06V8.3a2.117,2.117,0,0,0-2.115-2.115h-.645V1.241a.822.822,0,0,0-1.643,0V6.183H31.08A2.117,2.117,0,0,0,28.965,8.3V9.586H27.9a1.332,1.332,0,0,0-1.331,1.331v2.36h-.327a1.285,1.285,0,0,0-1.283,1.283V18.7L15.5,21a1.551,1.551,0,0,0-1.188,1.511v5.347H6.483a2.11,2.11,0,0,0-2.107,2.107v4.9a.822.822,0,1,0,1.643,0v-4.9a.464.464,0,0,1,.464-.464H17.435a.464.464,0,0,1,.464.464V54.776H6.019V34.8a.822.822,0,1,0-1.643,0V54.776H.822a.822.822,0,0,0,0,1.643H55.27a.822.822,0,1,0,0-1.643ZM36.2,30.739a.186.186,0,0,1,.165-.036L47.859,33.5a.193.193,0,0,1,.148.188V54.776H36.127V30.891a.187.187,0,0,1,.074-.152Zm-1.71.033c0,.04-.007.079-.007.119V54.776H32.8V14.919h1.683V30.672a.816.816,0,0,0,.007.1ZM30.609,8.3a.472.472,0,0,1,.472-.472h2.932a.472.472,0,0,1,.472.472V9.586H30.609V8.3Zm-2.391,2.931h8.658v2.047H28.217Zm-1.611,3.69h4.551V54.776H29.475v-35.2a1.555,1.555,0,0,0-1.923-1.511l-.946.23Zm1.225,13.17v2.564l-8.29,2.074V30.164ZM19.542,38.68l8.29-2.074V39.17l-8.29,2.074Zm0,4.258,8.29-2.074v2.564L19.542,45.5Zm0,4.258,8.29-2.074v2.362L19.542,49.6Zm8.29-12.284-8.29,2.074V34.422l8.29-2.074Zm-8.29,16.383,8.29-2.115v2.356l-8.29,2.074Zm8.29,1.935v1.545H21.655Zm0-33.54v2.448L15.953,25.109V22.577Zm-10.4,8.165H15.953V26.8l11.879-2.972V26.4l-8.8,2.2a2.1,2.1,0,0,0-1.6-.742Z" transform="translate(0 0)" fill="#1c1f2a"/>
    <path id="Path_6534" data-name="Path 6534" d="M71.622,283.624a.822.822,0,0,0,.822-.822v-1.439a.822.822,0,0,0-1.643,0V282.8A.822.822,0,0,0,71.622,283.624Z" transform="translate(-63.044 -249.433)" fill="#1c1f2a"/>
    <path id="Path_6535" data-name="Path 6535" d="M102.482,283.624a.822.822,0,0,0,.822-.822v-1.439a.822.822,0,1,0-1.643,0V282.8A.822.822,0,0,0,102.482,283.624Z" transform="translate(-90.523 -249.433)" fill="#1c1f2a"/>
    <path id="Path_6536" data-name="Path 6536" d="M133.342,283.624a.822.822,0,0,0,.822-.822v-1.439a.822.822,0,0,0-1.643,0V282.8A.822.822,0,0,0,133.342,283.624Z" transform="translate(-118.002 -249.433)" fill="#1c1f2a"/>
    <path id="Path_6537" data-name="Path 6537" d="M346.039,315.041a.822.822,0,0,0,.822-.822v-.793a.822.822,0,0,0-1.643,0v.793A.822.822,0,0,0,346.039,315.041Z" transform="translate(-307.397 -277.985)" fill="#1c1f2a"/>
    <path id="Path_6538" data-name="Path 6538" d="M376.9,315.041a.822.822,0,0,0,.822-.822v-.793a.822.822,0,0,0-1.643,0v.793A.822.822,0,0,0,376.9,315.041Z" transform="translate(-334.876 -277.985)" fill="#1c1f2a"/>
    <path id="Path_6539" data-name="Path 6539" d="M406.707,315.041a.822.822,0,0,0,.822-.822v-.793a.822.822,0,1,0-1.643,0v.793A.822.822,0,0,0,406.707,315.041Z" transform="translate(-361.418 -277.985)" fill="#1c1f2a"/>
    <path id="Path_6540" data-name="Path 6540" d="M346.039,351.052a.822.822,0,0,0,.822-.822v-.793a.822.822,0,0,0-1.643,0v.793A.822.822,0,0,0,346.039,351.052Z" transform="translate(-307.397 -310.05)" fill="#1c1f2a"/>
    <path id="Path_6541" data-name="Path 6541" d="M376.9,351.052a.822.822,0,0,0,.822-.822v-.793a.822.822,0,0,0-1.643,0v.793A.822.822,0,0,0,376.9,351.052Z" transform="translate(-334.876 -310.05)" fill="#1c1f2a"/>
    <path id="Path_6542" data-name="Path 6542" d="M406.707,351.052a.822.822,0,0,0,.822-.822v-.793a.822.822,0,0,0-1.643,0v.793A.822.822,0,0,0,406.707,351.052Z" transform="translate(-361.418 -310.05)" fill="#1c1f2a"/>
    <path id="Path_6543" data-name="Path 6543" d="M346.039,387.063a.822.822,0,0,0,.822-.822v-.793a.822.822,0,0,0-1.643,0v.793A.822.822,0,0,0,346.039,387.063Z" transform="translate(-307.397 -342.116)" fill="#1c1f2a"/>
    <path id="Path_6544" data-name="Path 6544" d="M376.9,387.063a.822.822,0,0,0,.822-.822v-.793a.822.822,0,0,0-1.643,0v.793A.822.822,0,0,0,376.9,387.063Z" transform="translate(-334.876 -342.116)" fill="#1c1f2a"/>
    <path id="Path_6545" data-name="Path 6545" d="M406.707,387.063a.822.822,0,0,0,.822-.822v-.793a.822.822,0,1,0-1.643,0v.793A.822.822,0,0,0,406.707,387.063Z" transform="translate(-361.418 -342.116)" fill="#1c1f2a"/>
    <path id="Path_6546" data-name="Path 6546" d="M346.039,423.075a.822.822,0,0,0,.822-.822v-.793a.822.822,0,0,0-1.643,0v.793A.822.822,0,0,0,346.039,423.075Z" transform="translate(-307.397 -374.183)" fill="#1c1f2a"/>
    <path id="Path_6547" data-name="Path 6547" d="M376.9,423.075a.822.822,0,0,0,.822-.822v-.793a.822.822,0,0,0-1.643,0v.793A.822.822,0,0,0,376.9,423.075Z" transform="translate(-334.876 -374.183)" fill="#1c1f2a"/>
    <path id="Path_6548" data-name="Path 6548" d="M406.707,423.075a.822.822,0,0,0,.822-.822v-.793a.822.822,0,1,0-1.643,0v.793A.822.822,0,0,0,406.707,423.075Z" transform="translate(-361.418 -374.183)" fill="#1c1f2a"/>
    <path id="Path_6549" data-name="Path 6549" d="M346.039,459.086a.822.822,0,0,0,.822-.822v-.793a.822.822,0,0,0-1.643,0v.793A.822.822,0,0,0,346.039,459.086Z" transform="translate(-307.397 -406.249)" fill="#1c1f2a"/>
    <path id="Path_6550" data-name="Path 6550" d="M376.9,459.086a.822.822,0,0,0,.822-.822v-.793a.822.822,0,0,0-1.643,0v.793A.822.822,0,0,0,376.9,459.086Z" transform="translate(-334.876 -406.249)" fill="#1c1f2a"/>
    <path id="Path_6551" data-name="Path 6551" d="M406.707,459.086a.822.822,0,0,0,.822-.822v-.793a.822.822,0,0,0-1.643,0v.793A.822.822,0,0,0,406.707,459.086Z" transform="translate(-361.418 -406.249)" fill="#1c1f2a"/>
    <path id="Path_6552" data-name="Path 6552" d="M70.8,326.4a.822.822,0,0,0,1.643,0v-1.439a.822.822,0,0,0-1.643,0Z" transform="translate(-63.044 -288.252)" fill="#1c1f2a"/>
    <path id="Path_6553" data-name="Path 6553" d="M101.66,326.4a.822.822,0,1,0,1.643,0v-1.439a.822.822,0,1,0-1.643,0Z" transform="translate(-90.523 -288.252)" fill="#1c1f2a"/>
    <path id="Path_6554" data-name="Path 6554" d="M132.52,326.4a.822.822,0,0,0,1.643,0v-1.439a.822.822,0,0,0-1.643,0Z" transform="translate(-118.002 -288.252)" fill="#1c1f2a"/>
    <path id="Path_6555" data-name="Path 6555" d="M70.8,369.993a.822.822,0,0,0,1.643,0v-1.439a.822.822,0,0,0-1.643,0Z" transform="translate(-63.044 -327.072)" fill="#1c1f2a"/>
    <path id="Path_6556" data-name="Path 6556" d="M101.66,369.993a.822.822,0,1,0,1.643,0v-1.439a.822.822,0,0,0-1.643,0Z" transform="translate(-90.523 -327.072)" fill="#1c1f2a"/>
    <path id="Path_6557" data-name="Path 6557" d="M132.52,369.993a.822.822,0,0,0,1.643,0v-1.439a.822.822,0,0,0-1.643,0Z" transform="translate(-118.002 -327.072)" fill="#1c1f2a"/>
    <path id="Path_6558" data-name="Path 6558" d="M70.8,413.588a.822.822,0,0,0,1.643,0v-1.439a.822.822,0,0,0-1.643,0Z" transform="translate(-63.044 -365.891)" fill="#1c1f2a"/>
    <path id="Path_6559" data-name="Path 6559" d="M101.66,413.588a.822.822,0,1,0,1.643,0v-1.439a.822.822,0,1,0-1.643,0Z" transform="translate(-90.523 -365.891)" fill="#1c1f2a"/>
    <path id="Path_6560" data-name="Path 6560" d="M132.52,413.588a.822.822,0,0,0,1.643,0v-1.439a.822.822,0,0,0-1.643,0Z" transform="translate(-118.002 -365.891)" fill="#1c1f2a"/>
    <path id="Path_6561" data-name="Path 6561" d="M70.8,457.184a.822.822,0,0,0,1.643,0v-1.439a.822.822,0,0,0-1.643,0Z" transform="translate(-63.044 -404.711)" fill="#1c1f2a"/>
    <path id="Path_6562" data-name="Path 6562" d="M101.66,457.184a.822.822,0,1,0,1.643,0v-1.439a.822.822,0,1,0-1.643,0Z" transform="translate(-90.523 -404.711)" fill="#1c1f2a"/>
    <path id="Path_6563" data-name="Path 6563" d="M132.52,457.184a.822.822,0,0,0,1.643,0v-1.439a.822.822,0,0,0-1.643,0Z" transform="translate(-118.002 -404.711)" fill="#1c1f2a"/>
  </g>
</svg>
