<svg xmlns="http://www.w3.org/2000/svg" width="56.3" height="56.3" viewBox="0 0 56.3 56.3">
  <g id="stadium" transform="translate(0.15 0.15)">
    <path id="Path_6609" data-name="Path 6609" d="M54.3,84.215a1.7,1.7,0,0,0,1.7-1.7V80.646a1.7,1.7,0,0,0-1.7-1.7H46.94V76.716l4.454-1.67a1.726,1.726,0,0,0,0-3.233l-4.986-1.87a.82.82,0,0,0-1.108.768v8.24H34.256V76.967h.117a1.7,1.7,0,0,0,1.7-1.7v-7.31a1.7,1.7,0,0,0-1.7-1.7H21.627a1.7,1.7,0,0,0-1.7,1.7v7.31a1.7,1.7,0,0,0,1.7,1.7h.117v1.983H18.769a.82.82,0,0,0,0,1.641H54.3a.055.055,0,0,1,.055.055V82.52a.055.055,0,0,1-.055.055H1.7a.055.055,0,0,1-.055-.055V80.646a.055.055,0,0,1,.055-.055H19.111c.453,0,.82-.82.82-.82s-.367-.82-.82-.82H10.7v-8.24a.82.82,0,0,0-1.108-.768l-4.986,1.87a1.726,1.726,0,0,0,0,3.233l4.454,1.67v2.235H1.7a1.7,1.7,0,0,0-1.7,1.7V82.52a1.7,1.7,0,0,0,1.7,1.7h.382l2.977,7.442a1.7,1.7,0,0,0-1.43,1.672V95.2a1.7,1.7,0,0,0,1.7,1.7h.117v7.419H5.319a1.7,1.7,0,0,0-1.7,1.7v3.741H1.7a1.7,1.7,0,0,0-1.7,1.7v1.874a1.7,1.7,0,0,0,1.7,1.7H7.419a.82.82,0,0,0,0-1.641H1.7a.055.055,0,0,1-.055-.055V111.45A.055.055,0,0,1,1.7,111.4H54.3a.055.055,0,0,1,.055.055v1.874a.055.055,0,0,1-.055.055H6.746a.82.82,0,0,0,0,1.641H54.3a1.7,1.7,0,0,0,1.7-1.7V111.45a1.7,1.7,0,0,0-1.7-1.7H52.376v-3.741a1.7,1.7,0,0,0-1.7-1.7h-.117V96.9h.117a1.7,1.7,0,0,0,1.7-1.7V93.33a1.7,1.7,0,0,0-1.43-1.672l2.977-7.442H54.3ZM50.873,73.429a.073.073,0,0,1-.056.08L46.94,74.963V71.895l3.877,1.454A.074.074,0,0,1,50.873,73.429Zm-29.3,1.843v-7.31a.055.055,0,0,1,.055-.055H34.373a.055.055,0,0,1,.055.055v7.31a.055.055,0,0,1-.055.055H21.627A.055.055,0,0,1,21.572,75.272Zm7.419,1.7v1.983H27.008V76.967Zm-5.607,1.983V76.967h1.983v1.983H23.384Zm7.248,0V76.967h1.983v1.983H30.632ZM5.182,73.509a.086.086,0,0,1,0-.16L9.06,71.9v3.069ZM44.908,84.215,41.94,91.635H36.459l2.968-7.419Zm-7.248,0-2.968,7.419H21.307L18.34,84.215Zm-21.087,0,2.968,7.419H14.059l-2.968-7.419Zm-7.248,0,2.968,7.419H6.812L3.844,84.215ZM7.077,96.9h5.607v12.855H10.7v-3.741a1.7,1.7,0,0,0-1.7-1.7H7.077Zm34.6,0v12.855H36.068v-9.177a1.7,1.7,0,0,0-1.7-1.7H21.627a1.7,1.7,0,0,0-1.7,1.7v9.177H14.324V96.9ZM5.265,109.755v-3.741a.055.055,0,0,1,.055-.055H9.005a.055.055,0,0,1,.055.055v3.741Zm16.308-9.177a.055.055,0,0,1,.055-.055H27.18v9.231H21.572Zm7.248,9.177v-9.231h5.553a.055.055,0,0,1,.055.055v9.177Zm21.915-3.741v3.741h-3.8v-3.741a.055.055,0,0,1,.055-.055h3.686A.055.055,0,0,1,50.735,106.014Zm-1.812-1.7H46.995a1.7,1.7,0,0,0-1.7,1.7v3.741H43.316V96.9h5.607ZM50.735,95.2a.055.055,0,0,1-.055.055H5.319a.055.055,0,0,1-.055-.055V93.33a.055.055,0,0,1,.055-.055H50.681a.055.055,0,0,1,.055.055Zm-1.547-3.569H43.707l2.968-7.419h5.481Z" transform="translate(0 -59.019)" fill="#1c1f2a" stroke="#1c1f2a" stroke-width="0.3"/>
    <path id="Path_6610" data-name="Path 6610" d="M348.309,35.742a.82.82,0,0,0,1.121-.3l1.812-3.138a.82.82,0,1,0-1.421-.82l-1.812,3.138A.82.82,0,0,0,348.309,35.742Z" transform="translate(-309.848 -27.675)" fill="#1c1f2a" stroke="#1c1f2a" stroke-width="0.3"/>
    <path id="Path_6611" data-name="Path 6611" d="M249.32,5.265a.82.82,0,0,0,.82-.82V.82a.82.82,0,0,0-1.641,0V4.444A.82.82,0,0,0,249.32,5.265Z" transform="translate(-221.32)" fill="#1c1f2a" stroke="#1c1f2a" stroke-width="0.3"/>
    <path id="Path_6612" data-name="Path 6612" d="M134.454,35.443a.82.82,0,0,0,1.421-.82l-1.812-3.138a.82.82,0,1,0-1.421.82Z" transform="translate(-118.036 -27.675)" fill="#1c1f2a" stroke="#1c1f2a" stroke-width="0.3"/>
    <path id="Path_6613" data-name="Path 6613" d="M217.093,422.45h-.906a.82.82,0,1,0,0,1.641h.906a.82.82,0,0,0,0-1.641Z" transform="translate(-191.811 -376.245)" fill="#1c1f2a" stroke="#1c1f2a" stroke-width="0.3"/>
    <path id="Path_6614" data-name="Path 6614" d="M275.076,422.45h-.906a.82.82,0,0,0,0,1.641h.906a.82.82,0,0,0,0-1.641Z" transform="translate(-243.452 -376.245)" fill="#1c1f2a" stroke="#1c1f2a" stroke-width="0.3"/>
    <path id="Path_6615" data-name="Path 6615" d="M17.387,36.586h.992v.992a.82.82,0,0,0,1.641,0v-.992h.992a.82.82,0,0,0,0-1.641H20.02v-.992a.82.82,0,1,0-1.641,0v.992h-.992a.82.82,0,0,0,0,1.641Z" transform="translate(-14.755 -29.509)" fill="#1c1f2a" stroke="#1c1f2a" stroke-width="0.3"/>
    <path id="Path_6616" data-name="Path 6616" d="M448.12,36.586h.992v.992a.82.82,0,0,0,1.641,0v-.992h.992a.82.82,0,0,0,0-1.641h-.992v-.992a.82.82,0,0,0-1.641,0v.992h-.992a.82.82,0,0,0,0,1.641Z" transform="translate(-398.377 -29.509)" fill="#1c1f2a" stroke="#1c1f2a" stroke-width="0.3"/>
  </g>
</svg>
