<svg xmlns="http://www.w3.org/2000/svg" xmlns:xlink="http://www.w3.org/1999/xlink" width="1054.167" height="486.945" viewBox="0 0 1054.167 486.945">
  <defs>
    <linearGradient id="linear-gradient" x1="0.562" y1="-0.17" x2="0.465" y2="1" gradientUnits="objectBoundingBox">
      <stop offset="0" stop-color="#b5b9cc"/>
      <stop offset="1" stop-color="#6b6c70"/>
    </linearGradient>
    <radialGradient id="radial-gradient" cx="0.5" cy="0.5" r="0.5" gradientUnits="objectBoundingBox">
      <stop offset="0" stop-color="#ecd3a8"/>
      <stop offset="0.55" stop-color="#bd9a5f"/>
      <stop offset="1" stop-color="#84642e"/>
    </radialGradient>
  </defs>
  <g id="center" transform="translate(-786.74 -2812.809)">
    <g id="map-bg" transform="translate(816.74 2842.809)">
      <path id="Path_5964" data-name="Path 5964" d="M127.071,15.223S167.9,7.231,187.625,7.231s30.987-7.975,55.6-5.8,39.5,5.081,68.309,13.8S367.871,37,404.492,52.918s45.077,20.325,57.761,26.131,21.522,9.755,58.449,6.74c27.373-2.247,54.235.151,66.2.151s10.564,1.085,14.089,7.614,1.464,5.806,19.019,5.806,18.317-2.895,26.057,5.081,13.388,11.625,12.685,18.093c8.442,0,7.038-.723,26.758,9.438s23.41,7.465,33.811,18.093c13.372,13.8-5.736,9.574,0,13.8,9.862,7.254,18.3,17.415,33.094,29.025s11.266,9.44,22.53,8.715,16.211-.723,16.211,3.619v4.358s45.764,30.487,52.815,34.844,17.558,4.358,82.4,4.358c43.657,0,43.657-.738,54.221,5.8s18.317,7.977,12.685,20.327-14.79,30.47-18.317,37.694-1.463,9.423-20.483,12.335-95.1,19.6-113.386,24.681-18.3,4.344-57.058,7.254-62.677,8.188-83.1,8.911-27.461,2.91-45.077,8.715-33.094,12.86-44.359,25.193-14.791,12.335-22.545,12.335-19.722-8.7-19.722-8.7-43.657.723-59.151.723-19.017-4.356-19.017-4.356-48.587,2.91-63.38,2.91-7.754-7.99-22.53-7.99S381.2,409.858,390.359,412.03,374.865,428,374.865,428s-16.094-26.658-32.978-31-34.5-21.788-52.113-42.1-37.322-34.119-52.815-34.119S210.9,304.81,198.921,296.833s-4.214-30.487-1.462-33.4-7.038-25.526-24.653-37.8-45.764-15.184-45.764-15.184l-10.578-13.058s7.052-7.992-4.93-17.415S39.039,105.222,32.69,103.759,8.754,100.864,1,106.668C17.665,91.742,26.092,69.291,26.092,69.291s36.883,2.533,46.818,4,37.322-18.093,37.322-18.093l35.215-.723s3.526-10.163,20.483-10.887C133.406,21.749,127.072,15.22,127.072,15.22Z" transform="translate(-1 -1.052)" fill="#bd9a5f" opacity="0.53"/>
      <path id="Path_5880" data-name="Path 5880" d="M971.2,237.356v11.753c0,4.006.185,3.437-.427,4.786-5.311,11.716-16.086,32.665-19.526,39.48s-1.428,8.891-19.983,11.618-92.779,18.461-110.622,23.247-17.856,4.1-55.667,6.831-61.149,5.468-81.075,6.148-26.791,2.741-43.978,8.209-32.287,14.357-43.277,25.972-14.43,11.632-22,11.632-19.242-8.209-19.242-8.209-40.681-.88-55.8-.88-17.03-2.443-17.03-2.443-51.9.5-66.329.5-6.509-5.382-20.926-5.382S385.237,386.72,384.994,390s-19.213,12.071-19.213,12.071-15.8-25.306-32.3-29.4-33.657-20.506-50.843-39.651S246.3,300.843,231.18,300.843s-29.66-17.738-41.393-25.25l-2.083-1.662V241.013l.085-9.132a67.033,67.033,0,0,0-19.2-20.6c-17.13-11.562-44.649-14.3-44.649-14.3l-10.321-12.3V171.385c-.927-1.051-3.339-2-4.81-3.11-11.619-8.89-70.7-70.41-76.892-71.787S8.567,93.761,1,99.186V85.071S44.938,50.9,156.268,68.838s228.241,86.3,329.852,119.291S651.765,222.3,729.7,232.152s241.5,5.2,241.5,5.2Z" transform="translate(13.737 13.873)" fill="#a4824a"/>
      <path id="Path_5881" data-name="Path 5881" d="M87.339,10.27V23.386l29.335,21.559,20.618-14.507L92.153,10.9Z" transform="translate(50.337 2.855)" fill="#a4824a" fill-rule="evenodd"/>
      <g id="Group_23112" data-name="Group 23112" transform="translate(14.736 0)">
        <path id="Path_5882" data-name="Path 5882" d="M124,14.444s39.839-7.552,59.079-7.552,30.231-7.537,54.24-5.485,38.538,4.8,66.644,13.037,54.968,20.576,90.7,35.622,43.978,19.207,56.353,24.694,21,9.218,57.024,6.369c26.706-2.123,52.913.142,64.589.142s10.306,1.025,13.745,7.2,1.428,5.486,18.555,5.486,17.87-2.735,25.421,4.8,13.062,10.986,12.375,17.1c8.236,0,6.866-.683,26.106,8.919s22.84,7.054,32.987,17.1c13.046,13.037-5.6,9.048,0,13.037,9.622,6.855,17.856,16.458,32.288,27.429s10.991,8.921,21.981,8.236,15.816-.683,15.816,3.42v4.118s44.649,28.81,51.528,32.928,17.13,4.118,80.389,4.118c42.592,0,42.592-.7,52.9,5.485s17.87,7.538,12.375,19.209-14.43,28.795-17.87,35.621-1.427,8.905-19.983,11.656-92.779,18.524-110.622,23.324-17.856,4.105-55.667,6.855-61.149,7.738-81.075,8.421-26.791,2.75-43.978,8.236-32.287,12.153-43.277,23.808-14.43,11.656-22,11.656-19.241-8.222-19.241-8.222-42.592.683-57.709.683-18.554-4.117-18.554-4.117-47.4,2.75-61.835,2.75-7.565-7.551-21.981-7.551-23.367,14.406-14.43,16.458-15.116,15.089-15.116,15.089-15.7-25.192-32.173-29.3-33.657-20.59-50.843-39.784S246.322,303.2,231.207,303.2s-25.421-15.089-37.112-22.628-4.111-28.81-1.427-31.561-6.866-24.123-24.051-35.722-44.649-14.349-44.649-14.349L113.648,186.6s6.88-7.552-4.81-16.458S38.112,99.493,31.918,98.111,8.565,95.375,1,100.86C17.258,86.755,25.48,65.539,25.48,65.539s35.984,2.394,45.677,3.776,36.413-17.1,36.413-17.1l34.356-.683s3.44-9.6,19.983-10.288C130.178,20.611,124,14.441,124,14.441Z" transform="translate(-1 -1.052)" stroke="#bd9a5f" stroke-width="1.5" fill="url(#linear-gradient)"/>
        <path id="Path_5883" data-name="Path 5883" d="M241.32,278.713V294a2.45,2.45,0,0,1-1.114,1.765,32.943,32.943,0,0,0-8.679-2.2c-5.266-.771-12.573-2.217-12.231-3.447V274.788" transform="translate(91.536 114.991)" fill="#a4824a"/>
        <path id="Path_5884" data-name="Path 5884" d="M227.071,274.086s-4.011-2.008-7.137,0,5.568,4.675,11.591,6a24.434,24.434,0,0,1,8.677,3.335s3.127-3.335-1.114-5.115-12.018-4.218-12.018-4.218Z" transform="translate(91.532 114.315)" fill="#6e6f73"/>
      </g>
      <path id="Path_5939" data-name="Path 5939" d="M400.277,242.057a28.649,28.649,0,0,0-17.016,0,28.649,28.649,0,0,0,17.016,0ZM388.089,134.309a34.525,34.525,0,0,1,3.674,6.365,35.368,35.368,0,0,1,3.674-6.365,33.361,33.361,0,0,1-7.347,0Zm-.1,73.7a17.087,17.087,0,0,0-7.746-14.239A17.087,17.087,0,0,0,387.989,208.011Zm0,10.637a17.087,17.087,0,0,0-7.746,14.239,17.087,17.087,0,0,0,7.746-14.239Zm.114,16.019a35.2,35.2,0,0,1,7.347,0,33.964,33.964,0,0,1-3.674-6.351,35.247,35.247,0,0,1-3.674,6.351Zm7.447-73.688a17.087,17.087,0,0,0,7.746,14.239,17.087,17.087,0,0,0-7.746-14.239Zm0-10.637A17.087,17.087,0,0,0,403.3,136.1,17.087,17.087,0,0,0,395.55,150.342Zm7.746,43.415A17.087,17.087,0,0,0,395.55,208,17.087,17.087,0,0,0,403.3,193.758Zm-23.053-18.525a17.087,17.087,0,0,0,7.746-14.239,17.087,17.087,0,0,0-7.746,14.239ZM418.1,189.813a17.087,17.087,0,0,0-7.746,14.239A17.087,17.087,0,0,0,418.1,189.813Zm7.561,0a17.087,17.087,0,0,0,7.76,14.239A17.087,17.087,0,0,0,425.666,189.813Zm-3.289,22.142a28.306,28.306,0,0,0-9,1.267,29.148,29.148,0,0,0,17.087,0,28.478,28.478,0,0,0-8.088-1.267Zm0,9.1a33.731,33.731,0,0,1-4.158-.185,35.375,35.375,0,0,1,3.674,6.365c.142-.356.313-.7.484-1.039a34.174,34.174,0,0,1,3.19-5.326c-1.068.071-2.122.185-3.19.185Zm-39.115-94.349a28.65,28.65,0,0,0,17.016,0,28.65,28.65,0,0,0-17.016,0Zm27.1-19.479a17.087,17.087,0,0,0,7.746,14.239A17.087,17.087,0,0,0,410.359,107.226Zm-27.1,77.162a28.877,28.877,0,0,0,17.016,0A28.649,28.649,0,0,0,383.262,184.388Zm4.827,7.6a34.415,34.415,0,0,1,3.674,6.351,35.237,35.237,0,0,1,3.674-6.351,35.2,35.2,0,0,1-7.347,0Zm30.13-43.828a31.146,31.146,0,0,1,4.158-.185,18.448,18.448,0,0,1,3.19.185,34.355,34.355,0,0,1-3.189-5.34c-.171-.342-.328-.683-.484-1.025A34.525,34.525,0,0,1,418.219,148.164ZM388.1,177a33.36,33.36,0,0,1,7.347,0,34.529,34.529,0,0,1-3.674-6.365A34.883,34.883,0,0,1,388.1,177Zm34.274,81.178c-.171-.342-.328-.683-.484-1.025a34.523,34.523,0,0,1-3.674,6.365,31.149,31.149,0,0,1,4.158-.185,19.968,19.968,0,0,1,3.19.171,34.169,34.169,0,0,1-3.19-5.325Zm0-101.355a29.033,29.033,0,0,0,8.059-1.267,28.478,28.478,0,0,0-8.031-1.267,29.113,29.113,0,0,0-9.056,1.267,28.735,28.735,0,0,0,9.028,1.267Zm-56.938-35.313a17.087,17.087,0,0,0,7.746-14.239A17.087,17.087,0,0,0,365.438,121.508Zm-7.618,57.655a17.087,17.087,0,0,0-7.746-14.239,17.087,17.087,0,0,0,7.746,14.239Zm0-47.032a17.087,17.087,0,0,0-7.746,14.239A17.087,17.087,0,0,0,357.82,132.13Zm4.272,31.2a34.075,34.075,0,0,1-4.172-.171,33.957,33.957,0,0,1,3.674,6.351c.157-.342.327-.684.5-1.025a33.5,33.5,0,0,1,3.175-5.325C364.271,163.271,363.2,163.314,362.092,163.328Zm0,57.726a34.084,34.084,0,0,1-4.172-.185,34.073,34.073,0,0,1,3.674,6.365c.157-.356.327-.7.5-1.039a34.172,34.172,0,0,1,3.175-5.325C364.271,220.94,363.2,221.054,362.092,221.054Zm-34.331-13.043A17.087,17.087,0,0,0,320,193.772a17.087,17.087,0,0,0,7.76,14.239Zm15.307-14.253A17.087,17.087,0,0,0,335.322,208,17.087,17.087,0,0,0,343.068,193.758Zm-7.86-1.766a35.2,35.2,0,0,1-7.347,0,34.409,34.409,0,0,1,3.674,6.351,34.417,34.417,0,0,1,3.674-6.351Zm26.884-37.72a29.148,29.148,0,0,0-9,1.267,28.792,28.792,0,0,0,17.016,0,28.394,28.394,0,0,0-8.017-1.267ZM340.05,184.388a28.82,28.82,0,0,0-17.087,0,28.821,28.821,0,0,0,17.087,0Zm22.042,16.1c-.171-.342-.342-.669-.484-1.011a35.248,35.248,0,0,1-3.674,6.351,36.79,36.79,0,0,1,4.158-.185,18.283,18.283,0,0,1,3.175.185,34.277,34.277,0,0,1-3.175-5.34Zm0-57.669c-.171-.342-.342-.683-.484-1.025a35.377,35.377,0,0,1-3.674,6.365,31.146,31.146,0,0,1,4.158-.185,18.285,18.285,0,0,1,3.175.185,34.279,34.279,0,0,1-3.175-5.34Zm11.092,79.768a17.087,17.087,0,0,0-7.746,14.239,17.087,17.087,0,0,0,7.746-14.239Zm-23.053-18.525a17.087,17.087,0,0,0,7.746-14.239A17.087,17.087,0,0,0,350.131,204.067Zm37.858-53.739a17.087,17.087,0,0,0-7.746-14.239,17.087,17.087,0,0,0,7.746,14.239Zm-25.9,61.627a28.308,28.308,0,0,0-9,1.267,28.759,28.759,0,0,0,9,1.267,28.392,28.392,0,0,0,8.017-1.267A28.393,28.393,0,0,0,362.092,211.955Zm3.346-32.779a17.087,17.087,0,0,0,7.746-14.239A17.087,17.087,0,0,0,365.438,179.177Zm7.746-32.779a17.087,17.087,0,0,0-7.746-14.239,17.087,17.087,0,0,0,7.746,14.239Zm7.058-28.849a17.087,17.087,0,0,0,7.746-14.239,17.087,17.087,0,0,0-7.746,14.239Zm-14.8,72.264a17.087,17.087,0,0,0,7.746,14.239A17.087,17.087,0,0,0,365.438,189.813Zm-15.307,32.764a17.087,17.087,0,0,0,7.746,14.239,17.087,17.087,0,0,0-7.746-14.239Zm132.478-22.085c-.157-.342-.328-.669-.484-1.011a34.424,34.424,0,0,1-3.674,6.351,36.918,36.918,0,0,1,4.158-.185,18.364,18.364,0,0,1,3.19.185,35.521,35.521,0,0,1-3.19-5.34Zm-12.018,3.574a17.087,17.087,0,0,0,7.76-14.239,17.087,17.087,0,0,0-7.76,14.239Zm11.534-34.559.484-1.025a34.669,34.669,0,0,1,3.189-5.326c-1.054.114-2.122.157-3.189.171a33.782,33.782,0,0,1-4.158-.171,33.961,33.961,0,0,1,3.674,6.351Zm-3.674,94.007a31.328,31.328,0,0,1,4.158-.185,19.879,19.879,0,0,1,3.19.171,34.818,34.818,0,0,1-3.19-5.34c-.157-.328-.328-.669-.484-1.011a34.528,34.528,0,0,1-3.674,6.365Zm-7.86-40.938a17.087,17.087,0,0,0,7.746,14.239A17.087,17.087,0,0,0,470.591,222.578Zm15.378-32.764a17.087,17.087,0,0,0,7.746,14.239A17.087,17.087,0,0,0,485.969,189.813Zm-15.378-24.9a17.087,17.087,0,0,0,7.746,14.239A17.087,17.087,0,0,0,470.591,164.909Zm15.378,14.268a17.087,17.087,0,0,0,7.76-14.239,17.087,17.087,0,0,0-7.76,14.239Zm-3.845,48,.484-1.025a35.372,35.372,0,0,1,3.189-5.326c-1.054.114-2.122.171-3.189.185a33.853,33.853,0,0,1-4.158-.185,34.416,34.416,0,0,1,3.674,6.351Zm.484-12.687a28.478,28.478,0,0,0,8.031-1.267,29.148,29.148,0,0,0-17.087,0,28.836,28.836,0,0,0,9.056,1.267Zm-42.134-96.941a17.087,17.087,0,0,0,7.746-14.239,17.087,17.087,0,0,0-7.746,14.239ZM470.591,146.4a17.087,17.087,0,0,0,7.76-14.239,17.087,17.087,0,0,0-7.76,14.239Zm-207.8,37.976a28.82,28.82,0,0,0,17.087,0,28.82,28.82,0,0,0-17.087,0ZM508.567,177a33.361,33.361,0,0,1,7.347,0,35.379,35.379,0,0,1-3.674-6.365A34.075,34.075,0,0,1,508.567,177ZM335.322,160.979a17.087,17.087,0,0,0,7.746,14.239A17.087,17.087,0,0,0,335.322,160.979Zm-45.437,3.93a17.087,17.087,0,0,0,7.746,14.239A17.087,17.087,0,0,0,289.885,164.909Zm210.836,10.323a17.087,17.087,0,0,0,7.746-14.239,17.087,17.087,0,0,0-7.746,14.239ZM362.092,105.716a34.086,34.086,0,0,1-4.172-.185,34.528,34.528,0,0,1,3.674,6.365c.157-.356.328-.7.5-1.039a34.172,34.172,0,0,1,3.175-5.325C364.271,105.588,363.2,105.716,362.092,105.716Zm59.8,6.123c.142-.356.313-.7.484-1.039a34.172,34.172,0,0,1,3.19-5.325c-1.068.114-2.122.171-3.19.185a33.735,33.735,0,0,1-4.158-.185,35.375,35.375,0,0,1,3.674,6.365ZM433.426,146.4a17.087,17.087,0,0,0-7.76-14.239,17.087,17.087,0,0,0,7.76,14.239Zm-23.068,18.511a17.087,17.087,0,0,0,7.746,14.239A17.087,17.087,0,0,0,410.359,164.909Zm45.437-3.93a17.087,17.087,0,0,0,7.746,14.239A17.087,17.087,0,0,0,455.8,160.979Zm-12.3,23.4a28.821,28.821,0,0,0,17.087,0,28.82,28.82,0,0,0-17.087,0Zm-10.081,38.218a17.087,17.087,0,0,0-7.746,14.239,17.087,17.087,0,0,0,7.746-14.239Zm22.37-72.25a17.087,17.087,0,0,0,7.761-14.239,17.087,17.087,0,0,0-7.76,14.239Zm-12.288-23.637a28.707,28.707,0,0,0,17.087,0A28.707,28.707,0,0,0,443.494,126.705Zm4.727,23.623a17.087,17.087,0,0,0-7.746-14.239,17.087,17.087,0,0,0,7.746,14.239Zm-26.328,19.18c.142-.342.313-.683.484-1.025a33.572,33.572,0,0,1,3.19-5.325c-1.068.114-2.122.157-3.19.171a33.789,33.789,0,0,1-4.158-.171,34.756,34.756,0,0,1,3.674,6.351Zm-3.674,36.324a36.775,36.775,0,0,1,4.158-.185,18.448,18.448,0,0,1,3.19.185,34.356,34.356,0,0,1-3.189-5.34c-.171-.342-.328-.669-.484-1.011a34.416,34.416,0,0,1-3.674,6.351Zm7.447-26.656a17.087,17.087,0,0,0,7.746-14.239A17.087,17.087,0,0,0,425.666,179.177ZM410.359,146.4a17.087,17.087,0,0,0,7.746-14.239,17.087,17.087,0,0,0-7.746,14.239Zm0,76.18a17.087,17.087,0,0,0,7.746,14.239,17.087,17.087,0,0,0-7.746-14.239Zm30.116-47.345a17.087,17.087,0,0,0,7.746-14.239A17.087,17.087,0,0,0,440.475,175.232Zm7.86-40.924a35.377,35.377,0,0,1,3.674,6.365,34.527,34.527,0,0,1,3.674-6.365,33.362,33.362,0,0,1-7.347,0Zm0,42.689a33.363,33.363,0,0,1,7.347,0,34.521,34.521,0,0,1-3.674-6.365A34.069,34.069,0,0,1,448.335,177Zm0,14.994a34.411,34.411,0,0,1,3.674,6.351,34.42,34.42,0,0,1,3.674-6.351,35.2,35.2,0,0,1-7.347,0Zm12.189,50.065a28.707,28.707,0,0,0-17.087,0,28.706,28.706,0,0,0,17.087,0Zm-12.189-7.39a35.2,35.2,0,0,1,7.347,0,33.959,33.959,0,0,1-3.674-6.351,34.417,34.417,0,0,1-3.674,6.351Zm-.114-26.656a17.087,17.087,0,0,0-7.746-14.239A17.087,17.087,0,0,0,448.221,208.011Zm15.321-14.253A17.087,17.087,0,0,0,455.782,208a17.087,17.087,0,0,0,7.76-14.239Zm-15.321,24.89a17.087,17.087,0,0,0-7.746,14.239A17.087,17.087,0,0,0,448.221,218.648Zm34.388-61.827a29.033,29.033,0,0,0,8.031-1.282,28.477,28.477,0,0,0-8.031-1.267,28.834,28.834,0,0,0-9,1.267,28.848,28.848,0,0,0,9,1.281Zm-49.2-49.581a17.087,17.087,0,0,0-7.746,14.239,17.087,17.087,0,0,0,7.746-14.239Zm22.27,12.075a33.958,33.958,0,0,1-3.674-6.351,34.531,34.531,0,0,1-3.674,6.365,34.259,34.259,0,0,1,7.348-.014ZM485.969,236.86a17.087,17.087,0,0,0,7.76-14.239A17.087,17.087,0,0,0,485.969,236.86ZM301.9,156.821a29.033,29.033,0,0,0,8.031-1.282,28.478,28.478,0,0,0-8.031-1.267,28.834,28.834,0,0,0-9,1.267,28.849,28.849,0,0,0,9,1.282Zm198.8,36.922a17.087,17.087,0,0,0,7.76,14.239,17.087,17.087,0,0,0-7.76-14.239Zm-22.356,53.739a17.087,17.087,0,0,0-7.76,14.239,17.087,17.087,0,0,0,7.76-14.239ZM455.8,218.662a17.087,17.087,0,0,0,7.746,14.239A17.087,17.087,0,0,0,455.8,218.662Zm26.812,50.962a28.478,28.478,0,0,0-9,1.267,28.849,28.849,0,0,0,17.087,0,28.48,28.48,0,0,0-8.088-1.267Zm3.361-22.128a17.087,17.087,0,0,0,7.746,14.239,17.087,17.087,0,0,0-7.746-14.239ZM297.745,148.164a31.443,31.443,0,0,1,4.158-.185,18.365,18.365,0,0,1,3.19.185,35.519,35.519,0,0,1-3.19-5.34l-.484-1.025a34.533,34.533,0,0,1-3.674,6.365Zm7.39,31.013a17.087,17.087,0,0,0,7.76-14.239,17.087,17.087,0,0,0-7.76,14.239Zm.071,10.637a17.087,17.087,0,0,0,7.746,14.239,17.087,17.087,0,0,0-7.746-14.239Zm34.843,52.244a28.706,28.706,0,0,0-17.087,0A28.706,28.706,0,0,0,340.05,242.057Zm-80.281-66.825a17.087,17.087,0,0,0,7.746-14.239A17.087,17.087,0,0,0,259.769,175.232ZM403.3,117.564a17.087,17.087,0,0,0-7.746-14.239A17.087,17.087,0,0,0,403.3,117.564Zm-71.762,23.11a34.533,34.533,0,0,1,3.674-6.365,33.365,33.365,0,0,1-7.347,0,34.522,34.522,0,0,1,3.674,6.365ZM388.1,119.329a34.258,34.258,0,0,1,7.347,0,33.959,33.959,0,0,1-3.674-6.351,35.369,35.369,0,0,1-3.674,6.351Zm-86.684,50.179.484-1.025a34.676,34.676,0,0,1,3.19-5.325c-1.054.114-2.122.157-3.19.171a33.779,33.779,0,0,1-4.158-.171,33.964,33.964,0,0,1,3.674,6.351ZM274.976,177a34.523,34.523,0,0,1-3.674-6.365A34.074,34.074,0,0,1,267.629,177a33.365,33.365,0,0,1,7.348,0Zm120.46,72.663a33.361,33.361,0,0,1-7.347,0,34.527,34.527,0,0,1,3.674,6.365,35.372,35.372,0,0,1,3.674-6.365Zm7.86,1.766a17.087,17.087,0,0,0-7.746,14.239A17.087,17.087,0,0,0,403.3,251.427Zm-7.746-32.764A17.087,17.087,0,0,0,403.3,232.9a17.087,17.087,0,0,0-7.746-14.239Zm-7.561,47.018a17.087,17.087,0,0,0-7.746-14.239A17.087,17.087,0,0,0,387.989,265.68Zm-25.9-7.518c-.171-.328-.342-.669-.484-1.011a35.375,35.375,0,0,1-3.674,6.365,31.159,31.159,0,0,1,4.158-.185,19.794,19.794,0,0,1,3.175.171,33.627,33.627,0,0,1-3.175-5.34Zm-4.272-10.679a17.087,17.087,0,0,0-7.746,14.239A17.087,17.087,0,0,0,357.82,247.482Zm15.364,14.268a17.087,17.087,0,0,0-7.746-14.239A17.087,17.087,0,0,0,373.184,261.75ZM418.1,247.482a17.087,17.087,0,0,0-7.746,14.239,17.087,17.087,0,0,0,7.746-14.239Zm4.272,22.142a28.309,28.309,0,0,0-9.028,1.267,28.735,28.735,0,0,0,9,1.282,29.034,29.034,0,0,0,8.088-1.282A28.479,28.479,0,0,0,422.377,269.624Zm-79.308-36.709a17.087,17.087,0,0,0-7.746-14.239,17.087,17.087,0,0,0,7.746,14.239Zm112.614,16.745a33.36,33.36,0,0,1-7.347,0,35.376,35.376,0,0,1,3.674,6.365,34.527,34.527,0,0,1,3.674-6.365Zm-7.461,16.019a17.087,17.087,0,0,0-7.746-14.239A17.087,17.087,0,0,0,448.221,265.68Zm15.321-14.253a17.087,17.087,0,0,0-7.76,14.239A17.087,17.087,0,0,0,463.542,251.427Zm-37.876-3.93a17.087,17.087,0,0,0,7.76,14.239A17.087,17.087,0,0,0,425.666,247.5Zm-82.6,3.93a17.087,17.087,0,0,0-7.746,14.239,17.087,17.087,0,0,0,7.746-14.239Zm-15.307-32.779a17.087,17.087,0,0,0-7.746,14.239,17.087,17.087,0,0,0,7.746-14.239Zm7.447,16.019a35.248,35.248,0,0,1-3.674-6.351,33.959,33.959,0,0,1-3.674,6.351,35.2,35.2,0,0,1,7.348,0Zm26.884,34.957a28.305,28.305,0,0,0-9,1.267,28.792,28.792,0,0,0,17.016,0,28.392,28.392,0,0,0-8.017-1.267ZM327.918,177a33.364,33.364,0,0,1,7.347,0,35.376,35.376,0,0,1-3.674-6.365A34.08,34.08,0,0,1,327.918,177Zm172.8,55.9a17.087,17.087,0,0,0,7.746-14.239A17.087,17.087,0,0,0,500.721,232.9Zm-259.05-69.573a33.782,33.782,0,0,1-4.158-.171,34.758,34.758,0,0,1,3.674,6.351c.142-.342.313-.683.484-1.025a33.568,33.568,0,0,1,3.19-5.325C243.792,163.271,242.739,163.314,241.671,163.328Zm78.344,11.9a17.087,17.087,0,0,0,7.746-14.239A17.087,17.087,0,0,0,320.015,175.232Zm-37.179.014a17.087,17.087,0,0,0-7.746-14.239,17.087,17.087,0,0,0,7.746,14.239Zm52.486-24.9a17.087,17.087,0,0,0,7.746-14.239,17.087,17.087,0,0,0-7.746,14.239Z" transform="translate(113.999 42.297)" fill="none" fill-rule="evenodd"/>
    </g>
    <g id="lines" transform="translate(1008.464 2921.968)">
      <path id="Path_5885" data-name="Path 5885" d="M457.442,57.687c-5.766,1.775-11.908,6.5-17.611,12.161a174.47,174.47,0,0,0-22.314,26.4H406.145l-4.741,7.416s12.572,1.094,10.4,5.775-18.227.909-20.04,12.427,19.684,10.611,15.33,20.328l-2.17,3.958H375.945s-7.609,8.992-18.83,8.638a117.021,117.021,0,0,0-14.134,0s-14.49,1.078-12.321,7.561l2.184,6.469s-25.7,1.418-35.148,0-16.158-1-16.887,6.542c-.471,3.948-1.329,8.234-.858,12.183,0,0-2.741-1.787-8.908-2.142s-2.17,3.234-2.17,6.836,2.268,3.561-4.17,4.8-12.229-.4-13.024,4.573-18.71,11.881-32.844,18.376c-3.627,1.8-14.862-.369-18.488,0s-6.167,3.235-10.879,2.512-11.606-2.157-7.624-5.76,3.269-10.44,3.269-10.44l-23.2,1.078s-7.981.723-20.673-6.483-15.947-4.354-15.947-4.354" transform="translate(-125.296 -56.645)" fill="none" stroke="#b2b4b9" stroke-linecap="round" stroke-linejoin="bevel" stroke-width="1.5" fill-rule="evenodd"/>
      <path id="Path_5886" data-name="Path 5886" d="M330.52,84.457c8.566,1.049,7.837,1.773,11.507,6.5s6.21,4.739,14.276,5.093,10.608,2.184,13.534,5.092,9.15,1.816,16.831,2.184,5.126,2.838,5.126,2.838,13.163-1.42,21.943,0,16.946,8.723,26.4,9.815,6.9-.738,6.539,17.8.585,21.094.585,21.094.871-.738,15.5,5.079,28.167,5.886,21.2,37.093c-3.842,17.265-48.82,55.688-45.417,71.567" transform="translate(-38.297 -44.854)" fill="none" stroke="#b2b4b9" stroke-linecap="round" stroke-linejoin="bevel" stroke-width="1.5" fill-rule="evenodd"/>
      <path id="Path_5887" data-name="Path 5887" d="M311.042,312.138V296.109s.242-1.76,11.42-8.753,16.432-10.483,24.657-9.93-1.77-5.263,0-8.751,8.794-7.59,8.794-7.59,5.867,5.83,30.523,5.83c0,0,33.061,5.644,57.762,0,12.647-2.89,17.694-9.631,25.319-13.275,6.56-3.134,13.842-12.495,13.842-12.495M237.767,148.583c1.67,5.972,2.77,4.866,7.695,13.574s4.854,9.25,6.811,11.972,12.848.54,23.284,0,4.383,3.264,4.927,6.526-.543,3.83,7.666,3.007,15.875-2.836,15.319.327a94.925,94.925,0,0,0-1.642,10.651c0,2.328-2.67,9.93,1.67,18.639s4.2,9.25,7.551,11.349" transform="translate(-83.109 -17.67)" fill="none" stroke="#b2b4b9" stroke-linecap="round" stroke-linejoin="bevel" stroke-width="1.5" fill-rule="evenodd"/>
      <path id="Path_5888" data-name="Path 5888" d="M291.493,202.015c7,1.121,9.536-.142,14.605,3.631s8.237-5.036,5.069,3.788-5.711,8.185-2.542,13.22,4.44,5.674,10.15,8.81,17.56,7.007,17.56,7.007" transform="translate(-63.56 4.981)" fill="none" stroke="#b2b4b9" stroke-linecap="round" stroke-linejoin="bevel" stroke-width="1.5" fill-rule="evenodd"/>
      <path id="Path_5940" data-name="Path 5940" d="M341.985,112.656s37.835-.716,53.088-14.681,12.414-26.5,24.475-27.572a50.046,50.046,0,0,1,21.992,3.223" transform="translate(105.566 21.679)" fill="none" stroke="#b2b4b9" stroke-linecap="round" stroke-linejoin="bevel" stroke-width="1.5"/>
    </g>
    <g id="Center-2" data-name="Center">
      <path id="Path_6031" data-name="Path 6031" d="M511.239,161.541l-.161-31.74s.663-3.21-.453-4.66-1.8-.64-4.01-1.14l-5.209-1.175-7.637-2.572a55.327,55.327,0,0,0-14.59-6.244c-7.673-1.848-10.076-.883-15.856-1.13s-5.469,1.175-7.212.724.421-2.174-4.005-3-13.7-.3-13.7-.3a6.954,6.954,0,0,1-4.3-1.221c-2.346-1.491-1.857-2.155-5.767-3.858s-6.239-1.576-10.8-2.271-4.469.484-7.455-.509-2.3-1.321-4.487-3.465-1.628-3.392-4.265-5.111-6.931-1.706-6.931-1.706l-11.55-.554s-8.861,6.3-8.633,9,6.534,1.024,9.445,2.34,4.078,1.057,2.685,2.271-1.264.914-4.872,2.049-5.833,1.538-9.047,3.03a13.525,13.525,0,0,0-4.323,2.784,7.94,7.94,0,0,0-1.357,2.49,13.032,13.032,0,0,0-.467,3.267s-1.168,2.35,1.824,5.215,5.4,3.55,10.146,6.244,4.448,4.634,4.6,5.515a3.97,3.97,0,0,1,0,1.488s-1.819,3.1-2.293,3.775-2.978.588-2.978.588H351.367l-6.169,5.5-5.855,2.914-6.2.725-11.367.107-8.873.872s-3.414.442-5.12,1.933a8.306,8.306,0,0,0-2.29,3.678l2.29,6.273-.7,1.48-5.556.548h-8.814l-22.651-1.262-5.891-.766s-4.2.386-6.43,2.028-3.5,6.569-3.5,6.569V179.4l1.229,7.59,7.676,11.073,4.265,8.8,1.706,3.123h16.206s4.973-.031,8.26.062,4.665-.427,4.888.309-.6,2.574-.6,2.574a7.209,7.209,0,0,0-.89,2.449,13.024,13.024,0,0,0,0,3.123A4.058,4.058,0,0,0,298.8,220.2a5.315,5.315,0,0,0,2.709,0l12.9-1.691,5.6.28v3.529s-1.582,8.366-2.009,14.47a16.935,16.935,0,0,0,2.009,9.829,51.381,51.381,0,0,0,3.676,9.484c2.017,3.5,2.254,3.544,4.393,4.531s3.577.641,5.606,1.007,2.316-.195,4.393.638a21.148,21.148,0,0,1,4.9,2.716,5.178,5.178,0,0,0,3.692.886l1.547-.453-4.325,11a12.333,12.333,0,0,0,2.392,5.657,40.148,40.148,0,0,0,6.274,6.2l5.333,2.715,12.268,4.873,6.145,2.706s8.018,2.538,13.776,3.673a40.373,40.373,0,0,0,9.6.869h4.2s3.138.41,7.4.836,9.656.867,9.656.867h26.726a92.908,92.908,0,0,0,9.676-.677,31.8,31.8,0,0,0,8.2-1.765,31.15,31.15,0,0,0,7.93-3.3c4.7-2.513,10.871-6.747,10.871-6.747l13.079-9.937,4.985-5.044.161-6.426,4.521-8.689,6.255-9.369,8.246-10.221,5.97-6.814,7.108-9.086L543.2,215.1l6.255-13.628v-15.9l-4.834-9.653-17.059-7.643-12.613-5.323Z" transform="translate(907.474 2869.282)" fill="url(#radial-gradient)"/>
    </g>
  </g>
</svg>
