<svg xmlns="http://www.w3.org/2000/svg" xmlns:xlink="http://www.w3.org/1999/xlink" width="162.243" height="125.993" viewBox="0 0 162.243 125.993">
  <defs>
    <linearGradient id="linear-gradient" y1="0.5" x2="1" y2="0.5" gradientUnits="objectBoundingBox">
      <stop offset="0" stop-color="#fff"/>
      <stop offset="0.251" stop-color="#dcddde"/>
      <stop offset="0.523" stop-color="#bcbec0"/>
      <stop offset="1" stop-color="#bcbec0"/>
    </linearGradient>
    <linearGradient id="linear-gradient-2" y1="0.5" x2="1" y2="0.5" gradientUnits="objectBoundingBox">
      <stop offset="0" stop-color="#fff"/>
      <stop offset="0.42" stop-color="#eaeaeb"/>
      <stop offset="1" stop-color="#d1d3d4"/>
    </linearGradient>
    <linearGradient id="linear-gradient-3" y1="0.5" x2="1" y2="0.5" gradientUnits="objectBoundingBox">
      <stop offset="0" stop-color="#fff"/>
      <stop offset="0.42" stop-color="#eaeaeb"/>
      <stop offset="1" stop-color="#d1d3d4"/>
    </linearGradient>
    <linearGradient id="linear-gradient-4" y1="0.5" x2="1" y2="0.5" gradientUnits="objectBoundingBox">
      <stop offset="0" stop-color="#fff"/>
      <stop offset="0.42" stop-color="#eaeaeb"/>
      <stop offset="1" stop-color="#d1d3d4"/>
    </linearGradient>
    <linearGradient id="linear-gradient-5" x1="0.851" y1="0.198" x2="0.055" y2="0.819" xlink:href="#linear-gradient-4"/>
    <linearGradient id="linear-gradient-7" x1="0" y1="0.5" x2="1" y2="0.5" xlink:href="#linear-gradient-4"/>
    <linearGradient id="linear-gradient-9" x1="0.995" y1="0.5" x2="0.01" y2="0.5" gradientUnits="objectBoundingBox">
      <stop offset="0" stop-color="#fff"/>
      <stop offset="0.419" stop-color="#eaeaeb"/>
      <stop offset="0.999" stop-color="#d1d3d4"/>
      <stop offset="1" stop-color="#d1d3d4"/>
    </linearGradient>
    <linearGradient id="linear-gradient-10" x1="0" y1="0.5" x2="1" y2="0.5" xlink:href="#linear-gradient-4"/>
    <linearGradient id="linear-gradient-11" y1="0.5" x2="1" y2="0.5" gradientUnits="objectBoundingBox">
      <stop offset="0" stop-color="#fff"/>
      <stop offset="0.419" stop-color="#eaeaeb"/>
      <stop offset="0.999" stop-color="#d1d3d4"/>
      <stop offset="1" stop-color="#d1d3d4"/>
    </linearGradient>
    <linearGradient id="linear-gradient-12" y1="0.5" x2="1" y2="0.5" gradientUnits="objectBoundingBox">
      <stop offset="0" stop-color="#fff"/>
      <stop offset="0.179" stop-color="#fff"/>
      <stop offset="0.524" stop-color="#eaeaeb"/>
      <stop offset="1" stop-color="#d1d3d4"/>
    </linearGradient>
    <linearGradient id="linear-gradient-13" y1="0.5" x2="1" y2="0.5" gradientUnits="objectBoundingBox">
      <stop offset="0" stop-color="#fff"/>
      <stop offset="0.419" stop-color="#eaeaeb"/>
      <stop offset="0.998" stop-color="#d1d3d4"/>
      <stop offset="1" stop-color="#d1d3d4"/>
    </linearGradient>
  </defs>
  <g id="Egle" transform="translate(0)">
    <ellipse id="Ellipse_170" data-name="Ellipse 170" cx="49.076" cy="11.778" rx="49.076" ry="11.778" transform="translate(32.046 102.437)" fill="#1c1f2a" opacity="0.15"/>
    <g id="Group_23121" data-name="Group 23121">
      <path id="Path_5951" data-name="Path 5951" d="M668.356,302.866l59.712-13.021v0l-3.41,6.5L668.52,315.387Z" transform="translate(-565.825 -270.711)" fill="url(#linear-gradient)"/>
      <path id="Path_5952" data-name="Path 5952" d="M676.869,312.849l56.138-19.035-77.712,42.844Z" transform="translate(-574.174 -268.174)" fill="url(#linear-gradient-2)"/>
      <path id="Path_5953" data-name="Path 5953" d="M655.295,335.381V295.814l0,0,21.409,3.239.164,12.521L655.3,335.381Z" transform="translate(-574.174 -266.897)" fill="url(#linear-gradient-3)"/>
      <path id="Path_5954" data-name="Path 5954" d="M655.295,333.444l45.686-25.159-45.686,34.588Z" transform="translate(-574.174 -258.924)" fill="url(#linear-gradient-4)"/>
      <path id="Path_5955" data-name="Path 5955" d="M655.295,355.835V342.808l45.522-34.423-9,16.437L655.3,355.835Z" transform="translate(-574.174 -258.859)" fill="url(#linear-gradient-5)"/>
      <path id="Path_5956" data-name="Path 5956" d="M609.22,296.352l-3.411-6.508,59.42,13.106.128,12.3v.134Z" transform="translate(-605.809 -270.712)" fill="url(#linear-gradient-3)"/>
      <path id="Path_5957" data-name="Path 5957" d="M607.89,293.814l56.138,19.035L685.6,336.658Z" transform="translate(-604.478 -268.174)" fill="url(#linear-gradient-7)"/>
      <path id="Path_5958" data-name="Path 5958" d="M642.186,311.572l-.13-12.437,21.7-3.323v39.569Z" transform="translate(-582.637 -266.897)" fill="url(#linear-gradient-3)"/>
      <path id="Path_5959" data-name="Path 5959" d="M627.427,308.284l45.685,25.159v9.429Z" transform="translate(-591.989 -258.924)" fill="url(#linear-gradient-9)"/>
      <path id="Path_5960" data-name="Path 5960" d="M636.524,324.822l-9-16.437,45.523,34.423v13.027Z" transform="translate(-591.926 -258.859)" fill="url(#linear-gradient-10)"/>
      <path id="Path_5961" data-name="Path 5961" d="M655.383,301.657v-4.431l-.062-19.052h0l8.785,1.952-.5,5.665,7.121,18.092Z" transform="translate(-574.158 -278.172)" fill="url(#linear-gradient-11)"/>
      <path id="Path_5962" data-name="Path 5962" d="M647.275,284.709,650.3,287.3,645.8,299.7l15.665-2.226v-3.947a8.117,8.117,0,0,0-.1-1.162,7,7,0,0,0-3.555-4.724c-.367-.207-.731-.4-1.067-.585-.489-.266-.967-.48-1.441-.692-.3-.131-.595-.251-.875-.362a19.593,19.593,0,0,0-2.785-.861,26.752,26.752,0,0,0-4.228-.443c-.065,0-.139.007-.139.007" transform="translate(-580.243 -273.999)" fill="url(#linear-gradient-12)"/>
      <path id="Path_5963" data-name="Path 5963" d="M653.183,284.371l3.008-2.013,2.661-.646,2.9.646-.167,1.867-2.426,1.1-6.473.018Zm1.4-4.241-9.126,6.106-1.587,2.557c1.939,0,3.488.028,4.782.082a26.757,26.757,0,0,1,4.228.443,19.582,19.582,0,0,1,2.785.861c.29.11.577.231.875.362.474.212.952.426,1.441.692.336.185.7.379,1.067.585a7.661,7.661,0,0,1,3.21,3.521,5.86,5.86,0,0,1,.346,1.2,6.535,6.535,0,0,1,.1,1.056l-.057-19.425Z" transform="translate(-581.479 -278.173)" fill="url(#linear-gradient-13)"/>
    </g>
  </g>
</svg>
